%
M48
M72
T01C0.0200
T02C0.0394
T03C0.0400
%
T01
X7972Y3730
X8852Y6200
X10502Y7230
X8852Y8570
X7112Y9290
X5552Y10400
X12902Y6100
X15182Y6760
X16102Y6450
X16352Y6000
X15552Y5800
X14992Y4860
X17452Y6300
X17852Y6000
X18252Y5700
X18852Y5400
X19552Y5350
X20452Y4600
X21352Y5500
X21852Y4400
X22502Y4370
X24952Y4250
X25782Y4820
X28202Y3550
X21852Y7200
X25272Y8390
X24252Y10200
X24252Y10900
X24252Y11700
X24252Y12500
X24252Y13300
X25352Y14400
X25352Y15480
X25352Y16500
X27352Y18300
X28152Y15900
X28152Y15000
X28152Y14000
X29052Y13000
X25942Y12530
X14502Y9150
T02
X14752Y1500
X15752Y1500
X16752Y1500
X17752Y1500
X18752Y1500
X19752Y1500
X20752Y1500
X22752Y1500
X23752Y1500
X24752Y1500
X25752Y1500
X26752Y1500
X27752Y1500
X13752Y1500
X13252Y20500
X14252Y20500
X15252Y20500
X16252Y20500
X17252Y20500
X18252Y20500
X19252Y20500
X20752Y20500
X21752Y20500
X22752Y20500
X23752Y20500
X24752Y20500
X25752Y20500
X26752Y20500
X27752Y20500
X12252Y20500
X11252Y20500
X10252Y20500
T03
X4252Y4444
X4252Y5822
X4252Y7200
X4252Y8578
X4252Y9956
X7102Y11250
X7102Y12250
X7102Y13250
X7102Y14250
X4252Y16311
X4252Y17689
X4452Y19600
X5452Y19600
X6452Y19600
X6452Y20600
X5452Y20600
X4452Y20600
X10252Y19250
X11252Y19250
X12252Y19250
X13252Y19250
X14252Y19250
X15252Y19250
X16252Y19250
X17252Y19250
X18252Y19250
X19252Y19250
X20752Y19250
X21752Y19250
X22752Y19250
X23752Y19250
X24752Y19250
X25752Y19250
X26752Y19250
X27752Y19250
X21252Y16800
X20252Y16800
X19252Y16800
X18252Y16800
X17252Y16800
X16252Y16800
X15252Y16800
X14252Y16800
X13252Y16800
X12252Y16800
X11252Y16800
X10252Y16800
X10252Y15800
X11252Y15800
X12252Y15800
X12252Y14800
X11252Y14800
X10252Y14800
X10252Y13800
X11252Y13800
X12252Y13800
X12252Y12800
X11252Y12800
X10252Y12800
X10252Y11800
X11252Y11800
X12252Y11800
X13252Y11800
X14252Y11800
X15252Y11800
X16252Y11800
X17252Y11800
X18252Y11800
X19252Y11800
X20252Y11800
X21252Y11800
X21252Y12800
X20252Y12800
X19252Y12800
X18252Y12800
X17252Y12800
X16252Y12800
X15252Y12800
X14252Y12800
X13252Y12800
X13252Y13800
X14252Y13800
X15252Y13800
X16252Y13800
X17252Y13800
X18252Y13800
X19252Y13800
X20252Y13800
X21252Y13800
X21252Y14800
X20252Y14800
X19252Y14800
X18252Y14800
X17252Y14800
X16252Y14800
X15252Y14800
X14252Y14800
X13252Y14800
X13252Y15800
X14252Y15800
X15252Y15800
X16252Y15800
X17252Y15800
X18252Y15800
X19252Y15800
X20252Y15800
X21252Y15800
X28252Y11156
X28252Y9778
X28252Y8400
X28252Y7022
X28252Y5644
X27752Y2750
X26752Y2750
X25752Y2750
X24752Y2750
X23752Y2750
X22752Y2750
X20752Y2750
X19752Y2750
X18752Y2750
X17752Y2750
X16752Y2750
X15752Y2750
X14752Y2750
X13752Y2750
X12552Y2750
X12552Y1750
X10041Y1900
X8663Y1900
X12052Y4100
X13052Y4100
X14052Y4100
M30
