G75*
%MOIN*%
%OFA0B0*%
%FSLAX24Y24*%
%IPPOS*%
%LPD*%
%AMOC8*
5,1,8,0,0,1.08239X$1,22.5*
%
%ADD10OC8,0.0740*%
%ADD11R,0.0820X0.0820*%
%ADD12C,0.0820*%
%ADD13R,0.0671X0.0237*%
%ADD14R,0.0470X0.0200*%
%ADD15C,0.0880*%
%ADD16R,0.0880X0.0880*%
%ADD17R,0.0631X0.1104*%
%ADD18R,0.2521X0.2206*%
%ADD19R,0.0710X0.0474*%
%ADD20R,0.0395X0.0395*%
%ADD21R,0.0513X0.0474*%
%ADD22R,0.1104X0.0631*%
%ADD23R,0.0330X0.0580*%
%ADD24R,0.0474X0.0513*%
%ADD25R,0.0592X0.0690*%
D10*
X013752Y001500D03*
X014752Y001500D03*
X015752Y001500D03*
X016752Y001500D03*
X017752Y001500D03*
X018752Y001500D03*
X019752Y001500D03*
X020752Y001500D03*
X022752Y001500D03*
X023752Y001500D03*
X024752Y001500D03*
X025752Y001500D03*
X026752Y001500D03*
X027752Y001500D03*
X027752Y020500D03*
X026752Y020500D03*
X025752Y020500D03*
X024752Y020500D03*
X023752Y020500D03*
X022752Y020500D03*
X021752Y020500D03*
X020752Y020500D03*
X019252Y020500D03*
X018252Y020500D03*
X017252Y020500D03*
X016252Y020500D03*
X015252Y020500D03*
X014252Y020500D03*
X013252Y020500D03*
X012252Y020500D03*
X011252Y020500D03*
X010252Y020500D03*
D11*
X010252Y019250D03*
X004452Y019600D03*
X007102Y014250D03*
X020752Y019250D03*
X012052Y004100D03*
X012552Y001750D03*
X020752Y002750D03*
X027752Y002750D03*
D12*
X026752Y002750D03*
X025752Y002750D03*
X024752Y002750D03*
X023752Y002750D03*
X022752Y002750D03*
X019752Y002750D03*
X018752Y002750D03*
X017752Y002750D03*
X016752Y002750D03*
X015752Y002750D03*
X014752Y002750D03*
X013752Y002750D03*
X012552Y002750D03*
X013052Y004100D03*
X014052Y004100D03*
X007102Y011250D03*
X007102Y012250D03*
X007102Y013250D03*
X010252Y012800D03*
X011252Y012800D03*
X012252Y012800D03*
X012252Y013800D03*
X011252Y013800D03*
X010252Y013800D03*
X010252Y014800D03*
X011252Y014800D03*
X012252Y014800D03*
X012252Y015800D03*
X011252Y015800D03*
X010252Y015800D03*
X010252Y016800D03*
X011252Y016800D03*
X012252Y016800D03*
X013252Y016800D03*
X014252Y016800D03*
X015252Y016800D03*
X016252Y016800D03*
X017252Y016800D03*
X018252Y016800D03*
X019252Y016800D03*
X020252Y016800D03*
X021252Y016800D03*
X021252Y015800D03*
X020252Y015800D03*
X019252Y015800D03*
X018252Y015800D03*
X017252Y015800D03*
X016252Y015800D03*
X015252Y015800D03*
X014252Y015800D03*
X013252Y015800D03*
X013252Y014800D03*
X014252Y014800D03*
X015252Y014800D03*
X016252Y014800D03*
X017252Y014800D03*
X018252Y014800D03*
X019252Y014800D03*
X020252Y014800D03*
X021252Y014800D03*
X021252Y013800D03*
X020252Y013800D03*
X019252Y013800D03*
X018252Y013800D03*
X017252Y013800D03*
X016252Y013800D03*
X015252Y013800D03*
X014252Y013800D03*
X013252Y013800D03*
X013252Y012800D03*
X014252Y012800D03*
X015252Y012800D03*
X016252Y012800D03*
X017252Y012800D03*
X018252Y012800D03*
X019252Y012800D03*
X020252Y012800D03*
X021252Y012800D03*
X021252Y011800D03*
X020252Y011800D03*
X019252Y011800D03*
X018252Y011800D03*
X017252Y011800D03*
X016252Y011800D03*
X015252Y011800D03*
X014252Y011800D03*
X013252Y011800D03*
X012252Y011800D03*
X011252Y011800D03*
X010252Y011800D03*
X011252Y019250D03*
X012252Y019250D03*
X013252Y019250D03*
X014252Y019250D03*
X015252Y019250D03*
X016252Y019250D03*
X017252Y019250D03*
X018252Y019250D03*
X019252Y019250D03*
X021752Y019250D03*
X022752Y019250D03*
X023752Y019250D03*
X024752Y019250D03*
X025752Y019250D03*
X026752Y019250D03*
X027752Y019250D03*
X006452Y019600D03*
X005452Y019600D03*
X005452Y020600D03*
X006452Y020600D03*
X004452Y020600D03*
D13*
X007025Y008507D03*
X007025Y008252D03*
X007025Y007996D03*
X007025Y007740D03*
X007025Y007484D03*
X007025Y007228D03*
X007025Y006972D03*
X007025Y006716D03*
X007025Y006460D03*
X007025Y006204D03*
X007025Y005948D03*
X007025Y005693D03*
X009880Y005693D03*
X009880Y005948D03*
X009880Y006204D03*
X009880Y006460D03*
X009880Y006716D03*
X009880Y006972D03*
X009880Y007228D03*
X009880Y007484D03*
X009880Y007740D03*
X009880Y007996D03*
X009880Y008252D03*
X009880Y008507D03*
X020625Y008407D03*
X020625Y008152D03*
X020625Y007896D03*
X020625Y007640D03*
X020625Y007384D03*
X020625Y007128D03*
X020625Y006872D03*
X020625Y006616D03*
X020625Y006360D03*
X020625Y006104D03*
X020625Y005848D03*
X020625Y005593D03*
X023480Y005593D03*
X023480Y005848D03*
X023480Y006104D03*
X023480Y006360D03*
X023480Y006616D03*
X023480Y006872D03*
X023480Y007128D03*
X023480Y007384D03*
X023480Y007640D03*
X023480Y007896D03*
X023480Y008152D03*
X023480Y008407D03*
D14*
X016901Y008407D03*
X016901Y008152D03*
X016901Y007896D03*
X016901Y007640D03*
X016901Y007384D03*
X016901Y007128D03*
X016901Y006872D03*
X016901Y006616D03*
X016901Y006360D03*
X016901Y006104D03*
X016901Y005848D03*
X016901Y005593D03*
X016901Y005337D03*
X014604Y005337D03*
X014604Y005593D03*
X014604Y005848D03*
X014604Y006104D03*
X014604Y006360D03*
X014604Y006616D03*
X014604Y006872D03*
X014604Y007128D03*
X014604Y007384D03*
X014604Y007640D03*
X014604Y007896D03*
X014604Y008152D03*
X014604Y008407D03*
X014604Y008663D03*
X016901Y008663D03*
D15*
X010041Y001900D03*
X004252Y004444D03*
X004252Y005822D03*
X004252Y007200D03*
X004252Y008578D03*
X004252Y016311D03*
X028252Y011156D03*
X028252Y009778D03*
X028252Y008400D03*
X028252Y007022D03*
D16*
X028252Y005644D03*
X008663Y001900D03*
X004252Y009956D03*
X004252Y017689D03*
D17*
X007662Y017927D03*
X007662Y016313D03*
D18*
X004568Y002100D03*
D19*
X007442Y001202D03*
X007442Y002998D03*
D20*
X011152Y002445D03*
X011152Y001855D03*
D21*
X010637Y004330D03*
X009968Y004330D03*
X009968Y004990D03*
X010637Y004990D03*
X013118Y005330D03*
X013787Y005330D03*
X018918Y004600D03*
X019587Y004600D03*
X023568Y004350D03*
X024237Y004350D03*
X026968Y004350D03*
X027637Y004350D03*
X026587Y013500D03*
X025918Y013500D03*
X025918Y014500D03*
X026587Y014500D03*
X026587Y015500D03*
X025918Y015500D03*
X025918Y016500D03*
X026587Y016500D03*
X026587Y017500D03*
X025918Y017500D03*
D22*
X019659Y009200D03*
X018045Y009200D03*
X012909Y009150D03*
X011295Y009150D03*
D23*
X027325Y013500D03*
X027680Y013500D03*
X027680Y014500D03*
X027325Y014500D03*
X027325Y015500D03*
X027680Y015500D03*
X027680Y016500D03*
X027325Y016500D03*
X027325Y017500D03*
X027680Y017500D03*
D24*
X028752Y004535D03*
X028752Y003865D03*
X028752Y003235D03*
X028752Y002565D03*
D25*
X005538Y011435D03*
X003767Y011435D03*
X003767Y014565D03*
X005538Y014565D03*
M02*
