G75*
%MOIN*%
%OFA0B0*%
%FSLAX24Y24*%
%IPPOS*%
%LPD*%
%AMOC8*
5,1,8,0,0,1.08239X$1,22.5*
%
%ADD10R,0.0591X0.0157*%
%ADD11R,0.0390X0.0120*%
%ADD12R,0.0551X0.1024*%
%ADD13R,0.0512X0.0610*%
%ADD14R,0.2441X0.2126*%
%ADD15R,0.0630X0.0394*%
%ADD16R,0.0315X0.0315*%
%ADD17R,0.0433X0.0394*%
%ADD18R,0.1024X0.0551*%
%ADD19R,0.0394X0.0433*%
D10*
X007025Y005693D03*
X007025Y005948D03*
X007025Y006204D03*
X007025Y006460D03*
X007025Y006716D03*
X007025Y006972D03*
X007025Y007228D03*
X007025Y007484D03*
X007025Y007740D03*
X007025Y007996D03*
X007025Y008252D03*
X007025Y008507D03*
X009880Y008507D03*
X009880Y008252D03*
X009880Y007996D03*
X009880Y007740D03*
X009880Y007484D03*
X009880Y007228D03*
X009880Y006972D03*
X009880Y006716D03*
X009880Y006460D03*
X009880Y006204D03*
X009880Y005948D03*
X009880Y005693D03*
X020625Y005593D03*
X020625Y005848D03*
X020625Y006104D03*
X020625Y006360D03*
X020625Y006616D03*
X020625Y006872D03*
X020625Y007128D03*
X020625Y007384D03*
X020625Y007640D03*
X020625Y007896D03*
X020625Y008152D03*
X020625Y008407D03*
X023480Y008407D03*
X023480Y008152D03*
X023480Y007896D03*
X023480Y007640D03*
X023480Y007384D03*
X023480Y007128D03*
X023480Y006872D03*
X023480Y006616D03*
X023480Y006360D03*
X023480Y006104D03*
X023480Y005848D03*
X023480Y005593D03*
D11*
X016901Y005593D03*
X016901Y005848D03*
X016901Y006104D03*
X016901Y006360D03*
X016901Y006616D03*
X016901Y006872D03*
X016901Y007128D03*
X016901Y007384D03*
X016901Y007640D03*
X016901Y007896D03*
X016901Y008152D03*
X016901Y008407D03*
X016901Y008663D03*
X014604Y008663D03*
X014604Y008407D03*
X014604Y008152D03*
X014604Y007896D03*
X014604Y007640D03*
X014604Y007384D03*
X014604Y007128D03*
X014604Y006872D03*
X014604Y006616D03*
X014604Y006360D03*
X014604Y006104D03*
X014604Y005848D03*
X014604Y005593D03*
X014604Y005337D03*
X016901Y005337D03*
D12*
X007662Y016313D03*
X007662Y017927D03*
D13*
X005538Y014515D03*
X003767Y014515D03*
X003767Y011385D03*
X005538Y011385D03*
D14*
X004568Y002100D03*
D15*
X007442Y001202D03*
X007442Y002998D03*
D16*
X011152Y002445D03*
X011152Y001855D03*
D17*
X010637Y004330D03*
X009968Y004330D03*
X009968Y004990D03*
X010637Y004990D03*
X013118Y005330D03*
X013787Y005330D03*
X018918Y004600D03*
X019587Y004600D03*
X023568Y004350D03*
X024237Y004350D03*
X026968Y004350D03*
X027637Y004350D03*
X026587Y013500D03*
X025918Y013500D03*
X025918Y014500D03*
X026587Y014500D03*
X026587Y015500D03*
X025918Y015500D03*
X025918Y016500D03*
X026587Y016500D03*
X026587Y017500D03*
X025918Y017500D03*
D18*
X019659Y009200D03*
X018045Y009200D03*
X012909Y009150D03*
X011295Y009150D03*
D19*
X028752Y004535D03*
X028752Y003865D03*
X028752Y003235D03*
X028752Y002565D03*
M02*
