G75*
G70*
%OFA0B0*%
%FSLAX24Y24*%
%IPPOS*%
%LPD*%
%AMOC8*
5,1,8,0,0,1.08239X$1,22.5*
%
%ADD10C,0.0100*%
%ADD11OC8,0.0660*%
%ADD12C,0.0740*%
%ADD13R,0.0591X0.0157*%
%ADD14R,0.0390X0.0120*%
%ADD15C,0.0800*%
%ADD16R,0.0256X0.0866*%
%ADD17R,0.0512X0.0610*%
%ADD18R,0.2441X0.2126*%
%ADD19R,0.0630X0.0394*%
%ADD20R,0.0315X0.0315*%
%ADD21R,0.0433X0.0394*%
%ADD22R,0.0866X0.0256*%
%ADD23R,0.0250X0.0500*%
%ADD24R,0.0394X0.0433*%
%ADD25C,0.0160*%
%ADD26C,0.0360*%
D10*
X002752Y000500D02*
X002752Y021500D01*
X028152Y021500D01*
X028752Y020900D01*
X028752Y016400D01*
X029752Y015400D01*
X029752Y002500D01*
X028752Y001500D01*
X028752Y000500D01*
X002752Y000500D01*
X005959Y001000D02*
X005959Y001450D01*
X006802Y001450D01*
X006894Y001488D01*
X006964Y001558D01*
X007056Y001650D01*
X008150Y001650D01*
X008180Y001577D01*
X008341Y001417D01*
X008550Y001330D01*
X008777Y001330D01*
X008986Y001417D01*
X009147Y001577D01*
X009233Y001787D01*
X009233Y002013D01*
X009147Y002223D01*
X008986Y002383D01*
X008777Y002470D01*
X008550Y002470D01*
X008341Y002383D01*
X008180Y002223D01*
X008150Y002150D01*
X006903Y002150D01*
X006811Y002112D01*
X006649Y001950D01*
X005959Y001950D01*
X005959Y003233D01*
X005859Y003333D01*
X003277Y003333D01*
X003252Y003308D01*
X003252Y021000D01*
X004118Y021000D01*
X004114Y020997D01*
X004056Y020939D01*
X004008Y020873D01*
X003970Y020800D01*
X003945Y020722D01*
X003934Y020650D01*
X004402Y020650D01*
X004402Y020550D01*
X003934Y020550D01*
X003945Y020478D01*
X003970Y020400D01*
X004008Y020327D01*
X004056Y020261D01*
X004114Y020203D01*
X004180Y020155D01*
X004253Y020118D01*
X004308Y020100D01*
X004253Y020082D01*
X004180Y020045D01*
X004114Y019997D01*
X004056Y019939D01*
X004008Y019873D01*
X003970Y019800D01*
X003945Y019722D01*
X003934Y019650D01*
X004402Y019650D01*
X004402Y019550D01*
X003934Y019550D01*
X003945Y019478D01*
X003970Y019400D01*
X004008Y019327D01*
X004056Y019261D01*
X004114Y019203D01*
X004180Y019155D01*
X004253Y019118D01*
X004331Y019093D01*
X004402Y019081D01*
X004402Y019550D01*
X004502Y019550D01*
X004502Y019081D01*
X004574Y019093D01*
X004652Y019118D01*
X004725Y019155D01*
X004791Y019203D01*
X004849Y019261D01*
X004897Y019327D01*
X004934Y019400D01*
X004941Y019422D01*
X004995Y019294D01*
X005146Y019142D01*
X005202Y019119D01*
X005202Y018704D01*
X004623Y018124D01*
X004575Y018172D01*
X004366Y018259D01*
X004139Y018259D01*
X003929Y018172D01*
X003769Y018012D01*
X003682Y017802D01*
X003682Y017576D01*
X003769Y017366D01*
X003929Y017206D01*
X004139Y017119D01*
X004366Y017119D01*
X004575Y017206D01*
X004736Y017366D01*
X004822Y017576D01*
X004822Y017616D01*
X005556Y018350D01*
X007349Y018350D01*
X007443Y018256D01*
X007443Y017365D01*
X007543Y017265D01*
X007939Y017265D01*
X008039Y017365D01*
X008039Y018372D01*
X007939Y018471D01*
X007935Y018471D01*
X007894Y018512D01*
X007594Y018812D01*
X007502Y018850D01*
X005702Y018850D01*
X005702Y019119D01*
X005758Y019142D01*
X005910Y019294D01*
X005952Y019396D01*
X005995Y019294D01*
X006146Y019142D01*
X006345Y019060D01*
X006560Y019060D01*
X006758Y019142D01*
X006910Y019294D01*
X006946Y019380D01*
X007279Y019380D01*
X007293Y019369D01*
X007368Y019380D01*
X007443Y019380D01*
X007456Y019393D01*
X007474Y019395D01*
X007519Y019455D01*
X007572Y019509D01*
X007572Y019527D01*
X007762Y019780D01*
X010121Y019780D01*
X009946Y019708D01*
X007708Y019708D01*
X007634Y019609D02*
X009848Y019609D01*
X009795Y019556D02*
X009712Y019357D01*
X009712Y019143D01*
X009795Y018944D01*
X009946Y018792D01*
X010145Y018710D01*
X010360Y018710D01*
X010558Y018792D01*
X010710Y018944D01*
X010752Y019046D01*
X010795Y018944D01*
X010946Y018792D01*
X011145Y018710D01*
X011360Y018710D01*
X011558Y018792D01*
X011710Y018944D01*
X011752Y019046D01*
X011795Y018944D01*
X011946Y018792D01*
X012145Y018710D01*
X012360Y018710D01*
X012558Y018792D01*
X012710Y018944D01*
X012752Y019046D01*
X012795Y018944D01*
X012946Y018792D01*
X013145Y018710D01*
X013360Y018710D01*
X013558Y018792D01*
X013710Y018944D01*
X013752Y019046D01*
X013795Y018944D01*
X013946Y018792D01*
X014145Y018710D01*
X014360Y018710D01*
X014558Y018792D01*
X014710Y018944D01*
X014752Y019046D01*
X014795Y018944D01*
X014946Y018792D01*
X015145Y018710D01*
X015360Y018710D01*
X015558Y018792D01*
X015710Y018944D01*
X015752Y019046D01*
X015795Y018944D01*
X015946Y018792D01*
X016145Y018710D01*
X016360Y018710D01*
X016558Y018792D01*
X016710Y018944D01*
X016752Y019046D01*
X016795Y018944D01*
X016946Y018792D01*
X017145Y018710D01*
X017360Y018710D01*
X017558Y018792D01*
X017710Y018944D01*
X017752Y019046D01*
X017795Y018944D01*
X017946Y018792D01*
X018145Y018710D01*
X018360Y018710D01*
X018558Y018792D01*
X018710Y018944D01*
X018752Y019046D01*
X018795Y018944D01*
X018946Y018792D01*
X019145Y018710D01*
X019360Y018710D01*
X019558Y018792D01*
X019710Y018944D01*
X019792Y019143D01*
X019792Y019357D01*
X019710Y019556D01*
X019558Y019708D01*
X019360Y019790D01*
X019145Y019790D01*
X018946Y019708D01*
X018558Y019708D01*
X018360Y019790D01*
X018145Y019790D01*
X017946Y019708D01*
X017558Y019708D01*
X017384Y019780D01*
X017843Y019780D01*
X018063Y020000D01*
X018459Y020000D01*
X018752Y020293D01*
X018752Y020630D01*
X018752Y020293D01*
X019045Y020000D01*
X019459Y020000D01*
X019752Y020293D01*
X019752Y020707D01*
X019459Y021000D01*
X019045Y021000D01*
X019023Y020978D01*
X018996Y021000D01*
X027945Y021000D01*
X027945Y021000D01*
X027545Y021000D01*
X027252Y020707D01*
X026959Y021000D01*
X026545Y021000D01*
X026252Y020707D01*
X025959Y021000D01*
X025545Y021000D01*
X025252Y020707D01*
X024959Y021000D01*
X024545Y021000D01*
X024252Y020707D01*
X023959Y021000D01*
X023545Y021000D01*
X023252Y020707D01*
X022959Y021000D01*
X022545Y021000D01*
X022252Y020707D01*
X021959Y021000D01*
X021545Y021000D01*
X021252Y020707D01*
X020959Y021000D01*
X020545Y021000D01*
X020252Y020707D01*
X020252Y020293D01*
X020545Y020000D01*
X020959Y020000D01*
X021252Y020293D01*
X021252Y020707D01*
X021252Y020293D01*
X021545Y020000D01*
X021959Y020000D01*
X022252Y020293D01*
X022252Y020707D01*
X022252Y020293D01*
X022545Y020000D01*
X022959Y020000D01*
X023252Y020293D01*
X023252Y020707D01*
X023252Y020293D01*
X023545Y020000D01*
X023959Y020000D01*
X024252Y020293D01*
X024252Y020707D01*
X024252Y020293D01*
X024545Y020000D01*
X024959Y020000D01*
X025252Y020293D01*
X025252Y020707D01*
X025252Y020293D01*
X025545Y020000D01*
X025959Y020000D01*
X026252Y020293D01*
X026252Y020707D01*
X026252Y020293D01*
X026545Y020000D01*
X026959Y020000D01*
X027252Y020293D01*
X027252Y020707D01*
X027252Y020293D01*
X027545Y020000D01*
X027959Y020000D01*
X028252Y020293D01*
X028252Y020693D01*
X028252Y020693D01*
X028252Y019454D01*
X028210Y019556D01*
X028058Y019708D01*
X027860Y019790D01*
X027645Y019790D01*
X027446Y019708D01*
X027058Y019708D01*
X026860Y019790D01*
X026645Y019790D01*
X026446Y019708D01*
X026058Y019708D01*
X025860Y019790D01*
X025645Y019790D01*
X025446Y019708D01*
X025058Y019708D01*
X024860Y019790D01*
X024645Y019790D01*
X024446Y019708D01*
X024058Y019708D01*
X023860Y019790D01*
X023645Y019790D01*
X023446Y019708D01*
X023058Y019708D01*
X022860Y019790D01*
X022645Y019790D01*
X022446Y019708D01*
X022058Y019708D01*
X021860Y019790D01*
X021645Y019790D01*
X021446Y019708D01*
X021058Y019708D01*
X020860Y019790D01*
X020645Y019790D01*
X020446Y019708D01*
X019558Y019708D01*
X019657Y019609D02*
X020348Y019609D01*
X020295Y019556D02*
X020212Y019357D01*
X020212Y019143D01*
X020295Y018944D01*
X020446Y018792D01*
X020645Y018710D01*
X020860Y018710D01*
X021058Y018792D01*
X021210Y018944D01*
X021252Y019046D01*
X021295Y018944D01*
X021446Y018792D01*
X021645Y018710D01*
X021860Y018710D01*
X022058Y018792D01*
X022210Y018944D01*
X022252Y019046D01*
X022295Y018944D01*
X022446Y018792D01*
X022645Y018710D01*
X022860Y018710D01*
X023058Y018792D01*
X023210Y018944D01*
X023252Y019046D01*
X023295Y018944D01*
X023446Y018792D01*
X023645Y018710D01*
X023860Y018710D01*
X024058Y018792D01*
X024210Y018944D01*
X024252Y019046D01*
X024295Y018944D01*
X024446Y018792D01*
X024645Y018710D01*
X024860Y018710D01*
X025058Y018792D01*
X025210Y018944D01*
X025252Y019046D01*
X025295Y018944D01*
X025446Y018792D01*
X025645Y018710D01*
X025860Y018710D01*
X026058Y018792D01*
X026210Y018944D01*
X026252Y019046D01*
X026295Y018944D01*
X026446Y018792D01*
X026645Y018710D01*
X026860Y018710D01*
X027058Y018792D01*
X027210Y018944D01*
X027252Y019046D01*
X027295Y018944D01*
X027446Y018792D01*
X027645Y018710D01*
X027860Y018710D01*
X028058Y018792D01*
X028210Y018944D01*
X028252Y019046D01*
X028252Y016301D01*
X028284Y016224D01*
X028222Y016250D01*
X028113Y016250D01*
X027975Y016389D01*
X027975Y016820D01*
X027875Y016920D01*
X027130Y016920D01*
X027030Y016820D01*
X027030Y016720D01*
X026974Y016720D01*
X026974Y016767D01*
X026874Y016867D01*
X026530Y016867D01*
X026643Y016980D01*
X026643Y016980D01*
X026772Y017109D01*
X026772Y017133D01*
X026874Y017133D01*
X026974Y017233D01*
X026974Y017280D01*
X027030Y017280D01*
X027030Y017180D01*
X027130Y017080D01*
X027875Y017080D01*
X027975Y017180D01*
X027975Y017820D01*
X027972Y017823D01*
X027972Y017991D01*
X027702Y018261D01*
X027702Y018370D01*
X027649Y018498D01*
X027551Y018597D01*
X027422Y018650D01*
X027283Y018650D01*
X027154Y018597D01*
X027056Y018498D01*
X027002Y018370D01*
X027002Y018230D01*
X027003Y018230D02*
X008039Y018230D01*
X008039Y018132D02*
X027043Y018132D01*
X027056Y018102D02*
X027154Y018003D01*
X027283Y017950D01*
X027391Y017950D01*
X027421Y017920D01*
X027130Y017920D01*
X027030Y017820D01*
X027030Y017720D01*
X026974Y017720D01*
X026974Y017767D01*
X026874Y017867D01*
X026300Y017867D01*
X026238Y017805D01*
X026226Y017817D01*
X026192Y017837D01*
X026154Y017847D01*
X025966Y017847D01*
X025966Y017548D01*
X025869Y017548D01*
X025869Y017452D01*
X025551Y017452D01*
X025551Y017283D01*
X025561Y017245D01*
X025576Y017220D01*
X025061Y017220D01*
X024932Y017091D01*
X024261Y016420D01*
X024132Y016291D01*
X024132Y013629D01*
X024054Y013597D01*
X023956Y013498D01*
X023902Y013370D01*
X023902Y013230D01*
X023956Y013102D01*
X024054Y013003D01*
X024183Y012950D01*
X024322Y012950D01*
X024432Y012996D01*
X024432Y012991D01*
X024291Y012850D01*
X024183Y012850D01*
X024054Y012797D01*
X023956Y012698D01*
X023902Y012570D01*
X023902Y012430D01*
X023956Y012302D01*
X024054Y012203D01*
X024183Y012150D01*
X024322Y012150D01*
X024440Y012199D01*
X024291Y012050D01*
X024183Y012050D01*
X024054Y011997D01*
X023956Y011898D01*
X023902Y011770D01*
X023902Y011630D01*
X023956Y011502D01*
X024054Y011403D01*
X024183Y011350D01*
X024322Y011350D01*
X024440Y011399D01*
X024291Y011250D01*
X024183Y011250D01*
X024054Y011197D01*
X023956Y011098D01*
X023902Y010970D01*
X023902Y010830D01*
X023956Y010702D01*
X024054Y010603D01*
X024183Y010550D01*
X024054Y010497D01*
X023956Y010398D01*
X023902Y010270D01*
X023902Y010130D01*
X023956Y010002D01*
X024054Y009903D01*
X024183Y009850D01*
X024322Y009850D01*
X024451Y009903D01*
X024549Y010002D01*
X024602Y010130D01*
X024602Y010239D01*
X026643Y012280D01*
X026772Y012409D01*
X026772Y013133D01*
X026874Y013133D01*
X026974Y013233D01*
X026974Y013280D01*
X027030Y013280D01*
X027030Y013180D01*
X027130Y013080D01*
X027788Y013080D01*
X028961Y011907D01*
X029032Y011836D01*
X029032Y005641D01*
X028752Y005361D01*
X028822Y005531D01*
X028822Y005757D01*
X028736Y005967D01*
X028575Y006127D01*
X028366Y006214D01*
X028139Y006214D01*
X027929Y006127D01*
X027769Y005967D01*
X027718Y005843D01*
X023945Y005843D01*
X023945Y005998D01*
X023925Y006018D01*
X023925Y006104D01*
X023480Y006104D01*
X023480Y006104D01*
X023925Y006104D01*
X023925Y006203D01*
X023917Y006232D01*
X023925Y006262D01*
X023925Y006360D01*
X023480Y006360D01*
X023480Y006360D01*
X023480Y006131D01*
X023480Y006104D01*
X023480Y006104D01*
X023034Y006104D01*
X023034Y006018D01*
X023014Y005998D01*
X023014Y005520D01*
X022543Y005520D01*
X022122Y005941D01*
X021372Y006691D01*
X021243Y006820D01*
X021090Y006820D01*
X021090Y007021D01*
X021070Y007041D01*
X021070Y007128D01*
X021070Y007215D01*
X021090Y007235D01*
X021090Y008150D01*
X021149Y008150D01*
X021602Y007696D01*
X021602Y007445D01*
X021556Y007398D01*
X021502Y007270D01*
X021502Y007130D01*
X021556Y007002D01*
X021654Y006903D01*
X021783Y006850D01*
X021922Y006850D01*
X022051Y006903D01*
X022149Y007002D01*
X022202Y007130D01*
X022202Y007270D01*
X022149Y007398D01*
X022102Y007445D01*
X022102Y007850D01*
X022064Y007942D01*
X021464Y008542D01*
X021431Y008575D01*
X020965Y009056D01*
X020965Y009058D01*
X020931Y009092D01*
X020898Y009126D01*
X020896Y009127D01*
X020690Y009333D01*
X020598Y009371D01*
X020152Y009371D01*
X020104Y009419D01*
X019097Y009419D01*
X018997Y009320D01*
X018997Y008923D01*
X019097Y008823D01*
X020104Y008823D01*
X020152Y008871D01*
X020444Y008871D01*
X020574Y008741D01*
X020655Y008657D01*
X020653Y008657D01*
X020631Y008662D01*
X020603Y008657D01*
X020575Y008657D01*
X020572Y008656D01*
X020260Y008656D01*
X020160Y008557D01*
X020160Y008120D01*
X020043Y008120D01*
X019536Y008627D01*
X017246Y008627D01*
X017246Y008663D01*
X016901Y008663D01*
X016556Y008663D01*
X016556Y008584D01*
X016562Y008563D01*
X016536Y008538D01*
X016536Y007270D01*
X016502Y007304D01*
X016502Y009850D01*
X016464Y009942D01*
X015764Y010642D01*
X015694Y010712D01*
X015602Y010750D01*
X009556Y010750D01*
X009002Y011304D01*
X009002Y014250D01*
X008964Y014342D01*
X008264Y015042D01*
X008194Y015112D01*
X008102Y015150D01*
X006703Y015150D01*
X006611Y015112D01*
X006211Y014712D01*
X006140Y014642D01*
X006102Y014550D01*
X006102Y013450D01*
X006140Y013358D01*
X006340Y013158D01*
X006411Y013088D01*
X006503Y013050D01*
X006601Y013050D01*
X006645Y012944D01*
X006796Y012792D01*
X006898Y012750D01*
X006796Y012708D01*
X006645Y012556D01*
X006562Y012357D01*
X006562Y012143D01*
X006645Y011944D01*
X006796Y011792D01*
X006898Y011750D01*
X006796Y011708D01*
X006645Y011556D01*
X006562Y011357D01*
X006562Y011143D01*
X006645Y010944D01*
X006796Y010792D01*
X006995Y010710D01*
X007210Y010710D01*
X007408Y010792D01*
X007502Y010886D01*
X007502Y010650D01*
X007540Y010558D01*
X007611Y010488D01*
X008611Y009488D01*
X008703Y009450D01*
X014849Y009450D01*
X014902Y009396D01*
X014902Y008860D01*
X014869Y008893D01*
X014338Y008893D01*
X014325Y008880D01*
X013485Y008880D01*
X013486Y008881D01*
X013514Y008909D01*
X013534Y008943D01*
X013544Y008981D01*
X013544Y009115D01*
X012975Y009115D01*
X012975Y009143D01*
X012947Y009143D01*
X012947Y009407D01*
X012508Y009407D01*
X012470Y009396D01*
X012436Y009377D01*
X012408Y009349D01*
X012388Y009315D01*
X012378Y009276D01*
X012378Y009143D01*
X012947Y009143D01*
X012947Y009115D01*
X012378Y009115D01*
X012378Y008981D01*
X012388Y008943D01*
X012408Y008909D01*
X012436Y008881D01*
X012470Y008861D01*
X012508Y008851D01*
X012812Y008851D01*
X012779Y008817D01*
X012416Y008472D01*
X010345Y008472D01*
X010345Y008657D01*
X010245Y008756D01*
X010133Y008756D01*
X010256Y008879D01*
X010953Y008879D01*
X011001Y008831D01*
X012008Y008831D01*
X012107Y008930D01*
X012107Y009327D01*
X012008Y009427D01*
X011001Y009427D01*
X010953Y009379D01*
X009231Y009379D01*
X009139Y009341D01*
X009069Y009270D01*
X008711Y008912D01*
X008640Y008842D01*
X008602Y008750D01*
X008602Y006150D01*
X008640Y006058D01*
X008949Y005750D01*
X007230Y004031D01*
X007192Y003939D01*
X007192Y003364D01*
X007057Y003364D01*
X006957Y003265D01*
X006957Y002730D01*
X007057Y002631D01*
X007828Y002631D01*
X007927Y002730D01*
X007927Y002748D01*
X009906Y002748D01*
X010240Y002414D01*
X010170Y002436D01*
X010091Y002449D01*
X010091Y001950D01*
X009991Y001950D01*
X009991Y001850D01*
X009492Y001850D01*
X009505Y001771D01*
X009532Y001689D01*
X009571Y001612D01*
X009622Y001542D01*
X009683Y001480D01*
X009753Y001430D01*
X009830Y001390D01*
X009913Y001364D01*
X009991Y001351D01*
X009991Y001850D01*
X010091Y001850D01*
X010091Y001351D01*
X010170Y001364D01*
X010252Y001390D01*
X010330Y001430D01*
X010400Y001480D01*
X010461Y001542D01*
X010512Y001612D01*
X010551Y001689D01*
X010578Y001771D01*
X010590Y001850D01*
X010091Y001850D01*
X010091Y001950D01*
X010590Y001950D01*
X010578Y002029D01*
X010555Y002098D01*
X010825Y001829D01*
X010825Y001627D01*
X010924Y001527D01*
X011380Y001527D01*
X011458Y001605D01*
X012028Y001605D01*
X012095Y001444D01*
X012246Y001292D01*
X012445Y001210D01*
X012489Y001210D01*
X012699Y001000D01*
X007907Y001000D01*
X007907Y001154D01*
X007491Y001154D01*
X007491Y001251D01*
X007907Y001251D01*
X007907Y001419D01*
X007897Y001457D01*
X007877Y001491D01*
X007849Y001519D01*
X007815Y001539D01*
X007777Y001549D01*
X007491Y001549D01*
X007491Y001251D01*
X007394Y001251D01*
X007394Y001549D01*
X007107Y001549D01*
X007069Y001539D01*
X007035Y001519D01*
X007007Y001491D01*
X006987Y001457D01*
X006977Y001419D01*
X006977Y001251D01*
X007394Y001251D01*
X007394Y001154D01*
X006977Y001154D01*
X006977Y001000D01*
X005959Y001000D01*
X005959Y001091D02*
X006977Y001091D01*
X006977Y001288D02*
X005959Y001288D01*
X005959Y001190D02*
X007394Y001190D01*
X007491Y001190D02*
X012509Y001190D01*
X012608Y001091D02*
X007907Y001091D01*
X007907Y001288D02*
X012257Y001288D01*
X012152Y001387D02*
X010241Y001387D01*
X010091Y001387D02*
X009991Y001387D01*
X009991Y001485D02*
X010091Y001485D01*
X010091Y001584D02*
X009991Y001584D01*
X009991Y001682D02*
X010091Y001682D01*
X010091Y001781D02*
X009991Y001781D01*
X009991Y001879D02*
X009233Y001879D01*
X009233Y001978D02*
X009497Y001978D01*
X009492Y001950D02*
X009991Y001950D01*
X009991Y002449D01*
X009913Y002436D01*
X009830Y002410D01*
X009753Y002370D01*
X009683Y002320D01*
X009622Y002258D01*
X009571Y002188D01*
X009532Y002111D01*
X009505Y002029D01*
X009492Y001950D01*
X009520Y002076D02*
X009207Y002076D01*
X009167Y002175D02*
X009564Y002175D01*
X009637Y002273D02*
X009096Y002273D01*
X008998Y002372D02*
X009755Y002372D01*
X009991Y002372D02*
X010091Y002372D01*
X010091Y002273D02*
X009991Y002273D01*
X009991Y002175D02*
X010091Y002175D01*
X010091Y002076D02*
X009991Y002076D01*
X009991Y001978D02*
X010091Y001978D01*
X010091Y001879D02*
X010775Y001879D01*
X010825Y001781D02*
X010579Y001781D01*
X010548Y001682D02*
X010825Y001682D01*
X010868Y001584D02*
X010491Y001584D01*
X010404Y001485D02*
X012078Y001485D01*
X012037Y001584D02*
X011437Y001584D01*
X011458Y002105D02*
X011412Y002150D01*
X011480Y002217D01*
X011480Y002673D01*
X011402Y002751D01*
X011402Y003894D01*
X011405Y003903D01*
X011402Y003944D01*
X011402Y003984D01*
X011399Y003993D01*
X011398Y004003D01*
X011380Y004039D01*
X011364Y004076D01*
X011358Y004083D01*
X011353Y004091D01*
X011323Y004118D01*
X011294Y004147D01*
X011285Y004150D01*
X010884Y004497D01*
X010884Y004767D01*
X010784Y004867D01*
X010210Y004867D01*
X010148Y004805D01*
X010136Y004817D01*
X010102Y004837D01*
X010064Y004847D01*
X009876Y004847D01*
X009876Y004548D01*
X009779Y004548D01*
X009779Y004452D01*
X009461Y004452D01*
X009461Y004283D01*
X009471Y004245D01*
X009491Y004211D01*
X009519Y004183D01*
X009553Y004163D01*
X009591Y004153D01*
X009779Y004153D01*
X009779Y004452D01*
X009876Y004452D01*
X009876Y004153D01*
X010064Y004153D01*
X010102Y004163D01*
X010136Y004183D01*
X010148Y004195D01*
X010210Y004133D01*
X010540Y004133D01*
X010902Y003820D01*
X010902Y002751D01*
X010825Y002673D01*
X010825Y002536D01*
X010151Y003210D01*
X010059Y003248D01*
X007927Y003248D01*
X007927Y003265D01*
X007828Y003364D01*
X007692Y003364D01*
X007692Y003786D01*
X009356Y005450D01*
X009508Y005450D01*
X009514Y005444D01*
X009827Y005444D01*
X009830Y005443D01*
X009929Y005443D01*
X009932Y005444D01*
X010245Y005444D01*
X010345Y005543D01*
X010345Y005984D01*
X012456Y005984D01*
X012471Y005984D01*
X012506Y005902D01*
X012524Y005883D01*
X012511Y005870D01*
X012382Y005741D01*
X012382Y004534D01*
X012358Y004558D01*
X012160Y004640D01*
X011945Y004640D01*
X011746Y004558D01*
X011595Y004406D01*
X011512Y004207D01*
X011512Y003993D01*
X011595Y003794D01*
X011746Y003642D01*
X011945Y003560D01*
X012160Y003560D01*
X012358Y003642D01*
X012510Y003794D01*
X012552Y003896D01*
X012595Y003794D01*
X012746Y003642D01*
X012945Y003560D01*
X013160Y003560D01*
X013246Y003596D01*
X013532Y003309D01*
X013579Y003263D01*
X013446Y003208D01*
X013295Y003056D01*
X013212Y002857D01*
X013212Y002643D01*
X013295Y002444D01*
X013446Y002292D01*
X013532Y002257D01*
X013532Y001987D01*
X013252Y001707D01*
X013252Y001293D01*
X013295Y001250D01*
X013156Y001250D01*
X012986Y001420D01*
X013010Y001444D01*
X013092Y001643D01*
X013092Y001857D01*
X013010Y002056D01*
X012858Y002208D01*
X012756Y002250D01*
X012858Y002292D01*
X013010Y002444D01*
X013092Y002643D01*
X013092Y002857D01*
X013010Y003056D01*
X012858Y003208D01*
X012660Y003290D01*
X012445Y003290D01*
X012246Y003208D01*
X012095Y003056D01*
X012012Y002857D01*
X012012Y002643D01*
X012095Y002444D01*
X012246Y002292D01*
X012348Y002250D01*
X012246Y002208D01*
X012143Y002105D01*
X011458Y002105D01*
X011437Y002175D02*
X012213Y002175D01*
X012293Y002273D02*
X011480Y002273D01*
X011480Y002372D02*
X012167Y002372D01*
X012084Y002470D02*
X011480Y002470D01*
X011480Y002569D02*
X012043Y002569D01*
X012012Y002667D02*
X011480Y002667D01*
X011402Y002766D02*
X012012Y002766D01*
X012015Y002864D02*
X011402Y002864D01*
X011402Y002963D02*
X012056Y002963D01*
X012100Y003061D02*
X011402Y003061D01*
X011402Y003160D02*
X012198Y003160D01*
X012368Y003258D02*
X011402Y003258D01*
X011402Y003357D02*
X013485Y003357D01*
X013568Y003258D02*
X012737Y003258D01*
X012907Y003160D02*
X013398Y003160D01*
X013300Y003061D02*
X013005Y003061D01*
X013049Y002963D02*
X013256Y002963D01*
X013215Y002864D02*
X013090Y002864D01*
X013092Y002766D02*
X013212Y002766D01*
X013212Y002667D02*
X013092Y002667D01*
X013062Y002569D02*
X013243Y002569D01*
X013284Y002470D02*
X013021Y002470D01*
X012938Y002372D02*
X013367Y002372D01*
X013493Y002273D02*
X012812Y002273D01*
X012892Y002175D02*
X013532Y002175D01*
X013532Y002076D02*
X012990Y002076D01*
X013043Y001978D02*
X013523Y001978D01*
X013424Y001879D02*
X013083Y001879D01*
X013092Y001781D02*
X013326Y001781D01*
X013252Y001682D02*
X013092Y001682D01*
X013068Y001584D02*
X013252Y001584D01*
X013252Y001485D02*
X013027Y001485D01*
X013019Y001387D02*
X013252Y001387D01*
X013257Y001288D02*
X013118Y001288D01*
X013752Y001500D02*
X013752Y002750D01*
X013752Y003400D02*
X019252Y003400D01*
X020452Y004600D01*
X019587Y004600D01*
X019774Y004233D02*
X019300Y004233D01*
X019238Y004295D01*
X019226Y004283D01*
X019192Y004263D01*
X019154Y004253D01*
X018966Y004253D01*
X018966Y004552D01*
X018869Y004552D01*
X018551Y004552D01*
X018551Y004383D01*
X018561Y004345D01*
X018581Y004311D01*
X018609Y004283D01*
X018643Y004263D01*
X018681Y004253D01*
X018869Y004253D01*
X018869Y004552D01*
X018869Y004648D01*
X018551Y004648D01*
X018551Y004780D01*
X015461Y004780D01*
X015061Y005180D01*
X015061Y005180D01*
X014969Y005273D01*
X014969Y005206D01*
X014869Y005107D01*
X014685Y005107D01*
X014643Y005065D01*
X014055Y005065D01*
X013974Y004983D01*
X013972Y004983D01*
X013972Y004709D01*
X013874Y004611D01*
X013945Y004640D01*
X014160Y004640D01*
X014358Y004558D01*
X014510Y004406D01*
X014592Y004207D01*
X014592Y003993D01*
X014510Y003794D01*
X014358Y003642D01*
X014305Y003620D01*
X019161Y003620D01*
X019774Y004233D01*
X019686Y004145D02*
X014592Y004145D01*
X014592Y004046D02*
X019587Y004046D01*
X019489Y003948D02*
X014574Y003948D01*
X014533Y003849D02*
X019390Y003849D01*
X019292Y003751D02*
X014467Y003751D01*
X014368Y003652D02*
X019193Y003652D01*
X019520Y003357D02*
X021602Y003357D01*
X021602Y003455D02*
X019618Y003455D01*
X019717Y003554D02*
X021602Y003554D01*
X021602Y003652D02*
X019815Y003652D01*
X019914Y003751D02*
X021602Y003751D01*
X021602Y003849D02*
X020012Y003849D01*
X020111Y003948D02*
X021602Y003948D01*
X021602Y004046D02*
X020209Y004046D01*
X020308Y004145D02*
X021602Y004145D01*
X021602Y004155D02*
X021602Y001617D01*
X021252Y001325D01*
X021252Y001707D01*
X021002Y001957D01*
X021002Y002269D01*
X021058Y002292D01*
X021210Y002444D01*
X021292Y002643D01*
X021292Y002857D01*
X021210Y003056D01*
X021058Y003208D01*
X020860Y003290D01*
X020645Y003290D01*
X020446Y003208D01*
X020295Y003056D01*
X020241Y002928D01*
X020234Y002950D01*
X020197Y003023D01*
X020149Y003089D01*
X020091Y003147D01*
X020025Y003195D01*
X019952Y003232D01*
X019874Y003257D01*
X019802Y003269D01*
X019802Y002800D01*
X019702Y002800D01*
X019702Y002700D01*
X018802Y002700D01*
X018802Y002231D01*
X018874Y002243D01*
X018952Y002268D01*
X019025Y002305D01*
X019091Y002353D01*
X019149Y002411D01*
X019197Y002477D01*
X019234Y002550D01*
X019252Y002606D01*
X019270Y002550D01*
X019308Y002477D01*
X019356Y002411D01*
X019414Y002353D01*
X019480Y002305D01*
X019553Y002268D01*
X019631Y002243D01*
X019702Y002231D01*
X019702Y002700D01*
X019802Y002700D01*
X019802Y002231D01*
X019874Y002243D01*
X019952Y002268D01*
X020025Y002305D01*
X020091Y002353D01*
X020149Y002411D01*
X020197Y002477D01*
X020234Y002550D01*
X020241Y002572D01*
X020295Y002444D01*
X020446Y002292D01*
X020502Y002269D01*
X020502Y001957D01*
X020252Y001707D01*
X020252Y001293D01*
X020295Y001250D01*
X020181Y001250D01*
X020232Y001301D01*
X020232Y001452D01*
X019801Y001452D01*
X019801Y001548D01*
X020232Y001548D01*
X020232Y001699D01*
X019951Y001980D01*
X019801Y001980D01*
X019801Y001548D01*
X019704Y001548D01*
X019704Y001452D01*
X019272Y001452D01*
X019272Y001301D01*
X019324Y001250D01*
X019181Y001250D01*
X019232Y001301D01*
X019232Y001452D01*
X018801Y001452D01*
X018801Y001548D01*
X019232Y001548D01*
X019232Y001699D01*
X018951Y001980D01*
X018801Y001980D01*
X018801Y001548D01*
X018704Y001548D01*
X018704Y001452D01*
X018272Y001452D01*
X018272Y001301D01*
X018324Y001250D01*
X018209Y001250D01*
X018252Y001293D01*
X018252Y001707D01*
X018002Y001957D01*
X018002Y002269D01*
X018058Y002292D01*
X018210Y002444D01*
X018263Y002572D01*
X018270Y002550D01*
X018308Y002477D01*
X018356Y002411D01*
X018414Y002353D01*
X018480Y002305D01*
X018553Y002268D01*
X018631Y002243D01*
X018702Y002231D01*
X018702Y002700D01*
X018802Y002700D01*
X018802Y002800D01*
X019271Y002800D01*
X019702Y002800D01*
X019702Y003269D01*
X019631Y003257D01*
X019553Y003232D01*
X019480Y003195D01*
X019414Y003147D01*
X019356Y003089D01*
X019308Y003023D01*
X019270Y002950D01*
X019252Y002894D01*
X019234Y002950D01*
X019197Y003023D01*
X019149Y003089D01*
X019091Y003147D01*
X019045Y003180D01*
X019343Y003180D01*
X020413Y004250D01*
X020522Y004250D01*
X020651Y004303D01*
X020749Y004402D01*
X020802Y004530D01*
X020802Y004670D01*
X020757Y004780D01*
X024561Y004780D01*
X024771Y004570D01*
X024624Y004570D01*
X024624Y004617D01*
X024524Y004717D01*
X023950Y004717D01*
X023888Y004655D01*
X023876Y004667D01*
X023842Y004687D01*
X023804Y004697D01*
X023616Y004697D01*
X023616Y004398D01*
X023519Y004398D01*
X023519Y004302D01*
X023201Y004302D01*
X023201Y004133D01*
X023211Y004095D01*
X023231Y004061D01*
X023259Y004033D01*
X023293Y004013D01*
X023331Y004003D01*
X023519Y004003D01*
X023519Y004302D01*
X023616Y004302D01*
X023616Y004003D01*
X023804Y004003D01*
X023842Y004013D01*
X023876Y004033D01*
X023888Y004045D01*
X023950Y003983D01*
X024524Y003983D01*
X024624Y004083D01*
X024624Y004129D01*
X024656Y004052D01*
X024754Y003953D01*
X024883Y003900D01*
X025022Y003900D01*
X025151Y003953D01*
X025249Y004052D01*
X025261Y004080D01*
X026292Y003049D01*
X026252Y002954D01*
X026210Y003056D01*
X026058Y003208D01*
X025860Y003290D01*
X025645Y003290D01*
X025446Y003208D01*
X025295Y003056D01*
X025252Y002954D01*
X025210Y003056D01*
X025058Y003208D01*
X024860Y003290D01*
X024645Y003290D01*
X024446Y003208D01*
X024295Y003056D01*
X024252Y002954D01*
X024210Y003056D01*
X024058Y003208D01*
X023860Y003290D01*
X023645Y003290D01*
X023446Y003208D01*
X023295Y003056D01*
X023252Y002954D01*
X023210Y003056D01*
X023058Y003208D01*
X022860Y003290D01*
X022645Y003290D01*
X022446Y003208D01*
X022295Y003056D01*
X022212Y002857D01*
X022212Y002643D01*
X022295Y002444D01*
X022446Y002292D01*
X022532Y002257D01*
X022532Y001987D01*
X022252Y001707D01*
X022252Y001293D01*
X022545Y001000D01*
X022959Y001000D01*
X023252Y001293D01*
X023252Y001707D01*
X022972Y001987D01*
X022972Y002257D01*
X023058Y002292D01*
X023210Y002444D01*
X023252Y002546D01*
X023295Y002444D01*
X023446Y002292D01*
X023532Y002257D01*
X023532Y001987D01*
X023252Y001707D01*
X023252Y001293D01*
X023545Y001000D01*
X023959Y001000D01*
X024252Y001293D01*
X024252Y001707D01*
X023972Y001987D01*
X023972Y002257D01*
X024058Y002292D01*
X024210Y002444D01*
X024252Y002546D01*
X024295Y002444D01*
X024446Y002292D01*
X024532Y002257D01*
X024532Y001987D01*
X024252Y001707D01*
X024252Y001293D01*
X024545Y001000D01*
X024959Y001000D01*
X025252Y001293D01*
X025252Y001707D01*
X024972Y001987D01*
X024972Y002257D01*
X025058Y002292D01*
X025210Y002444D01*
X025252Y002546D01*
X025295Y002444D01*
X025446Y002292D01*
X025532Y002257D01*
X025532Y001987D01*
X025252Y001707D01*
X025252Y001293D01*
X025545Y001000D01*
X025959Y001000D01*
X026252Y001293D01*
X026252Y001707D01*
X025972Y001987D01*
X025972Y002257D01*
X026058Y002292D01*
X026210Y002444D01*
X026252Y002546D01*
X026295Y002444D01*
X026446Y002292D01*
X026532Y002257D01*
X026532Y001987D01*
X026252Y001707D01*
X026252Y001293D01*
X026545Y001000D01*
X026959Y001000D01*
X027252Y001293D01*
X027252Y001707D01*
X026972Y001987D01*
X026972Y002257D01*
X027058Y002292D01*
X027210Y002444D01*
X027252Y002546D01*
X027295Y002444D01*
X027446Y002292D01*
X027532Y002257D01*
X027532Y001987D01*
X027252Y001707D01*
X027252Y001293D01*
X027545Y001000D01*
X027959Y001000D01*
X028252Y001293D01*
X028252Y001707D01*
X027972Y001987D01*
X027972Y002257D01*
X028058Y002292D01*
X028111Y002345D01*
X028386Y002345D01*
X028386Y002278D01*
X028485Y002179D01*
X028724Y002179D01*
X028328Y001783D01*
X028252Y001599D01*
X028252Y001000D01*
X021643Y001000D01*
X021983Y001284D01*
X021994Y001288D01*
X022021Y001315D01*
X022051Y001340D01*
X022056Y001350D01*
X022064Y001358D01*
X022079Y001394D01*
X022097Y001428D01*
X022098Y001439D01*
X022102Y001450D01*
X022102Y001489D01*
X022106Y001527D01*
X022102Y001538D01*
X022102Y004155D01*
X022149Y004202D01*
X022202Y004330D01*
X022202Y004470D01*
X022149Y004598D01*
X022051Y004697D01*
X021922Y004750D01*
X021783Y004750D01*
X021654Y004697D01*
X021556Y004598D01*
X021502Y004470D01*
X021502Y004330D01*
X021556Y004202D01*
X021602Y004155D01*
X021539Y004243D02*
X020406Y004243D01*
X020689Y004342D02*
X021502Y004342D01*
X021502Y004440D02*
X020765Y004440D01*
X020802Y004539D02*
X021531Y004539D01*
X021594Y004637D02*
X020802Y004637D01*
X020775Y004736D02*
X021748Y004736D01*
X021957Y004736D02*
X024606Y004736D01*
X024604Y004637D02*
X024704Y004637D01*
X024852Y004350D02*
X024237Y004350D01*
X024587Y004046D02*
X024661Y004046D01*
X024768Y003948D02*
X022102Y003948D01*
X022102Y004046D02*
X023246Y004046D01*
X023201Y004145D02*
X022102Y004145D01*
X022166Y004243D02*
X023201Y004243D01*
X023201Y004398D02*
X023519Y004398D01*
X023519Y004697D01*
X023331Y004697D01*
X023293Y004687D01*
X023259Y004667D01*
X023231Y004639D01*
X023211Y004605D01*
X023201Y004567D01*
X023201Y004398D01*
X023201Y004440D02*
X022202Y004440D01*
X022202Y004342D02*
X023519Y004342D01*
X023519Y004440D02*
X023616Y004440D01*
X023616Y004539D02*
X023519Y004539D01*
X023519Y004637D02*
X023616Y004637D01*
X023230Y004637D02*
X022110Y004637D01*
X022174Y004539D02*
X023201Y004539D01*
X023519Y004243D02*
X023616Y004243D01*
X023616Y004145D02*
X023519Y004145D01*
X023519Y004046D02*
X023616Y004046D01*
X023568Y003258D02*
X022937Y003258D01*
X023107Y003160D02*
X023398Y003160D01*
X023300Y003061D02*
X023205Y003061D01*
X023249Y002963D02*
X023256Y002963D01*
X022752Y002750D02*
X022752Y001500D01*
X023252Y001485D02*
X023252Y001485D01*
X023252Y001387D02*
X023252Y001387D01*
X023247Y001288D02*
X023257Y001288D01*
X023356Y001190D02*
X023149Y001190D01*
X023050Y001091D02*
X023454Y001091D01*
X023752Y001500D02*
X023752Y002750D01*
X023367Y002372D02*
X023138Y002372D01*
X023221Y002470D02*
X023284Y002470D01*
X023493Y002273D02*
X023012Y002273D01*
X022972Y002175D02*
X023532Y002175D01*
X023532Y002076D02*
X022972Y002076D01*
X022982Y001978D02*
X023523Y001978D01*
X023424Y001879D02*
X023080Y001879D01*
X023179Y001781D02*
X023326Y001781D01*
X023252Y001682D02*
X023252Y001682D01*
X023252Y001584D02*
X023252Y001584D01*
X022523Y001978D02*
X022102Y001978D01*
X022102Y002076D02*
X022532Y002076D01*
X022532Y002175D02*
X022102Y002175D01*
X022102Y002273D02*
X022493Y002273D01*
X022367Y002372D02*
X022102Y002372D01*
X022102Y002470D02*
X022284Y002470D01*
X022243Y002569D02*
X022102Y002569D01*
X022102Y002667D02*
X022212Y002667D01*
X022212Y002766D02*
X022102Y002766D01*
X022102Y002864D02*
X022215Y002864D01*
X022256Y002963D02*
X022102Y002963D01*
X022102Y003061D02*
X022300Y003061D01*
X022398Y003160D02*
X022102Y003160D01*
X022102Y003258D02*
X022568Y003258D01*
X022102Y003357D02*
X025985Y003357D01*
X025937Y003258D02*
X026083Y003258D01*
X026107Y003160D02*
X026182Y003160D01*
X026205Y003061D02*
X026280Y003061D01*
X026256Y002963D02*
X026249Y002963D01*
X026452Y003200D02*
X024652Y005000D01*
X015552Y005000D01*
X015152Y005400D01*
X014952Y005600D01*
X014611Y005600D01*
X014604Y005593D01*
X014604Y005337D02*
X014552Y005285D01*
X013752Y005285D01*
X013687Y005350D01*
X013752Y005285D02*
X013752Y004800D01*
X013052Y004100D01*
X012602Y004550D01*
X012602Y005650D01*
X012702Y005750D01*
X012952Y005750D01*
X013563Y006360D01*
X014604Y006360D01*
X014604Y006104D02*
X014259Y006104D01*
X014259Y006025D01*
X014264Y006004D01*
X014239Y005979D01*
X014239Y005505D01*
X014074Y005505D01*
X014074Y005617D01*
X013974Y005717D01*
X013400Y005717D01*
X013338Y005655D01*
X013326Y005667D01*
X013292Y005687D01*
X013254Y005697D01*
X013210Y005697D01*
X013654Y006140D01*
X014259Y006140D01*
X014259Y006104D01*
X014604Y006104D01*
X014604Y006104D01*
X014949Y006104D01*
X014949Y006068D01*
X015326Y006068D01*
X015354Y006097D01*
X015483Y006150D01*
X015622Y006150D01*
X015751Y006097D01*
X015849Y005998D01*
X015902Y005870D01*
X015902Y005804D01*
X016004Y005926D01*
X016002Y005930D01*
X016002Y006070D01*
X016007Y006081D01*
X015954Y006103D01*
X015856Y006202D01*
X015802Y006330D01*
X015802Y006470D01*
X015856Y006598D01*
X015928Y006671D01*
X015740Y006858D01*
X015702Y006950D01*
X015702Y009496D01*
X015249Y009950D01*
X009203Y009950D01*
X009111Y009988D01*
X008311Y010788D01*
X008240Y010858D01*
X008202Y010950D01*
X008202Y013696D01*
X007949Y013950D01*
X007563Y013950D01*
X007560Y013944D01*
X007408Y013792D01*
X007306Y013750D01*
X007408Y013708D01*
X007560Y013556D01*
X007642Y013357D01*
X007642Y013143D01*
X007560Y012944D01*
X007408Y012792D01*
X007306Y012750D01*
X007408Y012708D01*
X007560Y012556D01*
X007642Y012357D01*
X007642Y012143D01*
X007619Y012087D01*
X007964Y011742D01*
X008002Y011650D01*
X008002Y010804D01*
X008856Y009950D01*
X015002Y009950D01*
X015094Y009912D01*
X015294Y009712D01*
X015364Y009642D01*
X015402Y009550D01*
X015402Y007350D01*
X015364Y007258D01*
X015294Y007188D01*
X015294Y007188D01*
X015022Y006916D01*
X014969Y006894D01*
X014969Y006742D01*
X014943Y006716D01*
X014949Y006696D01*
X014949Y006616D01*
X014604Y006616D01*
X014604Y006616D01*
X014949Y006616D01*
X014949Y006536D01*
X014943Y006516D01*
X014969Y006491D01*
X014969Y006230D01*
X014943Y006204D01*
X014949Y006184D01*
X014949Y006104D01*
X014604Y006104D01*
X014604Y006104D01*
X014604Y005848D02*
X015501Y005848D01*
X015552Y005800D01*
X015883Y005918D02*
X015997Y005918D01*
X016002Y006016D02*
X015831Y006016D01*
X015943Y006115D02*
X015708Y006115D01*
X015851Y006213D02*
X014952Y006213D01*
X014949Y006115D02*
X015397Y006115D01*
X015810Y006312D02*
X014969Y006312D01*
X014969Y006410D02*
X015802Y006410D01*
X015818Y006509D02*
X014951Y006509D01*
X014949Y006607D02*
X015864Y006607D01*
X015893Y006706D02*
X014946Y006706D01*
X014969Y006804D02*
X015795Y006804D01*
X015722Y006903D02*
X014989Y006903D01*
X015107Y007001D02*
X015702Y007001D01*
X015702Y007100D02*
X015205Y007100D01*
X015304Y007198D02*
X015702Y007198D01*
X015702Y007297D02*
X015380Y007297D01*
X015402Y007395D02*
X015702Y007395D01*
X015702Y007494D02*
X015402Y007494D01*
X015402Y007592D02*
X015702Y007592D01*
X015702Y007691D02*
X015402Y007691D01*
X015402Y007789D02*
X015702Y007789D01*
X015702Y007888D02*
X015402Y007888D01*
X015402Y007986D02*
X015702Y007986D01*
X015702Y008085D02*
X015402Y008085D01*
X015402Y008183D02*
X015702Y008183D01*
X015702Y008282D02*
X015402Y008282D01*
X015402Y008380D02*
X015702Y008380D01*
X015702Y008479D02*
X015402Y008479D01*
X015402Y008577D02*
X015702Y008577D01*
X015702Y008676D02*
X015402Y008676D01*
X015402Y008774D02*
X015702Y008774D01*
X015702Y008873D02*
X015402Y008873D01*
X015402Y008971D02*
X015702Y008971D01*
X015702Y009070D02*
X015402Y009070D01*
X015402Y009168D02*
X015702Y009168D01*
X015702Y009267D02*
X015402Y009267D01*
X015402Y009365D02*
X015702Y009365D01*
X015702Y009464D02*
X015402Y009464D01*
X015397Y009562D02*
X015637Y009562D01*
X015538Y009661D02*
X015345Y009661D01*
X015440Y009759D02*
X015247Y009759D01*
X015341Y009858D02*
X015148Y009858D01*
X014902Y009365D02*
X013498Y009365D01*
X013486Y009377D02*
X013452Y009396D01*
X013414Y009407D01*
X012975Y009407D01*
X012975Y009143D01*
X013544Y009143D01*
X013544Y009276D01*
X013534Y009315D01*
X013514Y009349D01*
X013486Y009377D01*
X013544Y009267D02*
X014902Y009267D01*
X014902Y009168D02*
X013544Y009168D01*
X013544Y009070D02*
X014902Y009070D01*
X014902Y008971D02*
X013541Y008971D01*
X012975Y009168D02*
X012947Y009168D01*
X012947Y009267D02*
X012975Y009267D01*
X012975Y009365D02*
X012947Y009365D01*
X012424Y009365D02*
X012069Y009365D01*
X012107Y009267D02*
X012378Y009267D01*
X012378Y009168D02*
X012107Y009168D01*
X012107Y009070D02*
X012378Y009070D01*
X012381Y008971D02*
X012107Y008971D01*
X012050Y008873D02*
X012450Y008873D01*
X012630Y008676D02*
X010326Y008676D01*
X010345Y008577D02*
X012526Y008577D01*
X012423Y008479D02*
X010345Y008479D01*
X010151Y008774D02*
X012733Y008774D01*
X012932Y008660D02*
X014537Y008660D01*
X014604Y008663D01*
X014890Y008873D02*
X014902Y008873D01*
X014604Y008407D02*
X014372Y008410D01*
X013062Y008410D01*
X012648Y007996D01*
X009880Y007996D01*
X009880Y007740D02*
X012792Y007740D01*
X013192Y008150D01*
X014532Y008150D01*
X014604Y008152D01*
X014599Y007900D02*
X014604Y007896D01*
X014599Y007900D02*
X013352Y007900D01*
X012169Y006716D01*
X009880Y006716D01*
X009880Y006965D02*
X009880Y006972D01*
X010235Y006972D01*
X010235Y006972D01*
X009880Y006972D01*
X009880Y006972D01*
X009880Y006972D01*
X009880Y006979D01*
X009880Y006979D01*
X009880Y006972D01*
X009880Y006972D01*
X010230Y006972D01*
X010302Y006900D01*
X011387Y006900D01*
X011737Y007250D01*
X011785Y007297D02*
X012438Y007297D01*
X012536Y007395D02*
X012104Y007395D01*
X012104Y007467D02*
X012093Y007505D01*
X012085Y007520D01*
X012661Y007520D01*
X012077Y006936D01*
X012049Y006936D01*
X012074Y006961D01*
X012093Y006995D01*
X012104Y007033D01*
X012104Y007202D01*
X011785Y007202D01*
X011785Y007298D01*
X012104Y007298D01*
X012104Y007467D01*
X012096Y007494D02*
X012635Y007494D01*
X012339Y007198D02*
X012104Y007198D01*
X012104Y007100D02*
X012241Y007100D01*
X012142Y007001D02*
X012095Y007001D01*
X012302Y006460D02*
X011802Y006460D01*
X009880Y006460D01*
X009880Y006204D02*
X012457Y006204D01*
X013652Y007380D01*
X014587Y007380D01*
X014604Y007384D01*
X014604Y007640D02*
X013492Y007640D01*
X012302Y006460D01*
X012499Y005918D02*
X010345Y005918D01*
X010345Y005819D02*
X012460Y005819D01*
X012382Y005721D02*
X010345Y005721D01*
X010345Y005622D02*
X012382Y005622D01*
X012382Y005524D02*
X010325Y005524D01*
X010177Y004834D02*
X010107Y004834D01*
X009876Y004834D02*
X009779Y004834D01*
X009779Y004847D02*
X009591Y004847D01*
X009553Y004837D01*
X009519Y004817D01*
X009491Y004789D01*
X009471Y004755D01*
X009461Y004717D01*
X009461Y004548D01*
X009779Y004548D01*
X009779Y004847D01*
X009779Y004736D02*
X009876Y004736D01*
X009876Y004637D02*
X009779Y004637D01*
X009779Y004539D02*
X008444Y004539D01*
X008543Y004637D02*
X009461Y004637D01*
X009466Y004736D02*
X008641Y004736D01*
X008740Y004834D02*
X009549Y004834D01*
X009035Y005130D02*
X012382Y005130D01*
X012382Y005228D02*
X009134Y005228D01*
X009232Y005327D02*
X012382Y005327D01*
X012382Y005425D02*
X009331Y005425D01*
X008919Y005721D02*
X007490Y005721D01*
X007490Y005819D02*
X008880Y005819D01*
X008781Y005918D02*
X007490Y005918D01*
X007490Y006016D02*
X008683Y006016D01*
X008617Y006115D02*
X007474Y006115D01*
X007470Y006118D02*
X007470Y006204D01*
X007025Y006204D01*
X006580Y006204D01*
X006580Y006118D01*
X006560Y006098D01*
X006560Y005581D01*
X005673Y004694D01*
X004766Y004694D01*
X004736Y004767D01*
X004575Y004927D01*
X004366Y005014D01*
X004139Y005014D01*
X003929Y004927D01*
X003769Y004767D01*
X003682Y004557D01*
X003682Y004331D01*
X003769Y004121D01*
X003929Y003961D01*
X004139Y003874D01*
X004366Y003874D01*
X004575Y003961D01*
X004736Y004121D01*
X004766Y004194D01*
X005826Y004194D01*
X005918Y004232D01*
X007130Y005444D01*
X007391Y005444D01*
X007490Y005543D01*
X007490Y006098D01*
X007470Y006118D01*
X007470Y006204D02*
X007470Y006303D01*
X007463Y006332D01*
X007470Y006362D01*
X007470Y006460D01*
X007083Y006460D01*
X007084Y006460D01*
X007470Y006460D01*
X007470Y006547D01*
X007490Y006567D01*
X007490Y007633D01*
X007470Y007653D01*
X007470Y007740D01*
X007470Y007838D01*
X007463Y007868D01*
X007470Y007897D01*
X007470Y007996D01*
X007470Y008082D01*
X007490Y008102D01*
X007490Y008657D01*
X007391Y008756D01*
X007130Y008756D01*
X005767Y010119D01*
X005849Y010202D01*
X005902Y010330D01*
X005902Y010470D01*
X005849Y010598D01*
X005802Y010645D01*
X005802Y010910D01*
X005865Y010910D01*
X005964Y011010D01*
X005964Y011761D01*
X005865Y011860D01*
X005788Y011860D01*
X005788Y014040D01*
X005865Y014040D01*
X005964Y014139D01*
X005964Y014890D01*
X005865Y014990D01*
X005212Y014990D01*
X005112Y014890D01*
X005112Y014139D01*
X005212Y014040D01*
X005288Y014040D01*
X005288Y011860D01*
X005212Y011860D01*
X005112Y011761D01*
X005112Y011010D01*
X005212Y010910D01*
X005302Y010910D01*
X005302Y010645D01*
X005256Y010598D01*
X005202Y010470D01*
X005202Y010330D01*
X005254Y010206D01*
X004766Y010206D01*
X004736Y010279D01*
X004575Y010439D01*
X004366Y010526D01*
X004139Y010526D01*
X003929Y010439D01*
X003769Y010279D01*
X003682Y010069D01*
X003682Y009843D01*
X003769Y009633D01*
X003929Y009473D01*
X004139Y009386D01*
X004366Y009386D01*
X004575Y009473D01*
X004736Y009633D01*
X004766Y009706D01*
X005473Y009706D01*
X006560Y008619D01*
X006560Y008102D01*
X006580Y008082D01*
X006580Y007996D01*
X007025Y007996D01*
X007025Y007996D01*
X006580Y007996D01*
X006580Y007897D01*
X006588Y007868D01*
X006580Y007838D01*
X006580Y007826D01*
X005616Y008790D01*
X005524Y008828D01*
X004766Y008828D01*
X004736Y008901D01*
X004575Y009061D01*
X004366Y009148D01*
X004139Y009148D01*
X003929Y009061D01*
X003769Y008901D01*
X003682Y008691D01*
X003682Y008465D01*
X003769Y008255D01*
X003929Y008095D01*
X004139Y008008D01*
X004366Y008008D01*
X004575Y008095D01*
X004736Y008255D01*
X004766Y008328D01*
X005371Y008328D01*
X006357Y007342D01*
X006427Y007272D01*
X006519Y007234D01*
X006560Y007234D01*
X006560Y006950D01*
X006503Y006950D01*
X006411Y006912D01*
X006340Y006842D01*
X005571Y006072D01*
X004766Y006072D01*
X004736Y006145D01*
X004575Y006305D01*
X004366Y006392D01*
X004139Y006392D01*
X003929Y006305D01*
X003769Y006145D01*
X003682Y005935D01*
X003682Y005709D01*
X003769Y005499D01*
X003929Y005339D01*
X004139Y005252D01*
X004366Y005252D01*
X004575Y005339D01*
X004736Y005499D01*
X004766Y005572D01*
X005724Y005572D01*
X005816Y005610D01*
X006580Y006374D01*
X006580Y006362D01*
X006588Y006332D01*
X006580Y006303D01*
X006580Y006204D01*
X007025Y006204D01*
X007025Y006204D01*
X007025Y006204D01*
X007025Y006433D01*
X007025Y006450D01*
X007025Y006450D01*
X007025Y006204D01*
X007025Y006204D01*
X007470Y006204D01*
X007470Y006213D02*
X008602Y006213D01*
X008602Y006312D02*
X007468Y006312D01*
X007470Y006410D02*
X008602Y006410D01*
X008602Y006509D02*
X007470Y006509D01*
X007490Y006607D02*
X008602Y006607D01*
X008602Y006706D02*
X007490Y006706D01*
X007490Y006804D02*
X008602Y006804D01*
X008602Y006903D02*
X007490Y006903D01*
X007490Y007001D02*
X008602Y007001D01*
X008602Y007100D02*
X007490Y007100D01*
X007490Y007198D02*
X008602Y007198D01*
X008602Y007297D02*
X007490Y007297D01*
X007490Y007395D02*
X008602Y007395D01*
X008602Y007494D02*
X007490Y007494D01*
X007490Y007592D02*
X008602Y007592D01*
X008602Y007691D02*
X007470Y007691D01*
X007470Y007740D02*
X007025Y007740D01*
X007025Y007969D01*
X007025Y007996D01*
X007470Y007996D01*
X007025Y007996D01*
X007025Y007996D01*
X007025Y007996D01*
X007025Y007740D01*
X007025Y007740D01*
X007470Y007740D01*
X007470Y007789D02*
X008602Y007789D01*
X008602Y007888D02*
X007468Y007888D01*
X007470Y007986D02*
X008602Y007986D01*
X008602Y008085D02*
X007473Y008085D01*
X007490Y008183D02*
X008602Y008183D01*
X008602Y008282D02*
X007490Y008282D01*
X007490Y008380D02*
X008602Y008380D01*
X008602Y008479D02*
X007490Y008479D01*
X007490Y008577D02*
X008602Y008577D01*
X008602Y008676D02*
X007472Y008676D01*
X007112Y008774D02*
X008612Y008774D01*
X008671Y008873D02*
X007014Y008873D01*
X006915Y008971D02*
X008770Y008971D01*
X008868Y009070D02*
X006817Y009070D01*
X006718Y009168D02*
X008967Y009168D01*
X009065Y009267D02*
X006620Y009267D01*
X006521Y009365D02*
X009198Y009365D01*
X009385Y008879D02*
X009630Y008879D01*
X009630Y008756D01*
X009514Y008756D01*
X009414Y008657D01*
X009414Y007079D01*
X009434Y007059D01*
X009434Y006972D01*
X009434Y006885D01*
X009414Y006865D01*
X009414Y005992D01*
X009102Y006304D01*
X009102Y008596D01*
X009385Y008879D01*
X009378Y008873D02*
X009630Y008873D01*
X009630Y008774D02*
X009280Y008774D01*
X009181Y008676D02*
X009433Y008676D01*
X009414Y008577D02*
X009102Y008577D01*
X009102Y008479D02*
X009414Y008479D01*
X009414Y008380D02*
X009102Y008380D01*
X009102Y008282D02*
X009414Y008282D01*
X009414Y008183D02*
X009102Y008183D01*
X009102Y008085D02*
X009414Y008085D01*
X009414Y007986D02*
X009102Y007986D01*
X009102Y007888D02*
X009414Y007888D01*
X009414Y007789D02*
X009102Y007789D01*
X009102Y007691D02*
X009414Y007691D01*
X009414Y007592D02*
X009102Y007592D01*
X009102Y007494D02*
X009414Y007494D01*
X009414Y007395D02*
X009102Y007395D01*
X009102Y007297D02*
X009414Y007297D01*
X009414Y007198D02*
X009102Y007198D01*
X009102Y007100D02*
X009414Y007100D01*
X009434Y007001D02*
X009102Y007001D01*
X009102Y006903D02*
X009434Y006903D01*
X009434Y006972D02*
X009880Y006972D01*
X009880Y006965D01*
X009880Y006965D01*
X009880Y006972D02*
X009880Y006972D01*
X009434Y006972D01*
X009414Y006804D02*
X009102Y006804D01*
X009102Y006706D02*
X009414Y006706D01*
X009414Y006607D02*
X009102Y006607D01*
X009102Y006509D02*
X009414Y006509D01*
X009414Y006410D02*
X009102Y006410D01*
X009102Y006312D02*
X009414Y006312D01*
X009414Y006213D02*
X009193Y006213D01*
X009291Y006115D02*
X009414Y006115D01*
X009414Y006016D02*
X009390Y006016D01*
X008821Y005622D02*
X007490Y005622D01*
X007471Y005524D02*
X008722Y005524D01*
X008624Y005425D02*
X007111Y005425D01*
X007013Y005327D02*
X008525Y005327D01*
X008427Y005228D02*
X006914Y005228D01*
X006816Y005130D02*
X008328Y005130D01*
X008230Y005031D02*
X006717Y005031D01*
X006619Y004933D02*
X008131Y004933D01*
X008033Y004834D02*
X006520Y004834D01*
X006422Y004736D02*
X007934Y004736D01*
X007836Y004637D02*
X006323Y004637D01*
X006225Y004539D02*
X007737Y004539D01*
X007639Y004440D02*
X006126Y004440D01*
X006028Y004342D02*
X007540Y004342D01*
X007442Y004243D02*
X005929Y004243D01*
X005715Y004736D02*
X004749Y004736D01*
X004669Y004834D02*
X005813Y004834D01*
X005912Y004933D02*
X004563Y004933D01*
X004546Y005327D02*
X006306Y005327D01*
X006404Y005425D02*
X004661Y005425D01*
X004746Y005524D02*
X006503Y005524D01*
X006560Y005622D02*
X005828Y005622D01*
X005926Y005721D02*
X006560Y005721D01*
X006560Y005819D02*
X006025Y005819D01*
X006123Y005918D02*
X006560Y005918D01*
X006560Y006016D02*
X006222Y006016D01*
X006320Y006115D02*
X006577Y006115D01*
X006580Y006213D02*
X006419Y006213D01*
X006517Y006312D02*
X006582Y006312D01*
X007025Y006312D02*
X007025Y006312D01*
X007025Y006410D02*
X007025Y006410D01*
X007025Y006213D02*
X007025Y006213D01*
X006401Y006903D02*
X004716Y006903D01*
X004723Y006912D02*
X004762Y006989D01*
X004789Y007071D01*
X004801Y007150D01*
X004302Y007150D01*
X004302Y006651D01*
X004381Y006664D01*
X004463Y006690D01*
X004541Y006730D01*
X004611Y006780D01*
X004672Y006842D01*
X004723Y006912D01*
X004766Y007001D02*
X006560Y007001D01*
X006560Y007100D02*
X004793Y007100D01*
X004801Y007250D02*
X004789Y007329D01*
X004762Y007411D01*
X004723Y007488D01*
X004672Y007558D01*
X004611Y007620D01*
X004541Y007670D01*
X004463Y007710D01*
X004381Y007736D01*
X004302Y007749D01*
X004302Y007250D01*
X004202Y007250D01*
X004202Y007150D01*
X003703Y007150D01*
X003716Y007071D01*
X003743Y006989D01*
X003782Y006912D01*
X003833Y006842D01*
X003894Y006780D01*
X003964Y006730D01*
X004041Y006690D01*
X004124Y006664D01*
X004202Y006651D01*
X004202Y007150D01*
X004302Y007150D01*
X004302Y007250D01*
X004801Y007250D01*
X004794Y007297D02*
X006402Y007297D01*
X006304Y007395D02*
X004767Y007395D01*
X004719Y007494D02*
X006205Y007494D01*
X006107Y007592D02*
X004638Y007592D01*
X004501Y007691D02*
X006008Y007691D01*
X005910Y007789D02*
X003252Y007789D01*
X003252Y007691D02*
X004004Y007691D01*
X004041Y007710D02*
X003964Y007670D01*
X003894Y007620D01*
X003833Y007558D01*
X003782Y007488D01*
X003743Y007411D01*
X003716Y007329D01*
X003703Y007250D01*
X004202Y007250D01*
X004202Y007749D01*
X004124Y007736D01*
X004041Y007710D01*
X004202Y007691D02*
X004302Y007691D01*
X004302Y007592D02*
X004202Y007592D01*
X004202Y007494D02*
X004302Y007494D01*
X004302Y007395D02*
X004202Y007395D01*
X004202Y007297D02*
X004302Y007297D01*
X004302Y007198D02*
X006560Y007198D01*
X006303Y006804D02*
X004634Y006804D01*
X004493Y006706D02*
X006204Y006706D01*
X006106Y006607D02*
X003252Y006607D01*
X003252Y006509D02*
X006007Y006509D01*
X005909Y006410D02*
X003252Y006410D01*
X003252Y006312D02*
X003945Y006312D01*
X003837Y006213D02*
X003252Y006213D01*
X003252Y006115D02*
X003757Y006115D01*
X003716Y006016D02*
X003252Y006016D01*
X003252Y005918D02*
X003682Y005918D01*
X003682Y005819D02*
X003252Y005819D01*
X003252Y005721D02*
X003682Y005721D01*
X003718Y005622D02*
X003252Y005622D01*
X003252Y005524D02*
X003759Y005524D01*
X003843Y005425D02*
X003252Y005425D01*
X003252Y005327D02*
X003959Y005327D01*
X003942Y004933D02*
X003252Y004933D01*
X003252Y005031D02*
X006010Y005031D01*
X006109Y005130D02*
X003252Y005130D01*
X003252Y005228D02*
X006207Y005228D01*
X005613Y006115D02*
X004748Y006115D01*
X004667Y006213D02*
X005712Y006213D01*
X005810Y006312D02*
X004560Y006312D01*
X004302Y006706D02*
X004202Y006706D01*
X004202Y006804D02*
X004302Y006804D01*
X004302Y006903D02*
X004202Y006903D01*
X004202Y007001D02*
X004302Y007001D01*
X004302Y007100D02*
X004202Y007100D01*
X004202Y007198D02*
X003252Y007198D01*
X003252Y007100D02*
X003711Y007100D01*
X003739Y007001D02*
X003252Y007001D01*
X003252Y006903D02*
X003789Y006903D01*
X003871Y006804D02*
X003252Y006804D01*
X003252Y006706D02*
X004011Y006706D01*
X003711Y007297D02*
X003252Y007297D01*
X003252Y007395D02*
X003737Y007395D01*
X003786Y007494D02*
X003252Y007494D01*
X003252Y007592D02*
X003867Y007592D01*
X003954Y008085D02*
X003252Y008085D01*
X003252Y008183D02*
X003841Y008183D01*
X003758Y008282D02*
X003252Y008282D01*
X003252Y008380D02*
X003717Y008380D01*
X003682Y008479D02*
X003252Y008479D01*
X003252Y008577D02*
X003682Y008577D01*
X003682Y008676D02*
X003252Y008676D01*
X003252Y008774D02*
X003717Y008774D01*
X003757Y008873D02*
X003252Y008873D01*
X003252Y008971D02*
X003839Y008971D01*
X003950Y009070D02*
X003252Y009070D01*
X003252Y009168D02*
X006011Y009168D01*
X005913Y009267D02*
X003252Y009267D01*
X003252Y009365D02*
X005814Y009365D01*
X005716Y009464D02*
X004553Y009464D01*
X004665Y009562D02*
X005617Y009562D01*
X005519Y009661D02*
X004747Y009661D01*
X003952Y009464D02*
X003252Y009464D01*
X003252Y009562D02*
X003840Y009562D01*
X003758Y009661D02*
X003252Y009661D01*
X003252Y009759D02*
X003717Y009759D01*
X003682Y009858D02*
X003252Y009858D01*
X003252Y009956D02*
X003682Y009956D01*
X003682Y010055D02*
X003252Y010055D01*
X003252Y010153D02*
X003717Y010153D01*
X003758Y010252D02*
X003252Y010252D01*
X003252Y010350D02*
X003840Y010350D01*
X003952Y010449D02*
X003252Y010449D01*
X003252Y010547D02*
X005234Y010547D01*
X005202Y010449D02*
X004553Y010449D01*
X004664Y010350D02*
X005202Y010350D01*
X005235Y010252D02*
X004747Y010252D01*
X005302Y010646D02*
X003252Y010646D01*
X003252Y010744D02*
X005302Y010744D01*
X005302Y010843D02*
X003252Y010843D01*
X003252Y010941D02*
X003451Y010941D01*
X003453Y010940D02*
X003491Y010930D01*
X003717Y010930D01*
X003717Y011335D01*
X003817Y011335D01*
X003817Y011435D01*
X004172Y011435D01*
X004172Y011710D01*
X004162Y011748D01*
X004142Y011782D01*
X004115Y011810D01*
X004080Y011830D01*
X004042Y011840D01*
X003817Y011840D01*
X003817Y011435D01*
X003717Y011435D01*
X003717Y011840D01*
X003491Y011840D01*
X003453Y011830D01*
X003419Y011810D01*
X003391Y011782D01*
X003371Y011748D01*
X003361Y011710D01*
X003361Y011435D01*
X003717Y011435D01*
X003717Y011335D01*
X003817Y011335D01*
X004172Y011335D01*
X005112Y011335D01*
X005112Y011237D02*
X004172Y011237D01*
X004172Y011335D02*
X004172Y011060D01*
X004162Y011022D01*
X004142Y010988D01*
X004115Y010960D01*
X004080Y010940D01*
X004042Y010930D01*
X003817Y010930D01*
X003817Y011335D01*
X003817Y011237D02*
X003717Y011237D01*
X003717Y011335D02*
X003361Y011335D01*
X003252Y011335D01*
X003252Y011237D02*
X003361Y011237D01*
X003361Y011335D02*
X003361Y011060D01*
X003371Y011022D01*
X003391Y010988D01*
X003419Y010960D01*
X003453Y010940D01*
X003366Y011040D02*
X003252Y011040D01*
X003252Y011138D02*
X003361Y011138D01*
X003252Y011434D02*
X003717Y011434D01*
X003717Y011532D02*
X003817Y011532D01*
X003817Y011434D02*
X005112Y011434D01*
X005112Y011532D02*
X004172Y011532D01*
X004172Y011631D02*
X005112Y011631D01*
X005112Y011729D02*
X004167Y011729D01*
X004085Y011828D02*
X005179Y011828D01*
X005288Y011926D02*
X003252Y011926D01*
X003252Y011828D02*
X003449Y011828D01*
X003366Y011729D02*
X003252Y011729D01*
X003252Y011631D02*
X003361Y011631D01*
X003361Y011532D02*
X003252Y011532D01*
X003717Y011631D02*
X003817Y011631D01*
X003817Y011729D02*
X003717Y011729D01*
X003717Y011828D02*
X003817Y011828D01*
X003252Y012025D02*
X005288Y012025D01*
X005288Y012123D02*
X003252Y012123D01*
X003252Y012222D02*
X005288Y012222D01*
X005288Y012320D02*
X003252Y012320D01*
X003252Y012419D02*
X005288Y012419D01*
X005288Y012517D02*
X003252Y012517D01*
X003252Y012616D02*
X005288Y012616D01*
X005288Y012714D02*
X003252Y012714D01*
X003252Y012813D02*
X005288Y012813D01*
X005288Y012911D02*
X003252Y012911D01*
X003252Y013010D02*
X005288Y013010D01*
X005288Y013108D02*
X003252Y013108D01*
X003252Y013207D02*
X005288Y013207D01*
X005288Y013305D02*
X003252Y013305D01*
X003252Y013404D02*
X005288Y013404D01*
X005288Y013502D02*
X003252Y013502D01*
X003252Y013601D02*
X005288Y013601D01*
X005288Y013699D02*
X003252Y013699D01*
X003252Y013798D02*
X005288Y013798D01*
X005288Y013896D02*
X003252Y013896D01*
X003252Y013995D02*
X005288Y013995D01*
X005159Y014093D02*
X004118Y014093D01*
X004115Y014090D02*
X004142Y014118D01*
X004162Y014152D01*
X004172Y014190D01*
X004172Y014465D01*
X003817Y014465D01*
X003817Y014565D01*
X004172Y014565D01*
X004172Y014840D01*
X004162Y014878D01*
X004142Y014912D01*
X004115Y014940D01*
X004080Y014960D01*
X004042Y014970D01*
X003817Y014970D01*
X003817Y014565D01*
X003717Y014565D01*
X003717Y014970D01*
X003491Y014970D01*
X003453Y014960D01*
X003419Y014940D01*
X003391Y014912D01*
X003371Y014878D01*
X003361Y014840D01*
X003361Y014565D01*
X003717Y014565D01*
X003717Y014465D01*
X003817Y014465D01*
X003817Y014060D01*
X004042Y014060D01*
X004080Y014070D01*
X004115Y014090D01*
X004172Y014192D02*
X005112Y014192D01*
X005112Y014290D02*
X004172Y014290D01*
X004172Y014389D02*
X005112Y014389D01*
X005112Y014487D02*
X003817Y014487D01*
X003817Y014389D02*
X003717Y014389D01*
X003717Y014465D02*
X003717Y014060D01*
X003491Y014060D01*
X003453Y014070D01*
X003419Y014090D01*
X003391Y014118D01*
X003371Y014152D01*
X003361Y014190D01*
X003361Y014465D01*
X003717Y014465D01*
X003717Y014487D02*
X003252Y014487D01*
X003252Y014389D02*
X003361Y014389D01*
X003361Y014290D02*
X003252Y014290D01*
X003252Y014192D02*
X003361Y014192D01*
X003415Y014093D02*
X003252Y014093D01*
X003717Y014093D02*
X003817Y014093D01*
X003817Y014192D02*
X003717Y014192D01*
X003717Y014290D02*
X003817Y014290D01*
X003817Y014586D02*
X003717Y014586D01*
X003717Y014684D02*
X003817Y014684D01*
X003817Y014783D02*
X003717Y014783D01*
X003717Y014881D02*
X003817Y014881D01*
X004160Y014881D02*
X005112Y014881D01*
X005112Y014783D02*
X004172Y014783D01*
X004172Y014684D02*
X005112Y014684D01*
X005112Y014586D02*
X004172Y014586D01*
X003361Y014586D02*
X003252Y014586D01*
X003252Y014684D02*
X003361Y014684D01*
X003361Y014783D02*
X003252Y014783D01*
X003252Y014881D02*
X003373Y014881D01*
X003252Y014980D02*
X005201Y014980D01*
X005875Y014980D02*
X006478Y014980D01*
X006577Y015078D02*
X003252Y015078D01*
X003252Y015177D02*
X024132Y015177D01*
X024132Y015275D02*
X003252Y015275D01*
X003252Y015374D02*
X024132Y015374D01*
X024132Y015472D02*
X003252Y015472D01*
X003252Y015571D02*
X024132Y015571D01*
X024132Y015669D02*
X003252Y015669D01*
X003252Y015768D02*
X004168Y015768D01*
X004202Y015768D02*
X004302Y015768D01*
X004302Y015762D02*
X004381Y015775D01*
X004463Y015801D01*
X004541Y015841D01*
X004611Y015892D01*
X004672Y015953D01*
X004723Y016023D01*
X004762Y016100D01*
X004789Y016182D01*
X004801Y016261D01*
X004302Y016261D01*
X004302Y015762D01*
X004337Y015768D02*
X024132Y015768D01*
X024132Y015866D02*
X007969Y015866D01*
X007961Y015858D02*
X007989Y015886D01*
X008009Y015920D01*
X008019Y015959D01*
X008019Y016397D01*
X007755Y016397D01*
X007755Y015828D01*
X007889Y015828D01*
X007927Y015838D01*
X007961Y015858D01*
X008019Y015965D02*
X024132Y015965D01*
X024132Y016063D02*
X008019Y016063D01*
X008019Y016162D02*
X024132Y016162D01*
X024132Y016260D02*
X008019Y016260D01*
X008019Y016359D02*
X024200Y016359D01*
X024261Y016420D02*
X024261Y016420D01*
X024298Y016457D02*
X008019Y016457D01*
X008019Y016425D02*
X007755Y016425D01*
X007755Y016397D01*
X007727Y016397D01*
X007727Y015828D01*
X007593Y015828D01*
X007555Y015838D01*
X007521Y015858D01*
X007493Y015886D01*
X007473Y015920D01*
X007463Y015959D01*
X007463Y016397D01*
X007727Y016397D01*
X007727Y016425D01*
X007463Y016425D01*
X007463Y016864D01*
X007473Y016902D01*
X007493Y016937D01*
X007521Y016964D01*
X007555Y016984D01*
X007593Y016994D01*
X007727Y016994D01*
X007727Y016425D01*
X007755Y016425D01*
X007755Y016994D01*
X007889Y016994D01*
X007927Y016984D01*
X007961Y016964D01*
X007989Y016937D01*
X008009Y016902D01*
X008019Y016864D01*
X008019Y016425D01*
X008019Y016556D02*
X024397Y016556D01*
X024495Y016654D02*
X008019Y016654D01*
X008019Y016753D02*
X024594Y016753D01*
X024692Y016851D02*
X008019Y016851D01*
X007976Y016950D02*
X024791Y016950D01*
X024889Y017048D02*
X003252Y017048D01*
X003252Y016950D02*
X007506Y016950D01*
X007463Y016851D02*
X004359Y016851D01*
X004381Y016847D02*
X004302Y016860D01*
X004302Y016361D01*
X004202Y016361D01*
X004202Y016261D01*
X003703Y016261D01*
X003716Y016182D01*
X003743Y016100D01*
X003782Y016023D01*
X003833Y015953D01*
X003894Y015892D01*
X003964Y015841D01*
X004041Y015801D01*
X004124Y015775D01*
X004202Y015762D01*
X004202Y016261D01*
X004302Y016261D01*
X004302Y016361D01*
X004801Y016361D01*
X004789Y016440D01*
X004762Y016522D01*
X004723Y016599D01*
X004672Y016669D01*
X004611Y016731D01*
X004541Y016781D01*
X004463Y016821D01*
X004381Y016847D01*
X004302Y016851D02*
X004202Y016851D01*
X004202Y016860D02*
X004124Y016847D01*
X004041Y016821D01*
X003964Y016781D01*
X003894Y016731D01*
X003833Y016669D01*
X003782Y016599D01*
X003743Y016522D01*
X003716Y016440D01*
X003703Y016361D01*
X004202Y016361D01*
X004202Y016860D01*
X004146Y016851D02*
X003252Y016851D01*
X003252Y016753D02*
X003924Y016753D01*
X003822Y016654D02*
X003252Y016654D01*
X003252Y016556D02*
X003760Y016556D01*
X003722Y016457D02*
X003252Y016457D01*
X003252Y016359D02*
X004202Y016359D01*
X004202Y016457D02*
X004302Y016457D01*
X004302Y016359D02*
X007463Y016359D01*
X007463Y016457D02*
X004783Y016457D01*
X004745Y016556D02*
X007463Y016556D01*
X007463Y016654D02*
X004683Y016654D01*
X004580Y016753D02*
X007463Y016753D01*
X007727Y016753D02*
X007755Y016753D01*
X007755Y016851D02*
X007727Y016851D01*
X007727Y016950D02*
X007755Y016950D01*
X007755Y016654D02*
X007727Y016654D01*
X007727Y016556D02*
X007755Y016556D01*
X007755Y016457D02*
X007727Y016457D01*
X007727Y016359D02*
X007755Y016359D01*
X007755Y016260D02*
X007727Y016260D01*
X007727Y016162D02*
X007755Y016162D01*
X007755Y016063D02*
X007727Y016063D01*
X007727Y015965D02*
X007755Y015965D01*
X007755Y015866D02*
X007727Y015866D01*
X007513Y015866D02*
X004576Y015866D01*
X004680Y015965D02*
X007463Y015965D01*
X007463Y016063D02*
X004743Y016063D01*
X004782Y016162D02*
X007463Y016162D01*
X007463Y016260D02*
X004801Y016260D01*
X004302Y016260D02*
X004202Y016260D01*
X004202Y016162D02*
X004302Y016162D01*
X004302Y016063D02*
X004202Y016063D01*
X004202Y015965D02*
X004302Y015965D01*
X004302Y015866D02*
X004202Y015866D01*
X003929Y015866D02*
X003252Y015866D01*
X003252Y015965D02*
X003824Y015965D01*
X003761Y016063D02*
X003252Y016063D01*
X003252Y016162D02*
X003723Y016162D01*
X003704Y016260D02*
X003252Y016260D01*
X003252Y017147D02*
X004072Y017147D01*
X003890Y017245D02*
X003252Y017245D01*
X003252Y017344D02*
X003792Y017344D01*
X003738Y017442D02*
X003252Y017442D01*
X003252Y017541D02*
X003697Y017541D01*
X003682Y017639D02*
X003252Y017639D01*
X003252Y017738D02*
X003682Y017738D01*
X003696Y017836D02*
X003252Y017836D01*
X003252Y017935D02*
X003737Y017935D01*
X003790Y018033D02*
X003252Y018033D01*
X003252Y018132D02*
X003889Y018132D01*
X004069Y018230D02*
X003252Y018230D01*
X003252Y018329D02*
X004827Y018329D01*
X004926Y018427D02*
X003252Y018427D01*
X003252Y018526D02*
X005024Y018526D01*
X005123Y018624D02*
X003252Y018624D01*
X003252Y018723D02*
X005202Y018723D01*
X005202Y018821D02*
X003252Y018821D01*
X003252Y018920D02*
X005202Y018920D01*
X005202Y019018D02*
X003252Y019018D01*
X003252Y019117D02*
X004258Y019117D01*
X004402Y019117D02*
X004502Y019117D01*
X004502Y019215D02*
X004402Y019215D01*
X004402Y019314D02*
X004502Y019314D01*
X004502Y019412D02*
X004402Y019412D01*
X004402Y019511D02*
X004502Y019511D01*
X004502Y019650D02*
X004402Y019650D01*
X004402Y020550D01*
X004502Y020550D01*
X004502Y020119D01*
X004502Y019650D01*
X004502Y019708D02*
X004402Y019708D01*
X004402Y019806D02*
X004502Y019806D01*
X004502Y019905D02*
X004402Y019905D01*
X004402Y020003D02*
X004502Y020003D01*
X004502Y020102D02*
X004402Y020102D01*
X004402Y020200D02*
X004502Y020200D01*
X004502Y020299D02*
X004402Y020299D01*
X004402Y020397D02*
X004502Y020397D01*
X004502Y020496D02*
X004402Y020496D01*
X004402Y020594D02*
X003252Y020594D01*
X003252Y020496D02*
X003942Y020496D01*
X003972Y020397D02*
X003252Y020397D01*
X003252Y020299D02*
X004029Y020299D01*
X004118Y020200D02*
X003252Y020200D01*
X003252Y020102D02*
X004304Y020102D01*
X004122Y020003D02*
X003252Y020003D01*
X003252Y019905D02*
X004031Y019905D01*
X003974Y019806D02*
X003252Y019806D01*
X003252Y019708D02*
X003943Y019708D01*
X003940Y019511D02*
X003252Y019511D01*
X003252Y019609D02*
X004402Y019609D01*
X003967Y019412D02*
X003252Y019412D01*
X003252Y019314D02*
X004018Y019314D01*
X004102Y019215D02*
X003252Y019215D01*
X004436Y018230D02*
X004729Y018230D01*
X004630Y018132D02*
X004616Y018132D01*
X005042Y017836D02*
X007443Y017836D01*
X007443Y017738D02*
X004943Y017738D01*
X004845Y017639D02*
X007443Y017639D01*
X007443Y017541D02*
X004808Y017541D01*
X004767Y017442D02*
X007443Y017442D01*
X007464Y017344D02*
X004713Y017344D01*
X004615Y017245D02*
X025562Y017245D01*
X025551Y017344D02*
X008018Y017344D01*
X008039Y017442D02*
X025551Y017442D01*
X025551Y017548D02*
X025869Y017548D01*
X025869Y017847D01*
X025681Y017847D01*
X025643Y017837D01*
X025609Y017817D01*
X025581Y017789D01*
X025561Y017755D01*
X025551Y017717D01*
X025551Y017548D01*
X025551Y017639D02*
X008039Y017639D01*
X008039Y017541D02*
X025869Y017541D01*
X025869Y017639D02*
X025966Y017639D01*
X025966Y017738D02*
X025869Y017738D01*
X025869Y017836D02*
X025966Y017836D01*
X026193Y017836D02*
X026269Y017836D01*
X026587Y017500D02*
X026552Y017465D01*
X026552Y017200D01*
X026352Y017000D01*
X025152Y017000D01*
X024352Y016200D01*
X024352Y013400D01*
X024252Y013300D01*
X024063Y013601D02*
X009002Y013601D01*
X009002Y013699D02*
X024132Y013699D01*
X024132Y013798D02*
X009002Y013798D01*
X009002Y013896D02*
X024132Y013896D01*
X024132Y013995D02*
X009002Y013995D01*
X009002Y014093D02*
X024132Y014093D01*
X024132Y014192D02*
X009002Y014192D01*
X008986Y014290D02*
X024132Y014290D01*
X024132Y014389D02*
X008917Y014389D01*
X008819Y014487D02*
X024132Y014487D01*
X024132Y014586D02*
X008720Y014586D01*
X008622Y014684D02*
X024132Y014684D01*
X024132Y014783D02*
X008523Y014783D01*
X008425Y014881D02*
X024132Y014881D01*
X024132Y014980D02*
X008326Y014980D01*
X008228Y015078D02*
X024132Y015078D01*
X024652Y015500D02*
X025152Y016000D01*
X026352Y016000D01*
X026552Y016200D01*
X026552Y016465D01*
X026587Y016500D01*
X027325Y016500D01*
X027680Y016500D02*
X027680Y016373D01*
X028152Y015900D01*
X028103Y016260D02*
X028269Y016260D01*
X028252Y016359D02*
X028005Y016359D01*
X027975Y016457D02*
X028252Y016457D01*
X028252Y016556D02*
X027975Y016556D01*
X027975Y016654D02*
X028252Y016654D01*
X028252Y016753D02*
X027975Y016753D01*
X027944Y016851D02*
X028252Y016851D01*
X028252Y016950D02*
X026613Y016950D01*
X026712Y017048D02*
X028252Y017048D01*
X028252Y017147D02*
X027941Y017147D01*
X027975Y017245D02*
X028252Y017245D01*
X028252Y017344D02*
X027975Y017344D01*
X027975Y017442D02*
X028252Y017442D01*
X028252Y017541D02*
X027975Y017541D01*
X027975Y017639D02*
X028252Y017639D01*
X028252Y017738D02*
X027975Y017738D01*
X027972Y017836D02*
X028252Y017836D01*
X028252Y017935D02*
X027972Y017935D01*
X027930Y018033D02*
X028252Y018033D01*
X028252Y018132D02*
X027832Y018132D01*
X027733Y018230D02*
X028252Y018230D01*
X028252Y018329D02*
X027702Y018329D01*
X027679Y018427D02*
X028252Y018427D01*
X028252Y018526D02*
X027622Y018526D01*
X027485Y018624D02*
X028252Y018624D01*
X028252Y018723D02*
X027890Y018723D01*
X028087Y018821D02*
X028252Y018821D01*
X028252Y018920D02*
X028186Y018920D01*
X028241Y019018D02*
X028252Y019018D01*
X027615Y018723D02*
X026890Y018723D01*
X027087Y018821D02*
X027418Y018821D01*
X027319Y018920D02*
X027186Y018920D01*
X027241Y019018D02*
X027264Y019018D01*
X027220Y018624D02*
X007782Y018624D01*
X007880Y018526D02*
X027083Y018526D01*
X027026Y018427D02*
X007984Y018427D01*
X008039Y018329D02*
X027002Y018329D01*
X027002Y018230D02*
X027056Y018102D01*
X027124Y018033D02*
X008039Y018033D01*
X008039Y017935D02*
X027407Y017935D01*
X027752Y017900D02*
X027352Y018300D01*
X027046Y017836D02*
X026905Y017836D01*
X026974Y017738D02*
X027030Y017738D01*
X027325Y017500D02*
X026587Y017500D01*
X026887Y017147D02*
X027063Y017147D01*
X027030Y017245D02*
X026974Y017245D01*
X026890Y016851D02*
X027061Y016851D01*
X027030Y016753D02*
X026974Y016753D01*
X027680Y017500D02*
X027752Y017500D01*
X027752Y017900D01*
X026615Y018723D02*
X025890Y018723D01*
X026087Y018821D02*
X026418Y018821D01*
X026319Y018920D02*
X026186Y018920D01*
X026241Y019018D02*
X026264Y019018D01*
X026252Y019454D02*
X026210Y019556D01*
X026058Y019708D01*
X026157Y019609D02*
X026348Y019609D01*
X026295Y019556D02*
X026252Y019454D01*
X026229Y019511D02*
X026276Y019511D01*
X026295Y019556D02*
X026446Y019708D01*
X026542Y020003D02*
X025963Y020003D01*
X026061Y020102D02*
X026444Y020102D01*
X026345Y020200D02*
X026160Y020200D01*
X026252Y020299D02*
X026252Y020299D01*
X026252Y020397D02*
X026252Y020397D01*
X026252Y020496D02*
X026252Y020496D01*
X026252Y020594D02*
X026252Y020594D01*
X026252Y020693D02*
X026252Y020693D01*
X026168Y020791D02*
X026336Y020791D01*
X026435Y020890D02*
X026070Y020890D01*
X025971Y020988D02*
X026533Y020988D01*
X026971Y020988D02*
X027533Y020988D01*
X027435Y020890D02*
X027070Y020890D01*
X027168Y020791D02*
X027336Y020791D01*
X027252Y020693D02*
X027252Y020693D01*
X027252Y020594D02*
X027252Y020594D01*
X027252Y020496D02*
X027252Y020496D01*
X027252Y020397D02*
X027252Y020397D01*
X027252Y020299D02*
X027252Y020299D01*
X027160Y020200D02*
X027345Y020200D01*
X027444Y020102D02*
X027061Y020102D01*
X026963Y020003D02*
X027542Y020003D01*
X027446Y019708D02*
X027295Y019556D01*
X027252Y019454D01*
X027210Y019556D01*
X027058Y019708D01*
X027157Y019609D02*
X027348Y019609D01*
X027276Y019511D02*
X027229Y019511D01*
X028058Y019708D02*
X028252Y019708D01*
X028252Y019806D02*
X017870Y019806D01*
X017946Y019708D02*
X017795Y019556D01*
X017752Y019454D01*
X017710Y019556D01*
X017558Y019708D01*
X017657Y019609D02*
X017848Y019609D01*
X017776Y019511D02*
X017729Y019511D01*
X017968Y019905D02*
X028252Y019905D01*
X028252Y020003D02*
X027963Y020003D01*
X028061Y020102D02*
X028252Y020102D01*
X028252Y020200D02*
X028160Y020200D01*
X028252Y020299D02*
X028252Y020299D01*
X028252Y020397D02*
X028252Y020397D01*
X028252Y020496D02*
X028252Y020496D01*
X028252Y020594D02*
X028252Y020594D01*
X028252Y020693D02*
X028252Y020693D01*
X028252Y019609D02*
X028157Y019609D01*
X028229Y019511D02*
X028252Y019511D01*
X025615Y018723D02*
X024890Y018723D01*
X025087Y018821D02*
X025418Y018821D01*
X025319Y018920D02*
X025186Y018920D01*
X025241Y019018D02*
X025264Y019018D01*
X025252Y019454D02*
X025210Y019556D01*
X025058Y019708D01*
X025157Y019609D02*
X025348Y019609D01*
X025295Y019556D02*
X025252Y019454D01*
X025229Y019511D02*
X025276Y019511D01*
X025295Y019556D02*
X025446Y019708D01*
X025542Y020003D02*
X024963Y020003D01*
X025061Y020102D02*
X025444Y020102D01*
X025345Y020200D02*
X025160Y020200D01*
X025252Y020299D02*
X025252Y020299D01*
X025252Y020397D02*
X025252Y020397D01*
X025252Y020496D02*
X025252Y020496D01*
X025252Y020594D02*
X025252Y020594D01*
X025252Y020693D02*
X025252Y020693D01*
X025168Y020791D02*
X025336Y020791D01*
X025435Y020890D02*
X025070Y020890D01*
X024971Y020988D02*
X025533Y020988D01*
X024533Y020988D02*
X023971Y020988D01*
X024070Y020890D02*
X024435Y020890D01*
X024336Y020791D02*
X024168Y020791D01*
X024252Y020693D02*
X024252Y020693D01*
X024252Y020594D02*
X024252Y020594D01*
X024252Y020496D02*
X024252Y020496D01*
X024252Y020397D02*
X024252Y020397D01*
X024252Y020299D02*
X024252Y020299D01*
X024160Y020200D02*
X024345Y020200D01*
X024444Y020102D02*
X024061Y020102D01*
X023963Y020003D02*
X024542Y020003D01*
X024446Y019708D02*
X024295Y019556D01*
X024252Y019454D01*
X024210Y019556D01*
X024058Y019708D01*
X024157Y019609D02*
X024348Y019609D01*
X024276Y019511D02*
X024229Y019511D01*
X024241Y019018D02*
X024264Y019018D01*
X024319Y018920D02*
X024186Y018920D01*
X024087Y018821D02*
X024418Y018821D01*
X024615Y018723D02*
X023890Y018723D01*
X023615Y018723D02*
X022890Y018723D01*
X023087Y018821D02*
X023418Y018821D01*
X023319Y018920D02*
X023186Y018920D01*
X023241Y019018D02*
X023264Y019018D01*
X023252Y019454D02*
X023210Y019556D01*
X023058Y019708D01*
X023157Y019609D02*
X023348Y019609D01*
X023295Y019556D02*
X023252Y019454D01*
X023229Y019511D02*
X023276Y019511D01*
X023295Y019556D02*
X023446Y019708D01*
X023542Y020003D02*
X022963Y020003D01*
X023061Y020102D02*
X023444Y020102D01*
X023345Y020200D02*
X023160Y020200D01*
X023252Y020299D02*
X023252Y020299D01*
X023252Y020397D02*
X023252Y020397D01*
X023252Y020496D02*
X023252Y020496D01*
X023252Y020594D02*
X023252Y020594D01*
X023252Y020693D02*
X023252Y020693D01*
X023168Y020791D02*
X023336Y020791D01*
X023435Y020890D02*
X023070Y020890D01*
X022971Y020988D02*
X023533Y020988D01*
X022533Y020988D02*
X021971Y020988D01*
X022070Y020890D02*
X022435Y020890D01*
X022336Y020791D02*
X022168Y020791D01*
X022252Y020693D02*
X022252Y020693D01*
X022252Y020594D02*
X022252Y020594D01*
X022252Y020496D02*
X022252Y020496D01*
X022252Y020397D02*
X022252Y020397D01*
X022252Y020299D02*
X022252Y020299D01*
X022160Y020200D02*
X022345Y020200D01*
X022444Y020102D02*
X022061Y020102D01*
X021963Y020003D02*
X022542Y020003D01*
X022446Y019708D02*
X022295Y019556D01*
X022252Y019454D01*
X022210Y019556D01*
X022058Y019708D01*
X022157Y019609D02*
X022348Y019609D01*
X022276Y019511D02*
X022229Y019511D01*
X021542Y020003D02*
X020963Y020003D01*
X021061Y020102D02*
X021444Y020102D01*
X021345Y020200D02*
X021160Y020200D01*
X021252Y020299D02*
X021252Y020299D01*
X021252Y020397D02*
X021252Y020397D01*
X021252Y020496D02*
X021252Y020496D01*
X021252Y020594D02*
X021252Y020594D01*
X021252Y020693D02*
X021252Y020693D01*
X021168Y020791D02*
X021336Y020791D01*
X021435Y020890D02*
X021070Y020890D01*
X020971Y020988D02*
X021533Y020988D01*
X020533Y020988D02*
X019471Y020988D01*
X019570Y020890D02*
X020435Y020890D01*
X020336Y020791D02*
X019668Y020791D01*
X019752Y020693D02*
X020252Y020693D01*
X020252Y020594D02*
X019752Y020594D01*
X019752Y020496D02*
X020252Y020496D01*
X020252Y020397D02*
X019752Y020397D01*
X019752Y020299D02*
X020252Y020299D01*
X020345Y020200D02*
X019660Y020200D01*
X019561Y020102D02*
X020444Y020102D01*
X020542Y020003D02*
X019463Y020003D01*
X019042Y020003D02*
X018463Y020003D01*
X018561Y020102D02*
X018944Y020102D01*
X018845Y020200D02*
X018660Y020200D01*
X018752Y020299D02*
X018752Y020299D01*
X018752Y020397D02*
X018752Y020397D01*
X018752Y020496D02*
X018752Y020496D01*
X018752Y020594D02*
X018752Y020594D01*
X018752Y020630D02*
X018752Y020630D01*
X018652Y021000D02*
X006952Y021000D01*
X006452Y020600D01*
X007652Y020000D02*
X017752Y020000D01*
X018252Y020500D01*
X018652Y021000D02*
X019252Y020500D01*
X019033Y020988D02*
X019010Y020988D01*
X018946Y019708D02*
X018795Y019556D01*
X018752Y019454D01*
X018710Y019556D01*
X018558Y019708D01*
X018657Y019609D02*
X018848Y019609D01*
X018776Y019511D02*
X018729Y019511D01*
X018741Y019018D02*
X018764Y019018D01*
X018819Y018920D02*
X018686Y018920D01*
X018587Y018821D02*
X018918Y018821D01*
X019115Y018723D02*
X018390Y018723D01*
X018115Y018723D02*
X017390Y018723D01*
X017587Y018821D02*
X017918Y018821D01*
X017819Y018920D02*
X017686Y018920D01*
X017741Y019018D02*
X017764Y019018D01*
X017115Y018723D02*
X016390Y018723D01*
X016587Y018821D02*
X016918Y018821D01*
X016819Y018920D02*
X016686Y018920D01*
X016741Y019018D02*
X016764Y019018D01*
X016115Y018723D02*
X015390Y018723D01*
X015587Y018821D02*
X015918Y018821D01*
X015819Y018920D02*
X015686Y018920D01*
X015741Y019018D02*
X015764Y019018D01*
X015115Y018723D02*
X014390Y018723D01*
X014587Y018821D02*
X014918Y018821D01*
X014819Y018920D02*
X014686Y018920D01*
X014741Y019018D02*
X014764Y019018D01*
X014115Y018723D02*
X013390Y018723D01*
X013587Y018821D02*
X013918Y018821D01*
X013819Y018920D02*
X013686Y018920D01*
X013741Y019018D02*
X013764Y019018D01*
X013115Y018723D02*
X012390Y018723D01*
X012587Y018821D02*
X012918Y018821D01*
X012819Y018920D02*
X012686Y018920D01*
X012741Y019018D02*
X012764Y019018D01*
X012115Y018723D02*
X011390Y018723D01*
X011587Y018821D02*
X011918Y018821D01*
X011819Y018920D02*
X011686Y018920D01*
X011741Y019018D02*
X011764Y019018D01*
X011115Y018723D02*
X010390Y018723D01*
X010587Y018821D02*
X010918Y018821D01*
X010819Y018920D02*
X010686Y018920D01*
X010741Y019018D02*
X010764Y019018D01*
X010115Y018723D02*
X007683Y018723D01*
X007572Y018821D02*
X009918Y018821D01*
X009819Y018920D02*
X005702Y018920D01*
X005702Y019018D02*
X009764Y019018D01*
X009723Y019117D02*
X006696Y019117D01*
X006831Y019215D02*
X009712Y019215D01*
X009712Y019314D02*
X006918Y019314D01*
X007352Y019600D02*
X007652Y020000D01*
X007572Y019511D02*
X009776Y019511D01*
X009795Y019556D02*
X009946Y019708D01*
X009735Y019412D02*
X007486Y019412D01*
X007352Y019600D02*
X006452Y019600D01*
X005987Y019314D02*
X005918Y019314D01*
X005831Y019215D02*
X006074Y019215D01*
X006208Y019117D02*
X005702Y019117D01*
X005202Y019117D02*
X004647Y019117D01*
X004803Y019215D02*
X005074Y019215D01*
X004987Y019314D02*
X004887Y019314D01*
X004938Y019412D02*
X004946Y019412D01*
X005534Y018329D02*
X007370Y018329D01*
X007443Y018230D02*
X005436Y018230D01*
X005337Y018132D02*
X007443Y018132D01*
X007443Y018033D02*
X005239Y018033D01*
X005140Y017935D02*
X007443Y017935D01*
X007741Y017868D02*
X007752Y017879D01*
X008039Y017836D02*
X025642Y017836D01*
X025557Y017738D02*
X008039Y017738D01*
X004432Y017147D02*
X024988Y017147D01*
X024932Y017091D02*
X024932Y017091D01*
X025243Y016780D02*
X025576Y016780D01*
X025561Y016755D01*
X025551Y016717D01*
X025551Y016548D01*
X025869Y016548D01*
X025869Y016452D01*
X025551Y016452D01*
X025551Y016283D01*
X025561Y016245D01*
X025576Y016220D01*
X025061Y016220D01*
X024932Y016091D01*
X024572Y015731D01*
X024572Y016109D01*
X025243Y016780D01*
X025216Y016753D02*
X025561Y016753D01*
X025551Y016654D02*
X025118Y016654D01*
X025019Y016556D02*
X025551Y016556D01*
X025551Y016359D02*
X024822Y016359D01*
X024921Y016457D02*
X025869Y016457D01*
X025557Y016260D02*
X024724Y016260D01*
X024625Y016162D02*
X025003Y016162D01*
X024904Y016063D02*
X024572Y016063D01*
X024572Y015965D02*
X024806Y015965D01*
X024707Y015866D02*
X024572Y015866D01*
X024572Y015768D02*
X024609Y015768D01*
X024652Y015500D02*
X024652Y012900D01*
X024252Y012500D01*
X024036Y012222D02*
X009002Y012222D01*
X009002Y012320D02*
X023948Y012320D01*
X023907Y012419D02*
X009002Y012419D01*
X009002Y012517D02*
X023902Y012517D01*
X023921Y012616D02*
X009002Y012616D01*
X009002Y012714D02*
X023971Y012714D01*
X024092Y012813D02*
X009002Y012813D01*
X009002Y012911D02*
X024352Y012911D01*
X024048Y013010D02*
X009002Y013010D01*
X009002Y013108D02*
X023953Y013108D01*
X023912Y013207D02*
X009002Y013207D01*
X009002Y013305D02*
X023902Y013305D01*
X023916Y013404D02*
X009002Y013404D01*
X009002Y013502D02*
X023959Y013502D01*
X025172Y013931D02*
X025172Y014409D01*
X025543Y014780D01*
X025576Y014780D01*
X025561Y014755D01*
X025551Y014717D01*
X025551Y014548D01*
X025869Y014548D01*
X025869Y014452D01*
X025551Y014452D01*
X025551Y014283D01*
X025561Y014245D01*
X025576Y014220D01*
X025461Y014220D01*
X025332Y014091D01*
X025172Y013931D01*
X025172Y013995D02*
X025236Y013995D01*
X025172Y014093D02*
X025334Y014093D01*
X025433Y014192D02*
X025172Y014192D01*
X025172Y014290D02*
X025551Y014290D01*
X025551Y014389D02*
X025172Y014389D01*
X025251Y014487D02*
X025869Y014487D01*
X025551Y014586D02*
X025349Y014586D01*
X025448Y014684D02*
X025551Y014684D01*
X025452Y015000D02*
X026352Y015000D01*
X026552Y015200D01*
X026552Y015465D01*
X026587Y015500D01*
X027325Y015500D01*
X027680Y015500D02*
X028152Y015027D01*
X028152Y015000D01*
X027680Y014500D02*
X027680Y014473D01*
X028152Y014000D01*
X027680Y013500D02*
X029052Y012127D01*
X029052Y013000D01*
X028450Y012419D02*
X026772Y012419D01*
X026772Y012517D02*
X028351Y012517D01*
X028253Y012616D02*
X026772Y012616D01*
X026772Y012714D02*
X028154Y012714D01*
X028056Y012813D02*
X026772Y012813D01*
X026772Y012911D02*
X027957Y012911D01*
X027859Y013010D02*
X026772Y013010D01*
X026772Y013108D02*
X027102Y013108D01*
X027030Y013207D02*
X026947Y013207D01*
X026587Y013500D02*
X027325Y013500D01*
X027325Y013627D01*
X026587Y013500D02*
X026552Y013465D01*
X026552Y012500D01*
X024252Y010200D01*
X024006Y010449D02*
X015957Y010449D01*
X015859Y010547D02*
X024176Y010547D01*
X024183Y010550D02*
X024291Y010550D01*
X024291Y010550D01*
X024183Y010550D01*
X024012Y010646D02*
X015760Y010646D01*
X015617Y010744D02*
X023938Y010744D01*
X023902Y010843D02*
X009463Y010843D01*
X009365Y010941D02*
X023902Y010941D01*
X023931Y011040D02*
X009266Y011040D01*
X009168Y011138D02*
X023995Y011138D01*
X024150Y011237D02*
X009069Y011237D01*
X009002Y011335D02*
X024376Y011335D01*
X024024Y011434D02*
X009002Y011434D01*
X009002Y011532D02*
X023943Y011532D01*
X023902Y011631D02*
X009002Y011631D01*
X009002Y011729D02*
X023902Y011729D01*
X023926Y011828D02*
X009002Y011828D01*
X009002Y011926D02*
X023983Y011926D01*
X024121Y012025D02*
X009002Y012025D01*
X009002Y012123D02*
X024364Y012123D01*
X024252Y011700D02*
X024952Y012400D01*
X024952Y014500D01*
X025452Y015000D01*
X025318Y015177D02*
X024872Y015177D01*
X024872Y015275D02*
X025553Y015275D01*
X025551Y015283D02*
X025561Y015245D01*
X025576Y015220D01*
X025361Y015220D01*
X025232Y015091D01*
X024872Y014731D01*
X024872Y015409D01*
X025243Y015780D01*
X025576Y015780D01*
X025561Y015755D01*
X025551Y015717D01*
X025551Y015548D01*
X025869Y015548D01*
X025869Y015452D01*
X025551Y015452D01*
X025551Y015283D01*
X025551Y015374D02*
X024872Y015374D01*
X024936Y015472D02*
X025869Y015472D01*
X025551Y015571D02*
X025034Y015571D01*
X025133Y015669D02*
X025551Y015669D01*
X025569Y015768D02*
X025231Y015768D01*
X025219Y015078D02*
X024872Y015078D01*
X024872Y014980D02*
X025121Y014980D01*
X025022Y014881D02*
X024872Y014881D01*
X024872Y014783D02*
X024924Y014783D01*
X025552Y014000D02*
X026352Y014000D01*
X026552Y014200D01*
X026552Y014465D01*
X026587Y014500D01*
X027325Y014500D01*
X025966Y013452D02*
X025966Y013153D01*
X026154Y013153D01*
X026192Y013163D01*
X026226Y013183D01*
X026238Y013195D01*
X026300Y013133D01*
X026332Y013133D01*
X026332Y012591D01*
X024602Y010861D01*
X024602Y010939D01*
X025443Y011780D01*
X025443Y011780D01*
X025572Y011909D01*
X025572Y013226D01*
X025581Y013211D01*
X025609Y013183D01*
X025643Y013163D01*
X025681Y013153D01*
X025869Y013153D01*
X025869Y013452D01*
X025966Y013452D01*
X025966Y013404D02*
X025869Y013404D01*
X025869Y013305D02*
X025966Y013305D01*
X025966Y013207D02*
X025869Y013207D01*
X025586Y013207D02*
X025572Y013207D01*
X025572Y013108D02*
X026332Y013108D01*
X026332Y013010D02*
X025572Y013010D01*
X025572Y012911D02*
X026332Y012911D01*
X026332Y012813D02*
X025572Y012813D01*
X025572Y012714D02*
X026332Y012714D01*
X026332Y012616D02*
X025572Y012616D01*
X025572Y012517D02*
X026258Y012517D01*
X026160Y012419D02*
X025572Y012419D01*
X025572Y012320D02*
X026061Y012320D01*
X025963Y012222D02*
X025572Y012222D01*
X025572Y012123D02*
X025864Y012123D01*
X025766Y012025D02*
X025572Y012025D01*
X025572Y011926D02*
X025667Y011926D01*
X025569Y011828D02*
X025491Y011828D01*
X025470Y011729D02*
X025393Y011729D01*
X025372Y011631D02*
X025294Y011631D01*
X025273Y011532D02*
X025196Y011532D01*
X025175Y011434D02*
X025097Y011434D01*
X025076Y011335D02*
X024999Y011335D01*
X024978Y011237D02*
X024900Y011237D01*
X024879Y011138D02*
X024802Y011138D01*
X024781Y011040D02*
X024703Y011040D01*
X024682Y010941D02*
X024605Y010941D01*
X024252Y010900D02*
X025352Y012000D01*
X025352Y013800D01*
X025552Y014000D01*
X026684Y012320D02*
X028548Y012320D01*
X028647Y012222D02*
X026585Y012222D01*
X026487Y012123D02*
X028745Y012123D01*
X028844Y012025D02*
X026388Y012025D01*
X026290Y011926D02*
X028942Y011926D01*
X029032Y011828D02*
X026191Y011828D01*
X026093Y011729D02*
X029032Y011729D01*
X029032Y011631D02*
X028584Y011631D01*
X028575Y011639D02*
X028366Y011726D01*
X028139Y011726D01*
X027929Y011639D01*
X027769Y011479D01*
X027757Y011450D01*
X027203Y011450D01*
X027111Y011412D01*
X027040Y011342D01*
X024356Y008657D01*
X023430Y008657D01*
X023427Y008656D01*
X023114Y008656D01*
X023014Y008557D01*
X023014Y008002D01*
X023034Y007982D01*
X023034Y007896D01*
X023480Y007896D01*
X023925Y007896D01*
X023925Y007982D01*
X023945Y008002D01*
X023945Y008157D01*
X024510Y008157D01*
X024601Y008196D01*
X027356Y010950D01*
X027721Y010950D01*
X027769Y010833D01*
X027929Y010673D01*
X028139Y010586D01*
X028366Y010586D01*
X028575Y010673D01*
X028736Y010833D01*
X028822Y011043D01*
X028822Y011269D01*
X028736Y011479D01*
X028575Y011639D01*
X028682Y011532D02*
X029032Y011532D01*
X029032Y011434D02*
X028754Y011434D01*
X028795Y011335D02*
X029032Y011335D01*
X029032Y011237D02*
X028822Y011237D01*
X028822Y011138D02*
X029032Y011138D01*
X029032Y011040D02*
X028821Y011040D01*
X028780Y010941D02*
X029032Y010941D01*
X029032Y010843D02*
X028740Y010843D01*
X028647Y010744D02*
X029032Y010744D01*
X029032Y010646D02*
X028510Y010646D01*
X028366Y010348D02*
X028139Y010348D01*
X027929Y010261D01*
X027769Y010101D01*
X027748Y010050D01*
X027403Y010050D01*
X027311Y010012D01*
X027240Y009942D01*
X024933Y007634D01*
X023925Y007634D01*
X023925Y007640D01*
X023925Y007738D01*
X023917Y007768D01*
X023925Y007797D01*
X023925Y007896D01*
X023480Y007896D01*
X023480Y007896D01*
X023480Y007869D01*
X023480Y007640D01*
X023925Y007640D01*
X023480Y007640D01*
X023480Y007640D01*
X023480Y007640D01*
X023480Y007896D01*
X023480Y007896D01*
X023480Y007896D01*
X023034Y007896D01*
X023034Y007797D01*
X023042Y007768D01*
X023034Y007738D01*
X023034Y007640D01*
X023480Y007640D01*
X023480Y007640D01*
X023034Y007640D01*
X023034Y007553D01*
X023014Y007533D01*
X023014Y006467D01*
X023034Y006447D01*
X023034Y006360D01*
X023034Y006262D01*
X023042Y006232D01*
X023034Y006203D01*
X023034Y006104D01*
X023480Y006104D01*
X023480Y006104D01*
X023480Y006360D01*
X023480Y006360D01*
X023925Y006360D01*
X023925Y006447D01*
X023945Y006467D01*
X023945Y006622D01*
X027846Y006622D01*
X027929Y006539D01*
X028139Y006452D01*
X028366Y006452D01*
X028575Y006539D01*
X028736Y006699D01*
X028822Y006909D01*
X028822Y007135D01*
X028736Y007345D01*
X028575Y007505D01*
X028366Y007592D01*
X029032Y007592D01*
X029032Y007494D02*
X028587Y007494D01*
X028685Y007395D02*
X029032Y007395D01*
X029032Y007297D02*
X028756Y007297D01*
X028796Y007198D02*
X029032Y007198D01*
X029032Y007100D02*
X028822Y007100D01*
X028822Y007001D02*
X029032Y007001D01*
X029032Y006903D02*
X028820Y006903D01*
X028779Y006804D02*
X029032Y006804D01*
X029032Y006706D02*
X028738Y006706D01*
X028643Y006607D02*
X029032Y006607D01*
X029032Y006509D02*
X028502Y006509D01*
X028368Y006213D02*
X029032Y006213D01*
X029032Y006115D02*
X028588Y006115D01*
X028687Y006016D02*
X029032Y006016D01*
X029032Y005918D02*
X028756Y005918D01*
X028797Y005819D02*
X029032Y005819D01*
X029032Y005721D02*
X028822Y005721D01*
X028822Y005622D02*
X029013Y005622D01*
X028915Y005524D02*
X028819Y005524D01*
X028816Y005425D02*
X028779Y005425D01*
X028752Y005050D02*
X029252Y005550D01*
X029252Y011927D01*
X029052Y012127D01*
X027921Y011631D02*
X025994Y011631D01*
X025896Y011532D02*
X027822Y011532D01*
X027724Y010941D02*
X027347Y010941D01*
X027248Y010843D02*
X027765Y010843D01*
X027858Y010744D02*
X027150Y010744D01*
X027051Y010646D02*
X027995Y010646D01*
X027920Y010252D02*
X026657Y010252D01*
X026756Y010350D02*
X029032Y010350D01*
X029032Y010252D02*
X028585Y010252D01*
X028575Y010261D02*
X028366Y010348D01*
X028575Y010261D02*
X028736Y010101D01*
X028822Y009891D01*
X028822Y009665D01*
X028736Y009455D01*
X028575Y009295D01*
X028366Y009208D01*
X028139Y009208D01*
X027929Y009295D01*
X027769Y009455D01*
X027730Y009550D01*
X027556Y009550D01*
X025178Y007172D01*
X025086Y007134D01*
X023945Y007134D01*
X023945Y007122D01*
X027682Y007122D01*
X027682Y007135D01*
X027769Y007345D01*
X027929Y007505D01*
X028139Y007592D01*
X028366Y007592D01*
X028139Y007592D02*
X025598Y007592D01*
X025696Y007691D02*
X029032Y007691D01*
X029032Y007789D02*
X025795Y007789D01*
X025893Y007888D02*
X028050Y007888D01*
X028041Y007890D02*
X028124Y007864D01*
X028202Y007851D01*
X028202Y008350D01*
X027703Y008350D01*
X027716Y008271D01*
X027743Y008189D01*
X027782Y008112D01*
X027833Y008042D01*
X027894Y007980D01*
X027964Y007930D01*
X028041Y007890D01*
X028202Y007888D02*
X028302Y007888D01*
X028302Y007851D02*
X028381Y007864D01*
X028463Y007890D01*
X028541Y007930D01*
X028611Y007980D01*
X028672Y008042D01*
X028723Y008112D01*
X028762Y008189D01*
X028789Y008271D01*
X028801Y008350D01*
X028302Y008350D01*
X028302Y007851D01*
X028302Y007986D02*
X028202Y007986D01*
X028202Y008085D02*
X028302Y008085D01*
X028302Y008183D02*
X028202Y008183D01*
X028202Y008282D02*
X028302Y008282D01*
X028302Y008350D02*
X028202Y008350D01*
X028202Y008450D01*
X027703Y008450D01*
X027716Y008529D01*
X027743Y008611D01*
X027782Y008688D01*
X027833Y008758D01*
X027894Y008820D01*
X027964Y008870D01*
X028041Y008910D01*
X028124Y008936D01*
X028202Y008949D01*
X028202Y008450D01*
X028302Y008450D01*
X028302Y008949D01*
X028381Y008936D01*
X028463Y008910D01*
X028541Y008870D01*
X028611Y008820D01*
X028672Y008758D01*
X028723Y008688D01*
X028762Y008611D01*
X028789Y008529D01*
X028801Y008450D01*
X028302Y008450D01*
X028302Y008350D01*
X028302Y008380D02*
X029032Y008380D01*
X029032Y008282D02*
X028790Y008282D01*
X028759Y008183D02*
X029032Y008183D01*
X029032Y008085D02*
X028703Y008085D01*
X028616Y007986D02*
X029032Y007986D01*
X029032Y007888D02*
X028455Y007888D01*
X028202Y008380D02*
X026386Y008380D01*
X026484Y008479D02*
X027708Y008479D01*
X027732Y008577D02*
X026583Y008577D01*
X026681Y008676D02*
X027775Y008676D01*
X027849Y008774D02*
X026780Y008774D01*
X026878Y008873D02*
X027968Y008873D01*
X028202Y008873D02*
X028302Y008873D01*
X028302Y008774D02*
X028202Y008774D01*
X028202Y008676D02*
X028302Y008676D01*
X028302Y008577D02*
X028202Y008577D01*
X028202Y008479D02*
X028302Y008479D01*
X028536Y008873D02*
X029032Y008873D01*
X029032Y008971D02*
X026977Y008971D01*
X027075Y009070D02*
X029032Y009070D01*
X029032Y009168D02*
X027174Y009168D01*
X027272Y009267D02*
X027998Y009267D01*
X027859Y009365D02*
X027371Y009365D01*
X027469Y009464D02*
X027766Y009464D01*
X027255Y009956D02*
X026362Y009956D01*
X026460Y010055D02*
X027750Y010055D01*
X027821Y010153D02*
X026559Y010153D01*
X026263Y009858D02*
X027156Y009858D01*
X027058Y009759D02*
X026165Y009759D01*
X026066Y009661D02*
X026959Y009661D01*
X026861Y009562D02*
X025968Y009562D01*
X025869Y009464D02*
X026762Y009464D01*
X026664Y009365D02*
X025771Y009365D01*
X025672Y009267D02*
X026565Y009267D01*
X026467Y009168D02*
X025574Y009168D01*
X025475Y009070D02*
X026368Y009070D01*
X026270Y008971D02*
X025377Y008971D01*
X025278Y008873D02*
X026171Y008873D01*
X026073Y008774D02*
X025180Y008774D01*
X025081Y008676D02*
X025974Y008676D01*
X025876Y008577D02*
X024983Y008577D01*
X024884Y008479D02*
X025777Y008479D01*
X025679Y008380D02*
X024786Y008380D01*
X024687Y008282D02*
X025580Y008282D01*
X025482Y008183D02*
X024571Y008183D01*
X023945Y008085D02*
X025383Y008085D01*
X025285Y007986D02*
X023928Y007986D01*
X023925Y007888D02*
X025186Y007888D01*
X025088Y007789D02*
X023923Y007789D01*
X023925Y007691D02*
X024989Y007691D01*
X025401Y007395D02*
X027819Y007395D01*
X027749Y007297D02*
X025302Y007297D01*
X025204Y007198D02*
X027708Y007198D01*
X027918Y007494D02*
X025499Y007494D01*
X025992Y007986D02*
X027889Y007986D01*
X027802Y008085D02*
X026090Y008085D01*
X026189Y008183D02*
X027746Y008183D01*
X027714Y008282D02*
X026287Y008282D01*
X024965Y009267D02*
X020756Y009267D01*
X020855Y009168D02*
X024867Y009168D01*
X024768Y009070D02*
X020953Y009070D01*
X021048Y008971D02*
X024670Y008971D01*
X024571Y008873D02*
X021143Y008873D01*
X021238Y008774D02*
X024473Y008774D01*
X024374Y008676D02*
X021334Y008676D01*
X021429Y008577D02*
X023035Y008577D01*
X023014Y008479D02*
X021527Y008479D01*
X021626Y008380D02*
X023014Y008380D01*
X023014Y008282D02*
X021724Y008282D01*
X021823Y008183D02*
X023014Y008183D01*
X023014Y008085D02*
X021921Y008085D01*
X022020Y007986D02*
X023031Y007986D01*
X023034Y007888D02*
X022087Y007888D01*
X022102Y007789D02*
X023036Y007789D01*
X023034Y007691D02*
X022102Y007691D01*
X022102Y007592D02*
X023034Y007592D01*
X023014Y007494D02*
X022102Y007494D01*
X022150Y007395D02*
X023014Y007395D01*
X023014Y007297D02*
X022191Y007297D01*
X022202Y007198D02*
X023014Y007198D01*
X023014Y007100D02*
X022190Y007100D01*
X022148Y007001D02*
X023014Y007001D01*
X023014Y006903D02*
X022049Y006903D01*
X021656Y006903D02*
X021090Y006903D01*
X021090Y007001D02*
X021556Y007001D01*
X021515Y007100D02*
X021070Y007100D01*
X021070Y007128D02*
X020625Y007128D01*
X020625Y007128D01*
X020180Y007128D01*
X020180Y007164D01*
X019377Y007164D01*
X018861Y007680D01*
X017983Y007680D01*
X019083Y006580D01*
X020160Y006580D01*
X020160Y007021D01*
X020180Y007041D01*
X020180Y007128D01*
X020625Y007128D01*
X020625Y007135D01*
X020625Y007135D01*
X020625Y007128D01*
X020625Y007128D01*
X020625Y007121D01*
X020625Y007121D01*
X020625Y007128D01*
X020625Y007128D01*
X021070Y007128D01*
X021070Y007198D02*
X021502Y007198D01*
X021514Y007297D02*
X021090Y007297D01*
X021090Y007395D02*
X021554Y007395D01*
X021602Y007494D02*
X021090Y007494D01*
X021090Y007592D02*
X021602Y007592D01*
X021602Y007691D02*
X021090Y007691D01*
X021090Y007789D02*
X021510Y007789D01*
X021411Y007888D02*
X021090Y007888D01*
X021090Y007986D02*
X021313Y007986D01*
X021214Y008085D02*
X021090Y008085D01*
X020625Y007896D02*
X020571Y007900D01*
X019952Y007900D01*
X019445Y008407D01*
X016901Y008407D01*
X016950Y008200D02*
X016901Y008152D01*
X016950Y008200D02*
X019152Y008200D01*
X019713Y007640D01*
X020625Y007640D01*
X020625Y007384D02*
X019469Y007384D01*
X018952Y007900D01*
X016905Y007900D01*
X016901Y007896D01*
X016901Y007640D02*
X016941Y007600D01*
X017752Y007600D01*
X018992Y006360D01*
X020625Y006360D01*
X020591Y006600D02*
X020625Y006616D01*
X020625Y006872D01*
X020625Y007128D02*
X020625Y007128D01*
X020180Y007100D02*
X018564Y007100D01*
X018465Y007198D02*
X019343Y007198D01*
X019245Y007297D02*
X018367Y007297D01*
X018268Y007395D02*
X019146Y007395D01*
X019048Y007494D02*
X018170Y007494D01*
X018071Y007592D02*
X018949Y007592D01*
X018662Y007001D02*
X020160Y007001D01*
X020160Y006903D02*
X018761Y006903D01*
X018859Y006804D02*
X020160Y006804D01*
X020160Y006706D02*
X018958Y006706D01*
X019056Y006607D02*
X020160Y006607D01*
X020591Y006600D02*
X021152Y006600D01*
X021902Y005850D01*
X021852Y005800D01*
X021652Y005800D01*
X021352Y005500D01*
X021902Y005850D02*
X022452Y005300D01*
X026202Y005300D01*
X026452Y005050D01*
X028752Y005050D01*
X028752Y004535D01*
X028687Y004600D01*
X028302Y004600D01*
X028052Y004350D01*
X027637Y004350D01*
X027288Y004655D02*
X027276Y004667D01*
X027242Y004687D01*
X027204Y004697D01*
X027016Y004697D01*
X027016Y004398D01*
X026919Y004398D01*
X026919Y004302D01*
X026601Y004302D01*
X026601Y004133D01*
X026611Y004095D01*
X026631Y004061D01*
X026659Y004033D01*
X026693Y004013D01*
X026731Y004003D01*
X026919Y004003D01*
X026919Y004302D01*
X027016Y004302D01*
X027016Y004003D01*
X027204Y004003D01*
X027242Y004013D01*
X027276Y004033D01*
X027288Y004045D01*
X027337Y003996D01*
X027332Y003991D01*
X026761Y003420D01*
X026543Y003420D01*
X024883Y005080D01*
X026111Y005080D01*
X026361Y004830D01*
X028394Y004830D01*
X028386Y004822D01*
X028386Y004820D01*
X028211Y004820D01*
X028082Y004691D01*
X028016Y004625D01*
X027924Y004717D01*
X027350Y004717D01*
X027288Y004655D01*
X027016Y004637D02*
X026919Y004637D01*
X026919Y004697D02*
X026731Y004697D01*
X026693Y004687D01*
X026659Y004667D01*
X026631Y004639D01*
X026611Y004605D01*
X026601Y004567D01*
X026601Y004398D01*
X026919Y004398D01*
X026919Y004697D01*
X026919Y004539D02*
X027016Y004539D01*
X027016Y004440D02*
X026919Y004440D01*
X026968Y004365D02*
X026687Y004365D01*
X026252Y004800D01*
X026357Y004834D02*
X025129Y004834D01*
X025031Y004933D02*
X026259Y004933D01*
X026160Y005031D02*
X024932Y005031D01*
X025228Y004736D02*
X028127Y004736D01*
X028028Y004637D02*
X028004Y004637D01*
X027552Y003900D02*
X028718Y003900D01*
X028752Y003865D01*
X029252Y003700D02*
X028787Y003235D01*
X028752Y003235D01*
X028718Y003200D01*
X028452Y003200D01*
X028202Y003450D01*
X028202Y003550D01*
X027552Y003900D02*
X026852Y003200D01*
X026752Y003200D01*
X026452Y003200D01*
X026508Y003455D02*
X026796Y003455D01*
X026895Y003554D02*
X026410Y003554D01*
X026311Y003652D02*
X026993Y003652D01*
X027092Y003751D02*
X026213Y003751D01*
X026114Y003849D02*
X027190Y003849D01*
X027289Y003948D02*
X026016Y003948D01*
X025917Y004046D02*
X026646Y004046D01*
X026601Y004145D02*
X025819Y004145D01*
X025720Y004243D02*
X026601Y004243D01*
X026601Y004440D02*
X025523Y004440D01*
X025425Y004539D02*
X026601Y004539D01*
X026630Y004637D02*
X025326Y004637D01*
X025622Y004342D02*
X026919Y004342D01*
X026968Y004350D02*
X026968Y004365D01*
X026919Y004243D02*
X027016Y004243D01*
X027016Y004145D02*
X026919Y004145D01*
X026919Y004046D02*
X027016Y004046D01*
X026752Y003200D02*
X026752Y002750D01*
X026752Y001500D01*
X026356Y001190D02*
X026149Y001190D01*
X026247Y001288D02*
X026257Y001288D01*
X026252Y001387D02*
X026252Y001387D01*
X026252Y001485D02*
X026252Y001485D01*
X026252Y001584D02*
X026252Y001584D01*
X026252Y001682D02*
X026252Y001682D01*
X026179Y001781D02*
X026326Y001781D01*
X026424Y001879D02*
X026080Y001879D01*
X025982Y001978D02*
X026523Y001978D01*
X026532Y002076D02*
X025972Y002076D01*
X025972Y002175D02*
X026532Y002175D01*
X026493Y002273D02*
X026012Y002273D01*
X026138Y002372D02*
X026367Y002372D01*
X026284Y002470D02*
X026221Y002470D01*
X025752Y002750D02*
X025752Y001500D01*
X025454Y001091D02*
X025050Y001091D01*
X025149Y001190D02*
X025356Y001190D01*
X025257Y001288D02*
X025247Y001288D01*
X025252Y001387D02*
X025252Y001387D01*
X025252Y001485D02*
X025252Y001485D01*
X025252Y001584D02*
X025252Y001584D01*
X025252Y001682D02*
X025252Y001682D01*
X025179Y001781D02*
X025326Y001781D01*
X025424Y001879D02*
X025080Y001879D01*
X024982Y001978D02*
X025523Y001978D01*
X025532Y002076D02*
X024972Y002076D01*
X024972Y002175D02*
X025532Y002175D01*
X025493Y002273D02*
X025012Y002273D01*
X025138Y002372D02*
X025367Y002372D01*
X025284Y002470D02*
X025221Y002470D01*
X025249Y002963D02*
X025256Y002963D01*
X025300Y003061D02*
X025205Y003061D01*
X025107Y003160D02*
X025398Y003160D01*
X025568Y003258D02*
X024937Y003258D01*
X024568Y003258D02*
X023937Y003258D01*
X024107Y003160D02*
X024398Y003160D01*
X024300Y003061D02*
X024205Y003061D01*
X024249Y002963D02*
X024256Y002963D01*
X024752Y002750D02*
X024752Y001500D01*
X024252Y001485D02*
X024252Y001485D01*
X024252Y001387D02*
X024252Y001387D01*
X024247Y001288D02*
X024257Y001288D01*
X024356Y001190D02*
X024149Y001190D01*
X024050Y001091D02*
X024454Y001091D01*
X024252Y001584D02*
X024252Y001584D01*
X024252Y001682D02*
X024252Y001682D01*
X024179Y001781D02*
X024326Y001781D01*
X024424Y001879D02*
X024080Y001879D01*
X023982Y001978D02*
X024523Y001978D01*
X024532Y002076D02*
X023972Y002076D01*
X023972Y002175D02*
X024532Y002175D01*
X024493Y002273D02*
X024012Y002273D01*
X024138Y002372D02*
X024367Y002372D01*
X024284Y002470D02*
X024221Y002470D01*
X025689Y003652D02*
X022102Y003652D01*
X022102Y003554D02*
X025788Y003554D01*
X025886Y003455D02*
X022102Y003455D01*
X021602Y003258D02*
X020937Y003258D01*
X021107Y003160D02*
X021602Y003160D01*
X021602Y003061D02*
X021205Y003061D01*
X021249Y002963D02*
X021602Y002963D01*
X021602Y002864D02*
X021290Y002864D01*
X021292Y002766D02*
X021602Y002766D01*
X021602Y002667D02*
X021292Y002667D01*
X021262Y002569D02*
X021602Y002569D01*
X021602Y002470D02*
X021221Y002470D01*
X021138Y002372D02*
X021602Y002372D01*
X021602Y002273D02*
X021012Y002273D01*
X021002Y002175D02*
X021602Y002175D01*
X021602Y002076D02*
X021002Y002076D01*
X021002Y001978D02*
X021602Y001978D01*
X021602Y001879D02*
X021080Y001879D01*
X021179Y001781D02*
X021602Y001781D01*
X021602Y001682D02*
X021252Y001682D01*
X021252Y001584D02*
X021562Y001584D01*
X021444Y001485D02*
X021252Y001485D01*
X021252Y001387D02*
X021326Y001387D01*
X021752Y001091D02*
X022454Y001091D01*
X022356Y001190D02*
X021870Y001190D01*
X021994Y001288D02*
X022257Y001288D01*
X022252Y001387D02*
X022076Y001387D01*
X022102Y001485D02*
X022252Y001485D01*
X022252Y001584D02*
X022102Y001584D01*
X022102Y001682D02*
X022252Y001682D01*
X022326Y001781D02*
X022102Y001781D01*
X022102Y001879D02*
X022424Y001879D01*
X020502Y001978D02*
X019954Y001978D01*
X020052Y001879D02*
X020424Y001879D01*
X020326Y001781D02*
X020151Y001781D01*
X020232Y001682D02*
X020252Y001682D01*
X020252Y001584D02*
X020232Y001584D01*
X020252Y001485D02*
X019801Y001485D01*
X019704Y001485D02*
X018801Y001485D01*
X018704Y001485D02*
X018252Y001485D01*
X018272Y001548D02*
X018704Y001548D01*
X018704Y001980D01*
X018554Y001980D01*
X018272Y001699D01*
X018272Y001548D01*
X018272Y001584D02*
X018252Y001584D01*
X018252Y001682D02*
X018272Y001682D01*
X018354Y001781D02*
X018179Y001781D01*
X018080Y001879D02*
X018453Y001879D01*
X018551Y001978D02*
X018002Y001978D01*
X018002Y002076D02*
X020502Y002076D01*
X020502Y002175D02*
X018002Y002175D01*
X018012Y002273D02*
X018543Y002273D01*
X018702Y002273D02*
X018802Y002273D01*
X018802Y002372D02*
X018702Y002372D01*
X018702Y002470D02*
X018802Y002470D01*
X018802Y002569D02*
X018702Y002569D01*
X018702Y002667D02*
X018802Y002667D01*
X018802Y002766D02*
X019702Y002766D01*
X019702Y002864D02*
X019802Y002864D01*
X019802Y002963D02*
X019702Y002963D01*
X019702Y003061D02*
X019802Y003061D01*
X019802Y003160D02*
X019702Y003160D01*
X019702Y003258D02*
X019802Y003258D01*
X019869Y003258D02*
X020568Y003258D01*
X020398Y003160D02*
X020073Y003160D01*
X020169Y003061D02*
X020300Y003061D01*
X020256Y002963D02*
X020228Y002963D01*
X019802Y002667D02*
X019702Y002667D01*
X019702Y002569D02*
X019802Y002569D01*
X019802Y002470D02*
X019702Y002470D01*
X019702Y002372D02*
X019802Y002372D01*
X019802Y002273D02*
X019702Y002273D01*
X019543Y002273D02*
X018962Y002273D01*
X019109Y002372D02*
X019395Y002372D01*
X019313Y002470D02*
X019192Y002470D01*
X019240Y002569D02*
X019265Y002569D01*
X019277Y002963D02*
X019228Y002963D01*
X019169Y003061D02*
X019336Y003061D01*
X019431Y003160D02*
X019073Y003160D01*
X019421Y003258D02*
X019636Y003258D01*
X020240Y002569D02*
X020243Y002569D01*
X020284Y002470D02*
X020192Y002470D01*
X020109Y002372D02*
X020367Y002372D01*
X020493Y002273D02*
X019962Y002273D01*
X019801Y001978D02*
X019704Y001978D01*
X019704Y001980D02*
X019554Y001980D01*
X019272Y001699D01*
X019272Y001548D01*
X019704Y001548D01*
X019704Y001980D01*
X019704Y001879D02*
X019801Y001879D01*
X019801Y001781D02*
X019704Y001781D01*
X019704Y001682D02*
X019801Y001682D01*
X019801Y001584D02*
X019704Y001584D01*
X019453Y001879D02*
X019052Y001879D01*
X018954Y001978D02*
X019551Y001978D01*
X019354Y001781D02*
X019151Y001781D01*
X019232Y001682D02*
X019272Y001682D01*
X019272Y001584D02*
X019232Y001584D01*
X019232Y001387D02*
X019272Y001387D01*
X019286Y001288D02*
X019219Y001288D01*
X018801Y001584D02*
X018704Y001584D01*
X018704Y001682D02*
X018801Y001682D01*
X018801Y001781D02*
X018704Y001781D01*
X018704Y001879D02*
X018801Y001879D01*
X018801Y001978D02*
X018704Y001978D01*
X018395Y002372D02*
X018138Y002372D01*
X018221Y002470D02*
X018313Y002470D01*
X018265Y002569D02*
X018262Y002569D01*
X018252Y001387D02*
X018272Y001387D01*
X018286Y001288D02*
X018247Y001288D01*
X020219Y001288D02*
X020257Y001288D01*
X020252Y001387D02*
X020232Y001387D01*
X022102Y003751D02*
X025591Y003751D01*
X025492Y003849D02*
X022102Y003849D01*
X022540Y005524D02*
X023014Y005524D01*
X023014Y005622D02*
X022441Y005622D01*
X022343Y005721D02*
X023014Y005721D01*
X023014Y005819D02*
X022244Y005819D01*
X022146Y005918D02*
X023014Y005918D01*
X023033Y006016D02*
X022047Y006016D01*
X021949Y006115D02*
X023034Y006115D01*
X023037Y006213D02*
X021850Y006213D01*
X021752Y006312D02*
X023034Y006312D01*
X023034Y006360D02*
X023480Y006360D01*
X023480Y006360D01*
X023034Y006360D01*
X023034Y006410D02*
X021653Y006410D01*
X021555Y006509D02*
X023014Y006509D01*
X023014Y006607D02*
X021456Y006607D01*
X021358Y006706D02*
X023014Y006706D01*
X023014Y006804D02*
X021259Y006804D01*
X020625Y006104D02*
X018848Y006104D01*
X017552Y007400D01*
X016917Y007400D01*
X016901Y007384D01*
X016536Y007395D02*
X016502Y007395D01*
X016502Y007494D02*
X016536Y007494D01*
X016536Y007592D02*
X016502Y007592D01*
X016502Y007691D02*
X016536Y007691D01*
X016536Y007789D02*
X016502Y007789D01*
X016502Y007888D02*
X016536Y007888D01*
X016536Y007986D02*
X016502Y007986D01*
X016502Y008085D02*
X016536Y008085D01*
X016536Y008183D02*
X016502Y008183D01*
X016502Y008282D02*
X016536Y008282D01*
X016536Y008380D02*
X016502Y008380D01*
X016502Y008479D02*
X016536Y008479D01*
X016558Y008577D02*
X016502Y008577D01*
X016502Y008676D02*
X016556Y008676D01*
X016556Y008663D02*
X016901Y008663D01*
X016901Y008663D01*
X016901Y008663D01*
X017246Y008663D01*
X017246Y008743D01*
X017236Y008781D01*
X017216Y008815D01*
X017188Y008843D01*
X017154Y008863D01*
X017116Y008873D01*
X016901Y008873D01*
X016686Y008873D01*
X016648Y008863D01*
X016614Y008843D01*
X016586Y008815D01*
X016566Y008781D01*
X016556Y008743D01*
X016556Y008663D01*
X016564Y008774D02*
X016502Y008774D01*
X016502Y008873D02*
X016683Y008873D01*
X016502Y008971D02*
X017561Y008971D01*
X017561Y008974D02*
X017571Y008935D01*
X017591Y008901D01*
X017619Y008873D01*
X017653Y008854D01*
X017691Y008843D01*
X018130Y008843D01*
X018130Y009107D01*
X018158Y009107D01*
X018158Y009135D01*
X018727Y009135D01*
X018727Y009269D01*
X018717Y009307D01*
X018697Y009341D01*
X018669Y009369D01*
X018635Y009389D01*
X018597Y009399D01*
X018158Y009399D01*
X018158Y009135D01*
X018130Y009135D01*
X018130Y009107D01*
X017561Y009107D01*
X017561Y008974D01*
X017561Y009070D02*
X016502Y009070D01*
X016502Y009168D02*
X017561Y009168D01*
X017561Y009135D02*
X018130Y009135D01*
X018130Y009399D01*
X017691Y009399D01*
X017653Y009389D01*
X017619Y009369D01*
X017591Y009341D01*
X017571Y009307D01*
X017561Y009269D01*
X017561Y009135D01*
X017561Y009267D02*
X016502Y009267D01*
X016502Y009365D02*
X017614Y009365D01*
X018130Y009365D02*
X018158Y009365D01*
X018158Y009267D02*
X018130Y009267D01*
X018130Y009168D02*
X018158Y009168D01*
X018158Y009107D02*
X018727Y009107D01*
X018727Y008974D01*
X018717Y008935D01*
X018697Y008901D01*
X018669Y008873D01*
X018635Y008854D01*
X018597Y008843D01*
X018158Y008843D01*
X018158Y009107D01*
X018158Y009070D02*
X018130Y009070D01*
X018130Y008971D02*
X018158Y008971D01*
X018158Y008873D02*
X018130Y008873D01*
X017620Y008873D02*
X017119Y008873D01*
X017238Y008774D02*
X020542Y008774D01*
X020638Y008676D02*
X017246Y008676D01*
X016901Y008676D02*
X016901Y008676D01*
X016901Y008663D02*
X016901Y008873D01*
X016901Y008663D01*
X016901Y008663D01*
X016901Y008774D02*
X016901Y008774D01*
X016901Y008873D02*
X016901Y008873D01*
X016502Y009464D02*
X025162Y009464D01*
X025261Y009562D02*
X016502Y009562D01*
X016502Y009661D02*
X025359Y009661D01*
X025458Y009759D02*
X016502Y009759D01*
X016499Y009858D02*
X024165Y009858D01*
X024340Y009858D02*
X025556Y009858D01*
X025655Y009956D02*
X024503Y009956D01*
X024571Y010055D02*
X025753Y010055D01*
X025852Y010153D02*
X024602Y010153D01*
X024615Y010252D02*
X025950Y010252D01*
X026049Y010350D02*
X024714Y010350D01*
X024812Y010449D02*
X026147Y010449D01*
X026246Y010547D02*
X024911Y010547D01*
X025009Y010646D02*
X026344Y010646D01*
X026443Y010744D02*
X025108Y010744D01*
X025206Y010843D02*
X026541Y010843D01*
X026640Y010941D02*
X025305Y010941D01*
X025403Y011040D02*
X026738Y011040D01*
X026837Y011138D02*
X025502Y011138D01*
X025600Y011237D02*
X026935Y011237D01*
X027034Y011335D02*
X025699Y011335D01*
X025797Y011434D02*
X027163Y011434D01*
X026953Y010547D02*
X029032Y010547D01*
X029032Y010449D02*
X026854Y010449D01*
X028683Y010153D02*
X029032Y010153D01*
X029032Y010055D02*
X028755Y010055D01*
X028796Y009956D02*
X029032Y009956D01*
X029032Y009858D02*
X028822Y009858D01*
X028822Y009759D02*
X029032Y009759D01*
X029032Y009661D02*
X028821Y009661D01*
X028780Y009562D02*
X029032Y009562D01*
X029032Y009464D02*
X028739Y009464D01*
X028646Y009365D02*
X029032Y009365D01*
X029032Y009267D02*
X028507Y009267D01*
X028656Y008774D02*
X029032Y008774D01*
X029032Y008676D02*
X028729Y008676D01*
X028773Y008577D02*
X029032Y008577D01*
X029032Y008479D02*
X028797Y008479D01*
X027861Y006607D02*
X023945Y006607D01*
X023945Y006509D02*
X028003Y006509D01*
X028136Y006213D02*
X023922Y006213D01*
X023925Y006115D02*
X027917Y006115D01*
X027818Y006016D02*
X023926Y006016D01*
X023945Y005918D02*
X027749Y005918D01*
X029032Y006312D02*
X023925Y006312D01*
X023925Y006410D02*
X029032Y006410D01*
X029252Y005550D02*
X029252Y003700D01*
X027937Y002565D02*
X027752Y002750D01*
X027752Y001500D01*
X027252Y001485D02*
X027252Y001485D01*
X027252Y001387D02*
X027252Y001387D01*
X027247Y001288D02*
X027257Y001288D01*
X027356Y001190D02*
X027149Y001190D01*
X027050Y001091D02*
X027454Y001091D01*
X027252Y001584D02*
X027252Y001584D01*
X027252Y001682D02*
X027252Y001682D01*
X027179Y001781D02*
X027326Y001781D01*
X027424Y001879D02*
X027080Y001879D01*
X026982Y001978D02*
X027523Y001978D01*
X027532Y002076D02*
X026972Y002076D01*
X026972Y002175D02*
X027532Y002175D01*
X027493Y002273D02*
X027012Y002273D01*
X027138Y002372D02*
X027367Y002372D01*
X027284Y002470D02*
X027221Y002470D01*
X027937Y002565D02*
X028752Y002565D01*
X028720Y002175D02*
X027972Y002175D01*
X027972Y002076D02*
X028621Y002076D01*
X028523Y001978D02*
X027982Y001978D01*
X028080Y001879D02*
X028424Y001879D01*
X028327Y001781D02*
X028179Y001781D01*
X028252Y001682D02*
X028287Y001682D01*
X028252Y001584D02*
X028252Y001584D01*
X028252Y001485D02*
X028252Y001485D01*
X028252Y001387D02*
X028252Y001387D01*
X028247Y001288D02*
X028252Y001288D01*
X028252Y001190D02*
X028149Y001190D01*
X028050Y001091D02*
X028252Y001091D01*
X028391Y002273D02*
X028012Y002273D01*
X026454Y001091D02*
X026050Y001091D01*
X025394Y003948D02*
X025137Y003948D01*
X025243Y004046D02*
X025295Y004046D01*
X024952Y004250D02*
X024852Y004350D01*
X023480Y006115D02*
X023480Y006115D01*
X023480Y006213D02*
X023480Y006213D01*
X023480Y006312D02*
X023480Y006312D01*
X023480Y007691D02*
X023480Y007691D01*
X023480Y007789D02*
X023480Y007789D01*
X023480Y007888D02*
X023480Y007888D01*
X025064Y009365D02*
X020613Y009365D01*
X020180Y008577D02*
X019586Y008577D01*
X019685Y008479D02*
X020160Y008479D01*
X020160Y008380D02*
X019783Y008380D01*
X019882Y008282D02*
X020160Y008282D01*
X020160Y008183D02*
X019980Y008183D01*
X019048Y008873D02*
X018668Y008873D01*
X018726Y008971D02*
X018997Y008971D01*
X018997Y009070D02*
X018727Y009070D01*
X018727Y009168D02*
X018997Y009168D01*
X018997Y009267D02*
X018727Y009267D01*
X018673Y009365D02*
X019043Y009365D01*
X016450Y009956D02*
X024001Y009956D01*
X023934Y010055D02*
X016351Y010055D01*
X016253Y010153D02*
X023902Y010153D01*
X023902Y010252D02*
X016154Y010252D01*
X016056Y010350D02*
X023936Y010350D01*
X020625Y005848D02*
X018604Y005848D01*
X017352Y007100D01*
X016929Y007100D01*
X016901Y007128D01*
X016536Y007297D02*
X016509Y007297D01*
X016152Y006400D02*
X016192Y006360D01*
X016901Y006360D01*
X016901Y006104D02*
X017257Y006104D01*
X017452Y006300D01*
X017852Y006000D02*
X017701Y005848D01*
X016901Y005848D01*
X016901Y005593D02*
X018145Y005593D01*
X018252Y005700D01*
X018789Y005337D02*
X018852Y005400D01*
X018789Y005337D02*
X016901Y005337D01*
X016352Y006000D02*
X015852Y005400D01*
X015152Y005400D01*
X015013Y005228D02*
X014969Y005228D01*
X014892Y005130D02*
X015112Y005130D01*
X015210Y005031D02*
X014022Y005031D01*
X013972Y004933D02*
X015309Y004933D01*
X015407Y004834D02*
X013972Y004834D01*
X013972Y004736D02*
X018551Y004736D01*
X018551Y004539D02*
X014378Y004539D01*
X014476Y004440D02*
X018551Y004440D01*
X018564Y004342D02*
X014537Y004342D01*
X014578Y004243D02*
X019290Y004243D01*
X018966Y004342D02*
X018869Y004342D01*
X018869Y004440D02*
X018966Y004440D01*
X018966Y004539D02*
X018869Y004539D01*
X018918Y004600D02*
X015352Y004600D01*
X015152Y004800D01*
X014602Y005335D02*
X014604Y005337D01*
X014239Y005524D02*
X014074Y005524D01*
X014069Y005622D02*
X014239Y005622D01*
X014239Y005721D02*
X013234Y005721D01*
X013333Y005819D02*
X014239Y005819D01*
X014239Y005918D02*
X013431Y005918D01*
X013530Y006016D02*
X014261Y006016D01*
X014259Y006115D02*
X013628Y006115D01*
X013636Y006580D02*
X013678Y006622D01*
X014259Y006622D01*
X014259Y006616D01*
X014259Y006580D01*
X013636Y006580D01*
X013663Y006607D02*
X014259Y006607D01*
X014259Y006616D02*
X014604Y006616D01*
X014604Y006616D01*
X014259Y006616D01*
X013066Y005553D02*
X013066Y005398D01*
X012969Y005398D01*
X012969Y005530D01*
X013043Y005530D01*
X013066Y005553D01*
X013066Y005524D02*
X012969Y005524D01*
X013018Y005515D02*
X013018Y005350D01*
X013066Y005302D02*
X013066Y005003D01*
X013254Y005003D01*
X013292Y005013D01*
X013326Y005033D01*
X013338Y005045D01*
X013400Y004983D01*
X013532Y004983D01*
X013532Y004891D01*
X013246Y004604D01*
X013160Y004640D01*
X012945Y004640D01*
X012859Y004604D01*
X012822Y004641D01*
X012822Y005003D01*
X012969Y005003D01*
X012969Y005302D01*
X013066Y005302D01*
X013066Y005228D02*
X012969Y005228D01*
X012969Y005130D02*
X013066Y005130D01*
X013066Y005031D02*
X012969Y005031D01*
X012822Y004933D02*
X013532Y004933D01*
X013475Y004834D02*
X012822Y004834D01*
X012822Y004736D02*
X013377Y004736D01*
X013278Y004637D02*
X013167Y004637D01*
X012938Y004637D02*
X012826Y004637D01*
X012382Y004637D02*
X012167Y004637D01*
X011938Y004637D02*
X010884Y004637D01*
X010884Y004539D02*
X011727Y004539D01*
X011629Y004440D02*
X010949Y004440D01*
X011063Y004342D02*
X011568Y004342D01*
X011527Y004243D02*
X011178Y004243D01*
X011296Y004145D02*
X011512Y004145D01*
X011512Y004046D02*
X011377Y004046D01*
X011402Y003948D02*
X011531Y003948D01*
X011572Y003849D02*
X011402Y003849D01*
X011402Y003751D02*
X011638Y003751D01*
X011737Y003652D02*
X011402Y003652D01*
X011402Y003554D02*
X013288Y003554D01*
X013386Y003455D02*
X011402Y003455D01*
X010902Y003455D02*
X007692Y003455D01*
X007692Y003554D02*
X010902Y003554D01*
X010902Y003652D02*
X007692Y003652D01*
X007692Y003751D02*
X010902Y003751D01*
X010869Y003849D02*
X007755Y003849D01*
X007853Y003948D02*
X010755Y003948D01*
X010641Y004046D02*
X007952Y004046D01*
X008050Y004145D02*
X010199Y004145D01*
X009876Y004243D02*
X009779Y004243D01*
X009779Y004342D02*
X009876Y004342D01*
X009876Y004440D02*
X009779Y004440D01*
X009461Y004440D02*
X008346Y004440D01*
X008247Y004342D02*
X009461Y004342D01*
X009473Y004243D02*
X008149Y004243D01*
X007343Y004145D02*
X004745Y004145D01*
X004660Y004046D02*
X007245Y004046D01*
X007195Y003948D02*
X004543Y003948D01*
X003962Y003948D02*
X003252Y003948D01*
X003252Y004046D02*
X003844Y004046D01*
X003759Y004145D02*
X003252Y004145D01*
X003252Y004243D02*
X003719Y004243D01*
X003682Y004342D02*
X003252Y004342D01*
X003252Y004440D02*
X003682Y004440D01*
X003682Y004539D02*
X003252Y004539D01*
X003252Y004637D02*
X003715Y004637D01*
X003756Y004736D02*
X003252Y004736D01*
X003252Y004834D02*
X003836Y004834D01*
X003252Y003849D02*
X007192Y003849D01*
X007192Y003751D02*
X003252Y003751D01*
X003252Y003652D02*
X007192Y003652D01*
X007192Y003554D02*
X003252Y003554D01*
X003252Y003455D02*
X007192Y003455D01*
X007049Y003357D02*
X003252Y003357D01*
X005934Y003258D02*
X006957Y003258D01*
X006957Y003160D02*
X005959Y003160D01*
X005959Y003061D02*
X006957Y003061D01*
X006957Y002963D02*
X005959Y002963D01*
X005959Y002864D02*
X006957Y002864D01*
X006957Y002766D02*
X005959Y002766D01*
X005959Y002667D02*
X007021Y002667D01*
X006775Y002076D02*
X005959Y002076D01*
X005959Y001978D02*
X006676Y001978D01*
X006989Y001584D02*
X008178Y001584D01*
X008272Y001485D02*
X007881Y001485D01*
X007907Y001387D02*
X008414Y001387D01*
X008913Y001387D02*
X009842Y001387D01*
X009679Y001485D02*
X009054Y001485D01*
X009149Y001584D02*
X009591Y001584D01*
X009535Y001682D02*
X009190Y001682D01*
X009231Y001781D02*
X009503Y001781D01*
X010184Y002470D02*
X005959Y002470D01*
X005959Y002372D02*
X008329Y002372D01*
X008230Y002273D02*
X005959Y002273D01*
X005959Y002175D02*
X008160Y002175D01*
X007864Y002667D02*
X009987Y002667D01*
X010085Y002569D02*
X005959Y002569D01*
X005959Y001387D02*
X006977Y001387D01*
X007003Y001485D02*
X006887Y001485D01*
X007394Y001485D02*
X007491Y001485D01*
X007491Y001387D02*
X007394Y001387D01*
X007394Y001288D02*
X007491Y001288D01*
X010201Y003160D02*
X010902Y003160D01*
X010902Y003258D02*
X007927Y003258D01*
X007835Y003357D02*
X010902Y003357D01*
X010902Y003061D02*
X010300Y003061D01*
X010398Y002963D02*
X010902Y002963D01*
X010902Y002864D02*
X010497Y002864D01*
X010595Y002766D02*
X010902Y002766D01*
X010825Y002667D02*
X010694Y002667D01*
X010792Y002569D02*
X010825Y002569D01*
X010578Y002076D02*
X010562Y002076D01*
X010586Y001978D02*
X010676Y001978D01*
X012368Y003652D02*
X012737Y003652D01*
X012638Y003751D02*
X012467Y003751D01*
X012533Y003849D02*
X012572Y003849D01*
X013052Y004100D02*
X013752Y003400D01*
X014752Y002750D02*
X014752Y001500D01*
X012382Y004539D02*
X012378Y004539D01*
X012382Y004736D02*
X010884Y004736D01*
X010817Y004834D02*
X012382Y004834D01*
X012382Y004933D02*
X008838Y004933D01*
X008937Y005031D02*
X012382Y005031D01*
X012969Y005425D02*
X013066Y005425D01*
X013323Y005031D02*
X013352Y005031D01*
X013900Y004637D02*
X013938Y004637D01*
X014167Y004637D02*
X018869Y004637D01*
X015915Y005819D02*
X015902Y005819D01*
X012932Y008660D02*
X012504Y008252D01*
X009880Y008252D01*
X010250Y008873D02*
X010959Y008873D01*
X009880Y007484D02*
X009880Y007228D01*
X010424Y007228D01*
X010452Y007250D01*
X011068Y007250D01*
X009907Y007200D02*
X009880Y007228D01*
X008670Y009464D02*
X006423Y009464D01*
X006324Y009562D02*
X008537Y009562D01*
X008438Y009661D02*
X006226Y009661D01*
X006127Y009759D02*
X008340Y009759D01*
X008241Y009858D02*
X006029Y009858D01*
X005930Y009956D02*
X008143Y009956D01*
X008044Y010055D02*
X005832Y010055D01*
X005800Y010153D02*
X007946Y010153D01*
X007847Y010252D02*
X005870Y010252D01*
X005902Y010350D02*
X007749Y010350D01*
X007650Y010449D02*
X005902Y010449D01*
X005870Y010547D02*
X007552Y010547D01*
X007504Y010646D02*
X005802Y010646D01*
X005802Y010744D02*
X006913Y010744D01*
X006746Y010843D02*
X005802Y010843D01*
X005896Y010941D02*
X006648Y010941D01*
X006605Y011040D02*
X005964Y011040D01*
X005964Y011138D02*
X006564Y011138D01*
X006562Y011237D02*
X005964Y011237D01*
X005964Y011335D02*
X006562Y011335D01*
X006594Y011434D02*
X005964Y011434D01*
X005964Y011532D02*
X006635Y011532D01*
X006719Y011631D02*
X005964Y011631D01*
X005964Y011729D02*
X006848Y011729D01*
X006761Y011828D02*
X005897Y011828D01*
X005788Y011926D02*
X006663Y011926D01*
X006611Y012025D02*
X005788Y012025D01*
X005788Y012123D02*
X006570Y012123D01*
X006562Y012222D02*
X005788Y012222D01*
X005788Y012320D02*
X006562Y012320D01*
X006588Y012419D02*
X005788Y012419D01*
X005788Y012517D02*
X006628Y012517D01*
X006704Y012616D02*
X005788Y012616D01*
X005788Y012714D02*
X006812Y012714D01*
X006776Y012813D02*
X005788Y012813D01*
X005788Y012911D02*
X006678Y012911D01*
X006617Y013010D02*
X005788Y013010D01*
X005788Y013108D02*
X006391Y013108D01*
X006292Y013207D02*
X005788Y013207D01*
X005788Y013305D02*
X006194Y013305D01*
X006122Y013404D02*
X005788Y013404D01*
X005788Y013502D02*
X006102Y013502D01*
X006102Y013601D02*
X005788Y013601D01*
X005788Y013699D02*
X006102Y013699D01*
X006102Y013798D02*
X005788Y013798D01*
X005788Y013896D02*
X006102Y013896D01*
X006102Y013995D02*
X005788Y013995D01*
X005918Y014093D02*
X006102Y014093D01*
X006102Y014192D02*
X005964Y014192D01*
X005964Y014290D02*
X006102Y014290D01*
X006102Y014389D02*
X005964Y014389D01*
X005964Y014487D02*
X006102Y014487D01*
X006117Y014586D02*
X005964Y014586D01*
X005964Y014684D02*
X006183Y014684D01*
X006281Y014783D02*
X005964Y014783D01*
X005964Y014881D02*
X006380Y014881D01*
X007512Y013896D02*
X008003Y013896D01*
X008101Y013798D02*
X007414Y013798D01*
X007417Y013699D02*
X008200Y013699D01*
X008202Y013601D02*
X007516Y013601D01*
X007582Y013502D02*
X008202Y013502D01*
X008202Y013404D02*
X007623Y013404D01*
X007642Y013305D02*
X008202Y013305D01*
X008202Y013207D02*
X007642Y013207D01*
X007628Y013108D02*
X008202Y013108D01*
X008202Y013010D02*
X007587Y013010D01*
X007527Y012911D02*
X008202Y012911D01*
X008202Y012813D02*
X007429Y012813D01*
X007393Y012714D02*
X008202Y012714D01*
X008202Y012616D02*
X007501Y012616D01*
X007576Y012517D02*
X008202Y012517D01*
X008202Y012419D02*
X007617Y012419D01*
X007642Y012320D02*
X008202Y012320D01*
X008202Y012222D02*
X007642Y012222D01*
X007634Y012123D02*
X008202Y012123D01*
X008202Y012025D02*
X007681Y012025D01*
X007780Y011926D02*
X008202Y011926D01*
X008202Y011828D02*
X007878Y011828D01*
X007970Y011729D02*
X008202Y011729D01*
X008202Y011631D02*
X008002Y011631D01*
X008002Y011532D02*
X008202Y011532D01*
X008202Y011434D02*
X008002Y011434D01*
X008002Y011335D02*
X008202Y011335D01*
X008202Y011237D02*
X008002Y011237D01*
X008002Y011138D02*
X008202Y011138D01*
X008202Y011040D02*
X008002Y011040D01*
X008002Y010941D02*
X008206Y010941D01*
X008256Y010843D02*
X008002Y010843D01*
X008062Y010744D02*
X008355Y010744D01*
X008453Y010646D02*
X008160Y010646D01*
X008259Y010547D02*
X008552Y010547D01*
X008650Y010449D02*
X008357Y010449D01*
X008456Y010350D02*
X008749Y010350D01*
X008847Y010252D02*
X008554Y010252D01*
X008653Y010153D02*
X008946Y010153D01*
X009044Y010055D02*
X008751Y010055D01*
X008850Y009956D02*
X009188Y009956D01*
X007502Y010744D02*
X007292Y010744D01*
X007459Y010843D02*
X007502Y010843D01*
X005538Y011385D02*
X005352Y011199D01*
X005112Y011138D02*
X004172Y011138D01*
X004167Y011040D02*
X005112Y011040D01*
X005181Y010941D02*
X004082Y010941D01*
X003817Y010941D02*
X003717Y010941D01*
X003717Y011040D02*
X003817Y011040D01*
X003817Y011138D02*
X003717Y011138D01*
X004555Y009070D02*
X006110Y009070D01*
X006208Y008971D02*
X004665Y008971D01*
X004747Y008873D02*
X006307Y008873D01*
X006405Y008774D02*
X005632Y008774D01*
X005730Y008676D02*
X006504Y008676D01*
X006560Y008577D02*
X005829Y008577D01*
X005927Y008479D02*
X006560Y008479D01*
X006560Y008380D02*
X006026Y008380D01*
X006124Y008282D02*
X006560Y008282D01*
X006560Y008183D02*
X006223Y008183D01*
X006321Y008085D02*
X006578Y008085D01*
X006580Y007986D02*
X006420Y007986D01*
X006518Y007888D02*
X006583Y007888D01*
X007025Y007888D02*
X007025Y007888D01*
X007025Y007986D02*
X007025Y007986D01*
X007025Y007789D02*
X007025Y007789D01*
X007025Y007740D02*
X007025Y007740D01*
X005811Y007888D02*
X003252Y007888D01*
X003252Y007986D02*
X005713Y007986D01*
X005614Y008085D02*
X004551Y008085D01*
X004664Y008183D02*
X005516Y008183D01*
X005417Y008282D02*
X004747Y008282D01*
X004302Y016556D02*
X004202Y016556D01*
X004202Y016654D02*
X004302Y016654D01*
X004302Y016753D02*
X004202Y016753D01*
X003941Y020693D02*
X003252Y020693D01*
X003252Y020791D02*
X003968Y020791D01*
X004020Y020890D02*
X003252Y020890D01*
X003252Y020988D02*
X004105Y020988D01*
X019390Y018723D02*
X020615Y018723D01*
X020418Y018821D02*
X019587Y018821D01*
X019686Y018920D02*
X020319Y018920D01*
X020264Y019018D02*
X019741Y019018D01*
X019782Y019117D02*
X020223Y019117D01*
X020212Y019215D02*
X019792Y019215D01*
X019792Y019314D02*
X020212Y019314D01*
X020235Y019412D02*
X019770Y019412D01*
X019729Y019511D02*
X020276Y019511D01*
X020295Y019556D02*
X020446Y019708D01*
X021058Y019708D02*
X021210Y019556D01*
X021252Y019454D01*
X021295Y019556D01*
X021446Y019708D01*
X021348Y019609D02*
X021157Y019609D01*
X021229Y019511D02*
X021276Y019511D01*
X021264Y019018D02*
X021241Y019018D01*
X021186Y018920D02*
X021319Y018920D01*
X021418Y018821D02*
X021087Y018821D01*
X020890Y018723D02*
X021615Y018723D01*
X021890Y018723D02*
X022615Y018723D01*
X022418Y018821D02*
X022087Y018821D01*
X022186Y018920D02*
X022319Y018920D01*
X022264Y019018D02*
X022241Y019018D01*
D11*
X021752Y020500D03*
X020752Y020500D03*
X019252Y020500D03*
X018252Y020500D03*
X017252Y020500D03*
X016252Y020500D03*
X015252Y020500D03*
X014252Y020500D03*
X013252Y020500D03*
X012252Y020500D03*
X011252Y020500D03*
X010252Y020500D03*
X022752Y020500D03*
X023752Y020500D03*
X024752Y020500D03*
X025752Y020500D03*
X026752Y020500D03*
X027752Y020500D03*
X027752Y001500D03*
X026752Y001500D03*
X025752Y001500D03*
X024752Y001500D03*
X023752Y001500D03*
X022752Y001500D03*
X020752Y001500D03*
X019752Y001500D03*
X018752Y001500D03*
X017752Y001500D03*
X016752Y001500D03*
X015752Y001500D03*
X014752Y001500D03*
X013752Y001500D03*
D12*
X012552Y001750D03*
X012552Y002750D03*
X013752Y002750D03*
X014752Y002750D03*
X015752Y002750D03*
X016752Y002750D03*
X017752Y002750D03*
X018752Y002750D03*
X019752Y002750D03*
X020752Y002750D03*
X022752Y002750D03*
X023752Y002750D03*
X024752Y002750D03*
X025752Y002750D03*
X026752Y002750D03*
X027752Y002750D03*
X014052Y004100D03*
X013052Y004100D03*
X012052Y004100D03*
X007102Y011250D03*
X007102Y012250D03*
X007102Y013250D03*
X007102Y014250D03*
X010252Y019250D03*
X011252Y019250D03*
X012252Y019250D03*
X013252Y019250D03*
X014252Y019250D03*
X015252Y019250D03*
X016252Y019250D03*
X017252Y019250D03*
X018252Y019250D03*
X019252Y019250D03*
X020752Y019250D03*
X021752Y019250D03*
X022752Y019250D03*
X023752Y019250D03*
X024752Y019250D03*
X025752Y019250D03*
X026752Y019250D03*
X027752Y019250D03*
X006452Y019600D03*
X005452Y019600D03*
X004452Y019600D03*
X004452Y020600D03*
X005452Y020600D03*
X006452Y020600D03*
D13*
X007025Y008507D03*
X007025Y008252D03*
X007025Y007996D03*
X007025Y007740D03*
X007025Y007484D03*
X007025Y007228D03*
X007025Y006972D03*
X007025Y006716D03*
X007025Y006460D03*
X007025Y006204D03*
X007025Y005948D03*
X007025Y005693D03*
X009880Y005693D03*
X009880Y005948D03*
X009880Y006204D03*
X009880Y006460D03*
X009880Y006716D03*
X009880Y006972D03*
X009880Y007228D03*
X009880Y007484D03*
X009880Y007740D03*
X009880Y007996D03*
X009880Y008252D03*
X009880Y008507D03*
X020625Y008407D03*
X020625Y008152D03*
X020625Y007896D03*
X020625Y007640D03*
X020625Y007384D03*
X020625Y007128D03*
X020625Y006872D03*
X020625Y006616D03*
X020625Y006360D03*
X020625Y006104D03*
X020625Y005848D03*
X020625Y005593D03*
X023480Y005593D03*
X023480Y005848D03*
X023480Y006104D03*
X023480Y006360D03*
X023480Y006616D03*
X023480Y006872D03*
X023480Y007128D03*
X023480Y007384D03*
X023480Y007640D03*
X023480Y007896D03*
X023480Y008152D03*
X023480Y008407D03*
D14*
X016901Y008407D03*
X016901Y008152D03*
X016901Y007896D03*
X016901Y007640D03*
X016901Y007384D03*
X016901Y007128D03*
X016901Y006872D03*
X016901Y006616D03*
X016901Y006360D03*
X016901Y006104D03*
X016901Y005848D03*
X016901Y005593D03*
X016901Y005337D03*
X014604Y005337D03*
X014604Y005593D03*
X014604Y005848D03*
X014604Y006104D03*
X014604Y006360D03*
X014604Y006616D03*
X014604Y006872D03*
X014604Y007128D03*
X014604Y007384D03*
X014604Y007640D03*
X014604Y007896D03*
X014604Y008152D03*
X014604Y008407D03*
X014604Y008663D03*
X016901Y008663D03*
D15*
X010041Y001900D03*
X008663Y001900D03*
X004252Y004444D03*
X004252Y005822D03*
X004252Y007200D03*
X004252Y008578D03*
X004252Y009956D03*
X004252Y016311D03*
X004252Y017689D03*
X028252Y011156D03*
X028252Y009778D03*
X028252Y008400D03*
X028252Y007022D03*
X028252Y005644D03*
D16*
X007741Y016411D03*
X007741Y017868D03*
D17*
X005538Y014515D03*
X003767Y014515D03*
X003767Y011385D03*
X005538Y011385D03*
D18*
X004568Y002100D03*
D19*
X007442Y001202D03*
X007442Y002998D03*
D20*
X011152Y002445D03*
X011152Y001855D03*
D21*
X010497Y004500D03*
X009828Y004500D03*
X013018Y005350D03*
X013687Y005350D03*
X011737Y007250D03*
X011068Y007250D03*
X018918Y004600D03*
X019587Y004600D03*
X023568Y004350D03*
X024237Y004350D03*
X026968Y004350D03*
X027637Y004350D03*
X026587Y013500D03*
X025918Y013500D03*
X025918Y014500D03*
X026587Y014500D03*
X026587Y015500D03*
X025918Y015500D03*
X025918Y016500D03*
X026587Y016500D03*
X026587Y017500D03*
X025918Y017500D03*
D22*
X019600Y009121D03*
X018144Y009121D03*
X012961Y009129D03*
X011504Y009129D03*
D23*
X027325Y013500D03*
X027680Y013500D03*
X027680Y014500D03*
X027325Y014500D03*
X027325Y015500D03*
X027680Y015500D03*
X027680Y016500D03*
X027325Y016500D03*
X027325Y017500D03*
X027680Y017500D03*
D24*
X028752Y004535D03*
X028752Y003865D03*
X028752Y003235D03*
X028752Y002565D03*
D25*
X028201Y005593D02*
X028252Y005644D01*
X028201Y005593D02*
X023480Y005593D01*
X023480Y005848D01*
X023480Y006616D02*
X023480Y006872D01*
X028102Y006872D01*
X028252Y007022D01*
X027452Y009800D02*
X025036Y007384D01*
X023480Y007384D01*
X023480Y007128D01*
X023480Y008152D02*
X023480Y008407D01*
X024460Y008407D01*
X027252Y011200D01*
X028208Y011200D01*
X028252Y011156D01*
X028230Y009800D02*
X027452Y009800D01*
X028230Y009800D02*
X028252Y009778D01*
X025952Y012500D02*
X025852Y012600D01*
X025852Y013435D01*
X025918Y013500D01*
X025918Y014500D02*
X025452Y014500D01*
X025352Y014400D01*
X025352Y015400D02*
X025452Y015500D01*
X025918Y015500D01*
X025352Y016400D02*
X025452Y016500D01*
X025918Y016500D01*
X025918Y017500D02*
X025452Y017500D01*
X025352Y017400D01*
X016252Y009800D02*
X015552Y010500D01*
X009452Y010500D01*
X008752Y011200D01*
X008752Y014200D01*
X008052Y014900D01*
X006752Y014900D01*
X006352Y014500D01*
X006352Y013500D01*
X006552Y013300D01*
X007052Y013300D01*
X007102Y013250D01*
X007152Y014200D02*
X007102Y014250D01*
X007152Y014200D02*
X008052Y014200D01*
X008452Y013800D01*
X008452Y011000D01*
X009252Y010200D01*
X015352Y010200D01*
X015952Y009600D01*
X015952Y007000D01*
X016152Y006800D01*
X016252Y006800D01*
X016452Y006600D01*
X016885Y006600D01*
X016901Y006616D01*
X016901Y006872D02*
X016580Y006872D01*
X016252Y007200D01*
X016252Y009800D01*
X015152Y009500D02*
X015152Y007400D01*
X014880Y007128D01*
X014604Y007128D01*
X014604Y006872D02*
X013574Y006872D01*
X012802Y006100D01*
X013252Y005750D02*
X013902Y005750D01*
X014302Y006100D01*
X014599Y006100D01*
X014608Y006100D02*
X014952Y006100D01*
X015152Y006300D01*
X015152Y006800D01*
X014969Y006616D01*
X014604Y006616D01*
X013252Y005750D02*
X013018Y005515D01*
X011152Y003935D02*
X010497Y004500D01*
X011152Y003935D02*
X011152Y002445D01*
X011152Y001855D02*
X012448Y001855D01*
X012552Y001750D01*
X012552Y001500D01*
X013052Y001000D01*
X021252Y001000D01*
X021852Y001500D01*
X021852Y004400D01*
X020625Y005593D02*
X019795Y005593D01*
X019552Y005350D01*
X021852Y007200D02*
X021852Y007800D01*
X021252Y008400D01*
X020753Y008917D01*
X020548Y009121D01*
X019600Y009121D01*
X020583Y008400D02*
X020625Y008407D01*
X020625Y008152D01*
X020583Y008400D02*
X021252Y008400D01*
X015152Y009500D02*
X014952Y009700D01*
X008752Y009700D01*
X007752Y010700D01*
X007752Y011600D01*
X007102Y012250D01*
X005552Y011371D02*
X005538Y011385D01*
X005538Y014515D01*
X004541Y017689D02*
X004252Y017689D01*
X004541Y017689D02*
X005452Y018600D01*
X007452Y018600D01*
X007752Y018300D01*
X007752Y017879D01*
X005452Y018600D02*
X005452Y019600D01*
X005452Y020600D01*
X005552Y011371D02*
X005552Y010400D01*
X005577Y009956D02*
X007025Y008507D01*
X007025Y008252D01*
X007025Y007484D02*
X006569Y007484D01*
X005474Y008578D01*
X004252Y008578D01*
X004252Y009956D02*
X005577Y009956D01*
X007025Y007484D02*
X007025Y007228D01*
X007025Y006972D02*
X007025Y006716D01*
X007009Y006700D01*
X006552Y006700D01*
X005674Y005822D01*
X004252Y005822D01*
X004252Y004444D02*
X005777Y004444D01*
X007025Y005693D01*
X007025Y005948D01*
X008852Y006200D02*
X009352Y005700D01*
X009872Y005700D01*
X009880Y005693D01*
X009880Y005948D01*
X009352Y005700D02*
X009252Y005700D01*
X007442Y003890D01*
X007442Y002998D01*
X010009Y002998D01*
X011152Y001855D01*
X008663Y001900D02*
X006952Y001900D01*
X006752Y001700D01*
X004568Y001700D01*
X004568Y002100D01*
X009828Y004500D02*
X009852Y004525D01*
X009852Y005300D01*
X008852Y006200D02*
X008852Y008700D01*
X009281Y009129D01*
X010152Y009129D01*
X009880Y008856D01*
X009880Y008507D01*
X010152Y009129D02*
X011504Y009129D01*
X012961Y009129D02*
X013924Y009129D01*
X013952Y009100D01*
X009880Y006972D02*
X009324Y006972D01*
X009252Y006900D01*
X015752Y002750D02*
X015752Y001500D01*
X016752Y001500D02*
X016752Y002750D01*
X017752Y002750D02*
X017752Y001500D01*
X018752Y001500D02*
X019752Y001500D01*
X019752Y002750D01*
X020752Y002750D02*
X020752Y001500D01*
X018752Y001500D02*
X018752Y002750D01*
D26*
X020452Y004600D03*
X019552Y005350D03*
X018852Y005400D03*
X018252Y005700D03*
X017852Y006000D03*
X017452Y006300D03*
X016352Y006000D03*
X016152Y006400D03*
X015552Y005800D03*
X015152Y004800D03*
X012802Y006100D03*
X015152Y006800D03*
X013952Y009100D03*
X010452Y007250D03*
X009252Y006900D03*
X009852Y005300D03*
X005552Y010400D03*
X021352Y005500D03*
X021852Y004400D03*
X024952Y004250D03*
X026252Y004800D03*
X028202Y003550D03*
X021852Y007200D03*
X024252Y010200D03*
X024252Y010900D03*
X024252Y011700D03*
X024252Y012500D03*
X024252Y013300D03*
X025352Y014400D03*
X025352Y015400D03*
X025352Y016400D03*
X025352Y017400D03*
X027352Y018300D03*
X028152Y015900D03*
X028152Y015000D03*
X028152Y014000D03*
X029052Y013000D03*
X025952Y012500D03*
M02*
