G75*
%MOIN*%
%OFA0B0*%
%FSLAX24Y24*%
%IPPOS*%
%LPD*%
%AMOC8*
5,1,8,0,0,1.08239X$1,22.5*
%
%ADD10C,0.0050*%
%ADD11OC8,0.0660*%
%ADD12R,0.0740X0.0740*%
%ADD13C,0.0740*%
%ADD14R,0.0591X0.0157*%
%ADD15R,0.0390X0.0120*%
%ADD16C,0.0800*%
%ADD17R,0.0800X0.0800*%
%ADD18R,0.0551X0.1024*%
%ADD19R,0.0512X0.0610*%
%ADD20R,0.2441X0.2126*%
%ADD21R,0.0630X0.0394*%
%ADD22R,0.0315X0.0315*%
%ADD23R,0.0433X0.0394*%
%ADD24R,0.1024X0.0551*%
%ADD25R,0.0250X0.0500*%
%ADD26R,0.0394X0.0433*%
%ADD27C,0.0160*%
%ADD28C,0.0400*%
%ADD29C,0.0100*%
D10*
X002752Y000500D02*
X002752Y021500D01*
X028152Y021500D01*
X028752Y020900D01*
X028752Y016400D01*
X029752Y015400D01*
X029752Y002500D01*
X028752Y001500D01*
X028752Y000500D01*
X002752Y000500D01*
D11*
X013752Y001500D03*
X014752Y001500D03*
X015752Y001500D03*
X016752Y001500D03*
X017752Y001500D03*
X018752Y001500D03*
X019752Y001500D03*
X020752Y001500D03*
X022752Y001500D03*
X023752Y001500D03*
X024752Y001500D03*
X025752Y001500D03*
X026752Y001500D03*
X027752Y001500D03*
X027752Y020500D03*
X026752Y020500D03*
X025752Y020500D03*
X024752Y020500D03*
X023752Y020500D03*
X022752Y020500D03*
X021752Y020500D03*
X020752Y020500D03*
X019252Y020500D03*
X018252Y020500D03*
X017252Y020500D03*
X016252Y020500D03*
X015252Y020500D03*
X014252Y020500D03*
X013252Y020500D03*
X012252Y020500D03*
X011252Y020500D03*
X010252Y020500D03*
D12*
X010252Y019250D03*
X004452Y019600D03*
X007102Y014250D03*
X020752Y019250D03*
X012052Y004100D03*
X012552Y001750D03*
X020752Y002750D03*
X027752Y002750D03*
D13*
X026752Y002750D03*
X025752Y002750D03*
X024752Y002750D03*
X023752Y002750D03*
X022752Y002750D03*
X019752Y002750D03*
X018752Y002750D03*
X017752Y002750D03*
X016752Y002750D03*
X015752Y002750D03*
X014752Y002750D03*
X013752Y002750D03*
X012552Y002750D03*
X013052Y004100D03*
X014052Y004100D03*
X007102Y011250D03*
X007102Y012250D03*
X007102Y013250D03*
X010252Y012800D03*
X011252Y012800D03*
X012252Y012800D03*
X012252Y013800D03*
X011252Y013800D03*
X010252Y013800D03*
X010252Y014800D03*
X011252Y014800D03*
X012252Y014800D03*
X012252Y015800D03*
X011252Y015800D03*
X010252Y015800D03*
X010252Y016800D03*
X011252Y016800D03*
X012252Y016800D03*
X013252Y016800D03*
X014252Y016800D03*
X015252Y016800D03*
X016252Y016800D03*
X017252Y016800D03*
X018252Y016800D03*
X019252Y016800D03*
X020252Y016800D03*
X021252Y016800D03*
X021252Y015800D03*
X020252Y015800D03*
X019252Y015800D03*
X018252Y015800D03*
X017252Y015800D03*
X016252Y015800D03*
X015252Y015800D03*
X014252Y015800D03*
X013252Y015800D03*
X013252Y014800D03*
X014252Y014800D03*
X015252Y014800D03*
X016252Y014800D03*
X017252Y014800D03*
X018252Y014800D03*
X019252Y014800D03*
X020252Y014800D03*
X021252Y014800D03*
X021252Y013800D03*
X020252Y013800D03*
X019252Y013800D03*
X018252Y013800D03*
X017252Y013800D03*
X016252Y013800D03*
X015252Y013800D03*
X014252Y013800D03*
X013252Y013800D03*
X013252Y012800D03*
X014252Y012800D03*
X015252Y012800D03*
X016252Y012800D03*
X017252Y012800D03*
X018252Y012800D03*
X019252Y012800D03*
X020252Y012800D03*
X021252Y012800D03*
X021252Y011800D03*
X020252Y011800D03*
X019252Y011800D03*
X018252Y011800D03*
X017252Y011800D03*
X016252Y011800D03*
X015252Y011800D03*
X014252Y011800D03*
X013252Y011800D03*
X012252Y011800D03*
X011252Y011800D03*
X010252Y011800D03*
X011252Y019250D03*
X012252Y019250D03*
X013252Y019250D03*
X014252Y019250D03*
X015252Y019250D03*
X016252Y019250D03*
X017252Y019250D03*
X018252Y019250D03*
X019252Y019250D03*
X021752Y019250D03*
X022752Y019250D03*
X023752Y019250D03*
X024752Y019250D03*
X025752Y019250D03*
X026752Y019250D03*
X027752Y019250D03*
X006452Y019600D03*
X005452Y019600D03*
X005452Y020600D03*
X006452Y020600D03*
X004452Y020600D03*
D14*
X007025Y008507D03*
X007025Y008252D03*
X007025Y007996D03*
X007025Y007740D03*
X007025Y007484D03*
X007025Y007228D03*
X007025Y006972D03*
X007025Y006716D03*
X007025Y006460D03*
X007025Y006204D03*
X007025Y005948D03*
X007025Y005693D03*
X009880Y005693D03*
X009880Y005948D03*
X009880Y006204D03*
X009880Y006460D03*
X009880Y006716D03*
X009880Y006972D03*
X009880Y007228D03*
X009880Y007484D03*
X009880Y007740D03*
X009880Y007996D03*
X009880Y008252D03*
X009880Y008507D03*
X020625Y008407D03*
X020625Y008152D03*
X020625Y007896D03*
X020625Y007640D03*
X020625Y007384D03*
X020625Y007128D03*
X020625Y006872D03*
X020625Y006616D03*
X020625Y006360D03*
X020625Y006104D03*
X020625Y005848D03*
X020625Y005593D03*
X023480Y005593D03*
X023480Y005848D03*
X023480Y006104D03*
X023480Y006360D03*
X023480Y006616D03*
X023480Y006872D03*
X023480Y007128D03*
X023480Y007384D03*
X023480Y007640D03*
X023480Y007896D03*
X023480Y008152D03*
X023480Y008407D03*
D15*
X016901Y008407D03*
X016901Y008152D03*
X016901Y007896D03*
X016901Y007640D03*
X016901Y007384D03*
X016901Y007128D03*
X016901Y006872D03*
X016901Y006616D03*
X016901Y006360D03*
X016901Y006104D03*
X016901Y005848D03*
X016901Y005593D03*
X016901Y005337D03*
X014604Y005337D03*
X014604Y005593D03*
X014604Y005848D03*
X014604Y006104D03*
X014604Y006360D03*
X014604Y006616D03*
X014604Y006872D03*
X014604Y007128D03*
X014604Y007384D03*
X014604Y007640D03*
X014604Y007896D03*
X014604Y008152D03*
X014604Y008407D03*
X014604Y008663D03*
X016901Y008663D03*
D16*
X010041Y001900D03*
X004252Y004444D03*
X004252Y005822D03*
X004252Y007200D03*
X004252Y008578D03*
X004252Y016311D03*
X028252Y011156D03*
X028252Y009778D03*
X028252Y008400D03*
X028252Y007022D03*
D17*
X028252Y005644D03*
X008663Y001900D03*
X004252Y009956D03*
X004252Y017689D03*
D18*
X007662Y017927D03*
X007662Y016313D03*
D19*
X005538Y014515D03*
X003767Y014515D03*
X003767Y011385D03*
X005538Y011385D03*
D20*
X004568Y002100D03*
D21*
X007442Y001202D03*
X007442Y002998D03*
D22*
X011152Y002445D03*
X011152Y001855D03*
D23*
X010637Y004330D03*
X009968Y004330D03*
X009968Y004990D03*
X010637Y004990D03*
X013118Y005330D03*
X013787Y005330D03*
X018918Y004600D03*
X019587Y004600D03*
X023568Y004350D03*
X024237Y004350D03*
X026968Y004350D03*
X027637Y004350D03*
X026587Y013500D03*
X025918Y013500D03*
X025918Y014500D03*
X026587Y014500D03*
X026587Y015500D03*
X025918Y015500D03*
X025918Y016500D03*
X026587Y016500D03*
X026587Y017500D03*
X025918Y017500D03*
D24*
X019659Y009200D03*
X018045Y009200D03*
X012909Y009150D03*
X011295Y009150D03*
D25*
X027325Y013500D03*
X027680Y013500D03*
X027680Y014500D03*
X027325Y014500D03*
X027325Y015500D03*
X027680Y015500D03*
X027680Y016500D03*
X027325Y016500D03*
X027325Y017500D03*
X027680Y017500D03*
D26*
X028752Y004535D03*
X028752Y003865D03*
X028752Y003235D03*
X028752Y002565D03*
D27*
X029149Y002561D02*
X029495Y002561D01*
X029527Y002593D02*
X028527Y001593D01*
X028527Y000725D01*
X021320Y000725D01*
X021348Y000736D01*
X021389Y000749D01*
X021399Y000758D01*
X021411Y000763D01*
X021441Y000793D01*
X021999Y001258D01*
X022011Y001263D01*
X022041Y001293D01*
X022074Y001321D01*
X022080Y001332D01*
X022090Y001341D01*
X022106Y001381D01*
X022126Y001419D01*
X022127Y001432D01*
X022132Y001444D01*
X022132Y001487D01*
X022136Y001530D01*
X022132Y001543D01*
X022132Y004114D01*
X022191Y004173D01*
X022252Y004320D01*
X022252Y004480D01*
X022191Y004627D01*
X022079Y004739D01*
X022053Y004750D01*
X024699Y004750D01*
X024819Y004630D01*
X024653Y004630D01*
X024536Y004747D01*
X023938Y004747D01*
X023886Y004696D01*
X023854Y004715D01*
X023808Y004727D01*
X023586Y004727D01*
X023586Y004368D01*
X023549Y004368D01*
X023549Y004332D01*
X023171Y004332D01*
X023171Y004129D01*
X023183Y004084D01*
X023207Y004043D01*
X023241Y004009D01*
X023282Y003985D01*
X023327Y003973D01*
X023549Y003973D01*
X023549Y004332D01*
X023586Y004332D01*
X023586Y003973D01*
X023808Y003973D01*
X023854Y003985D01*
X023886Y004004D01*
X023938Y003953D01*
X024536Y003953D01*
X024611Y004028D01*
X024613Y004023D01*
X024726Y003911D01*
X024873Y003850D01*
X025032Y003850D01*
X025179Y003911D01*
X025291Y004023D01*
X025331Y004118D01*
X026323Y003126D01*
X026269Y003073D01*
X026252Y003032D01*
X026236Y003073D01*
X026075Y003233D01*
X025866Y003320D01*
X025639Y003320D01*
X025429Y003233D01*
X025269Y003073D01*
X025252Y003032D01*
X025236Y003073D01*
X025075Y003233D01*
X024866Y003320D01*
X024639Y003320D01*
X024429Y003233D01*
X024269Y003073D01*
X024252Y003032D01*
X024236Y003073D01*
X024075Y003233D01*
X023866Y003320D01*
X023639Y003320D01*
X023429Y003233D01*
X023269Y003073D01*
X023252Y003032D01*
X023236Y003073D01*
X023075Y003233D01*
X022866Y003320D01*
X022639Y003320D01*
X022429Y003233D01*
X022269Y003073D01*
X022182Y002863D01*
X022182Y002637D01*
X022269Y002427D01*
X022429Y002267D01*
X022502Y002237D01*
X022502Y002000D01*
X022222Y001720D01*
X022222Y001280D01*
X022533Y000970D01*
X022972Y000970D01*
X023252Y001250D01*
X023533Y000970D01*
X023972Y000970D01*
X024252Y001250D01*
X024533Y000970D01*
X024972Y000970D01*
X025252Y001250D01*
X025533Y000970D01*
X025972Y000970D01*
X026252Y001250D01*
X026533Y000970D01*
X026972Y000970D01*
X027252Y001250D01*
X027533Y000970D01*
X027972Y000970D01*
X028282Y001280D01*
X028282Y001720D01*
X028002Y002000D01*
X028002Y002180D01*
X028205Y002180D01*
X028322Y002297D01*
X028322Y002315D01*
X028356Y002315D01*
X028356Y002266D01*
X028473Y002149D01*
X029032Y002149D01*
X029149Y002266D01*
X029149Y002865D01*
X029114Y002900D01*
X029149Y002935D01*
X029149Y003201D01*
X029411Y003463D01*
X029490Y003541D01*
X029527Y003632D01*
X029527Y002593D01*
X029527Y002719D02*
X029149Y002719D01*
X029136Y002878D02*
X029527Y002878D01*
X029527Y003036D02*
X029149Y003036D01*
X029149Y003195D02*
X029527Y003195D01*
X029527Y003353D02*
X029301Y003353D01*
X029411Y003463D02*
X029411Y003463D01*
X029460Y003512D02*
X029527Y003512D01*
X029252Y003700D02*
X028787Y003235D01*
X028752Y003235D01*
X028518Y003235D01*
X028202Y003550D01*
X027295Y003996D02*
X026749Y003450D01*
X026706Y003450D01*
X025136Y005020D01*
X026086Y005020D01*
X026294Y004813D01*
X026397Y004770D01*
X028076Y004770D01*
X028065Y004759D01*
X027995Y004688D01*
X027936Y004747D01*
X027338Y004747D01*
X027286Y004696D01*
X027254Y004715D01*
X027208Y004727D01*
X026986Y004727D01*
X026986Y004368D01*
X026949Y004368D01*
X026949Y004332D01*
X026571Y004332D01*
X026571Y004129D01*
X026583Y004084D01*
X026607Y004043D01*
X026641Y004009D01*
X026682Y003985D01*
X026727Y003973D01*
X026949Y003973D01*
X026949Y004332D01*
X026986Y004332D01*
X026986Y003973D01*
X027208Y003973D01*
X027254Y003985D01*
X027286Y004004D01*
X027295Y003996D01*
X027286Y003987D02*
X027256Y003987D01*
X027127Y003829D02*
X026327Y003829D01*
X026169Y003987D02*
X026679Y003987D01*
X026571Y004146D02*
X026010Y004146D01*
X025852Y004304D02*
X026571Y004304D01*
X026571Y004368D02*
X026949Y004368D01*
X026949Y004727D01*
X026727Y004727D01*
X026682Y004715D01*
X026641Y004691D01*
X026607Y004657D01*
X026583Y004616D01*
X026571Y004571D01*
X026571Y004368D01*
X026571Y004463D02*
X025693Y004463D01*
X025535Y004621D02*
X026586Y004621D01*
X026374Y004780D02*
X025376Y004780D01*
X025218Y004938D02*
X026168Y004938D01*
X026452Y005050D02*
X026202Y005300D01*
X022452Y005300D01*
X021917Y005835D01*
X021687Y005835D01*
X021352Y005500D01*
X021917Y005835D02*
X021152Y006600D01*
X020641Y006600D01*
X020625Y006616D01*
X020625Y006872D01*
X020625Y007128D02*
X020627Y007130D01*
X021232Y007130D01*
X022002Y006360D01*
X023480Y006360D01*
X023480Y006336D02*
X023480Y006128D01*
X023480Y006128D01*
X023480Y006336D01*
X023480Y006336D01*
X023480Y006206D02*
X023480Y006206D01*
X023880Y006104D02*
X023955Y006104D01*
X023880Y006104D01*
X023880Y006104D01*
X023955Y006104D02*
X023955Y006030D01*
X023975Y006010D01*
X023975Y005873D01*
X027652Y005873D01*
X027652Y006127D01*
X027770Y006244D01*
X028735Y006244D01*
X028852Y006127D01*
X028852Y005546D01*
X028972Y005666D01*
X028972Y011811D01*
X028894Y011890D01*
X027734Y013050D01*
X027117Y013050D01*
X027000Y013167D01*
X027000Y013217D01*
X026886Y013103D01*
X026802Y013103D01*
X026802Y012450D01*
X026764Y012358D01*
X026694Y012288D01*
X024652Y010246D01*
X024652Y010120D01*
X024591Y009973D01*
X024479Y009861D01*
X024332Y009800D01*
X024173Y009800D01*
X024026Y009861D01*
X023913Y009973D01*
X023852Y010120D01*
X023852Y010280D01*
X023913Y010427D01*
X024026Y010539D01*
X024052Y010550D01*
X024026Y010561D01*
X023913Y010673D01*
X023852Y010820D01*
X023852Y010980D01*
X023913Y011127D01*
X024026Y011239D01*
X024173Y011300D01*
X024299Y011300D01*
X024299Y011300D01*
X024173Y011300D01*
X024026Y011361D01*
X023913Y011473D01*
X023852Y011620D01*
X023852Y011780D01*
X023913Y011927D01*
X024026Y012039D01*
X024173Y012100D01*
X024299Y012100D01*
X024299Y012100D01*
X024173Y012100D01*
X024026Y012161D01*
X023913Y012273D01*
X023852Y012420D01*
X023852Y012580D01*
X023913Y012727D01*
X024026Y012839D01*
X024173Y012900D01*
X024299Y012900D01*
X024299Y012900D01*
X024173Y012900D01*
X024026Y012961D01*
X023913Y013073D01*
X023852Y013220D01*
X023852Y013380D01*
X023913Y013527D01*
X024026Y013639D01*
X024102Y013671D01*
X024102Y016250D01*
X024140Y016342D01*
X024940Y017142D01*
X025011Y017212D01*
X025103Y017250D01*
X025529Y017250D01*
X025521Y017279D01*
X025521Y017482D01*
X025899Y017482D01*
X025899Y017518D01*
X025521Y017518D01*
X025521Y017721D01*
X025533Y017766D01*
X025557Y017807D01*
X025591Y017841D01*
X025632Y017865D01*
X025677Y017877D01*
X025899Y017877D01*
X025899Y017518D01*
X025936Y017518D01*
X025936Y017877D01*
X026158Y017877D01*
X026204Y017865D01*
X026236Y017846D01*
X026288Y017897D01*
X026886Y017897D01*
X027000Y017783D01*
X027000Y017833D01*
X027117Y017950D01*
X027152Y017950D01*
X027126Y017961D01*
X027013Y018073D01*
X026952Y018220D01*
X026952Y018380D01*
X027013Y018527D01*
X027126Y018639D01*
X027273Y018700D01*
X027432Y018700D01*
X027579Y018639D01*
X027691Y018527D01*
X027752Y018380D01*
X027752Y018296D01*
X027990Y018059D01*
X028032Y017956D01*
X028032Y017444D01*
X028005Y017377D01*
X028005Y017167D01*
X027887Y017050D01*
X027117Y017050D01*
X027000Y017167D01*
X027000Y017217D01*
X026886Y017103D01*
X026783Y017103D01*
X026764Y017058D01*
X026603Y016897D01*
X026886Y016897D01*
X027000Y016783D01*
X027000Y016833D01*
X027117Y016950D01*
X027887Y016950D01*
X028005Y016833D01*
X028005Y016444D01*
X028148Y016300D01*
X028232Y016300D01*
X028379Y016239D01*
X028491Y016127D01*
X028552Y015980D01*
X028552Y015820D01*
X028491Y015673D01*
X028379Y015561D01*
X028232Y015500D01*
X028076Y015500D01*
X028176Y015400D01*
X028232Y015400D01*
X028379Y015339D01*
X028491Y015227D01*
X028552Y015080D01*
X028552Y014920D01*
X028491Y014773D01*
X028379Y014661D01*
X028232Y014600D01*
X028073Y014600D01*
X028005Y014628D01*
X028005Y014571D01*
X028176Y014400D01*
X028232Y014400D01*
X028379Y014339D01*
X028491Y014227D01*
X028552Y014080D01*
X028552Y013920D01*
X028491Y013773D01*
X028379Y013661D01*
X028232Y013600D01*
X028073Y013600D01*
X028005Y013628D01*
X028005Y013571D01*
X028652Y012923D01*
X028652Y013080D01*
X028713Y013227D01*
X028826Y013339D01*
X028973Y013400D01*
X029132Y013400D01*
X029279Y013339D01*
X029391Y013227D01*
X029452Y013080D01*
X029452Y012920D01*
X029391Y012773D01*
X029332Y012714D01*
X029332Y012243D01*
X029411Y012165D01*
X029490Y012086D01*
X029527Y011995D01*
X029527Y015307D01*
X028659Y016175D01*
X028527Y016307D01*
X028527Y020807D01*
X028059Y021275D01*
X002977Y021275D01*
X002977Y000725D01*
X012985Y000725D01*
X012894Y000763D01*
X012815Y000841D01*
X012476Y001180D01*
X012100Y001180D01*
X011982Y001297D01*
X011982Y001575D01*
X011470Y001575D01*
X011393Y001497D01*
X010912Y001497D01*
X010795Y001614D01*
X010795Y001816D01*
X010613Y001998D01*
X010621Y001946D01*
X010621Y001920D01*
X010061Y001920D01*
X010021Y001920D01*
X010021Y001880D01*
X009461Y001880D01*
X009461Y001854D01*
X009476Y001764D01*
X009504Y001677D01*
X009545Y001596D01*
X009599Y001522D01*
X009663Y001458D01*
X009737Y001404D01*
X009819Y001362D01*
X009906Y001334D01*
X009996Y001320D01*
X010021Y001320D01*
X010021Y001880D01*
X010061Y001880D01*
X010061Y001320D01*
X010087Y001320D01*
X010177Y001334D01*
X010264Y001362D01*
X010345Y001404D01*
X010419Y001458D01*
X010484Y001522D01*
X010537Y001596D01*
X010579Y001677D01*
X010607Y001764D01*
X010621Y001854D01*
X010621Y001880D01*
X010061Y001880D01*
X010061Y001920D01*
X010061Y002480D01*
X010087Y002480D01*
X010139Y002472D01*
X009893Y002718D01*
X007957Y002718D01*
X007840Y002601D01*
X007044Y002601D01*
X006927Y002718D01*
X006927Y003277D01*
X007044Y003394D01*
X007162Y003394D01*
X007162Y003945D01*
X007205Y004048D01*
X008906Y005750D01*
X008856Y005800D01*
X008773Y005800D01*
X008626Y005861D01*
X008513Y005973D01*
X008452Y006120D01*
X008452Y006280D01*
X008513Y006427D01*
X008626Y006539D01*
X008773Y006600D01*
X008932Y006600D01*
X009079Y006539D01*
X009191Y006427D01*
X009252Y006280D01*
X009252Y006196D01*
X009384Y006064D01*
X009384Y006878D01*
X009404Y006898D01*
X009404Y006972D01*
X009479Y006972D01*
X009479Y006972D01*
X009479Y006972D01*
X009404Y006972D01*
X009404Y007046D01*
X009384Y007066D01*
X009384Y008669D01*
X009501Y008786D01*
X009600Y008786D01*
X009600Y008849D01*
X009397Y008849D01*
X009236Y008688D01*
X009252Y008650D01*
X009252Y008490D01*
X009191Y008343D01*
X009079Y008231D01*
X008932Y008170D01*
X008773Y008170D01*
X008626Y008231D01*
X008513Y008343D01*
X008452Y008490D01*
X008452Y008650D01*
X008513Y008797D01*
X008626Y008909D01*
X008694Y008937D01*
X008694Y008937D01*
X009044Y009287D01*
X009044Y009287D01*
X009122Y009366D01*
X009225Y009409D01*
X010583Y009409D01*
X010583Y009508D01*
X010701Y009626D01*
X011890Y009626D01*
X012007Y009508D01*
X012007Y008792D01*
X011890Y008674D01*
X010701Y008674D01*
X010583Y008792D01*
X010583Y008849D01*
X010268Y008849D01*
X010206Y008786D01*
X010258Y008786D01*
X010375Y008669D01*
X010375Y008502D01*
X012404Y008502D01*
X012606Y008694D01*
X012374Y008694D01*
X012328Y008707D01*
X012287Y008730D01*
X012254Y008764D01*
X012230Y008805D01*
X012218Y008851D01*
X012218Y009092D01*
X012852Y009092D01*
X012852Y009208D01*
X012852Y009606D01*
X012374Y009606D01*
X012328Y009593D01*
X012287Y009570D01*
X012254Y009536D01*
X012230Y009495D01*
X012218Y009449D01*
X012218Y009208D01*
X012852Y009208D01*
X012967Y009208D01*
X012967Y009606D01*
X013445Y009606D01*
X013491Y009593D01*
X013532Y009570D01*
X013565Y009536D01*
X013589Y009495D01*
X013601Y009449D01*
X013601Y009208D01*
X012967Y009208D01*
X012967Y009092D01*
X013601Y009092D01*
X013601Y008910D01*
X014312Y008910D01*
X014326Y008923D01*
X014881Y008923D01*
X014999Y008806D01*
X014999Y007408D01*
X015314Y007408D01*
X015412Y007506D01*
X015412Y009324D01*
X015076Y009660D01*
X009067Y009660D01*
X008964Y009703D01*
X008885Y009781D01*
X007955Y010711D01*
X007912Y010814D01*
X007912Y011960D01*
X007599Y011960D01*
X007586Y011927D01*
X007425Y011767D01*
X007385Y011750D01*
X007425Y011733D01*
X007586Y011573D01*
X007672Y011363D01*
X007672Y011137D01*
X007586Y010927D01*
X007425Y010767D01*
X007216Y010680D01*
X006989Y010680D01*
X006779Y010767D01*
X006619Y010927D01*
X006532Y011137D01*
X006532Y011363D01*
X006619Y011573D01*
X006779Y011733D01*
X006820Y011750D01*
X006779Y011767D01*
X006619Y011927D01*
X006532Y012137D01*
X006532Y012363D01*
X006619Y012573D01*
X006779Y012733D01*
X006820Y012750D01*
X006779Y012767D01*
X006619Y012927D01*
X006581Y013020D01*
X006497Y013020D01*
X006394Y013063D01*
X006315Y013141D01*
X006115Y013341D01*
X006072Y013444D01*
X006072Y014556D01*
X006115Y014659D01*
X006194Y014737D01*
X006594Y015137D01*
X006697Y015180D01*
X008108Y015180D01*
X008211Y015137D01*
X008290Y015059D01*
X008960Y014389D01*
X009002Y014286D01*
X009002Y011246D01*
X009478Y010770D01*
X015408Y010770D01*
X015408Y010770D01*
X015463Y010770D01*
X015518Y010770D01*
X015519Y010770D01*
X015520Y010770D01*
X015570Y010748D01*
X015621Y010727D01*
X015622Y010727D01*
X015622Y010726D01*
X015661Y010687D01*
X015700Y010649D01*
X015700Y010648D01*
X016431Y009907D01*
X016470Y009869D01*
X016470Y009868D01*
X016471Y009867D01*
X016491Y009816D01*
X016512Y009766D01*
X016512Y009765D01*
X016513Y009764D01*
X016512Y009709D01*
X016512Y008557D01*
X016528Y008572D01*
X016526Y008580D01*
X016526Y008663D01*
X016619Y008663D01*
X016619Y008663D01*
X016526Y008663D01*
X016526Y008747D01*
X016538Y008793D01*
X016562Y008834D01*
X016596Y008867D01*
X016637Y008891D01*
X016682Y008903D01*
X016901Y008903D01*
X016901Y008667D01*
X016901Y008667D01*
X016901Y008903D01*
X017120Y008903D01*
X017166Y008891D01*
X017207Y008867D01*
X017240Y008834D01*
X017264Y008793D01*
X017276Y008747D01*
X017276Y008663D01*
X017183Y008663D01*
X017183Y008663D01*
X017276Y008663D01*
X017276Y008657D01*
X019495Y008657D01*
X019586Y008619D01*
X020056Y008150D01*
X020130Y008150D01*
X020130Y008569D01*
X020247Y008686D01*
X020566Y008686D01*
X020570Y008687D01*
X020601Y008687D01*
X020625Y008692D01*
X020425Y008920D01*
X020371Y008920D01*
X020371Y008842D01*
X020254Y008724D01*
X019065Y008724D01*
X018948Y008842D01*
X018948Y009558D01*
X019065Y009676D01*
X020254Y009676D01*
X020371Y009558D01*
X020371Y009480D01*
X020506Y009480D01*
X020515Y009483D01*
X020562Y009480D01*
X020608Y009480D01*
X020617Y009476D01*
X020627Y009476D01*
X020668Y009455D01*
X020711Y009437D01*
X020718Y009431D01*
X020726Y009426D01*
X020757Y009391D01*
X020790Y009359D01*
X020793Y009350D01*
X021457Y008591D01*
X021490Y008559D01*
X022090Y007959D01*
X022132Y007856D01*
X022132Y007486D01*
X022191Y007427D01*
X022252Y007280D01*
X022252Y007120D01*
X022191Y006973D01*
X022079Y006861D01*
X021932Y006800D01*
X021773Y006800D01*
X021626Y006861D01*
X021513Y006973D01*
X021452Y007120D01*
X021452Y007280D01*
X021513Y007427D01*
X021572Y007486D01*
X021572Y007684D01*
X021136Y008120D01*
X021120Y008120D01*
X021120Y007222D01*
X021100Y007202D01*
X021100Y007128D01*
X021026Y007128D01*
X021026Y007128D01*
X021026Y007128D01*
X021100Y007128D01*
X021100Y007054D01*
X021120Y007034D01*
X021120Y006880D01*
X021208Y006880D01*
X021311Y006837D01*
X022155Y005994D01*
X022568Y005580D01*
X022984Y005580D01*
X022984Y006010D01*
X023004Y006030D01*
X023004Y006104D01*
X023079Y006104D01*
X023079Y006104D01*
X023004Y006104D01*
X023004Y006207D01*
X023011Y006232D01*
X023004Y006258D01*
X023004Y006360D01*
X023079Y006360D01*
X023079Y006360D01*
X023004Y006360D01*
X023004Y006435D01*
X022984Y006455D01*
X022984Y007545D01*
X023004Y007565D01*
X023004Y007640D01*
X023079Y007640D01*
X023079Y007640D01*
X023004Y007640D01*
X023004Y007742D01*
X023011Y007768D01*
X023004Y007793D01*
X023004Y007896D01*
X023079Y007896D01*
X023004Y007896D01*
X023004Y007970D01*
X022984Y007990D01*
X022984Y008569D01*
X023101Y008686D01*
X023421Y008686D01*
X023424Y008687D01*
X024344Y008687D01*
X027015Y011359D01*
X027094Y011437D01*
X027197Y011480D01*
X027737Y011480D01*
X027744Y011496D01*
X027912Y011665D01*
X028133Y011756D01*
X028372Y011756D01*
X028592Y011665D01*
X028761Y011496D01*
X028852Y011275D01*
X028852Y011037D01*
X028761Y010816D01*
X028592Y010647D01*
X028372Y010556D01*
X028133Y010556D01*
X027912Y010647D01*
X027744Y010816D01*
X027701Y010920D01*
X027368Y010920D01*
X024697Y008249D01*
X024618Y008170D01*
X024516Y008127D01*
X023975Y008127D01*
X023975Y007990D01*
X023955Y007970D01*
X023955Y007896D01*
X023880Y007896D01*
X023880Y007896D01*
X023955Y007896D01*
X023955Y007793D01*
X023948Y007768D01*
X023955Y007742D01*
X023955Y007664D01*
X024920Y007664D01*
X027215Y009959D01*
X027294Y010037D01*
X027397Y010080D01*
X027728Y010080D01*
X027744Y010118D01*
X027912Y010287D01*
X028133Y010378D01*
X028372Y010378D01*
X028592Y010287D01*
X028761Y010118D01*
X028852Y009897D01*
X028852Y009659D01*
X028761Y009438D01*
X028592Y009269D01*
X028372Y009178D01*
X028133Y009178D01*
X027912Y009269D01*
X027744Y009438D01*
X027710Y009520D01*
X027568Y009520D01*
X025200Y007152D01*
X027657Y007152D01*
X027744Y007362D01*
X027912Y007531D01*
X028133Y007622D01*
X028372Y007622D01*
X028592Y007531D01*
X028761Y007362D01*
X028852Y007141D01*
X028852Y006903D01*
X028761Y006682D01*
X028592Y006513D01*
X028372Y006422D01*
X028133Y006422D01*
X027912Y006513D01*
X027834Y006592D01*
X023975Y006592D01*
X023975Y006455D01*
X023955Y006435D01*
X023955Y006360D01*
X023880Y006360D01*
X023880Y006360D01*
X023955Y006360D01*
X023955Y006258D01*
X023948Y006232D01*
X023955Y006207D01*
X023955Y006104D01*
X023955Y006048D02*
X027652Y006048D01*
X027652Y005889D02*
X023975Y005889D01*
X023955Y006206D02*
X027731Y006206D01*
X027903Y006523D02*
X023975Y006523D01*
X023955Y006365D02*
X028972Y006365D01*
X028972Y006523D02*
X028602Y006523D01*
X028760Y006682D02*
X028972Y006682D01*
X028972Y006840D02*
X028826Y006840D01*
X028852Y006999D02*
X028972Y006999D01*
X028972Y007157D02*
X028846Y007157D01*
X028780Y007316D02*
X028972Y007316D01*
X028972Y007474D02*
X028649Y007474D01*
X028972Y007633D02*
X025681Y007633D01*
X025839Y007791D02*
X028972Y007791D01*
X028972Y007950D02*
X028619Y007950D01*
X028630Y007958D02*
X028695Y008022D01*
X028748Y008096D01*
X028790Y008177D01*
X028818Y008264D01*
X028832Y008354D01*
X028832Y008380D01*
X028272Y008380D01*
X028272Y007820D01*
X028298Y007820D01*
X028388Y007834D01*
X028475Y007862D01*
X028556Y007904D01*
X028630Y007958D01*
X028755Y008108D02*
X028972Y008108D01*
X028972Y008267D02*
X028818Y008267D01*
X028832Y008420D02*
X028832Y008446D01*
X028818Y008536D01*
X028790Y008623D01*
X028748Y008704D01*
X028695Y008778D01*
X028630Y008842D01*
X028556Y008896D01*
X028475Y008938D01*
X028388Y008966D01*
X028298Y008980D01*
X028272Y008980D01*
X028272Y008420D01*
X028232Y008420D01*
X028232Y008380D01*
X027672Y008380D01*
X027672Y008354D01*
X027687Y008264D01*
X027715Y008177D01*
X027756Y008096D01*
X027810Y008022D01*
X027875Y007958D01*
X027948Y007904D01*
X028030Y007862D01*
X028117Y007834D01*
X028207Y007820D01*
X028232Y007820D01*
X028232Y008380D01*
X028272Y008380D01*
X028272Y008420D01*
X028832Y008420D01*
X028832Y008425D02*
X028972Y008425D01*
X028972Y008584D02*
X028803Y008584D01*
X028721Y008742D02*
X028972Y008742D01*
X028972Y008901D02*
X028548Y008901D01*
X028272Y008901D02*
X028232Y008901D01*
X028232Y008980D02*
X028207Y008980D01*
X028117Y008966D01*
X028030Y008938D01*
X027948Y008896D01*
X027875Y008842D01*
X027810Y008778D01*
X027756Y008704D01*
X027715Y008623D01*
X027687Y008536D01*
X027672Y008446D01*
X027672Y008420D01*
X028232Y008420D01*
X028232Y008980D01*
X028232Y008742D02*
X028272Y008742D01*
X028272Y008584D02*
X028232Y008584D01*
X028232Y008425D02*
X028272Y008425D01*
X028272Y008267D02*
X028232Y008267D01*
X028232Y008108D02*
X028272Y008108D01*
X028272Y007950D02*
X028232Y007950D01*
X027886Y007950D02*
X025998Y007950D01*
X026156Y008108D02*
X027750Y008108D01*
X027686Y008267D02*
X026315Y008267D01*
X026473Y008425D02*
X027672Y008425D01*
X027702Y008584D02*
X026632Y008584D01*
X026790Y008742D02*
X027784Y008742D01*
X027957Y008901D02*
X026949Y008901D01*
X027107Y009059D02*
X028972Y009059D01*
X028972Y009218D02*
X028467Y009218D01*
X028699Y009376D02*
X028972Y009376D01*
X028972Y009535D02*
X028801Y009535D01*
X028852Y009693D02*
X028972Y009693D01*
X028972Y009852D02*
X028852Y009852D01*
X028806Y010010D02*
X028972Y010010D01*
X028972Y010169D02*
X028710Y010169D01*
X028495Y010327D02*
X028972Y010327D01*
X028972Y010486D02*
X026934Y010486D01*
X027092Y010644D02*
X027920Y010644D01*
X027757Y010803D02*
X027251Y010803D01*
X027252Y011200D02*
X028208Y011200D01*
X028252Y011156D01*
X027843Y011595D02*
X026001Y011595D01*
X026159Y011754D02*
X028127Y011754D01*
X028377Y011754D02*
X028972Y011754D01*
X028972Y011595D02*
X028662Y011595D01*
X028786Y011437D02*
X028972Y011437D01*
X028972Y011278D02*
X028851Y011278D01*
X028852Y011120D02*
X028972Y011120D01*
X028972Y010961D02*
X028821Y010961D01*
X028748Y010803D02*
X028972Y010803D01*
X028972Y010644D02*
X028584Y010644D01*
X028010Y010327D02*
X026775Y010327D01*
X026617Y010169D02*
X027794Y010169D01*
X027452Y009800D02*
X028230Y009800D01*
X028252Y009778D01*
X027806Y009376D02*
X027424Y009376D01*
X027266Y009218D02*
X028038Y009218D01*
X027452Y009800D02*
X025036Y007384D01*
X023480Y007384D01*
X023480Y007128D01*
X023480Y006872D02*
X028102Y006872D01*
X028252Y007022D01*
X027856Y007474D02*
X025522Y007474D01*
X025364Y007316D02*
X027724Y007316D01*
X027659Y007157D02*
X025205Y007157D01*
X025047Y007791D02*
X023954Y007791D01*
X023955Y007950D02*
X025206Y007950D01*
X025364Y008108D02*
X023975Y008108D01*
X024460Y008407D02*
X023480Y008407D01*
X023480Y008152D01*
X023480Y007872D02*
X023480Y007664D01*
X023480Y007664D01*
X023480Y007872D01*
X023480Y007872D01*
X023480Y007791D02*
X023480Y007791D01*
X023480Y007640D02*
X024522Y007640D01*
X025272Y008390D01*
X025523Y008267D02*
X024715Y008267D01*
X024873Y008425D02*
X025681Y008425D01*
X025840Y008584D02*
X025032Y008584D01*
X025190Y008742D02*
X025998Y008742D01*
X026157Y008901D02*
X025349Y008901D01*
X025507Y009059D02*
X026315Y009059D01*
X026474Y009218D02*
X025666Y009218D01*
X025824Y009376D02*
X026632Y009376D01*
X026791Y009535D02*
X025983Y009535D01*
X026141Y009693D02*
X026949Y009693D01*
X027108Y009852D02*
X026300Y009852D01*
X026458Y010010D02*
X027266Y010010D01*
X026459Y010803D02*
X025208Y010803D01*
X025367Y010961D02*
X026617Y010961D01*
X026776Y011120D02*
X025525Y011120D01*
X025684Y011278D02*
X026934Y011278D01*
X027093Y011437D02*
X025842Y011437D01*
X025569Y011871D02*
X025602Y011950D01*
X025602Y013152D01*
X025632Y013135D01*
X025677Y013123D01*
X025899Y013123D01*
X025899Y013482D01*
X025936Y013482D01*
X025936Y013123D01*
X026158Y013123D01*
X026204Y013135D01*
X026236Y013154D01*
X026288Y013103D01*
X026302Y013103D01*
X026302Y012604D01*
X025569Y011871D01*
X025587Y011912D02*
X025611Y011912D01*
X025602Y012071D02*
X025769Y012071D01*
X025928Y012229D02*
X025602Y012229D01*
X025602Y012388D02*
X026086Y012388D01*
X026245Y012546D02*
X025602Y012546D01*
X025602Y012705D02*
X026302Y012705D01*
X026302Y012863D02*
X025602Y012863D01*
X025602Y013022D02*
X026302Y013022D01*
X025936Y013180D02*
X025899Y013180D01*
X025899Y013339D02*
X025936Y013339D01*
X026802Y013022D02*
X027762Y013022D01*
X027921Y012863D02*
X026802Y012863D01*
X026802Y012705D02*
X028079Y012705D01*
X028238Y012546D02*
X026802Y012546D01*
X026776Y012388D02*
X028396Y012388D01*
X028555Y012229D02*
X026635Y012229D01*
X026476Y012071D02*
X028713Y012071D01*
X028872Y011912D02*
X026318Y011912D01*
X027252Y011200D02*
X024460Y008407D01*
X024398Y008742D02*
X021325Y008742D01*
X021186Y008901D02*
X024557Y008901D01*
X024715Y009059D02*
X021048Y009059D01*
X020909Y009218D02*
X024874Y009218D01*
X025032Y009376D02*
X020772Y009376D01*
X020552Y009200D02*
X019659Y009200D01*
X018948Y009218D02*
X018103Y009218D01*
X018103Y009258D02*
X018737Y009258D01*
X018737Y009499D01*
X018725Y009545D01*
X018701Y009586D01*
X018668Y009620D01*
X018627Y009643D01*
X018581Y009656D01*
X018103Y009656D01*
X018103Y009258D01*
X017987Y009258D01*
X017987Y009142D01*
X017353Y009142D01*
X017353Y008901D01*
X017366Y008855D01*
X017389Y008814D01*
X017423Y008780D01*
X017464Y008757D01*
X017510Y008744D01*
X017987Y008744D01*
X017987Y009142D01*
X018103Y009142D01*
X018103Y008744D01*
X018581Y008744D01*
X018627Y008757D01*
X018668Y008780D01*
X018701Y008814D01*
X018725Y008855D01*
X018737Y008901D01*
X018737Y009142D01*
X018103Y009142D01*
X018103Y009258D01*
X017987Y009258D02*
X017987Y009656D01*
X017510Y009656D01*
X017464Y009643D01*
X017423Y009620D01*
X017389Y009586D01*
X017366Y009545D01*
X017353Y009499D01*
X017353Y009258D01*
X017987Y009258D01*
X017987Y009218D02*
X016512Y009218D01*
X016512Y009376D02*
X017353Y009376D01*
X017363Y009535D02*
X016512Y009535D01*
X016512Y009693D02*
X025349Y009693D01*
X025191Y009535D02*
X020371Y009535D01*
X020552Y009200D02*
X021252Y008400D01*
X020583Y008400D01*
X020625Y008407D01*
X020625Y008152D01*
X020130Y008267D02*
X019939Y008267D01*
X019781Y008425D02*
X020130Y008425D01*
X020144Y008584D02*
X019622Y008584D01*
X019047Y008742D02*
X017276Y008742D01*
X017354Y008901D02*
X017131Y008901D01*
X016901Y008901D02*
X016901Y008901D01*
X016901Y008742D02*
X016901Y008742D01*
X016672Y008901D02*
X016512Y008901D01*
X016512Y009059D02*
X017353Y009059D01*
X016526Y008742D02*
X016512Y008742D01*
X016512Y008584D02*
X016526Y008584D01*
X015412Y008584D02*
X014999Y008584D01*
X014999Y008742D02*
X015412Y008742D01*
X015412Y008901D02*
X014904Y008901D01*
X014502Y009150D02*
X012909Y009150D01*
X012852Y009218D02*
X012967Y009218D01*
X012967Y009376D02*
X012852Y009376D01*
X012852Y009535D02*
X012967Y009535D01*
X013566Y009535D02*
X015202Y009535D01*
X015360Y009376D02*
X013601Y009376D01*
X013601Y009218D02*
X015412Y009218D01*
X015412Y009059D02*
X013601Y009059D01*
X012490Y008584D02*
X010375Y008584D01*
X010302Y008742D02*
X010633Y008742D01*
X010152Y009129D02*
X011295Y009129D01*
X011295Y009150D01*
X011958Y008742D02*
X012275Y008742D01*
X012218Y008901D02*
X012007Y008901D01*
X012007Y009059D02*
X012218Y009059D01*
X012218Y009218D02*
X012007Y009218D01*
X012007Y009376D02*
X012218Y009376D01*
X012253Y009535D02*
X011981Y009535D01*
X010610Y009535D02*
X006394Y009535D01*
X006236Y009693D02*
X008987Y009693D01*
X008815Y009852D02*
X006077Y009852D01*
X005919Y010010D02*
X008656Y010010D01*
X008498Y010169D02*
X005887Y010169D01*
X005891Y010173D02*
X005952Y010320D01*
X005952Y010480D01*
X005891Y010627D01*
X005832Y010686D01*
X005832Y010880D01*
X005877Y010880D01*
X005994Y010997D01*
X005994Y011773D01*
X005877Y011890D01*
X005818Y011890D01*
X005818Y014010D01*
X005877Y014010D01*
X005994Y014127D01*
X005994Y014903D01*
X005877Y015020D01*
X005199Y015020D01*
X005082Y014903D01*
X005082Y014127D01*
X005199Y014010D01*
X005258Y014010D01*
X005258Y011890D01*
X005199Y011890D01*
X005082Y011773D01*
X005082Y010997D01*
X005199Y010880D01*
X005272Y010880D01*
X005272Y010686D01*
X005213Y010627D01*
X005152Y010480D01*
X005152Y010320D01*
X005187Y010236D01*
X004852Y010236D01*
X004852Y010439D01*
X004735Y010556D01*
X003770Y010556D01*
X003652Y010439D01*
X003652Y009473D01*
X003770Y009356D01*
X004735Y009356D01*
X004852Y009473D01*
X004852Y009676D01*
X005461Y009676D01*
X006530Y008607D01*
X006530Y008090D01*
X006550Y008070D01*
X006550Y007996D01*
X006624Y007996D01*
X006624Y007996D01*
X006550Y007996D01*
X006550Y007898D01*
X005633Y008815D01*
X005530Y008858D01*
X004786Y008858D01*
X004761Y008918D01*
X004592Y009087D01*
X004372Y009178D01*
X004133Y009178D01*
X003912Y009087D01*
X003744Y008918D01*
X003652Y008697D01*
X003652Y008459D01*
X003744Y008238D01*
X003912Y008069D01*
X004133Y007978D01*
X004372Y007978D01*
X004592Y008069D01*
X004761Y008238D01*
X004786Y008298D01*
X005358Y008298D01*
X006331Y007325D01*
X006410Y007246D01*
X006513Y007204D01*
X006530Y007204D01*
X006530Y006980D01*
X006497Y006980D01*
X006394Y006937D01*
X006315Y006859D01*
X005558Y006102D01*
X004786Y006102D01*
X004761Y006162D01*
X004592Y006331D01*
X004372Y006422D01*
X004133Y006422D01*
X003912Y006331D01*
X003744Y006162D01*
X003652Y005941D01*
X003652Y005703D01*
X003744Y005482D01*
X003912Y005313D01*
X004133Y005222D01*
X004372Y005222D01*
X004592Y005313D01*
X004761Y005482D01*
X004786Y005542D01*
X005730Y005542D01*
X005833Y005585D01*
X006550Y006302D01*
X006550Y006204D01*
X006550Y006130D01*
X006530Y006110D01*
X006530Y005593D01*
X005661Y004724D01*
X004786Y004724D01*
X004761Y004784D01*
X004592Y004953D01*
X004372Y005044D01*
X004133Y005044D01*
X003912Y004953D01*
X003744Y004784D01*
X003652Y004563D01*
X003652Y004325D01*
X003744Y004104D01*
X003912Y003935D01*
X004133Y003844D01*
X004372Y003844D01*
X004592Y003935D01*
X004761Y004104D01*
X004786Y004164D01*
X005832Y004164D01*
X005935Y004207D01*
X007142Y005414D01*
X007403Y005414D01*
X007520Y005531D01*
X007520Y006110D01*
X007500Y006130D01*
X007500Y006204D01*
X007426Y006204D01*
X007426Y006204D01*
X007500Y006204D01*
X007500Y006307D01*
X007494Y006332D01*
X007500Y006358D01*
X007500Y006460D01*
X007426Y006460D01*
X007426Y006460D01*
X007500Y006460D01*
X007500Y006535D01*
X007520Y006555D01*
X007520Y007645D01*
X007500Y007665D01*
X007500Y007740D01*
X007500Y007842D01*
X007494Y007868D01*
X007500Y007893D01*
X007500Y007996D01*
X007500Y008070D01*
X007520Y008090D01*
X007520Y008413D01*
X007520Y008669D01*
X007403Y008786D01*
X007142Y008786D01*
X005823Y010105D01*
X005891Y010173D01*
X005952Y010327D02*
X008339Y010327D01*
X008181Y010486D02*
X005950Y010486D01*
X005874Y010644D02*
X008022Y010644D01*
X007917Y010803D02*
X007461Y010803D01*
X007600Y010961D02*
X007912Y010961D01*
X007912Y011120D02*
X007665Y011120D01*
X007672Y011278D02*
X007912Y011278D01*
X007912Y011437D02*
X007642Y011437D01*
X007563Y011595D02*
X007912Y011595D01*
X007912Y011754D02*
X007393Y011754D01*
X007570Y011912D02*
X007912Y011912D01*
X008192Y012090D02*
X008192Y010870D01*
X009122Y009940D01*
X015192Y009940D01*
X015692Y009440D01*
X015692Y007390D01*
X015430Y007128D01*
X014604Y007128D01*
X014604Y006872D02*
X013674Y006872D01*
X012902Y006100D01*
X012732Y005740D02*
X012602Y005620D01*
X012602Y004550D01*
X013052Y004100D01*
X013787Y004835D01*
X013787Y005330D01*
X013794Y005337D01*
X014604Y005337D01*
X014708Y005077D02*
X014659Y005057D01*
X014204Y005057D01*
X014204Y005050D01*
X014086Y004933D01*
X014067Y004933D01*
X014067Y004779D01*
X014024Y004676D01*
X014018Y004670D01*
X014166Y004670D01*
X014375Y004583D01*
X014536Y004423D01*
X014622Y004213D01*
X014622Y003987D01*
X019443Y003987D01*
X019285Y003829D02*
X014557Y003829D01*
X014536Y003777D02*
X014622Y003987D01*
X014622Y004146D02*
X019602Y004146D01*
X019660Y004203D02*
X019136Y003680D01*
X014438Y003680D01*
X014536Y003777D01*
X014585Y004304D02*
X018551Y004304D01*
X018557Y004293D02*
X018591Y004259D01*
X018632Y004235D01*
X018677Y004223D01*
X018899Y004223D01*
X018899Y004582D01*
X018521Y004582D01*
X018521Y004379D01*
X018533Y004334D01*
X018557Y004293D01*
X018521Y004463D02*
X014496Y004463D01*
X014284Y004621D02*
X018521Y004621D01*
X018521Y004618D02*
X018899Y004618D01*
X018899Y004582D01*
X018936Y004582D01*
X018936Y004223D01*
X019158Y004223D01*
X019204Y004235D01*
X019236Y004254D01*
X019288Y004203D01*
X019660Y004203D01*
X019587Y004600D02*
X020452Y004600D01*
X019252Y003400D01*
X013752Y003400D01*
X013052Y004100D01*
X013052Y003500D01*
X012967Y003415D01*
X011537Y003415D01*
X011472Y003480D01*
X011472Y004670D01*
X011182Y004960D01*
X010667Y004960D01*
X010637Y004990D01*
X011054Y005240D02*
X011054Y005270D01*
X010936Y005387D01*
X010338Y005387D01*
X010286Y005336D01*
X010254Y005355D01*
X010208Y005367D01*
X009986Y005367D01*
X009986Y005008D01*
X009949Y005008D01*
X009949Y004972D01*
X009571Y004972D01*
X009571Y004769D01*
X009583Y004724D01*
X009607Y004683D01*
X009630Y004660D01*
X009607Y004637D01*
X009583Y004596D01*
X009571Y004551D01*
X009571Y004348D01*
X009949Y004348D01*
X009949Y004312D01*
X009571Y004312D01*
X009571Y004109D01*
X009583Y004064D01*
X009607Y004023D01*
X009641Y003989D01*
X009682Y003965D01*
X009727Y003953D01*
X009949Y003953D01*
X009949Y004312D01*
X009986Y004312D01*
X009986Y003953D01*
X010208Y003953D01*
X010254Y003965D01*
X010286Y003984D01*
X010338Y003933D01*
X010673Y003933D01*
X010872Y003765D01*
X010872Y002763D01*
X010795Y002686D01*
X010795Y002608D01*
X010247Y003156D01*
X010247Y003156D01*
X010168Y003235D01*
X010065Y003278D01*
X007957Y003278D01*
X007840Y003394D01*
X007722Y003394D01*
X007722Y003774D01*
X009368Y005420D01*
X009495Y005420D01*
X009501Y005414D01*
X009821Y005414D01*
X009824Y005413D01*
X009935Y005413D01*
X009938Y005414D01*
X010258Y005414D01*
X010375Y005531D01*
X010375Y005954D01*
X012456Y005954D01*
X012504Y005954D01*
X012505Y005954D01*
X012506Y005954D01*
X012526Y005963D01*
X012536Y005940D01*
X012449Y005860D01*
X012444Y005857D01*
X012408Y005822D01*
X012372Y005788D01*
X012369Y005783D01*
X012365Y005779D01*
X012346Y005732D01*
X012325Y005687D01*
X012325Y005681D01*
X012322Y005676D01*
X012322Y005626D01*
X012320Y005576D01*
X012322Y005570D01*
X012322Y004670D01*
X011752Y004670D01*
X011752Y004726D01*
X011710Y004829D01*
X011631Y004907D01*
X011341Y005197D01*
X011238Y005240D01*
X011054Y005240D01*
X011054Y005255D02*
X012322Y005255D01*
X012322Y005097D02*
X011442Y005097D01*
X011600Y004938D02*
X012322Y004938D01*
X012322Y004780D02*
X011730Y004780D01*
X012322Y005414D02*
X009938Y005414D01*
X009949Y005367D02*
X009727Y005367D01*
X009682Y005355D01*
X009641Y005331D01*
X009607Y005297D01*
X009583Y005256D01*
X009571Y005211D01*
X009571Y005008D01*
X009949Y005008D01*
X009949Y005367D01*
X009949Y005255D02*
X009986Y005255D01*
X009986Y005097D02*
X009949Y005097D01*
X009949Y004972D02*
X009986Y004972D01*
X009986Y004613D01*
X009986Y004348D01*
X009949Y004348D01*
X009949Y004972D01*
X009949Y004938D02*
X009986Y004938D01*
X009986Y004780D02*
X009949Y004780D01*
X009949Y004621D02*
X009986Y004621D01*
X009986Y004463D02*
X009949Y004463D01*
X009949Y004304D02*
X009986Y004304D01*
X009986Y004146D02*
X009949Y004146D01*
X009949Y003987D02*
X009986Y003987D01*
X009644Y003987D02*
X007935Y003987D01*
X007777Y003829D02*
X010797Y003829D01*
X010872Y003670D02*
X007722Y003670D01*
X007722Y003512D02*
X010872Y003512D01*
X010872Y003353D02*
X007881Y003353D01*
X007442Y002998D02*
X010009Y002998D01*
X011152Y001855D01*
X012448Y001855D01*
X012552Y001750D01*
X012552Y001500D01*
X013052Y001000D01*
X021252Y001000D01*
X021852Y001500D01*
X021852Y004400D01*
X022164Y004146D02*
X023171Y004146D01*
X023171Y004304D02*
X022246Y004304D01*
X022252Y004463D02*
X023171Y004463D01*
X023171Y004368D02*
X023549Y004368D01*
X023549Y004727D01*
X023327Y004727D01*
X023282Y004715D01*
X023241Y004691D01*
X023207Y004657D01*
X023183Y004616D01*
X023171Y004571D01*
X023171Y004368D01*
X023186Y004621D02*
X022194Y004621D01*
X021652Y004750D02*
X021626Y004739D01*
X021513Y004627D01*
X021452Y004480D01*
X021452Y004320D01*
X021513Y004173D01*
X021572Y004114D01*
X021572Y001631D01*
X021282Y001389D01*
X021282Y001720D01*
X021032Y001970D01*
X021032Y002180D01*
X021205Y002180D01*
X021322Y002297D01*
X021322Y003203D01*
X021205Y003320D01*
X020300Y003320D01*
X020182Y003203D01*
X020182Y003094D01*
X020172Y003108D01*
X020111Y003170D01*
X020041Y003220D01*
X019963Y003260D01*
X019881Y003286D01*
X019796Y003300D01*
X019772Y003300D01*
X019772Y002770D01*
X019732Y002770D01*
X019732Y002730D01*
X018772Y002730D01*
X018772Y002200D01*
X018796Y002200D01*
X018881Y002214D01*
X018963Y002240D01*
X019041Y002280D01*
X019111Y002330D01*
X019172Y002392D01*
X019223Y002462D01*
X019252Y002520D01*
X019282Y002462D01*
X019333Y002392D01*
X019394Y002330D01*
X019464Y002280D01*
X019541Y002240D01*
X019624Y002214D01*
X019709Y002200D01*
X019732Y002200D01*
X019732Y002730D01*
X019772Y002730D01*
X019772Y002200D01*
X019796Y002200D01*
X019881Y002214D01*
X019963Y002240D01*
X020041Y002280D01*
X020111Y002330D01*
X020172Y002392D01*
X020182Y002406D01*
X020182Y002297D01*
X020300Y002180D01*
X020472Y002180D01*
X020472Y001970D01*
X020238Y001735D01*
X019964Y002010D01*
X019771Y002010D01*
X019771Y001518D01*
X019734Y001518D01*
X019734Y001482D01*
X018771Y001482D01*
X018771Y001518D01*
X019262Y001518D01*
X019734Y001518D01*
X019734Y002010D01*
X019541Y002010D01*
X019252Y001721D01*
X018964Y002010D01*
X018771Y002010D01*
X018771Y001518D01*
X018734Y001518D01*
X018734Y002010D01*
X018541Y002010D01*
X018267Y001735D01*
X018032Y001970D01*
X018032Y002249D01*
X018075Y002267D01*
X018236Y002427D01*
X018264Y002496D01*
X018282Y002462D01*
X018333Y002392D01*
X018394Y002330D01*
X018464Y002280D01*
X018541Y002240D01*
X018624Y002214D01*
X018709Y002200D01*
X018732Y002200D01*
X018732Y002730D01*
X018772Y002730D01*
X018772Y002770D01*
X019302Y002770D01*
X019732Y002770D01*
X019732Y003300D01*
X019709Y003300D01*
X019624Y003286D01*
X019541Y003260D01*
X019474Y003225D01*
X020448Y004200D01*
X020532Y004200D01*
X020679Y004261D01*
X020791Y004373D01*
X020852Y004520D01*
X020852Y004680D01*
X020823Y004750D01*
X021652Y004750D01*
X021511Y004621D02*
X020852Y004621D01*
X020828Y004463D02*
X021452Y004463D01*
X021459Y004304D02*
X020722Y004304D01*
X020394Y004146D02*
X021541Y004146D01*
X021572Y003987D02*
X020235Y003987D01*
X020077Y003829D02*
X021572Y003829D01*
X021572Y003670D02*
X019918Y003670D01*
X019760Y003512D02*
X021572Y003512D01*
X021572Y003353D02*
X019601Y003353D01*
X019732Y003195D02*
X019772Y003195D01*
X019772Y003036D02*
X019732Y003036D01*
X019732Y002878D02*
X019772Y002878D01*
X019752Y002750D02*
X019752Y001500D01*
X018752Y001500D01*
X018752Y002750D01*
X018732Y002719D02*
X018772Y002719D01*
X018772Y002561D02*
X018732Y002561D01*
X018732Y002402D02*
X018772Y002402D01*
X018772Y002244D02*
X018732Y002244D01*
X018535Y002244D02*
X018032Y002244D01*
X018032Y002085D02*
X020472Y002085D01*
X020429Y001927D02*
X020047Y001927D01*
X020206Y001768D02*
X020271Y001768D01*
X019771Y001768D02*
X019734Y001768D01*
X019734Y001610D02*
X019771Y001610D01*
X019771Y001927D02*
X019734Y001927D01*
X019458Y001927D02*
X019047Y001927D01*
X019206Y001768D02*
X019299Y001768D01*
X018771Y001768D02*
X018734Y001768D01*
X018734Y001610D02*
X018771Y001610D01*
X018771Y001927D02*
X018734Y001927D01*
X018458Y001927D02*
X018075Y001927D01*
X018234Y001768D02*
X018299Y001768D01*
X017752Y001500D02*
X017752Y002750D01*
X018210Y002402D02*
X018325Y002402D01*
X018970Y002244D02*
X019535Y002244D01*
X019732Y002244D02*
X019772Y002244D01*
X019772Y002402D02*
X019732Y002402D01*
X019732Y002561D02*
X019772Y002561D01*
X019772Y002719D02*
X019732Y002719D01*
X019325Y002402D02*
X019179Y002402D01*
X019970Y002244D02*
X020236Y002244D01*
X020182Y002402D02*
X020179Y002402D01*
X020752Y002750D02*
X020752Y001500D01*
X021282Y001451D02*
X021356Y001451D01*
X021282Y001610D02*
X021546Y001610D01*
X021572Y001768D02*
X021234Y001768D01*
X021075Y001927D02*
X021572Y001927D01*
X021572Y002085D02*
X021032Y002085D01*
X021269Y002244D02*
X021572Y002244D01*
X021572Y002402D02*
X021322Y002402D01*
X021322Y002561D02*
X021572Y002561D01*
X021572Y002719D02*
X021322Y002719D01*
X021322Y002878D02*
X021572Y002878D01*
X021572Y003036D02*
X021322Y003036D01*
X021322Y003195D02*
X021572Y003195D01*
X022132Y003195D02*
X022391Y003195D01*
X022254Y003036D02*
X022132Y003036D01*
X022132Y002878D02*
X022188Y002878D01*
X022182Y002719D02*
X022132Y002719D01*
X022132Y002561D02*
X022214Y002561D01*
X022294Y002402D02*
X022132Y002402D01*
X022132Y002244D02*
X022486Y002244D01*
X022502Y002085D02*
X022132Y002085D01*
X022132Y001927D02*
X022429Y001927D01*
X022271Y001768D02*
X022132Y001768D01*
X022132Y001610D02*
X022222Y001610D01*
X022222Y001451D02*
X022132Y001451D01*
X022222Y001293D02*
X022041Y001293D01*
X021851Y001134D02*
X022369Y001134D01*
X022527Y000976D02*
X021660Y000976D01*
X021470Y000817D02*
X028527Y000817D01*
X028527Y000976D02*
X027977Y000976D01*
X028136Y001134D02*
X028527Y001134D01*
X028527Y001293D02*
X028282Y001293D01*
X028282Y001451D02*
X028527Y001451D01*
X028544Y001610D02*
X028282Y001610D01*
X028234Y001768D02*
X028702Y001768D01*
X028861Y001927D02*
X028075Y001927D01*
X028002Y002085D02*
X029019Y002085D01*
X029127Y002244D02*
X029178Y002244D01*
X029149Y002402D02*
X029336Y002402D01*
X028378Y002244D02*
X028269Y002244D01*
X027369Y001134D02*
X027136Y001134D01*
X026977Y000976D02*
X027527Y000976D01*
X026527Y000976D02*
X025977Y000976D01*
X026136Y001134D02*
X026369Y001134D01*
X025527Y000976D02*
X024977Y000976D01*
X025136Y001134D02*
X025369Y001134D01*
X024527Y000976D02*
X023977Y000976D01*
X024136Y001134D02*
X024369Y001134D01*
X023527Y000976D02*
X022977Y000976D01*
X023136Y001134D02*
X023369Y001134D01*
X023251Y003036D02*
X023254Y003036D01*
X023391Y003195D02*
X023114Y003195D01*
X024114Y003195D02*
X024391Y003195D01*
X024254Y003036D02*
X024251Y003036D01*
X025114Y003195D02*
X025391Y003195D01*
X025254Y003036D02*
X025251Y003036D01*
X025779Y003670D02*
X022132Y003670D01*
X022132Y003512D02*
X025937Y003512D01*
X026096Y003353D02*
X022132Y003353D01*
X022132Y003829D02*
X025620Y003829D01*
X025462Y003987D02*
X025255Y003987D01*
X024952Y004250D02*
X024852Y004350D01*
X024237Y004350D01*
X023904Y003987D02*
X023856Y003987D01*
X023586Y003987D02*
X023549Y003987D01*
X023549Y004146D02*
X023586Y004146D01*
X023586Y004304D02*
X023549Y004304D01*
X023549Y004463D02*
X023586Y004463D01*
X023586Y004621D02*
X023549Y004621D01*
X023279Y003987D02*
X022132Y003987D01*
X020182Y003195D02*
X020076Y003195D01*
X018936Y004304D02*
X018899Y004304D01*
X018899Y004463D02*
X018936Y004463D01*
X018521Y004618D02*
X018521Y004750D01*
X015503Y004750D01*
X015411Y004788D01*
X015011Y005188D01*
X015011Y005188D01*
X014999Y005200D01*
X014999Y005194D01*
X014881Y005077D01*
X014708Y005077D01*
X014901Y005097D02*
X015102Y005097D01*
X015261Y004938D02*
X014091Y004938D01*
X014067Y004780D02*
X015431Y004780D01*
X015944Y005900D02*
X015891Y006027D01*
X015779Y006139D01*
X015632Y006200D01*
X015473Y006200D01*
X015326Y006139D01*
X015285Y006098D01*
X014979Y006098D01*
X014979Y006104D01*
X014886Y006104D01*
X014886Y006104D01*
X014979Y006104D01*
X014979Y006188D01*
X014977Y006195D01*
X014999Y006217D01*
X014999Y006503D01*
X014977Y006525D01*
X014979Y006532D01*
X014979Y006616D01*
X014886Y006616D01*
X014886Y006616D01*
X014979Y006616D01*
X014979Y006700D01*
X014977Y006707D01*
X014999Y006729D01*
X014999Y006848D01*
X015486Y006848D01*
X015589Y006891D01*
X015668Y006969D01*
X015708Y007009D01*
X015715Y006991D01*
X015905Y006801D01*
X015876Y006789D01*
X015763Y006677D01*
X015702Y006530D01*
X015702Y006370D01*
X015763Y006223D01*
X015876Y006111D01*
X015952Y006079D01*
X015952Y005920D01*
X015955Y005914D01*
X015944Y005900D01*
X015952Y006048D02*
X015871Y006048D01*
X015781Y006206D02*
X014987Y006206D01*
X015012Y006100D02*
X015182Y006270D01*
X015182Y006760D01*
X015019Y006616D01*
X014604Y006616D01*
X014604Y006360D02*
X013663Y006360D01*
X013082Y005740D01*
X012732Y005740D01*
X012481Y005889D02*
X010375Y005889D01*
X010375Y005731D02*
X012345Y005731D01*
X012322Y005572D02*
X010375Y005572D01*
X009880Y005693D02*
X009880Y005948D01*
X009872Y005700D02*
X009880Y005693D01*
X009872Y005700D02*
X009352Y005700D01*
X008852Y006200D01*
X008483Y006048D02*
X007520Y006048D01*
X007520Y005889D02*
X008598Y005889D01*
X008887Y005731D02*
X007520Y005731D01*
X007520Y005572D02*
X008728Y005572D01*
X008570Y005414D02*
X007142Y005414D01*
X006984Y005255D02*
X008411Y005255D01*
X008253Y005097D02*
X006825Y005097D01*
X006667Y004938D02*
X008094Y004938D01*
X007936Y004780D02*
X006508Y004780D01*
X006350Y004621D02*
X007777Y004621D01*
X007619Y004463D02*
X006191Y004463D01*
X006033Y004304D02*
X007460Y004304D01*
X007302Y004146D02*
X004778Y004146D01*
X004644Y003987D02*
X007179Y003987D01*
X007162Y003829D02*
X002977Y003829D01*
X002977Y003987D02*
X003861Y003987D01*
X003727Y004146D02*
X002977Y004146D01*
X002977Y004304D02*
X003661Y004304D01*
X003652Y004463D02*
X002977Y004463D01*
X002977Y004621D02*
X003676Y004621D01*
X003742Y004780D02*
X002977Y004780D01*
X002977Y004938D02*
X003898Y004938D01*
X004053Y005255D02*
X002977Y005255D01*
X002977Y005097D02*
X006033Y005097D01*
X006192Y005255D02*
X004451Y005255D01*
X004692Y005414D02*
X006350Y005414D01*
X006509Y005572D02*
X005802Y005572D01*
X005979Y005731D02*
X006530Y005731D01*
X006530Y005889D02*
X006137Y005889D01*
X006296Y006048D02*
X006530Y006048D01*
X006550Y006204D02*
X006624Y006204D01*
X006624Y006204D01*
X006550Y006204D01*
X006550Y006206D02*
X006454Y006206D01*
X006552Y006700D02*
X007009Y006700D01*
X007025Y006716D01*
X007025Y006972D01*
X007025Y007228D02*
X007025Y007484D01*
X006569Y007484D01*
X005474Y008578D01*
X004252Y008578D01*
X004773Y008267D02*
X005390Y008267D01*
X005548Y008108D02*
X004631Y008108D01*
X004475Y007738D02*
X004388Y007766D01*
X004298Y007780D01*
X004272Y007780D01*
X004272Y007220D01*
X004232Y007220D01*
X004232Y007180D01*
X003672Y007180D01*
X003672Y007154D01*
X003687Y007064D01*
X003715Y006977D01*
X003756Y006896D01*
X003810Y006822D01*
X003875Y006758D01*
X003948Y006704D01*
X004030Y006662D01*
X004117Y006634D01*
X004207Y006620D01*
X004232Y006620D01*
X004232Y007180D01*
X004272Y007180D01*
X004272Y006620D01*
X004298Y006620D01*
X004388Y006634D01*
X004475Y006662D01*
X004556Y006704D01*
X004630Y006758D01*
X004695Y006822D01*
X004748Y006896D01*
X004790Y006977D01*
X004818Y007064D01*
X004832Y007154D01*
X004832Y007180D01*
X004272Y007180D01*
X004272Y007220D01*
X004832Y007220D01*
X004832Y007246D01*
X004818Y007336D01*
X004790Y007423D01*
X004748Y007504D01*
X004695Y007578D01*
X004630Y007642D01*
X004556Y007696D01*
X004475Y007738D01*
X004640Y007633D02*
X006024Y007633D01*
X005865Y007791D02*
X002977Y007791D01*
X002977Y007633D02*
X003865Y007633D01*
X003875Y007642D02*
X003810Y007578D01*
X003756Y007504D01*
X003715Y007423D01*
X003687Y007336D01*
X003672Y007246D01*
X003672Y007220D01*
X004232Y007220D01*
X004232Y007780D01*
X004207Y007780D01*
X004117Y007766D01*
X004030Y007738D01*
X003948Y007696D01*
X003875Y007642D01*
X003741Y007474D02*
X002977Y007474D01*
X002977Y007316D02*
X003683Y007316D01*
X003632Y007370D02*
X003802Y007200D01*
X004252Y007200D01*
X004232Y007157D02*
X004272Y007157D01*
X004272Y006999D02*
X004232Y006999D01*
X004232Y006840D02*
X004272Y006840D01*
X004272Y006682D02*
X004232Y006682D01*
X003992Y006682D02*
X002977Y006682D01*
X002977Y006840D02*
X003797Y006840D01*
X003708Y006999D02*
X002977Y006999D01*
X002977Y007157D02*
X003672Y007157D01*
X003632Y007370D02*
X003632Y008940D01*
X003862Y009180D01*
X005272Y009180D01*
X006722Y007740D01*
X007025Y007740D01*
X007025Y007740D01*
X007783Y007740D01*
X007912Y007610D01*
X007912Y006600D01*
X008284Y006972D01*
X009880Y006972D01*
X009880Y007228D02*
X009880Y007484D01*
X009880Y007228D02*
X010500Y007228D01*
X010502Y007230D01*
X009384Y007157D02*
X007520Y007157D01*
X007520Y006999D02*
X009404Y006999D01*
X009384Y006840D02*
X007520Y006840D01*
X007520Y006682D02*
X009384Y006682D01*
X009384Y006523D02*
X009095Y006523D01*
X009217Y006365D02*
X009384Y006365D01*
X009384Y006206D02*
X009252Y006206D01*
X009252Y005700D02*
X009352Y005700D01*
X009252Y005700D02*
X007442Y003890D01*
X007442Y002998D01*
X006927Y003036D02*
X005989Y003036D01*
X005989Y002878D02*
X006927Y002878D01*
X006927Y002719D02*
X005989Y002719D01*
X005989Y002561D02*
X010051Y002561D01*
X010021Y002480D02*
X009996Y002480D01*
X009906Y002466D01*
X009819Y002438D01*
X009737Y002396D01*
X009663Y002342D01*
X009599Y002278D01*
X009545Y002204D01*
X009504Y002123D01*
X009476Y002036D01*
X009461Y001946D01*
X009461Y001920D01*
X010021Y001920D01*
X010021Y002480D01*
X010021Y002402D02*
X010061Y002402D01*
X010061Y002244D02*
X010021Y002244D01*
X010021Y002085D02*
X010061Y002085D01*
X010061Y001927D02*
X010021Y001927D01*
X010021Y001768D02*
X010061Y001768D01*
X010061Y001610D02*
X010021Y001610D01*
X010021Y001451D02*
X010061Y001451D01*
X010410Y001451D02*
X011982Y001451D01*
X011987Y001293D02*
X007937Y001293D01*
X007937Y001221D02*
X007937Y001423D01*
X007925Y001469D01*
X007901Y001510D01*
X007868Y001543D01*
X007827Y001567D01*
X007781Y001579D01*
X007461Y001579D01*
X007461Y001221D01*
X007937Y001221D01*
X007937Y001184D02*
X007461Y001184D01*
X007461Y001221D01*
X007424Y001221D01*
X007424Y001579D01*
X007103Y001579D01*
X007058Y001567D01*
X007017Y001543D01*
X006983Y001510D01*
X006959Y001469D01*
X006947Y001423D01*
X006947Y001221D01*
X007424Y001221D01*
X007424Y001184D01*
X007461Y001184D01*
X007461Y000826D01*
X007781Y000826D01*
X007827Y000838D01*
X007868Y000861D01*
X007901Y000895D01*
X007925Y000936D01*
X007937Y000982D01*
X007937Y001184D01*
X007937Y001134D02*
X012522Y001134D01*
X012681Y000976D02*
X007935Y000976D01*
X008181Y001300D02*
X009146Y001300D01*
X009263Y001417D01*
X009263Y002383D01*
X009146Y002500D01*
X008181Y002500D01*
X008063Y002383D01*
X008063Y002180D01*
X006897Y002180D01*
X006794Y002137D01*
X006636Y001980D01*
X005989Y001980D01*
X005989Y003246D01*
X005871Y003363D01*
X003265Y003363D01*
X003148Y003246D01*
X003148Y000954D01*
X003265Y000837D01*
X005871Y000837D01*
X005989Y000954D01*
X005989Y001420D01*
X006808Y001420D01*
X006911Y001463D01*
X006990Y001541D01*
X007068Y001620D01*
X008063Y001620D01*
X008063Y001417D01*
X008181Y001300D01*
X008063Y001451D02*
X007930Y001451D01*
X008063Y001610D02*
X007058Y001610D01*
X006955Y001451D02*
X006883Y001451D01*
X006947Y001293D02*
X005989Y001293D01*
X005989Y001134D02*
X006947Y001134D01*
X006947Y001184D02*
X006947Y000982D01*
X006959Y000936D01*
X006983Y000895D01*
X007017Y000861D01*
X007058Y000838D01*
X007103Y000826D01*
X007424Y000826D01*
X007424Y001184D01*
X006947Y001184D01*
X006949Y000976D02*
X005989Y000976D01*
X006752Y001700D02*
X004568Y001700D01*
X004568Y002100D01*
X003148Y002085D02*
X002977Y002085D01*
X002977Y001927D02*
X003148Y001927D01*
X003148Y001768D02*
X002977Y001768D01*
X002977Y001610D02*
X003148Y001610D01*
X003148Y001451D02*
X002977Y001451D01*
X002977Y001293D02*
X003148Y001293D01*
X003148Y001134D02*
X002977Y001134D01*
X002977Y000976D02*
X003148Y000976D01*
X002977Y000817D02*
X012839Y000817D01*
X010800Y001610D02*
X010544Y001610D01*
X010608Y001768D02*
X010795Y001768D01*
X010685Y001927D02*
X010621Y001927D01*
X011152Y002445D02*
X011152Y003895D01*
X010637Y004330D01*
X009598Y004621D02*
X008569Y004621D01*
X008411Y004463D02*
X009571Y004463D01*
X009571Y004304D02*
X008252Y004304D01*
X008094Y004146D02*
X009571Y004146D01*
X009571Y004780D02*
X008728Y004780D01*
X008886Y004938D02*
X009571Y004938D01*
X009571Y005097D02*
X009045Y005097D01*
X009203Y005255D02*
X009583Y005255D01*
X009362Y005414D02*
X009821Y005414D01*
X008452Y006206D02*
X007500Y006206D01*
X007500Y006365D02*
X008488Y006365D01*
X008610Y006523D02*
X007500Y006523D01*
X007772Y006460D02*
X007912Y006600D01*
X007772Y006460D02*
X007025Y006460D01*
X007025Y006460D01*
X007025Y006420D02*
X007025Y006228D01*
X007025Y006228D01*
X007025Y006420D01*
X007025Y006420D01*
X007025Y006365D02*
X007025Y006365D01*
X007025Y005948D02*
X007025Y005693D01*
X005777Y004444D01*
X004252Y004444D01*
X004607Y004938D02*
X005875Y004938D01*
X005716Y004780D02*
X004763Y004780D01*
X003812Y005414D02*
X002977Y005414D01*
X002977Y005572D02*
X003706Y005572D01*
X003652Y005731D02*
X002977Y005731D01*
X002977Y005889D02*
X003652Y005889D01*
X003696Y006048D02*
X002977Y006048D01*
X002977Y006206D02*
X003788Y006206D01*
X003994Y006365D02*
X002977Y006365D01*
X002977Y006523D02*
X005979Y006523D01*
X005821Y006365D02*
X004511Y006365D01*
X004717Y006206D02*
X005662Y006206D01*
X005674Y005822D02*
X006552Y006700D01*
X006296Y006840D02*
X004708Y006840D01*
X004797Y006999D02*
X006530Y006999D01*
X006530Y007157D02*
X004832Y007157D01*
X004821Y007316D02*
X006341Y007316D01*
X006182Y007474D02*
X004764Y007474D01*
X004272Y007474D02*
X004232Y007474D01*
X004232Y007316D02*
X004272Y007316D01*
X004272Y007633D02*
X004232Y007633D01*
X003874Y008108D02*
X002977Y008108D01*
X002977Y007950D02*
X005707Y007950D01*
X006182Y008267D02*
X006530Y008267D01*
X006530Y008425D02*
X006023Y008425D01*
X005865Y008584D02*
X006530Y008584D01*
X006395Y008742D02*
X005706Y008742D01*
X006078Y009059D02*
X004620Y009059D01*
X004768Y008901D02*
X006236Y008901D01*
X005919Y009218D02*
X002977Y009218D01*
X002977Y009376D02*
X003749Y009376D01*
X003652Y009535D02*
X002977Y009535D01*
X002977Y009693D02*
X003652Y009693D01*
X003652Y009852D02*
X002977Y009852D01*
X002977Y010010D02*
X003652Y010010D01*
X003652Y010169D02*
X002977Y010169D01*
X002977Y010327D02*
X003652Y010327D01*
X003699Y010486D02*
X002977Y010486D01*
X002977Y010644D02*
X005231Y010644D01*
X005272Y010803D02*
X002977Y010803D01*
X002977Y010961D02*
X003375Y010961D01*
X003367Y010969D02*
X003400Y010936D01*
X003441Y010912D01*
X003487Y010900D01*
X003719Y010900D01*
X003719Y011337D01*
X003814Y011337D01*
X003814Y010900D01*
X004046Y010900D01*
X004092Y010912D01*
X004133Y010936D01*
X004166Y010969D01*
X004190Y011010D01*
X004202Y011056D01*
X004202Y011337D01*
X003814Y011337D01*
X003814Y011433D01*
X003719Y011433D01*
X003719Y011870D01*
X003487Y011870D01*
X003441Y011858D01*
X003400Y011834D01*
X003367Y011801D01*
X003343Y011760D01*
X003331Y011714D01*
X003331Y011433D01*
X003719Y011433D01*
X003719Y011337D01*
X003331Y011337D01*
X003331Y011056D01*
X003343Y011010D01*
X003367Y010969D01*
X003331Y011120D02*
X002977Y011120D01*
X002977Y011278D02*
X003331Y011278D01*
X003331Y011437D02*
X002977Y011437D01*
X002977Y011595D02*
X003331Y011595D01*
X003341Y011754D02*
X002977Y011754D01*
X002977Y011912D02*
X005258Y011912D01*
X005258Y012071D02*
X002977Y012071D01*
X002977Y012229D02*
X005258Y012229D01*
X005258Y012388D02*
X002977Y012388D01*
X002977Y012546D02*
X005258Y012546D01*
X005258Y012705D02*
X002977Y012705D01*
X002977Y012863D02*
X005258Y012863D01*
X005258Y013022D02*
X002977Y013022D01*
X002977Y013180D02*
X005258Y013180D01*
X005258Y013339D02*
X002977Y013339D01*
X002977Y013497D02*
X005258Y013497D01*
X005258Y013656D02*
X002977Y013656D01*
X002977Y013814D02*
X005258Y013814D01*
X005258Y013973D02*
X002977Y013973D01*
X002977Y014131D02*
X003348Y014131D01*
X003343Y014140D02*
X003367Y014099D01*
X003400Y014066D01*
X003441Y014042D01*
X003487Y014030D01*
X003719Y014030D01*
X003719Y014467D01*
X003814Y014467D01*
X003814Y014030D01*
X004046Y014030D01*
X004092Y014042D01*
X004133Y014066D01*
X004166Y014099D01*
X004190Y014140D01*
X004202Y014186D01*
X004202Y014467D01*
X003814Y014467D01*
X003814Y014563D01*
X003719Y014563D01*
X003719Y015000D01*
X003487Y015000D01*
X003441Y014988D01*
X003400Y014964D01*
X003367Y014931D01*
X003343Y014890D01*
X003331Y014844D01*
X003331Y014563D01*
X003719Y014563D01*
X003719Y014467D01*
X003331Y014467D01*
X003331Y014186D01*
X003343Y014140D01*
X003331Y014290D02*
X002977Y014290D01*
X002977Y014448D02*
X003331Y014448D01*
X003331Y014607D02*
X002977Y014607D01*
X002977Y014765D02*
X003331Y014765D01*
X003363Y014924D02*
X002977Y014924D01*
X002977Y015082D02*
X006538Y015082D01*
X006380Y014924D02*
X005973Y014924D01*
X005994Y014765D02*
X006221Y014765D01*
X006093Y014607D02*
X005994Y014607D01*
X005994Y014448D02*
X006072Y014448D01*
X006072Y014290D02*
X005994Y014290D01*
X005994Y014131D02*
X006072Y014131D01*
X006072Y013973D02*
X005818Y013973D01*
X005818Y013814D02*
X006072Y013814D01*
X006072Y013656D02*
X005818Y013656D01*
X005818Y013497D02*
X006072Y013497D01*
X006118Y013339D02*
X005818Y013339D01*
X005818Y013180D02*
X006276Y013180D01*
X006493Y013022D02*
X005818Y013022D01*
X005818Y012863D02*
X006683Y012863D01*
X006751Y012705D02*
X005818Y012705D01*
X005818Y012546D02*
X006608Y012546D01*
X006542Y012388D02*
X005818Y012388D01*
X005818Y012229D02*
X006532Y012229D01*
X006560Y012071D02*
X005818Y012071D01*
X005818Y011912D02*
X006634Y011912D01*
X006811Y011754D02*
X005994Y011754D01*
X005994Y011595D02*
X006641Y011595D01*
X006563Y011437D02*
X005994Y011437D01*
X005994Y011278D02*
X006532Y011278D01*
X006539Y011120D02*
X005994Y011120D01*
X005958Y010961D02*
X006605Y010961D01*
X006744Y010803D02*
X005832Y010803D01*
X005552Y010400D02*
X005552Y011371D01*
X005538Y011385D01*
X005538Y014515D01*
X005082Y014448D02*
X004202Y014448D01*
X004202Y014563D02*
X004202Y014844D01*
X004190Y014890D01*
X004166Y014931D01*
X004133Y014964D01*
X004092Y014988D01*
X004046Y015000D01*
X003814Y015000D01*
X003814Y014563D01*
X004202Y014563D01*
X004202Y014607D02*
X005082Y014607D01*
X005082Y014765D02*
X004202Y014765D01*
X004171Y014924D02*
X005103Y014924D01*
X005082Y014290D02*
X004202Y014290D01*
X004185Y014131D02*
X005082Y014131D01*
X003814Y014131D02*
X003719Y014131D01*
X003719Y014290D02*
X003814Y014290D01*
X003814Y014448D02*
X003719Y014448D01*
X003719Y014607D02*
X003814Y014607D01*
X003814Y014765D02*
X003719Y014765D01*
X003719Y014924D02*
X003814Y014924D01*
X002977Y015241D02*
X009887Y015241D01*
X009929Y015283D02*
X009769Y015123D01*
X009682Y014913D01*
X009682Y014687D01*
X009769Y014477D01*
X009929Y014317D01*
X009970Y014300D01*
X009929Y014283D01*
X009769Y014123D01*
X009682Y013913D01*
X009682Y013687D01*
X009769Y013477D01*
X009929Y013317D01*
X009970Y013300D01*
X009929Y013283D01*
X009769Y013123D01*
X009682Y012913D01*
X009682Y012687D01*
X009769Y012477D01*
X009929Y012317D01*
X009970Y012300D01*
X009929Y012283D01*
X009769Y012123D01*
X009682Y011913D01*
X009682Y011687D01*
X009769Y011477D01*
X009929Y011317D01*
X010139Y011230D01*
X010366Y011230D01*
X010575Y011317D01*
X010736Y011477D01*
X010752Y011518D01*
X010769Y011477D01*
X010929Y011317D01*
X011139Y011230D01*
X011366Y011230D01*
X011575Y011317D01*
X011736Y011477D01*
X011752Y011518D01*
X011769Y011477D01*
X011929Y011317D01*
X012139Y011230D01*
X012366Y011230D01*
X012575Y011317D01*
X012736Y011477D01*
X012752Y011518D01*
X012769Y011477D01*
X012929Y011317D01*
X013139Y011230D01*
X013366Y011230D01*
X013575Y011317D01*
X013736Y011477D01*
X013752Y011518D01*
X013769Y011477D01*
X013929Y011317D01*
X014139Y011230D01*
X014366Y011230D01*
X014575Y011317D01*
X014736Y011477D01*
X014752Y011518D01*
X014769Y011477D01*
X014929Y011317D01*
X015139Y011230D01*
X015366Y011230D01*
X015575Y011317D01*
X015736Y011477D01*
X015752Y011518D01*
X015769Y011477D01*
X015929Y011317D01*
X016139Y011230D01*
X016366Y011230D01*
X016575Y011317D01*
X016736Y011477D01*
X016752Y011518D01*
X016769Y011477D01*
X016929Y011317D01*
X017139Y011230D01*
X017366Y011230D01*
X017575Y011317D01*
X017736Y011477D01*
X017752Y011518D01*
X017769Y011477D01*
X017929Y011317D01*
X018139Y011230D01*
X018366Y011230D01*
X018575Y011317D01*
X018736Y011477D01*
X018752Y011518D01*
X018769Y011477D01*
X018929Y011317D01*
X019139Y011230D01*
X019366Y011230D01*
X019575Y011317D01*
X019736Y011477D01*
X019752Y011518D01*
X019769Y011477D01*
X019929Y011317D01*
X020139Y011230D01*
X020366Y011230D01*
X020575Y011317D01*
X020736Y011477D01*
X020752Y011518D01*
X020769Y011477D01*
X020929Y011317D01*
X021139Y011230D01*
X021366Y011230D01*
X021575Y011317D01*
X021736Y011477D01*
X021822Y011687D01*
X021822Y011913D01*
X021736Y012123D01*
X021575Y012283D01*
X021535Y012300D01*
X021575Y012317D01*
X021736Y012477D01*
X021822Y012687D01*
X021822Y012913D01*
X021736Y013123D01*
X021575Y013283D01*
X021535Y013300D01*
X021575Y013317D01*
X021736Y013477D01*
X021822Y013687D01*
X021822Y013913D01*
X021736Y014123D01*
X021575Y014283D01*
X021535Y014300D01*
X021575Y014317D01*
X021736Y014477D01*
X021822Y014687D01*
X021822Y014913D01*
X021736Y015123D01*
X021575Y015283D01*
X021535Y015300D01*
X021575Y015317D01*
X021736Y015477D01*
X021822Y015687D01*
X021822Y015913D01*
X021736Y016123D01*
X021575Y016283D01*
X021535Y016300D01*
X021575Y016317D01*
X021736Y016477D01*
X021822Y016687D01*
X021822Y016913D01*
X021736Y017123D01*
X021575Y017283D01*
X021366Y017370D01*
X021139Y017370D01*
X020929Y017283D01*
X020769Y017123D01*
X020752Y017082D01*
X020736Y017123D01*
X020575Y017283D01*
X020366Y017370D01*
X020139Y017370D01*
X019929Y017283D01*
X019769Y017123D01*
X019752Y017082D01*
X019736Y017123D01*
X019575Y017283D01*
X019366Y017370D01*
X019139Y017370D01*
X018929Y017283D01*
X018769Y017123D01*
X018752Y017082D01*
X018736Y017123D01*
X018575Y017283D01*
X018366Y017370D01*
X018139Y017370D01*
X017929Y017283D01*
X017769Y017123D01*
X017752Y017082D01*
X017736Y017123D01*
X017575Y017283D01*
X017366Y017370D01*
X017139Y017370D01*
X016929Y017283D01*
X016769Y017123D01*
X016752Y017082D01*
X016736Y017123D01*
X016575Y017283D01*
X016366Y017370D01*
X016139Y017370D01*
X015929Y017283D01*
X015769Y017123D01*
X015752Y017082D01*
X015736Y017123D01*
X015575Y017283D01*
X015366Y017370D01*
X015139Y017370D01*
X014929Y017283D01*
X014769Y017123D01*
X014752Y017082D01*
X014736Y017123D01*
X014575Y017283D01*
X014366Y017370D01*
X014139Y017370D01*
X013929Y017283D01*
X013769Y017123D01*
X013752Y017082D01*
X013736Y017123D01*
X013575Y017283D01*
X013366Y017370D01*
X013139Y017370D01*
X012929Y017283D01*
X012769Y017123D01*
X012752Y017082D01*
X012736Y017123D01*
X012575Y017283D01*
X012366Y017370D01*
X012139Y017370D01*
X011929Y017283D01*
X011769Y017123D01*
X011752Y017082D01*
X011736Y017123D01*
X011575Y017283D01*
X011366Y017370D01*
X011139Y017370D01*
X010929Y017283D01*
X010769Y017123D01*
X010752Y017082D01*
X010736Y017123D01*
X010575Y017283D01*
X010366Y017370D01*
X010139Y017370D01*
X009929Y017283D01*
X009769Y017123D01*
X009682Y016913D01*
X009682Y016687D01*
X009769Y016477D01*
X009929Y016317D01*
X009970Y016300D01*
X009929Y016283D01*
X009769Y016123D01*
X009682Y015913D01*
X009682Y015687D01*
X009769Y015477D01*
X009929Y015317D01*
X009970Y015300D01*
X009929Y015283D01*
X009847Y015399D02*
X002977Y015399D01*
X002977Y015558D02*
X009736Y015558D01*
X009682Y015716D02*
X008097Y015716D01*
X008106Y015732D02*
X008118Y015777D01*
X008118Y016255D01*
X007720Y016255D01*
X007720Y015621D01*
X007962Y015621D01*
X008007Y015633D01*
X008048Y015657D01*
X008082Y015691D01*
X008106Y015732D01*
X008118Y015875D02*
X009682Y015875D01*
X009732Y016033D02*
X008118Y016033D01*
X008118Y016192D02*
X009838Y016192D01*
X009896Y016350D02*
X007720Y016350D01*
X007720Y016371D02*
X008118Y016371D01*
X008118Y016848D01*
X008106Y016894D01*
X008082Y016935D01*
X008048Y016969D01*
X008007Y016992D01*
X007962Y017005D01*
X007720Y017005D01*
X007720Y016371D01*
X007605Y016371D01*
X007605Y017005D01*
X007363Y017005D01*
X007317Y016992D01*
X007276Y016969D01*
X007243Y016935D01*
X007219Y016894D01*
X007207Y016848D01*
X007207Y016371D01*
X007605Y016371D01*
X007605Y016255D01*
X007720Y016255D01*
X007720Y016371D01*
X007605Y016350D02*
X004832Y016350D01*
X004832Y016357D02*
X004818Y016447D01*
X004790Y016534D01*
X004748Y016615D01*
X004695Y016689D01*
X004630Y016753D01*
X004556Y016807D01*
X004475Y016849D01*
X004388Y016877D01*
X004298Y016891D01*
X004272Y016891D01*
X004272Y016331D01*
X004232Y016331D01*
X004232Y016291D01*
X003672Y016291D01*
X003672Y016265D01*
X003687Y016175D01*
X003715Y016088D01*
X003756Y016007D01*
X003810Y015933D01*
X003875Y015869D01*
X003948Y015815D01*
X004030Y015774D01*
X004117Y015745D01*
X004207Y015731D01*
X004232Y015731D01*
X004232Y016291D01*
X004272Y016291D01*
X004272Y015731D01*
X004298Y015731D01*
X004388Y015745D01*
X004475Y015774D01*
X004556Y015815D01*
X004630Y015869D01*
X004695Y015933D01*
X004748Y016007D01*
X004790Y016088D01*
X004818Y016175D01*
X004832Y016265D01*
X004832Y016291D01*
X004272Y016291D01*
X004272Y016331D01*
X004832Y016331D01*
X004832Y016357D01*
X004798Y016509D02*
X007207Y016509D01*
X007207Y016667D02*
X004711Y016667D01*
X004520Y016826D02*
X007207Y016826D01*
X007303Y016984D02*
X002977Y016984D01*
X002977Y016826D02*
X003985Y016826D01*
X003948Y016807D02*
X003875Y016753D01*
X003810Y016689D01*
X003756Y016615D01*
X003715Y016534D01*
X003687Y016447D01*
X003672Y016357D01*
X003672Y016331D01*
X004232Y016331D01*
X004232Y016891D01*
X004207Y016891D01*
X004117Y016877D01*
X004030Y016849D01*
X003948Y016807D01*
X003794Y016667D02*
X002977Y016667D01*
X002977Y016509D02*
X003707Y016509D01*
X003672Y016350D02*
X002977Y016350D01*
X002977Y016192D02*
X003684Y016192D01*
X003743Y016033D02*
X002977Y016033D01*
X002977Y015875D02*
X003869Y015875D01*
X004232Y015875D02*
X004272Y015875D01*
X004272Y016033D02*
X004232Y016033D01*
X004232Y016192D02*
X004272Y016192D01*
X004272Y016350D02*
X004232Y016350D01*
X004232Y016509D02*
X004272Y016509D01*
X004272Y016667D02*
X004232Y016667D01*
X004232Y016826D02*
X004272Y016826D01*
X004735Y017089D02*
X004852Y017206D01*
X004852Y017604D01*
X005568Y018320D01*
X007186Y018320D01*
X007187Y018320D01*
X007187Y017332D01*
X007304Y017215D01*
X008021Y017215D01*
X008138Y017332D01*
X008138Y018522D01*
X008021Y018639D01*
X007659Y018639D01*
X007461Y018837D01*
X007358Y018880D01*
X005732Y018880D01*
X005732Y019099D01*
X005775Y019117D01*
X005936Y019277D01*
X005952Y019318D01*
X005969Y019277D01*
X006129Y019117D01*
X006339Y019030D01*
X006566Y019030D01*
X006775Y019117D01*
X006936Y019277D01*
X006966Y019350D01*
X007321Y019350D01*
X007338Y019345D01*
X007370Y019350D01*
X007402Y019350D01*
X007419Y019357D01*
X007437Y019360D01*
X007464Y019376D01*
X007494Y019388D01*
X007507Y019401D01*
X007523Y019410D01*
X007542Y019436D01*
X007564Y019458D01*
X007571Y019475D01*
X007777Y019750D01*
X009730Y019750D01*
X009682Y019703D01*
X009682Y018797D01*
X009800Y018680D01*
X010705Y018680D01*
X010822Y018797D01*
X010822Y018874D01*
X010929Y018767D01*
X011139Y018680D01*
X011366Y018680D01*
X011575Y018767D01*
X011736Y018927D01*
X011752Y018968D01*
X011769Y018927D01*
X011929Y018767D01*
X012139Y018680D01*
X012366Y018680D01*
X012575Y018767D01*
X012736Y018927D01*
X012764Y018996D01*
X012782Y018962D01*
X012833Y018892D01*
X012894Y018830D01*
X012964Y018780D01*
X013041Y018740D01*
X013124Y018714D01*
X013209Y018700D01*
X013232Y018700D01*
X013232Y019230D01*
X013272Y019230D01*
X013272Y018700D01*
X013296Y018700D01*
X013381Y018714D01*
X013463Y018740D01*
X013541Y018780D01*
X013611Y018830D01*
X013672Y018892D01*
X013723Y018962D01*
X013740Y018996D01*
X013769Y018927D01*
X013929Y018767D01*
X014139Y018680D01*
X014366Y018680D01*
X014575Y018767D01*
X014736Y018927D01*
X014752Y018968D01*
X014769Y018927D01*
X014929Y018767D01*
X015139Y018680D01*
X015366Y018680D01*
X015575Y018767D01*
X015736Y018927D01*
X015752Y018968D01*
X015769Y018927D01*
X015929Y018767D01*
X016139Y018680D01*
X016366Y018680D01*
X016575Y018767D01*
X016736Y018927D01*
X016752Y018968D01*
X016769Y018927D01*
X016929Y018767D01*
X017139Y018680D01*
X017366Y018680D01*
X017575Y018767D01*
X017736Y018927D01*
X017752Y018968D01*
X017769Y018927D01*
X017929Y018767D01*
X018139Y018680D01*
X018366Y018680D01*
X018575Y018767D01*
X018736Y018927D01*
X018752Y018968D01*
X018769Y018927D01*
X018929Y018767D01*
X019139Y018680D01*
X019366Y018680D01*
X019575Y018767D01*
X019736Y018927D01*
X019822Y019137D01*
X019822Y019363D01*
X019736Y019573D01*
X019575Y019733D01*
X019366Y019820D01*
X019139Y019820D01*
X018929Y019733D01*
X018769Y019573D01*
X018752Y019532D01*
X018736Y019573D01*
X018575Y019733D01*
X018366Y019820D01*
X018139Y019820D01*
X017929Y019733D01*
X017769Y019573D01*
X017752Y019532D01*
X017736Y019573D01*
X017575Y019733D01*
X017535Y019750D01*
X017802Y019750D01*
X017894Y019788D01*
X018076Y019970D01*
X018472Y019970D01*
X018752Y020250D01*
X019033Y019970D01*
X019472Y019970D01*
X019782Y020280D01*
X019782Y020720D01*
X019472Y021030D01*
X019033Y021030D01*
X019021Y021018D01*
X018821Y021185D01*
X018794Y021212D01*
X018783Y021216D01*
X018774Y021224D01*
X018738Y021235D01*
X018702Y021250D01*
X018690Y021250D01*
X018679Y021253D01*
X018641Y021250D01*
X006803Y021250D01*
X006711Y021212D01*
X006639Y021140D01*
X006566Y021170D01*
X006339Y021170D01*
X006129Y021083D01*
X005969Y020923D01*
X005952Y020882D01*
X005936Y020923D01*
X005775Y021083D01*
X005566Y021170D01*
X005339Y021170D01*
X005129Y021083D01*
X004969Y020923D01*
X004940Y020854D01*
X004923Y020888D01*
X004872Y020958D01*
X004811Y021020D01*
X004741Y021070D01*
X004663Y021110D01*
X004581Y021136D01*
X004496Y021150D01*
X004472Y021150D01*
X004472Y020620D01*
X004432Y020620D01*
X004432Y020580D01*
X003902Y020580D01*
X003902Y020557D01*
X003916Y020471D01*
X002977Y020471D01*
X002977Y020313D02*
X003982Y020313D01*
X003982Y020312D02*
X004033Y020242D01*
X004094Y020180D01*
X004136Y020150D01*
X004059Y020150D01*
X004013Y020138D01*
X003972Y020114D01*
X003938Y020081D01*
X003915Y020039D01*
X003902Y019994D01*
X003902Y019620D01*
X004432Y019620D01*
X004432Y019580D01*
X003902Y019580D01*
X003902Y019206D01*
X003915Y019161D01*
X003938Y019119D01*
X003972Y019086D01*
X004013Y019062D01*
X004059Y019050D01*
X004432Y019050D01*
X004432Y019580D01*
X004472Y019580D01*
X004472Y019050D01*
X004846Y019050D01*
X004892Y019062D01*
X004933Y019086D01*
X004966Y019119D01*
X004990Y019161D01*
X005002Y019206D01*
X005002Y019244D01*
X005129Y019117D01*
X005172Y019099D01*
X005172Y018716D01*
X004740Y018284D01*
X004735Y018289D01*
X003770Y018289D01*
X003652Y018172D01*
X003652Y017206D01*
X003770Y017089D01*
X004735Y017089D01*
X004789Y017143D02*
X009789Y017143D01*
X009712Y016984D02*
X008022Y016984D01*
X008118Y016826D02*
X009682Y016826D01*
X009690Y016667D02*
X008118Y016667D01*
X008118Y016509D02*
X009756Y016509D01*
X009972Y017301D02*
X008107Y017301D01*
X008138Y017460D02*
X025521Y017460D01*
X025521Y017618D02*
X008138Y017618D01*
X008138Y017777D02*
X025539Y017777D01*
X025899Y017777D02*
X025936Y017777D01*
X025936Y017618D02*
X025899Y017618D01*
X025521Y017301D02*
X021532Y017301D01*
X021716Y017143D02*
X024941Y017143D01*
X024783Y016984D02*
X021793Y016984D01*
X021822Y016826D02*
X024624Y016826D01*
X024466Y016667D02*
X021814Y016667D01*
X021749Y016509D02*
X024307Y016509D01*
X024149Y016350D02*
X021608Y016350D01*
X021667Y016192D02*
X024102Y016192D01*
X024102Y016033D02*
X021773Y016033D01*
X021822Y015875D02*
X024102Y015875D01*
X024102Y015716D02*
X021822Y015716D01*
X021769Y015558D02*
X024102Y015558D01*
X024102Y015399D02*
X021657Y015399D01*
X021618Y015241D02*
X024102Y015241D01*
X024102Y015082D02*
X021753Y015082D01*
X021818Y014924D02*
X024102Y014924D01*
X024102Y014765D02*
X021822Y014765D01*
X021789Y014607D02*
X024102Y014607D01*
X024102Y014448D02*
X021706Y014448D01*
X021560Y014290D02*
X024102Y014290D01*
X024102Y014131D02*
X021727Y014131D01*
X021798Y013973D02*
X024102Y013973D01*
X024102Y013814D02*
X021822Y013814D01*
X021809Y013656D02*
X024065Y013656D01*
X023901Y013497D02*
X021744Y013497D01*
X021597Y013339D02*
X023852Y013339D01*
X023869Y013180D02*
X021678Y013180D01*
X021778Y013022D02*
X023965Y013022D01*
X024084Y012863D02*
X021822Y012863D01*
X021822Y012705D02*
X023904Y012705D01*
X023852Y012546D02*
X021764Y012546D01*
X021646Y012388D02*
X023866Y012388D01*
X023958Y012229D02*
X021629Y012229D01*
X021757Y012071D02*
X024102Y012071D01*
X023907Y011912D02*
X021822Y011912D01*
X021822Y011754D02*
X023852Y011754D01*
X023863Y011595D02*
X021784Y011595D01*
X021695Y011437D02*
X023950Y011437D01*
X024120Y011278D02*
X021482Y011278D01*
X021023Y011278D02*
X020482Y011278D01*
X020695Y011437D02*
X020810Y011437D01*
X020023Y011278D02*
X019482Y011278D01*
X019695Y011437D02*
X019810Y011437D01*
X019023Y011278D02*
X018482Y011278D01*
X018695Y011437D02*
X018810Y011437D01*
X018023Y011278D02*
X017482Y011278D01*
X017695Y011437D02*
X017810Y011437D01*
X017023Y011278D02*
X016482Y011278D01*
X016695Y011437D02*
X016810Y011437D01*
X016023Y011278D02*
X015482Y011278D01*
X015695Y011437D02*
X015810Y011437D01*
X015023Y011278D02*
X014482Y011278D01*
X014695Y011437D02*
X014810Y011437D01*
X014023Y011278D02*
X013482Y011278D01*
X013695Y011437D02*
X013810Y011437D01*
X013023Y011278D02*
X012482Y011278D01*
X012695Y011437D02*
X012810Y011437D01*
X012023Y011278D02*
X011482Y011278D01*
X011695Y011437D02*
X011810Y011437D01*
X011023Y011278D02*
X010482Y011278D01*
X010695Y011437D02*
X010810Y011437D01*
X010023Y011278D02*
X009002Y011278D01*
X009002Y011437D02*
X009810Y011437D01*
X009720Y011595D02*
X009002Y011595D01*
X009002Y011754D02*
X009682Y011754D01*
X009682Y011912D02*
X009002Y011912D01*
X009002Y012071D02*
X009747Y012071D01*
X009875Y012229D02*
X009002Y012229D01*
X009002Y012388D02*
X009859Y012388D01*
X009741Y012546D02*
X009002Y012546D01*
X009002Y012705D02*
X009682Y012705D01*
X009682Y012863D02*
X009002Y012863D01*
X009002Y013022D02*
X009727Y013022D01*
X009826Y013180D02*
X009002Y013180D01*
X009002Y013339D02*
X009908Y013339D01*
X009761Y013497D02*
X009002Y013497D01*
X009002Y013656D02*
X009695Y013656D01*
X009682Y013814D02*
X009002Y013814D01*
X009002Y013973D02*
X009707Y013973D01*
X009777Y014131D02*
X009002Y014131D01*
X009001Y014290D02*
X009945Y014290D01*
X009798Y014448D02*
X008900Y014448D01*
X008742Y014607D02*
X009716Y014607D01*
X009682Y014765D02*
X008583Y014765D01*
X008425Y014924D02*
X009687Y014924D01*
X009752Y015082D02*
X008266Y015082D01*
X008052Y014900D02*
X006752Y014900D01*
X006352Y014500D01*
X006352Y013500D01*
X006552Y013300D01*
X007052Y013300D01*
X007102Y013250D01*
X007152Y014200D02*
X007102Y014250D01*
X007152Y014200D02*
X008052Y014200D01*
X008452Y013800D01*
X008452Y011000D01*
X009252Y010200D01*
X015352Y010200D01*
X015952Y009600D01*
X015952Y007150D01*
X016502Y006600D01*
X016885Y006600D01*
X016901Y006616D01*
X016901Y006872D02*
X016630Y006872D01*
X016232Y007280D01*
X016232Y009710D01*
X015462Y010490D01*
X009362Y010490D01*
X008722Y011130D01*
X008722Y014230D01*
X008052Y014900D01*
X007605Y015621D02*
X007363Y015621D01*
X007317Y015633D01*
X007276Y015657D01*
X007243Y015691D01*
X007219Y015732D01*
X007207Y015777D01*
X007207Y016255D01*
X007605Y016255D01*
X007605Y015621D01*
X007605Y015716D02*
X007720Y015716D01*
X007720Y015875D02*
X007605Y015875D01*
X007605Y016033D02*
X007720Y016033D01*
X007720Y016192D02*
X007605Y016192D01*
X007207Y016192D02*
X004821Y016192D01*
X004762Y016033D02*
X007207Y016033D01*
X007207Y015875D02*
X004636Y015875D01*
X004852Y017301D02*
X007218Y017301D01*
X007187Y017460D02*
X004852Y017460D01*
X004866Y017618D02*
X007187Y017618D01*
X007187Y017777D02*
X005025Y017777D01*
X005183Y017935D02*
X007187Y017935D01*
X007187Y018094D02*
X005342Y018094D01*
X005500Y018252D02*
X007187Y018252D01*
X007302Y018600D02*
X007662Y018240D01*
X007662Y017927D01*
X008138Y017935D02*
X027102Y017935D01*
X027005Y018094D02*
X008138Y018094D01*
X008138Y018252D02*
X026952Y018252D01*
X026965Y018411D02*
X008138Y018411D01*
X008091Y018569D02*
X027056Y018569D01*
X026980Y018728D02*
X027524Y018728D01*
X027429Y018767D02*
X027639Y018680D01*
X027866Y018680D01*
X028075Y018767D01*
X028236Y018927D01*
X028322Y019137D01*
X028322Y019363D01*
X028236Y019573D01*
X028075Y019733D01*
X027866Y019820D01*
X027639Y019820D01*
X027429Y019733D01*
X027269Y019573D01*
X027252Y019532D01*
X027236Y019573D01*
X027075Y019733D01*
X026866Y019820D01*
X026639Y019820D01*
X026429Y019733D01*
X026269Y019573D01*
X026252Y019532D01*
X026236Y019573D01*
X026075Y019733D01*
X025866Y019820D01*
X025639Y019820D01*
X025429Y019733D01*
X025269Y019573D01*
X025252Y019532D01*
X025236Y019573D01*
X025075Y019733D01*
X024866Y019820D01*
X024639Y019820D01*
X024429Y019733D01*
X024269Y019573D01*
X024252Y019532D01*
X024236Y019573D01*
X024075Y019733D01*
X023866Y019820D01*
X023639Y019820D01*
X023429Y019733D01*
X023269Y019573D01*
X023252Y019532D01*
X023236Y019573D01*
X023075Y019733D01*
X022866Y019820D01*
X022639Y019820D01*
X022429Y019733D01*
X022269Y019573D01*
X022252Y019532D01*
X022236Y019573D01*
X022075Y019733D01*
X021866Y019820D01*
X021639Y019820D01*
X021429Y019733D01*
X021322Y019626D01*
X021322Y019703D01*
X021205Y019820D01*
X020300Y019820D01*
X020182Y019703D01*
X020182Y018797D01*
X020300Y018680D01*
X021205Y018680D01*
X021322Y018797D01*
X021322Y018874D01*
X021429Y018767D01*
X021639Y018680D01*
X021866Y018680D01*
X022075Y018767D01*
X022236Y018927D01*
X022252Y018968D01*
X022269Y018927D01*
X022429Y018767D01*
X022639Y018680D01*
X022866Y018680D01*
X023075Y018767D01*
X023236Y018927D01*
X023252Y018968D01*
X023269Y018927D01*
X023429Y018767D01*
X023639Y018680D01*
X023866Y018680D01*
X024075Y018767D01*
X024236Y018927D01*
X024252Y018968D01*
X024269Y018927D01*
X024429Y018767D01*
X024639Y018680D01*
X024866Y018680D01*
X025075Y018767D01*
X025236Y018927D01*
X025252Y018968D01*
X025269Y018927D01*
X025429Y018767D01*
X025639Y018680D01*
X025866Y018680D01*
X026075Y018767D01*
X026236Y018927D01*
X026252Y018968D01*
X026269Y018927D01*
X026429Y018767D01*
X026639Y018680D01*
X026866Y018680D01*
X027075Y018767D01*
X027236Y018927D01*
X027252Y018968D01*
X027269Y018927D01*
X027429Y018767D01*
X027310Y018886D02*
X027194Y018886D01*
X027649Y018569D02*
X028527Y018569D01*
X028527Y018411D02*
X027740Y018411D01*
X027796Y018252D02*
X028527Y018252D01*
X028527Y018094D02*
X027955Y018094D01*
X028032Y017935D02*
X028527Y017935D01*
X028527Y017777D02*
X028032Y017777D01*
X028032Y017618D02*
X028527Y017618D01*
X028527Y017460D02*
X028032Y017460D01*
X028005Y017301D02*
X028527Y017301D01*
X028527Y017143D02*
X027980Y017143D01*
X027752Y017500D02*
X027752Y017900D01*
X027352Y018300D01*
X027980Y018728D02*
X028527Y018728D01*
X028527Y018886D02*
X028194Y018886D01*
X028284Y019045D02*
X028527Y019045D01*
X028527Y019203D02*
X028322Y019203D01*
X028322Y019362D02*
X028527Y019362D01*
X028527Y019520D02*
X028257Y019520D01*
X028130Y019679D02*
X028527Y019679D01*
X028527Y019837D02*
X017943Y019837D01*
X017875Y019679D02*
X017630Y019679D01*
X017694Y018886D02*
X017810Y018886D01*
X018024Y018728D02*
X017480Y018728D01*
X017024Y018728D02*
X016480Y018728D01*
X016694Y018886D02*
X016810Y018886D01*
X016024Y018728D02*
X015480Y018728D01*
X015694Y018886D02*
X015810Y018886D01*
X015024Y018728D02*
X014480Y018728D01*
X014694Y018886D02*
X014810Y018886D01*
X014024Y018728D02*
X013424Y018728D01*
X013272Y018728D02*
X013232Y018728D01*
X013081Y018728D02*
X012480Y018728D01*
X012694Y018886D02*
X012839Y018886D01*
X013232Y018886D02*
X013272Y018886D01*
X013272Y019045D02*
X013232Y019045D01*
X013232Y019203D02*
X013272Y019203D01*
X013666Y018886D02*
X013810Y018886D01*
X012024Y018728D02*
X011480Y018728D01*
X011694Y018886D02*
X011810Y018886D01*
X011024Y018728D02*
X010753Y018728D01*
X009752Y018728D02*
X007571Y018728D01*
X007302Y018600D02*
X005452Y018600D01*
X005452Y019600D01*
X005452Y020600D01*
X005912Y020947D02*
X005993Y020947D01*
X006182Y021105D02*
X005723Y021105D01*
X005182Y021105D02*
X004673Y021105D01*
X004472Y021105D02*
X004432Y021105D01*
X004432Y021150D02*
X004409Y021150D01*
X004324Y021136D01*
X004241Y021110D01*
X004164Y021070D01*
X004094Y021020D01*
X004033Y020958D01*
X003982Y020888D01*
X003943Y020811D01*
X003916Y020729D01*
X003902Y020643D01*
X003902Y020620D01*
X004432Y020620D01*
X004432Y021150D01*
X004432Y020947D02*
X004472Y020947D01*
X004472Y020788D02*
X004432Y020788D01*
X004432Y020630D02*
X004472Y020630D01*
X004472Y020580D02*
X004472Y020050D01*
X004472Y019620D01*
X004432Y019620D01*
X004432Y020580D01*
X004472Y020580D01*
X004472Y020471D02*
X004432Y020471D01*
X004432Y020313D02*
X004472Y020313D01*
X004472Y020154D02*
X004432Y020154D01*
X004432Y019996D02*
X004472Y019996D01*
X004472Y019837D02*
X004432Y019837D01*
X004432Y019679D02*
X004472Y019679D01*
X004472Y019520D02*
X004432Y019520D01*
X004432Y019362D02*
X004472Y019362D01*
X004472Y019203D02*
X004432Y019203D01*
X003903Y019203D02*
X002977Y019203D01*
X002977Y019045D02*
X005172Y019045D01*
X005172Y018886D02*
X002977Y018886D01*
X002977Y018728D02*
X005172Y018728D01*
X005025Y018569D02*
X002977Y018569D01*
X002977Y018411D02*
X004867Y018411D01*
X005452Y018600D02*
X004541Y017689D01*
X004252Y017689D01*
X003652Y017618D02*
X002977Y017618D01*
X002977Y017460D02*
X003652Y017460D01*
X003652Y017301D02*
X002977Y017301D01*
X002977Y017143D02*
X003716Y017143D01*
X003652Y017777D02*
X002977Y017777D01*
X002977Y017935D02*
X003652Y017935D01*
X003652Y018094D02*
X002977Y018094D01*
X002977Y018252D02*
X003733Y018252D01*
X005001Y019203D02*
X005043Y019203D01*
X005732Y019045D02*
X006304Y019045D01*
X006601Y019045D02*
X009682Y019045D01*
X009682Y019203D02*
X006861Y019203D01*
X007440Y019362D02*
X009682Y019362D01*
X009682Y019520D02*
X007605Y019520D01*
X007724Y019679D02*
X009682Y019679D01*
X009682Y018886D02*
X005732Y018886D01*
X005861Y019203D02*
X006043Y019203D01*
X004130Y020154D02*
X002977Y020154D01*
X002977Y019996D02*
X003903Y019996D01*
X003902Y019837D02*
X002977Y019837D01*
X002977Y019679D02*
X003902Y019679D01*
X003902Y019520D02*
X002977Y019520D01*
X002977Y019362D02*
X003902Y019362D01*
X003982Y020312D02*
X003943Y020389D01*
X003916Y020471D01*
X003902Y020630D02*
X002977Y020630D01*
X002977Y020788D02*
X003935Y020788D01*
X004024Y020947D02*
X002977Y020947D01*
X002977Y021105D02*
X004232Y021105D01*
X004880Y020947D02*
X004993Y020947D01*
X002977Y021264D02*
X028071Y021264D01*
X028229Y021105D02*
X018917Y021105D01*
X019555Y020947D02*
X020449Y020947D01*
X020533Y021030D02*
X020222Y020720D01*
X020222Y020280D01*
X020533Y019970D01*
X020972Y019970D01*
X021252Y020250D01*
X021533Y019970D01*
X021972Y019970D01*
X022252Y020250D01*
X022533Y019970D01*
X022972Y019970D01*
X023252Y020250D01*
X023533Y019970D01*
X023972Y019970D01*
X024252Y020250D01*
X024533Y019970D01*
X024972Y019970D01*
X025252Y020250D01*
X025533Y019970D01*
X025972Y019970D01*
X026252Y020250D01*
X026533Y019970D01*
X026972Y019970D01*
X027252Y020250D01*
X027533Y019970D01*
X027972Y019970D01*
X028282Y020280D01*
X028282Y020720D01*
X027972Y021030D01*
X027533Y021030D01*
X027252Y020750D01*
X026972Y021030D01*
X026533Y021030D01*
X026252Y020750D01*
X025972Y021030D01*
X025533Y021030D01*
X025252Y020750D01*
X024972Y021030D01*
X024533Y021030D01*
X024252Y020750D01*
X023972Y021030D01*
X023533Y021030D01*
X023252Y020750D01*
X022972Y021030D01*
X022533Y021030D01*
X022252Y020750D01*
X021972Y021030D01*
X021533Y021030D01*
X021252Y020750D01*
X020972Y021030D01*
X020533Y021030D01*
X020291Y020788D02*
X019714Y020788D01*
X019782Y020630D02*
X020222Y020630D01*
X020222Y020471D02*
X019782Y020471D01*
X019782Y020313D02*
X020222Y020313D01*
X020349Y020154D02*
X019656Y020154D01*
X019497Y019996D02*
X020507Y019996D01*
X020182Y019679D02*
X019630Y019679D01*
X019757Y019520D02*
X020182Y019520D01*
X020182Y019362D02*
X019822Y019362D01*
X019822Y019203D02*
X020182Y019203D01*
X020182Y019045D02*
X019784Y019045D01*
X019694Y018886D02*
X020182Y018886D01*
X020252Y018728D02*
X019480Y018728D01*
X019024Y018728D02*
X018480Y018728D01*
X018694Y018886D02*
X018810Y018886D01*
X018875Y019679D02*
X018630Y019679D01*
X018497Y019996D02*
X019007Y019996D01*
X018849Y020154D02*
X018656Y020154D01*
X020997Y019996D02*
X021507Y019996D01*
X021349Y020154D02*
X021156Y020154D01*
X021322Y019679D02*
X021375Y019679D01*
X021997Y019996D02*
X022507Y019996D01*
X022349Y020154D02*
X022156Y020154D01*
X022130Y019679D02*
X022375Y019679D01*
X022997Y019996D02*
X023507Y019996D01*
X023349Y020154D02*
X023156Y020154D01*
X023130Y019679D02*
X023375Y019679D01*
X023997Y019996D02*
X024507Y019996D01*
X024349Y020154D02*
X024156Y020154D01*
X024130Y019679D02*
X024375Y019679D01*
X024997Y019996D02*
X025507Y019996D01*
X025349Y020154D02*
X025156Y020154D01*
X025130Y019679D02*
X025375Y019679D01*
X025997Y019996D02*
X026507Y019996D01*
X026349Y020154D02*
X026156Y020154D01*
X026130Y019679D02*
X026375Y019679D01*
X026997Y019996D02*
X027507Y019996D01*
X027349Y020154D02*
X027156Y020154D01*
X027130Y019679D02*
X027375Y019679D01*
X027997Y019996D02*
X028527Y019996D01*
X028527Y020154D02*
X028156Y020154D01*
X028282Y020313D02*
X028527Y020313D01*
X028527Y020471D02*
X028282Y020471D01*
X028282Y020630D02*
X028527Y020630D01*
X028527Y020788D02*
X028214Y020788D01*
X028055Y020947D02*
X028388Y020947D01*
X027449Y020947D02*
X027055Y020947D01*
X027214Y020788D02*
X027291Y020788D01*
X026449Y020947D02*
X026055Y020947D01*
X026214Y020788D02*
X026291Y020788D01*
X025449Y020947D02*
X025055Y020947D01*
X025214Y020788D02*
X025291Y020788D01*
X024449Y020947D02*
X024055Y020947D01*
X024214Y020788D02*
X024291Y020788D01*
X023449Y020947D02*
X023055Y020947D01*
X023214Y020788D02*
X023291Y020788D01*
X022449Y020947D02*
X022055Y020947D01*
X022214Y020788D02*
X022291Y020788D01*
X021449Y020947D02*
X021055Y020947D01*
X021214Y020788D02*
X021291Y020788D01*
X022194Y018886D02*
X022310Y018886D01*
X022524Y018728D02*
X021980Y018728D01*
X021524Y018728D02*
X021253Y018728D01*
X022980Y018728D02*
X023524Y018728D01*
X023310Y018886D02*
X023194Y018886D01*
X023980Y018728D02*
X024524Y018728D01*
X024310Y018886D02*
X024194Y018886D01*
X024980Y018728D02*
X025524Y018728D01*
X025310Y018886D02*
X025194Y018886D01*
X025980Y018728D02*
X026524Y018728D01*
X026310Y018886D02*
X026194Y018886D01*
X027680Y017500D02*
X027752Y017500D01*
X027025Y017143D02*
X026926Y017143D01*
X026690Y016984D02*
X028527Y016984D01*
X028527Y016826D02*
X028005Y016826D01*
X028005Y016667D02*
X028527Y016667D01*
X028527Y016509D02*
X028005Y016509D01*
X028098Y016350D02*
X028527Y016350D01*
X028427Y016192D02*
X028643Y016192D01*
X028530Y016033D02*
X028801Y016033D01*
X028960Y015875D02*
X028552Y015875D01*
X028509Y015716D02*
X029118Y015716D01*
X029277Y015558D02*
X028371Y015558D01*
X028234Y015399D02*
X029435Y015399D01*
X029527Y015241D02*
X028478Y015241D01*
X028551Y015082D02*
X029527Y015082D01*
X029527Y014924D02*
X028552Y014924D01*
X028483Y014765D02*
X029527Y014765D01*
X029527Y014607D02*
X028248Y014607D01*
X028057Y014607D02*
X028005Y014607D01*
X028127Y014448D02*
X029527Y014448D01*
X029527Y014290D02*
X028429Y014290D01*
X028531Y014131D02*
X029527Y014131D01*
X029527Y013973D02*
X028552Y013973D01*
X028508Y013814D02*
X029527Y013814D01*
X029527Y013656D02*
X028366Y013656D01*
X028078Y013497D02*
X029527Y013497D01*
X029527Y013339D02*
X029280Y013339D01*
X029411Y013180D02*
X029527Y013180D01*
X029527Y013022D02*
X029452Y013022D01*
X029429Y012863D02*
X029527Y012863D01*
X029527Y012705D02*
X029332Y012705D01*
X029332Y012546D02*
X029527Y012546D01*
X029527Y012388D02*
X029332Y012388D01*
X029346Y012229D02*
X029527Y012229D01*
X029527Y012071D02*
X029496Y012071D01*
X029252Y011927D02*
X029252Y005550D01*
X028752Y005050D01*
X026452Y005050D01*
X026949Y004621D02*
X026986Y004621D01*
X026986Y004463D02*
X026949Y004463D01*
X026949Y004304D02*
X026986Y004304D01*
X026986Y004146D02*
X026949Y004146D01*
X026949Y003987D02*
X026986Y003987D01*
X026969Y003670D02*
X026486Y003670D01*
X026644Y003512D02*
X026810Y003512D01*
X026254Y003195D02*
X026114Y003195D01*
X026251Y003036D02*
X026254Y003036D01*
X024650Y003987D02*
X024570Y003987D01*
X023480Y005593D02*
X023480Y005848D01*
X023480Y005593D02*
X028201Y005593D01*
X028252Y005644D01*
X028852Y005572D02*
X028878Y005572D01*
X028852Y005731D02*
X028972Y005731D01*
X028972Y005889D02*
X028852Y005889D01*
X028852Y006048D02*
X028972Y006048D01*
X028972Y006206D02*
X028773Y006206D01*
X029252Y005550D02*
X029252Y003700D01*
X028752Y004535D02*
X028687Y004600D01*
X028302Y004600D01*
X028052Y004350D01*
X027637Y004350D01*
X028752Y004535D02*
X028752Y005050D01*
X023480Y006616D02*
X023480Y006872D01*
X022984Y006840D02*
X022029Y006840D01*
X022202Y006999D02*
X022984Y006999D01*
X022984Y007157D02*
X022252Y007157D01*
X022237Y007316D02*
X022984Y007316D01*
X022984Y007474D02*
X022144Y007474D01*
X022132Y007633D02*
X023004Y007633D01*
X023005Y007791D02*
X022132Y007791D01*
X022094Y007950D02*
X023004Y007950D01*
X023079Y007896D02*
X023079Y007896D01*
X022984Y008108D02*
X021940Y008108D01*
X021782Y008267D02*
X022984Y008267D01*
X022984Y008425D02*
X021623Y008425D01*
X021465Y008584D02*
X022999Y008584D01*
X023480Y007640D02*
X023480Y007640D01*
X022984Y006682D02*
X021467Y006682D01*
X021625Y006523D02*
X022984Y006523D01*
X023004Y006365D02*
X021784Y006365D01*
X021942Y006206D02*
X023004Y006206D01*
X023004Y006048D02*
X022101Y006048D01*
X022259Y005889D02*
X022984Y005889D01*
X022984Y005731D02*
X022418Y005731D01*
X021676Y006840D02*
X021305Y006840D01*
X021120Y006999D02*
X021503Y006999D01*
X021452Y007157D02*
X021100Y007157D01*
X021120Y007316D02*
X021467Y007316D01*
X021561Y007474D02*
X021120Y007474D01*
X021120Y007633D02*
X021572Y007633D01*
X021465Y007791D02*
X021120Y007791D01*
X021120Y007950D02*
X021307Y007950D01*
X021148Y008108D02*
X021120Y008108D01*
X021252Y008400D02*
X021852Y007800D01*
X021852Y007200D01*
X020581Y008742D02*
X020272Y008742D01*
X020371Y008901D02*
X020442Y008901D01*
X018948Y008901D02*
X018737Y008901D01*
X018737Y009059D02*
X018948Y009059D01*
X018948Y009376D02*
X018737Y009376D01*
X018728Y009535D02*
X018948Y009535D01*
X018103Y009535D02*
X017987Y009535D01*
X017987Y009376D02*
X018103Y009376D01*
X018103Y009059D02*
X017987Y009059D01*
X017987Y008901D02*
X018103Y008901D01*
X016477Y009852D02*
X024048Y009852D01*
X023898Y010010D02*
X016330Y010010D01*
X016173Y010169D02*
X023852Y010169D01*
X023872Y010327D02*
X016017Y010327D01*
X015860Y010486D02*
X023972Y010486D01*
X023943Y010644D02*
X015704Y010644D01*
X015412Y008425D02*
X014999Y008425D01*
X014999Y008267D02*
X015412Y008267D01*
X015412Y008108D02*
X014999Y008108D01*
X014999Y007950D02*
X015412Y007950D01*
X015412Y007791D02*
X014999Y007791D01*
X014999Y007633D02*
X015412Y007633D01*
X015380Y007474D02*
X014999Y007474D01*
X015697Y006999D02*
X015712Y006999D01*
X015866Y006840D02*
X014999Y006840D01*
X014979Y006682D02*
X015768Y006682D01*
X015702Y006523D02*
X014979Y006523D01*
X014886Y006616D02*
X014886Y006616D01*
X014999Y006365D02*
X015705Y006365D01*
X015012Y006100D02*
X014608Y006100D01*
X014604Y006104D01*
X013872Y006104D01*
X013118Y005330D01*
X013136Y005312D02*
X013136Y004953D01*
X013358Y004953D01*
X013404Y004965D01*
X013436Y004984D01*
X013488Y004933D01*
X013490Y004933D01*
X013209Y004652D01*
X013166Y004670D01*
X012939Y004670D01*
X012896Y004652D01*
X012882Y004666D01*
X012882Y004953D01*
X013099Y004953D01*
X013099Y005312D01*
X013136Y005312D01*
X013136Y005255D02*
X013099Y005255D01*
X013099Y005097D02*
X013136Y005097D01*
X012882Y004938D02*
X013483Y004938D01*
X013336Y004780D02*
X012882Y004780D01*
X014886Y006104D02*
X014886Y006104D01*
X010872Y003195D02*
X010209Y003195D01*
X010367Y003036D02*
X010872Y003036D01*
X010872Y002878D02*
X010526Y002878D01*
X010684Y002719D02*
X010828Y002719D01*
X009749Y002402D02*
X009244Y002402D01*
X009263Y002244D02*
X009574Y002244D01*
X009492Y002085D02*
X009263Y002085D01*
X009263Y001927D02*
X009461Y001927D01*
X009475Y001768D02*
X009263Y001768D01*
X009263Y001610D02*
X009538Y001610D01*
X009673Y001451D02*
X009263Y001451D01*
X008663Y001900D02*
X006952Y001900D01*
X006752Y001700D01*
X006741Y002085D02*
X005989Y002085D01*
X005989Y002244D02*
X008063Y002244D01*
X008083Y002402D02*
X005989Y002402D01*
X005989Y003195D02*
X006927Y003195D01*
X007003Y003353D02*
X005881Y003353D01*
X007162Y003512D02*
X002977Y003512D01*
X002977Y003670D02*
X007162Y003670D01*
X007424Y001451D02*
X007461Y001451D01*
X007461Y001293D02*
X007424Y001293D01*
X007424Y001134D02*
X007461Y001134D01*
X007461Y000976D02*
X007424Y000976D01*
X003148Y002244D02*
X002977Y002244D01*
X002977Y002402D02*
X003148Y002402D01*
X003148Y002561D02*
X002977Y002561D01*
X002977Y002719D02*
X003148Y002719D01*
X003148Y002878D02*
X002977Y002878D01*
X002977Y003036D02*
X003148Y003036D01*
X003148Y003195D02*
X002977Y003195D01*
X002977Y003353D02*
X003255Y003353D01*
X004252Y005822D02*
X005674Y005822D01*
X006138Y006682D02*
X004512Y006682D01*
X006499Y007950D02*
X006550Y007950D01*
X006530Y008108D02*
X006340Y008108D01*
X007025Y007972D02*
X007025Y007764D01*
X007025Y007764D01*
X007025Y007972D01*
X007025Y007972D01*
X007025Y007950D02*
X007025Y007950D01*
X007025Y007791D02*
X007025Y007791D01*
X007426Y007740D02*
X007500Y007740D01*
X007426Y007740D01*
X007426Y007740D01*
X007500Y007791D02*
X009384Y007791D01*
X009384Y007633D02*
X007520Y007633D01*
X007520Y007474D02*
X009384Y007474D01*
X009384Y007316D02*
X007520Y007316D01*
X007500Y007950D02*
X009384Y007950D01*
X009384Y008108D02*
X007520Y008108D01*
X007500Y007996D02*
X007426Y007996D01*
X007426Y007996D01*
X007500Y007996D01*
X007520Y008267D02*
X008590Y008267D01*
X008479Y008425D02*
X007520Y008425D01*
X007520Y008584D02*
X008452Y008584D01*
X008491Y008742D02*
X007448Y008742D01*
X007028Y008901D02*
X008617Y008901D01*
X008815Y009059D02*
X006870Y009059D01*
X006711Y009218D02*
X008974Y009218D01*
X009146Y009376D02*
X006553Y009376D01*
X005761Y009376D02*
X004755Y009376D01*
X004852Y009535D02*
X005602Y009535D01*
X005577Y009956D02*
X007025Y008507D01*
X007025Y008252D01*
X008852Y008570D02*
X008852Y008700D01*
X009281Y009129D01*
X010152Y009129D01*
X009880Y008856D01*
X009880Y008507D01*
X009457Y008742D02*
X009290Y008742D01*
X009252Y008584D02*
X009384Y008584D01*
X009384Y008425D02*
X009225Y008425D01*
X009115Y008267D02*
X009384Y008267D01*
X009446Y010803D02*
X023860Y010803D01*
X023852Y010961D02*
X009287Y010961D01*
X009129Y011120D02*
X023910Y011120D01*
X024733Y010327D02*
X025983Y010327D01*
X025825Y010169D02*
X024652Y010169D01*
X024607Y010010D02*
X025666Y010010D01*
X025508Y009852D02*
X024456Y009852D01*
X024891Y010486D02*
X026142Y010486D01*
X026300Y010644D02*
X025050Y010644D01*
X026963Y013180D02*
X027000Y013180D01*
X027680Y013500D02*
X029052Y012127D01*
X029052Y013000D01*
X028652Y013022D02*
X028554Y013022D01*
X028694Y013180D02*
X028395Y013180D01*
X028237Y013339D02*
X028825Y013339D01*
X028152Y014000D02*
X028152Y014027D01*
X027680Y014500D01*
X028152Y015000D02*
X028152Y015027D01*
X027680Y015500D01*
X028152Y015900D02*
X027680Y016373D01*
X027680Y016500D01*
X027000Y016826D02*
X026958Y016826D01*
X025899Y016518D02*
X025899Y016482D01*
X025521Y016482D01*
X025521Y016279D01*
X025529Y016250D01*
X025103Y016250D01*
X025011Y016212D01*
X024940Y016142D01*
X024602Y015804D01*
X024602Y016096D01*
X025256Y016750D01*
X025529Y016750D01*
X025521Y016721D01*
X025521Y016518D01*
X025899Y016518D01*
X025899Y016509D02*
X025014Y016509D01*
X025173Y016667D02*
X025521Y016667D01*
X025521Y016350D02*
X024856Y016350D01*
X024990Y016192D02*
X024697Y016192D01*
X024602Y016033D02*
X024832Y016033D01*
X024673Y015875D02*
X024602Y015875D01*
X025063Y015558D02*
X025521Y015558D01*
X025521Y015518D02*
X025899Y015518D01*
X025899Y015482D01*
X025521Y015482D01*
X025521Y015279D01*
X025529Y015250D01*
X025403Y015250D01*
X025311Y015212D01*
X025240Y015142D01*
X024902Y014804D01*
X024902Y015396D01*
X025256Y015750D01*
X025529Y015750D01*
X025521Y015721D01*
X025521Y015518D01*
X025521Y015399D02*
X024905Y015399D01*
X024902Y015241D02*
X025380Y015241D01*
X025181Y015082D02*
X024902Y015082D01*
X024902Y014924D02*
X025022Y014924D01*
X025412Y014607D02*
X025521Y014607D01*
X025521Y014518D02*
X025521Y014715D01*
X025202Y014396D01*
X025202Y014004D01*
X025340Y014142D01*
X025411Y014212D01*
X025503Y014250D01*
X025529Y014250D01*
X025521Y014279D01*
X025521Y014482D01*
X025899Y014482D01*
X025899Y014518D01*
X025521Y014518D01*
X025521Y014448D02*
X025254Y014448D01*
X025202Y014290D02*
X025521Y014290D01*
X025330Y014131D02*
X025202Y014131D01*
X025222Y015716D02*
X025521Y015716D01*
X020972Y017301D02*
X020532Y017301D01*
X020716Y017143D02*
X020789Y017143D01*
X019972Y017301D02*
X019532Y017301D01*
X019716Y017143D02*
X019789Y017143D01*
X018972Y017301D02*
X018532Y017301D01*
X018716Y017143D02*
X018789Y017143D01*
X017972Y017301D02*
X017532Y017301D01*
X017716Y017143D02*
X017789Y017143D01*
X016972Y017301D02*
X016532Y017301D01*
X016716Y017143D02*
X016789Y017143D01*
X015972Y017301D02*
X015532Y017301D01*
X015716Y017143D02*
X015789Y017143D01*
X014972Y017301D02*
X014532Y017301D01*
X014716Y017143D02*
X014789Y017143D01*
X013972Y017301D02*
X013532Y017301D01*
X013716Y017143D02*
X013789Y017143D01*
X012972Y017301D02*
X012532Y017301D01*
X012716Y017143D02*
X012789Y017143D01*
X011972Y017301D02*
X011532Y017301D01*
X011716Y017143D02*
X011789Y017143D01*
X010972Y017301D02*
X010532Y017301D01*
X010716Y017143D02*
X010789Y017143D01*
X007720Y016984D02*
X007605Y016984D01*
X007605Y016826D02*
X007720Y016826D01*
X007720Y016667D02*
X007605Y016667D01*
X007605Y016509D02*
X007720Y016509D01*
X007228Y015716D02*
X002977Y015716D01*
X007102Y012250D02*
X007112Y012240D01*
X008042Y012240D01*
X008192Y012090D01*
X005118Y010961D02*
X004158Y010961D01*
X004202Y011120D02*
X005082Y011120D01*
X005082Y011278D02*
X004202Y011278D01*
X004202Y011433D02*
X004202Y011714D01*
X004190Y011760D01*
X004166Y011801D01*
X004133Y011834D01*
X004092Y011858D01*
X004046Y011870D01*
X003814Y011870D01*
X003814Y011433D01*
X004202Y011433D01*
X004202Y011437D02*
X005082Y011437D01*
X005082Y011595D02*
X004202Y011595D01*
X004192Y011754D02*
X005082Y011754D01*
X003814Y011754D02*
X003719Y011754D01*
X003719Y011595D02*
X003814Y011595D01*
X003814Y011437D02*
X003719Y011437D01*
X003719Y011278D02*
X003814Y011278D01*
X003814Y011120D02*
X003719Y011120D01*
X003719Y010961D02*
X003814Y010961D01*
X004806Y010486D02*
X005155Y010486D01*
X005152Y010327D02*
X004852Y010327D01*
X004252Y009956D02*
X005577Y009956D01*
X003885Y009059D02*
X002977Y009059D01*
X002977Y008901D02*
X003737Y008901D01*
X003671Y008742D02*
X002977Y008742D01*
X002977Y008584D02*
X003652Y008584D01*
X003666Y008425D02*
X002977Y008425D01*
X002977Y008267D02*
X003732Y008267D01*
X015752Y002750D02*
X015752Y001500D01*
X016752Y001500D02*
X016752Y002750D01*
X019552Y005350D02*
X019795Y005593D01*
X020625Y005593D01*
X029052Y012127D02*
X029252Y011927D01*
D28*
X029052Y013000D03*
X028152Y014000D03*
X028152Y015000D03*
X028152Y015900D03*
X025352Y015480D03*
X025352Y016500D03*
X027352Y018300D03*
X025352Y014400D03*
X024252Y013300D03*
X024252Y012500D03*
X024252Y011700D03*
X024252Y010900D03*
X024252Y010200D03*
X025272Y008390D03*
X021852Y007200D03*
X021352Y005500D03*
X020452Y004600D03*
X019552Y005350D03*
X018852Y005400D03*
X018252Y005700D03*
X017852Y006000D03*
X017452Y006300D03*
X016352Y006000D03*
X016102Y006450D03*
X015552Y005800D03*
X014992Y004860D03*
X012902Y006100D03*
X015182Y006760D03*
X014502Y009150D03*
X010502Y007230D03*
X008852Y006200D03*
X008852Y008570D03*
X007112Y009290D03*
X005552Y010400D03*
X007972Y003730D03*
X021852Y004400D03*
X022502Y004370D03*
X024952Y004250D03*
X025782Y004820D03*
X028202Y003550D03*
X025942Y012530D03*
D29*
X026552Y012500D02*
X026552Y013465D01*
X026587Y013500D01*
X027325Y013500D01*
X027325Y013627D01*
X026552Y014200D02*
X026352Y014000D01*
X025552Y014000D01*
X025352Y013800D01*
X025352Y012000D01*
X024252Y010900D01*
X024252Y010200D02*
X026552Y012500D01*
X024952Y012400D02*
X024952Y014500D01*
X025452Y015000D01*
X026352Y015000D01*
X026552Y015200D01*
X026552Y015465D01*
X026587Y015500D01*
X027325Y015500D01*
X026552Y016200D02*
X026352Y016000D01*
X025152Y016000D01*
X024652Y015500D01*
X024652Y012900D01*
X024252Y012500D01*
X024952Y012400D02*
X024252Y011700D01*
X024252Y013300D02*
X024352Y013400D01*
X024352Y016200D01*
X025152Y017000D01*
X026352Y017000D01*
X026552Y017200D01*
X026552Y017465D01*
X026587Y017500D01*
X027325Y017500D01*
X027325Y016500D02*
X026587Y016500D01*
X026552Y016465D01*
X026552Y016200D01*
X026587Y014500D02*
X026552Y014465D01*
X026552Y014200D01*
X026587Y014500D02*
X027325Y014500D01*
X019952Y007900D02*
X019445Y008407D01*
X016901Y008407D01*
X016950Y008200D02*
X016901Y008152D01*
X016950Y008200D02*
X019152Y008200D01*
X019713Y007640D01*
X020625Y007640D01*
X020625Y007896D02*
X020571Y007900D01*
X019952Y007900D01*
X019469Y007384D02*
X018952Y007900D01*
X016905Y007900D01*
X016901Y007896D01*
X016901Y007640D02*
X016941Y007600D01*
X017752Y007600D01*
X018992Y006360D01*
X020625Y006360D01*
X020625Y006104D02*
X018848Y006104D01*
X017552Y007400D01*
X016917Y007400D01*
X016901Y007384D01*
X016901Y007128D02*
X016929Y007100D01*
X017352Y007100D01*
X018604Y005848D01*
X020625Y005848D01*
X018852Y005400D02*
X018789Y005337D01*
X016901Y005337D01*
X016901Y005593D02*
X018145Y005593D01*
X018252Y005700D01*
X017852Y006000D02*
X017701Y005848D01*
X016901Y005848D01*
X016901Y006104D02*
X017257Y006104D01*
X017452Y006300D01*
X016901Y006360D02*
X016192Y006360D01*
X016102Y006450D01*
X016352Y006000D02*
X015852Y005400D01*
X015152Y005400D01*
X014952Y005600D01*
X014611Y005600D01*
X014604Y005593D01*
X014604Y005848D02*
X015501Y005848D01*
X015552Y005800D01*
X015152Y005400D02*
X015552Y005000D01*
X024802Y005000D01*
X026602Y003200D01*
X026752Y003200D01*
X026852Y003200D01*
X027552Y003900D01*
X028718Y003900D01*
X028752Y003865D01*
X027752Y002750D02*
X027937Y002565D01*
X028752Y002565D01*
X027752Y002750D02*
X027752Y001500D01*
X026752Y001500D02*
X026752Y002750D01*
X026752Y003200D01*
X025752Y002750D02*
X025752Y001500D01*
X024752Y001500D02*
X024752Y002750D01*
X023752Y002750D02*
X023752Y001500D01*
X022752Y001500D02*
X022752Y002750D01*
X020625Y007384D02*
X019469Y007384D01*
X014604Y007384D02*
X014587Y007380D01*
X013652Y007380D01*
X012457Y006204D01*
X009880Y006204D01*
X009880Y006460D02*
X011802Y006460D01*
X012302Y006460D01*
X013492Y007640D01*
X014604Y007640D01*
X014604Y007896D02*
X014599Y007900D01*
X013352Y007900D01*
X012169Y006716D01*
X009880Y006716D01*
X009880Y007740D02*
X012792Y007740D01*
X013192Y008150D01*
X014532Y008150D01*
X014604Y008152D01*
X014604Y008407D02*
X014372Y008410D01*
X013062Y008410D01*
X012648Y007996D01*
X009880Y007996D01*
X009880Y008252D02*
X012504Y008252D01*
X012932Y008660D01*
X014537Y008660D01*
X014604Y008663D01*
X014752Y002750D02*
X014752Y001500D01*
X013752Y001500D02*
X013752Y002750D01*
X007352Y019600D02*
X006452Y019600D01*
X007352Y019600D02*
X007652Y020000D01*
X017752Y020000D01*
X018252Y020500D01*
X018652Y021000D02*
X006852Y021000D01*
X006452Y020600D01*
X018652Y021000D02*
X019252Y020500D01*
M02*
