%
M48
M72
T01C0.0200
T02C0.0394
T03C0.0400
%
T01
X9252Y6900
X10452Y7250
X12802Y6100
X15152Y6800
X16152Y6400
X16352Y6000
X15552Y5800
X15152Y4800
X17452Y6300
X17852Y6000
X18252Y5700
X18852Y5400
X19552Y5350
X20452Y4600
X21352Y5500
X21852Y4400
X24952Y4250
X26252Y4800
X28202Y3550
X21852Y7200
X24252Y10200
X24252Y10900
X24252Y11700
X24252Y12500
X24252Y13300
X25352Y14400
X25352Y15400
X25352Y16400
X25352Y17400
X27352Y18300
X28152Y15900
X28152Y15000
X28152Y14000
X29052Y13000
X25952Y12500
X13952Y9100
X9852Y5300
X5552Y10400
T02
X13752Y1500
X14752Y1500
X15752Y1500
X16752Y1500
X17752Y1500
X18752Y1500
X19752Y1500
X20752Y1500
X22752Y1500
X23752Y1500
X24752Y1500
X25752Y1500
X26752Y1500
X27752Y1500
X27752Y20500
X26752Y20500
X25752Y20500
X24752Y20500
X23752Y20500
X22752Y20500
X21752Y20500
X20752Y20500
X19252Y20500
X18252Y20500
X17252Y20500
X16252Y20500
X15252Y20500
X14252Y20500
X13252Y20500
X12252Y20500
X11252Y20500
X10252Y20500
T03
X4252Y4444
X4252Y5822
X4252Y7200
X4252Y8578
X4252Y9956
X7102Y11250
X7102Y12250
X7102Y13250
X7102Y14250
X4252Y16311
X4252Y17689
X4452Y19600
X5452Y19600
X6452Y19600
X6452Y20600
X5452Y20600
X4452Y20600
X10252Y19250
X11252Y19250
X12252Y19250
X13252Y19250
X14252Y19250
X15252Y19250
X16252Y19250
X17252Y19250
X18252Y19250
X19252Y19250
X20752Y19250
X21752Y19250
X22752Y19250
X23752Y19250
X24752Y19250
X25752Y19250
X26752Y19250
X27752Y19250
X28252Y11156
X28252Y9778
X28252Y8400
X28252Y7022
X28252Y5644
X27752Y2750
X26752Y2750
X25752Y2750
X24752Y2750
X23752Y2750
X22752Y2750
X20752Y2750
X19752Y2750
X18752Y2750
X17752Y2750
X16752Y2750
X15752Y2750
X14752Y2750
X13752Y2750
X12552Y2750
X12552Y1750
X10041Y1900
X8663Y1900
X12052Y4100
X13052Y4100
X14052Y4100
M30
