G75*
%MOIN*%
%OFA0B0*%
%FSLAX24Y24*%
%IPPOS*%
%LPD*%
%AMOC8*
5,1,8,0,0,1.08239X$1,22.5*
%
%ADD10OC8,0.0740*%
%ADD11R,0.0820X0.0820*%
%ADD12C,0.0820*%
%ADD13C,0.0880*%
%ADD14R,0.0880X0.0880*%
D10*
X013752Y001500D03*
X014752Y001500D03*
X015752Y001500D03*
X016752Y001500D03*
X017752Y001500D03*
X018752Y001500D03*
X019752Y001500D03*
X020752Y001500D03*
X022752Y001500D03*
X023752Y001500D03*
X024752Y001500D03*
X025752Y001500D03*
X026752Y001500D03*
X027752Y001500D03*
X027752Y020500D03*
X026752Y020500D03*
X025752Y020500D03*
X024752Y020500D03*
X023752Y020500D03*
X022752Y020500D03*
X021752Y020500D03*
X020752Y020500D03*
X019252Y020500D03*
X018252Y020500D03*
X017252Y020500D03*
X016252Y020500D03*
X015252Y020500D03*
X014252Y020500D03*
X013252Y020500D03*
X012252Y020500D03*
X011252Y020500D03*
X010252Y020500D03*
D11*
X010252Y019250D03*
X004452Y019600D03*
X007102Y014250D03*
X020752Y019250D03*
X012052Y004100D03*
X012552Y001750D03*
X020752Y002750D03*
X027752Y002750D03*
D12*
X026752Y002750D03*
X025752Y002750D03*
X024752Y002750D03*
X023752Y002750D03*
X022752Y002750D03*
X019752Y002750D03*
X018752Y002750D03*
X017752Y002750D03*
X016752Y002750D03*
X015752Y002750D03*
X014752Y002750D03*
X013752Y002750D03*
X012552Y002750D03*
X013052Y004100D03*
X014052Y004100D03*
X007102Y011250D03*
X007102Y012250D03*
X007102Y013250D03*
X010252Y012800D03*
X011252Y012800D03*
X012252Y012800D03*
X012252Y013800D03*
X011252Y013800D03*
X010252Y013800D03*
X010252Y014800D03*
X011252Y014800D03*
X012252Y014800D03*
X012252Y015800D03*
X011252Y015800D03*
X010252Y015800D03*
X010252Y016800D03*
X011252Y016800D03*
X012252Y016800D03*
X013252Y016800D03*
X014252Y016800D03*
X015252Y016800D03*
X016252Y016800D03*
X017252Y016800D03*
X018252Y016800D03*
X019252Y016800D03*
X020252Y016800D03*
X021252Y016800D03*
X021252Y015800D03*
X020252Y015800D03*
X019252Y015800D03*
X018252Y015800D03*
X017252Y015800D03*
X016252Y015800D03*
X015252Y015800D03*
X014252Y015800D03*
X013252Y015800D03*
X013252Y014800D03*
X014252Y014800D03*
X015252Y014800D03*
X016252Y014800D03*
X017252Y014800D03*
X018252Y014800D03*
X019252Y014800D03*
X020252Y014800D03*
X021252Y014800D03*
X021252Y013800D03*
X020252Y013800D03*
X019252Y013800D03*
X018252Y013800D03*
X017252Y013800D03*
X016252Y013800D03*
X015252Y013800D03*
X014252Y013800D03*
X013252Y013800D03*
X013252Y012800D03*
X014252Y012800D03*
X015252Y012800D03*
X016252Y012800D03*
X017252Y012800D03*
X018252Y012800D03*
X019252Y012800D03*
X020252Y012800D03*
X021252Y012800D03*
X021252Y011800D03*
X020252Y011800D03*
X019252Y011800D03*
X018252Y011800D03*
X017252Y011800D03*
X016252Y011800D03*
X015252Y011800D03*
X014252Y011800D03*
X013252Y011800D03*
X012252Y011800D03*
X011252Y011800D03*
X010252Y011800D03*
X011252Y019250D03*
X012252Y019250D03*
X013252Y019250D03*
X014252Y019250D03*
X015252Y019250D03*
X016252Y019250D03*
X017252Y019250D03*
X018252Y019250D03*
X019252Y019250D03*
X021752Y019250D03*
X022752Y019250D03*
X023752Y019250D03*
X024752Y019250D03*
X025752Y019250D03*
X026752Y019250D03*
X027752Y019250D03*
X006452Y019600D03*
X005452Y019600D03*
X005452Y020600D03*
X006452Y020600D03*
X004452Y020600D03*
D13*
X004252Y004444D03*
X004252Y005822D03*
X004252Y007200D03*
X004252Y008578D03*
X010041Y001900D03*
X028252Y007022D03*
X028252Y008400D03*
X028252Y009778D03*
X028252Y011156D03*
X004252Y016311D03*
D14*
X004252Y017689D03*
X004252Y009956D03*
X008663Y001900D03*
X028252Y005644D03*
M02*
