G75*
%MOIN*%
%OFA0B0*%
%FSLAX24Y24*%
%IPPOS*%
%LPD*%
%AMOC8*
5,1,8,0,0,1.08239X$1,22.5*
%
%ADD10C,0.0100*%
%ADD11C,0.0050*%
D10*
X003226Y002600D02*
X003134Y002692D01*
X003134Y003059D01*
X003226Y003150D01*
X003501Y003150D01*
X003501Y002600D01*
X003226Y002600D01*
X003732Y002600D02*
X004099Y002600D01*
X004099Y003150D01*
X004331Y003150D02*
X004698Y003150D01*
X004698Y002600D01*
X004331Y002600D01*
X004514Y002875D02*
X004698Y002875D01*
X004913Y003150D02*
X005097Y003150D01*
X005005Y003150D02*
X005005Y002600D01*
X005097Y002600D02*
X004913Y002600D01*
X005328Y002600D02*
X005328Y003150D01*
X005328Y002875D02*
X005695Y002875D01*
X005927Y002783D02*
X005927Y002692D01*
X006019Y002600D01*
X006202Y002600D01*
X006294Y002692D01*
X006202Y002875D02*
X006019Y002875D01*
X005927Y002783D01*
X006202Y002875D02*
X006294Y002967D01*
X006294Y003059D01*
X006202Y003150D01*
X006019Y003150D01*
X005927Y003059D01*
X005695Y003150D02*
X005695Y002600D01*
X007124Y002600D02*
X007307Y002783D01*
X007216Y002783D02*
X007491Y002783D01*
X007491Y002600D02*
X007491Y003150D01*
X007216Y003150D01*
X007124Y003059D01*
X007124Y002875D01*
X007216Y002783D01*
X007722Y002692D02*
X007722Y003059D01*
X007814Y003150D01*
X007998Y003150D01*
X008089Y003059D01*
X008089Y002692D01*
X007998Y002600D01*
X007814Y002600D01*
X007722Y002692D01*
X008321Y003150D02*
X008688Y003150D01*
X008504Y003150D02*
X008504Y002600D01*
X008920Y002692D02*
X008920Y003059D01*
X009011Y003150D01*
X009195Y003150D01*
X009286Y003059D01*
X009286Y002692D01*
X009195Y002600D01*
X009011Y002600D01*
X008920Y002692D01*
X009518Y002600D02*
X009518Y003150D01*
X009702Y002967D01*
X009885Y003150D01*
X009885Y002600D01*
X010699Y002600D02*
X010883Y002600D01*
X010791Y002600D02*
X010791Y002967D01*
X010883Y002967D01*
X010791Y003150D02*
X010791Y003242D01*
X011114Y002967D02*
X011114Y002600D01*
X011481Y002600D02*
X011481Y002967D01*
X011298Y003150D01*
X011114Y002967D01*
X011114Y002875D02*
X011481Y002875D01*
D11*
X003107Y001025D02*
X003057Y001025D01*
X003107Y001025D02*
X003207Y000925D01*
X003207Y000825D02*
X003207Y001025D01*
X003329Y000975D02*
X003379Y001025D01*
X003479Y001025D01*
X003529Y000975D01*
X003529Y000875D01*
X003479Y000825D01*
X003379Y000825D01*
X003329Y000875D01*
X003329Y000975D01*
X003644Y001025D02*
X003744Y001025D01*
X003694Y001075D02*
X003694Y000875D01*
X003644Y000825D01*
X003866Y000875D02*
X003866Y000975D01*
X003916Y001025D01*
X004017Y001025D01*
X004067Y000975D01*
X004067Y000875D01*
X004017Y000825D01*
X003916Y000825D01*
X003866Y000875D01*
X004189Y000825D02*
X004189Y000975D01*
X004239Y001025D01*
X004289Y000975D01*
X004289Y000825D01*
X004389Y000825D02*
X004389Y001025D01*
X004339Y001025D01*
X004289Y000975D01*
X004511Y000975D02*
X004711Y000975D01*
X004833Y001025D02*
X004983Y001025D01*
X005033Y000975D01*
X005033Y000875D01*
X004983Y000825D01*
X004833Y000825D01*
X004833Y001125D01*
X005198Y001125D02*
X005198Y000825D01*
X005248Y000825D02*
X005148Y000825D01*
X005370Y000925D02*
X005570Y000925D01*
X005570Y000875D02*
X005570Y000975D01*
X005520Y001025D01*
X005420Y001025D01*
X005370Y000975D01*
X005370Y000925D01*
X005420Y000825D02*
X005520Y000825D01*
X005570Y000875D01*
X005685Y000825D02*
X005785Y000825D01*
X005735Y000825D02*
X005735Y001025D01*
X005785Y001025D01*
X005735Y001125D02*
X005735Y001175D01*
X005907Y000975D02*
X005907Y000825D01*
X005907Y000975D02*
X005957Y001025D01*
X006058Y001025D01*
X006108Y000975D01*
X006230Y001025D02*
X006380Y001025D01*
X006430Y000975D01*
X006380Y000925D01*
X006280Y000925D01*
X006230Y000875D01*
X006280Y000825D01*
X006430Y000825D01*
X006552Y000825D02*
X006552Y001025D01*
X006552Y000825D02*
X006702Y000825D01*
X006752Y000875D01*
X006752Y001025D01*
X006874Y001025D02*
X007024Y001025D01*
X007074Y000975D01*
X007074Y000875D01*
X007024Y000825D01*
X006874Y000825D01*
X006874Y001125D01*
X007193Y001025D02*
X007243Y001025D01*
X007343Y000925D01*
X007343Y000825D02*
X007343Y001025D01*
X007465Y000975D02*
X007465Y000825D01*
X007615Y000825D01*
X007665Y000875D01*
X007615Y000925D01*
X007465Y000925D01*
X007465Y000975D02*
X007515Y001025D01*
X007615Y001025D01*
X007787Y001125D02*
X007988Y000825D01*
X008110Y000825D02*
X008110Y000975D01*
X008160Y001025D01*
X008210Y000975D01*
X008210Y000825D01*
X008310Y000825D02*
X008310Y001025D01*
X008260Y001025D01*
X008210Y000975D01*
X008432Y000975D02*
X008482Y001025D01*
X008582Y001025D01*
X008632Y000975D01*
X008632Y000875D01*
X008582Y000825D01*
X008482Y000825D01*
X008432Y000875D01*
X008432Y000975D01*
X008754Y001025D02*
X008904Y001025D01*
X008954Y000975D01*
X008954Y000875D01*
X008904Y000825D01*
X008754Y000825D01*
X009065Y000825D02*
X009065Y000875D01*
X009116Y000875D01*
X009116Y000825D01*
X009065Y000825D01*
X009238Y000825D02*
X009388Y000825D01*
X009438Y000875D01*
X009438Y000975D01*
X009388Y001025D01*
X009238Y001025D01*
X009553Y000825D02*
X009653Y000825D01*
X009603Y000825D02*
X009603Y001025D01*
X009653Y001025D01*
X009603Y001125D02*
X009603Y001175D01*
X009767Y001025D02*
X009867Y001025D01*
X009817Y001075D02*
X009817Y000875D01*
X009767Y000825D01*
X009990Y000875D02*
X009990Y000975D01*
X010040Y001025D01*
X010140Y001025D01*
X010190Y000975D01*
X010190Y000875D01*
X010140Y000825D01*
X010040Y000825D01*
X009990Y000875D01*
X010312Y000875D02*
X010362Y000825D01*
X010512Y000825D01*
X010512Y001125D01*
X010512Y001025D02*
X010362Y001025D01*
X010312Y000975D01*
X010312Y000875D01*
X010634Y000875D02*
X010684Y000825D01*
X010784Y000825D01*
X010834Y000875D01*
X010834Y000975D01*
X010784Y001025D01*
X010684Y001025D01*
X010634Y000975D01*
X010634Y000875D01*
X010953Y001025D02*
X011003Y001025D01*
X011103Y000925D01*
X011103Y000825D02*
X011103Y001025D01*
X011225Y001025D02*
X011375Y001025D01*
X011425Y000975D01*
X011425Y000875D01*
X011375Y000825D01*
X011225Y000825D01*
X011547Y000825D02*
X011547Y000975D01*
X011597Y001025D01*
X011697Y001025D01*
X011697Y000925D02*
X011547Y000925D01*
X011547Y000825D02*
X011697Y000825D01*
X011747Y000875D01*
X011697Y000925D01*
X011870Y001125D02*
X012070Y000825D01*
X012392Y000825D02*
X012192Y001125D01*
X012503Y001025D02*
X012503Y000975D01*
X012553Y000975D01*
X012553Y001025D01*
X012503Y001025D01*
X012503Y000875D02*
X012503Y000825D01*
X012553Y000825D01*
X012553Y000875D01*
X012503Y000875D01*
X012675Y000875D02*
X012725Y000825D01*
X012875Y000825D01*
X012875Y000725D02*
X012875Y001025D01*
X012725Y001025D01*
X012675Y000975D01*
X012675Y000875D01*
X012990Y000825D02*
X013040Y000875D01*
X013040Y001075D01*
X013090Y001025D02*
X012990Y001025D01*
X013205Y001025D02*
X013305Y001025D01*
X013255Y001075D02*
X013255Y000875D01*
X013205Y000825D01*
X013427Y000825D02*
X013427Y000975D01*
X013477Y001025D01*
X013577Y001025D01*
X013627Y000975D01*
X013627Y001125D02*
X013627Y000825D01*
X006108Y000825D02*
X006108Y001125D01*
X005248Y001125D02*
X005198Y001125D01*
X003977Y001975D02*
X003877Y002175D01*
X003755Y002175D02*
X003655Y002275D01*
X003655Y001975D01*
X003755Y001975D02*
X003555Y001975D01*
X003433Y001975D02*
X003383Y001975D01*
X003383Y002025D01*
X003433Y002025D01*
X003433Y001975D01*
X003272Y002025D02*
X003072Y002225D01*
X003072Y002025D01*
X003122Y001975D01*
X003222Y001975D01*
X003272Y002025D01*
X003272Y002225D01*
X003222Y002275D01*
X003122Y002275D01*
X003072Y002225D01*
X003977Y001975D02*
X004077Y002175D01*
M02*
