G75*
%MOIN*%
%OFA0B0*%
%FSLAX24Y24*%
%IPPOS*%
%LPD*%
%AMOC8*
5,1,8,0,0,1.08239X$1,22.5*
%
%ADD10OC8,0.0660*%
%ADD11R,0.0740X0.0740*%
%ADD12C,0.0740*%
%ADD13C,0.0800*%
%ADD14R,0.0800X0.0800*%
%ADD15C,0.0160*%
%ADD16C,0.0400*%
%ADD17C,0.0100*%
D10*
X013752Y001500D03*
X014752Y001500D03*
X015752Y001500D03*
X016752Y001500D03*
X017752Y001500D03*
X018752Y001500D03*
X019752Y001500D03*
X020752Y001500D03*
X022752Y001500D03*
X023752Y001500D03*
X024752Y001500D03*
X025752Y001500D03*
X026752Y001500D03*
X027752Y001500D03*
X027752Y020500D03*
X026752Y020500D03*
X025752Y020500D03*
X024752Y020500D03*
X023752Y020500D03*
X022752Y020500D03*
X021752Y020500D03*
X020752Y020500D03*
X019252Y020500D03*
X018252Y020500D03*
X017252Y020500D03*
X016252Y020500D03*
X015252Y020500D03*
X014252Y020500D03*
X013252Y020500D03*
X012252Y020500D03*
X011252Y020500D03*
X010252Y020500D03*
D11*
X010252Y019250D03*
X004452Y019600D03*
X007102Y014250D03*
X020752Y019250D03*
X012052Y004100D03*
X012552Y001750D03*
X020752Y002750D03*
X027752Y002750D03*
D12*
X026752Y002750D03*
X025752Y002750D03*
X024752Y002750D03*
X023752Y002750D03*
X022752Y002750D03*
X019752Y002750D03*
X018752Y002750D03*
X017752Y002750D03*
X016752Y002750D03*
X015752Y002750D03*
X014752Y002750D03*
X013752Y002750D03*
X012552Y002750D03*
X013052Y004100D03*
X014052Y004100D03*
X007102Y011250D03*
X007102Y012250D03*
X007102Y013250D03*
X010252Y012800D03*
X011252Y012800D03*
X012252Y012800D03*
X012252Y013800D03*
X011252Y013800D03*
X010252Y013800D03*
X010252Y014800D03*
X011252Y014800D03*
X012252Y014800D03*
X012252Y015800D03*
X011252Y015800D03*
X010252Y015800D03*
X010252Y016800D03*
X011252Y016800D03*
X012252Y016800D03*
X013252Y016800D03*
X014252Y016800D03*
X015252Y016800D03*
X016252Y016800D03*
X017252Y016800D03*
X018252Y016800D03*
X019252Y016800D03*
X020252Y016800D03*
X021252Y016800D03*
X021252Y015800D03*
X020252Y015800D03*
X019252Y015800D03*
X018252Y015800D03*
X017252Y015800D03*
X016252Y015800D03*
X015252Y015800D03*
X014252Y015800D03*
X013252Y015800D03*
X013252Y014800D03*
X014252Y014800D03*
X015252Y014800D03*
X016252Y014800D03*
X017252Y014800D03*
X018252Y014800D03*
X019252Y014800D03*
X020252Y014800D03*
X021252Y014800D03*
X021252Y013800D03*
X020252Y013800D03*
X019252Y013800D03*
X018252Y013800D03*
X017252Y013800D03*
X016252Y013800D03*
X015252Y013800D03*
X014252Y013800D03*
X013252Y013800D03*
X013252Y012800D03*
X014252Y012800D03*
X015252Y012800D03*
X016252Y012800D03*
X017252Y012800D03*
X018252Y012800D03*
X019252Y012800D03*
X020252Y012800D03*
X021252Y012800D03*
X021252Y011800D03*
X020252Y011800D03*
X019252Y011800D03*
X018252Y011800D03*
X017252Y011800D03*
X016252Y011800D03*
X015252Y011800D03*
X014252Y011800D03*
X013252Y011800D03*
X012252Y011800D03*
X011252Y011800D03*
X010252Y011800D03*
X011252Y019250D03*
X012252Y019250D03*
X013252Y019250D03*
X014252Y019250D03*
X015252Y019250D03*
X016252Y019250D03*
X017252Y019250D03*
X018252Y019250D03*
X019252Y019250D03*
X021752Y019250D03*
X022752Y019250D03*
X023752Y019250D03*
X024752Y019250D03*
X025752Y019250D03*
X026752Y019250D03*
X027752Y019250D03*
X006452Y019600D03*
X005452Y019600D03*
X005452Y020600D03*
X006452Y020600D03*
X004452Y020600D03*
D13*
X004252Y016311D03*
X004252Y008578D03*
X004252Y007200D03*
X004252Y005822D03*
X004252Y004444D03*
X010041Y001900D03*
X028252Y007022D03*
X028252Y008400D03*
X028252Y009778D03*
X028252Y011156D03*
D14*
X028252Y005644D03*
X008663Y001900D03*
X004252Y009956D03*
X004252Y017689D03*
D15*
X002977Y021275D02*
X002977Y000725D01*
X006385Y000725D01*
X006294Y000763D01*
X005994Y001063D01*
X005915Y001141D01*
X005872Y001244D01*
X005872Y009769D01*
X005595Y010000D01*
X005473Y010000D01*
X005326Y010061D01*
X005213Y010173D01*
X005152Y010320D01*
X005152Y010480D01*
X005213Y010627D01*
X005326Y010739D01*
X005473Y010800D01*
X005632Y010800D01*
X005779Y010739D01*
X005891Y010627D01*
X005952Y010480D01*
X005952Y010431D01*
X006299Y010142D01*
X006311Y010137D01*
X006341Y010107D01*
X006374Y010079D01*
X006380Y010068D01*
X006390Y010059D01*
X006406Y010019D01*
X006426Y009981D01*
X006427Y009968D01*
X006432Y009956D01*
X006432Y009913D01*
X006436Y009870D01*
X006432Y009857D01*
X006432Y001416D01*
X006568Y001280D01*
X012000Y001280D01*
X011982Y001297D01*
X011982Y002203D01*
X012100Y002320D01*
X012176Y002320D01*
X012069Y002427D01*
X011982Y002637D01*
X011982Y002863D01*
X012069Y003073D01*
X012126Y003130D01*
X011487Y003130D01*
X011384Y003173D01*
X011314Y003243D01*
X011235Y003321D01*
X011192Y003424D01*
X011192Y006226D01*
X010527Y006830D01*
X010423Y006830D01*
X010276Y006891D01*
X010163Y007003D01*
X010102Y007150D01*
X010102Y007310D01*
X010163Y007457D01*
X010276Y007569D01*
X010318Y007587D01*
X009954Y007952D01*
X009915Y007991D01*
X009915Y007992D01*
X009915Y007992D01*
X009894Y008043D01*
X009872Y008094D01*
X009872Y008095D01*
X009872Y008095D01*
X009872Y008150D01*
X009872Y008684D01*
X009836Y008720D01*
X009223Y008720D01*
X009252Y008650D01*
X009252Y008490D01*
X009191Y008343D01*
X009132Y008284D01*
X009132Y006486D01*
X009191Y006427D01*
X009252Y006280D01*
X009252Y006120D01*
X009191Y005973D01*
X009079Y005861D01*
X008932Y005800D01*
X008773Y005800D01*
X008626Y005861D01*
X008513Y005973D01*
X008452Y006120D01*
X008452Y006280D01*
X008513Y006427D01*
X008572Y006486D01*
X008572Y008284D01*
X008513Y008343D01*
X008452Y008490D01*
X008452Y008650D01*
X008482Y008720D01*
X008197Y008720D01*
X008094Y008763D01*
X006591Y010266D01*
X006587Y010267D01*
X006552Y010305D01*
X006515Y010341D01*
X006513Y010345D01*
X003152Y013905D01*
X003115Y013941D01*
X003113Y013945D01*
X003111Y013948D01*
X003092Y013997D01*
X003072Y014044D01*
X003072Y014048D01*
X003071Y014052D01*
X003072Y014104D01*
X003072Y017556D01*
X003115Y017659D01*
X003394Y017937D01*
X003497Y017980D01*
X003652Y017980D01*
X003652Y018172D01*
X003770Y018289D01*
X004735Y018289D01*
X004852Y018172D01*
X004852Y017206D01*
X004735Y017089D01*
X003770Y017089D01*
X003652Y017206D01*
X003652Y017404D01*
X003632Y017384D01*
X003632Y014211D01*
X006532Y011141D01*
X006532Y011363D01*
X006619Y011573D01*
X006779Y011733D01*
X006820Y011750D01*
X006779Y011767D01*
X006619Y011927D01*
X006532Y012137D01*
X006532Y012363D01*
X006619Y012573D01*
X006779Y012733D01*
X006820Y012750D01*
X006779Y012767D01*
X006619Y012927D01*
X006532Y013137D01*
X006532Y013363D01*
X006619Y013573D01*
X006726Y013680D01*
X006650Y013680D01*
X006532Y013797D01*
X006532Y014703D01*
X006650Y014820D01*
X007555Y014820D01*
X007672Y014703D01*
X007672Y013797D01*
X007555Y013680D01*
X007478Y013680D01*
X007586Y013573D01*
X007672Y013363D01*
X007672Y013137D01*
X007586Y012927D01*
X007425Y012767D01*
X007385Y012750D01*
X007425Y012733D01*
X007586Y012573D01*
X007672Y012363D01*
X007672Y012137D01*
X007586Y011927D01*
X007425Y011767D01*
X007385Y011750D01*
X007425Y011733D01*
X007586Y011573D01*
X007672Y011363D01*
X007672Y011137D01*
X007586Y010927D01*
X007425Y010767D01*
X007394Y010754D01*
X008468Y009680D01*
X008830Y009680D01*
X008811Y009688D01*
X008011Y010488D01*
X007940Y010558D01*
X007902Y010650D01*
X007902Y019050D01*
X007940Y019142D01*
X008140Y019342D01*
X008211Y019412D01*
X008303Y019450D01*
X009682Y019450D01*
X009682Y019703D01*
X009800Y019820D01*
X010002Y019820D01*
X010002Y020000D01*
X009722Y020280D01*
X009722Y020720D01*
X010033Y021030D01*
X010472Y021030D01*
X010752Y020750D01*
X011033Y021030D01*
X011472Y021030D01*
X011752Y020750D01*
X012033Y021030D01*
X012472Y021030D01*
X012767Y020735D01*
X013041Y021010D01*
X013234Y021010D01*
X013234Y020518D01*
X013271Y020518D01*
X013271Y021010D01*
X013464Y021010D01*
X013738Y020735D01*
X014033Y021030D01*
X014472Y021030D01*
X014752Y020750D01*
X015033Y021030D01*
X015472Y021030D01*
X015752Y020750D01*
X016033Y021030D01*
X016472Y021030D01*
X016752Y020750D01*
X017033Y021030D01*
X017472Y021030D01*
X017752Y020750D01*
X018033Y021030D01*
X018472Y021030D01*
X018752Y020750D01*
X019033Y021030D01*
X019472Y021030D01*
X019782Y020720D01*
X019782Y020280D01*
X019502Y020000D01*
X019502Y019763D01*
X019575Y019733D01*
X019736Y019573D01*
X019822Y019363D01*
X019822Y019137D01*
X019736Y018927D01*
X019575Y018767D01*
X019366Y018680D01*
X019139Y018680D01*
X018929Y018767D01*
X018769Y018927D01*
X018752Y018968D01*
X018736Y018927D01*
X018575Y018767D01*
X018366Y018680D01*
X018139Y018680D01*
X017929Y018767D01*
X017769Y018927D01*
X017752Y018968D01*
X017736Y018927D01*
X017575Y018767D01*
X017366Y018680D01*
X017139Y018680D01*
X016929Y018767D01*
X016769Y018927D01*
X016752Y018968D01*
X016736Y018927D01*
X016575Y018767D01*
X016366Y018680D01*
X016139Y018680D01*
X015929Y018767D01*
X015769Y018927D01*
X015752Y018968D01*
X015736Y018927D01*
X015575Y018767D01*
X015366Y018680D01*
X015139Y018680D01*
X014929Y018767D01*
X014769Y018927D01*
X014752Y018968D01*
X014736Y018927D01*
X014575Y018767D01*
X014366Y018680D01*
X014139Y018680D01*
X013929Y018767D01*
X013769Y018927D01*
X013740Y018996D01*
X013723Y018962D01*
X013672Y018892D01*
X013611Y018830D01*
X013541Y018780D01*
X013463Y018740D01*
X013381Y018714D01*
X013296Y018700D01*
X013272Y018700D01*
X013272Y019230D01*
X013232Y019230D01*
X013232Y018700D01*
X013209Y018700D01*
X013124Y018714D01*
X013041Y018740D01*
X012964Y018780D01*
X012894Y018830D01*
X012833Y018892D01*
X012782Y018962D01*
X012764Y018996D01*
X012736Y018927D01*
X012575Y018767D01*
X012366Y018680D01*
X012139Y018680D01*
X011929Y018767D01*
X011769Y018927D01*
X011752Y018968D01*
X011736Y018927D01*
X011575Y018767D01*
X011496Y018734D01*
X011464Y018658D01*
X011394Y018588D01*
X011194Y018388D01*
X011102Y018350D01*
X008602Y018350D01*
X008602Y011004D01*
X009256Y010350D01*
X015102Y010350D01*
X015194Y010312D01*
X015264Y010242D01*
X015894Y009612D01*
X015894Y009612D01*
X015964Y009542D01*
X016002Y009450D01*
X016002Y006842D01*
X016023Y006850D01*
X016182Y006850D01*
X016329Y006789D01*
X016418Y006700D01*
X016649Y006700D01*
X021212Y011230D01*
X021139Y011230D01*
X020929Y011317D01*
X020769Y011477D01*
X020752Y011518D01*
X020736Y011477D01*
X020575Y011317D01*
X020366Y011230D01*
X020139Y011230D01*
X019929Y011317D01*
X019769Y011477D01*
X019752Y011518D01*
X019736Y011477D01*
X019575Y011317D01*
X019366Y011230D01*
X019139Y011230D01*
X018929Y011317D01*
X018769Y011477D01*
X018752Y011518D01*
X018736Y011477D01*
X018575Y011317D01*
X018366Y011230D01*
X018139Y011230D01*
X017929Y011317D01*
X017769Y011477D01*
X017752Y011518D01*
X017736Y011477D01*
X017575Y011317D01*
X017366Y011230D01*
X017139Y011230D01*
X016929Y011317D01*
X016769Y011477D01*
X016752Y011518D01*
X016736Y011477D01*
X016575Y011317D01*
X016366Y011230D01*
X016139Y011230D01*
X015929Y011317D01*
X015769Y011477D01*
X015752Y011518D01*
X015736Y011477D01*
X015575Y011317D01*
X015366Y011230D01*
X015139Y011230D01*
X014929Y011317D01*
X014769Y011477D01*
X014752Y011518D01*
X014736Y011477D01*
X014575Y011317D01*
X014366Y011230D01*
X014139Y011230D01*
X013929Y011317D01*
X013769Y011477D01*
X013752Y011518D01*
X013736Y011477D01*
X013575Y011317D01*
X013366Y011230D01*
X013139Y011230D01*
X012929Y011317D01*
X012769Y011477D01*
X012752Y011518D01*
X012736Y011477D01*
X012575Y011317D01*
X012366Y011230D01*
X012139Y011230D01*
X011929Y011317D01*
X011769Y011477D01*
X011752Y011518D01*
X011736Y011477D01*
X011575Y011317D01*
X011366Y011230D01*
X011139Y011230D01*
X010929Y011317D01*
X010769Y011477D01*
X010752Y011518D01*
X010736Y011477D01*
X010575Y011317D01*
X010366Y011230D01*
X010139Y011230D01*
X009929Y011317D01*
X009769Y011477D01*
X009682Y011687D01*
X009682Y011913D01*
X009769Y012123D01*
X009929Y012283D01*
X009970Y012300D01*
X009929Y012317D01*
X009769Y012477D01*
X009682Y012687D01*
X009682Y012913D01*
X009769Y013123D01*
X009929Y013283D01*
X009970Y013300D01*
X009929Y013317D01*
X009769Y013477D01*
X009682Y013687D01*
X009682Y013913D01*
X009769Y014123D01*
X009929Y014283D01*
X009970Y014300D01*
X009929Y014317D01*
X009769Y014477D01*
X009682Y014687D01*
X009682Y014913D01*
X009769Y015123D01*
X009929Y015283D01*
X009970Y015300D01*
X009929Y015317D01*
X009769Y015477D01*
X009682Y015687D01*
X009682Y015913D01*
X009769Y016123D01*
X009929Y016283D01*
X009970Y016300D01*
X009929Y016317D01*
X009769Y016477D01*
X009682Y016687D01*
X009682Y016913D01*
X009769Y017123D01*
X009929Y017283D01*
X010139Y017370D01*
X010366Y017370D01*
X010575Y017283D01*
X010736Y017123D01*
X010752Y017082D01*
X010769Y017123D01*
X010929Y017283D01*
X011139Y017370D01*
X011366Y017370D01*
X011575Y017283D01*
X011736Y017123D01*
X011752Y017082D01*
X011769Y017123D01*
X011929Y017283D01*
X012139Y017370D01*
X012366Y017370D01*
X012575Y017283D01*
X012736Y017123D01*
X012752Y017082D01*
X012769Y017123D01*
X012929Y017283D01*
X013139Y017370D01*
X013366Y017370D01*
X013575Y017283D01*
X013736Y017123D01*
X013752Y017082D01*
X013769Y017123D01*
X013929Y017283D01*
X014139Y017370D01*
X014366Y017370D01*
X014575Y017283D01*
X014736Y017123D01*
X014752Y017082D01*
X014769Y017123D01*
X014929Y017283D01*
X015139Y017370D01*
X015366Y017370D01*
X015575Y017283D01*
X015736Y017123D01*
X015752Y017082D01*
X015769Y017123D01*
X015929Y017283D01*
X016139Y017370D01*
X016366Y017370D01*
X016575Y017283D01*
X016736Y017123D01*
X016752Y017082D01*
X016769Y017123D01*
X016929Y017283D01*
X017139Y017370D01*
X017366Y017370D01*
X017575Y017283D01*
X017736Y017123D01*
X017752Y017082D01*
X017769Y017123D01*
X017929Y017283D01*
X018139Y017370D01*
X018366Y017370D01*
X018575Y017283D01*
X018736Y017123D01*
X018752Y017082D01*
X018769Y017123D01*
X018929Y017283D01*
X019139Y017370D01*
X019366Y017370D01*
X019575Y017283D01*
X019736Y017123D01*
X019752Y017082D01*
X019769Y017123D01*
X019929Y017283D01*
X020139Y017370D01*
X020366Y017370D01*
X020575Y017283D01*
X020736Y017123D01*
X020752Y017082D01*
X020769Y017123D01*
X020929Y017283D01*
X021139Y017370D01*
X021366Y017370D01*
X021575Y017283D01*
X021736Y017123D01*
X021822Y016913D01*
X021822Y016687D01*
X021736Y016477D01*
X021575Y016317D01*
X021535Y016300D01*
X021575Y016283D01*
X021736Y016123D01*
X021822Y015913D01*
X021822Y015687D01*
X021736Y015477D01*
X021575Y015317D01*
X021535Y015300D01*
X021575Y015283D01*
X021736Y015123D01*
X021822Y014913D01*
X021822Y014687D01*
X021736Y014477D01*
X021575Y014317D01*
X021535Y014300D01*
X021575Y014283D01*
X021736Y014123D01*
X021822Y013913D01*
X021822Y013687D01*
X021736Y013477D01*
X021575Y013317D01*
X021535Y013300D01*
X021575Y013283D01*
X021736Y013123D01*
X021822Y012913D01*
X021822Y012687D01*
X021736Y012477D01*
X021575Y012317D01*
X021535Y012300D01*
X021575Y012283D01*
X021736Y012123D01*
X021822Y011913D01*
X021822Y011836D01*
X023476Y013477D01*
X023511Y013512D01*
X023511Y013512D01*
X023512Y013512D01*
X023557Y013531D01*
X023603Y013550D01*
X023603Y013550D01*
X023604Y013550D01*
X023653Y013550D01*
X023937Y013550D01*
X024026Y013639D01*
X024173Y013700D01*
X024332Y013700D01*
X024479Y013639D01*
X024591Y013527D01*
X024652Y013380D01*
X024652Y013220D01*
X024591Y013073D01*
X024479Y012961D01*
X024332Y012900D01*
X024173Y012900D01*
X024026Y012961D01*
X023937Y013050D01*
X023755Y013050D01*
X017349Y006690D01*
X017373Y006700D01*
X017499Y006700D01*
X023440Y012642D01*
X023511Y012712D01*
X023603Y012750D01*
X023937Y012750D01*
X024026Y012839D01*
X024173Y012900D01*
X024332Y012900D01*
X024479Y012839D01*
X024591Y012727D01*
X024652Y012580D01*
X024652Y012420D01*
X024591Y012273D01*
X024479Y012161D01*
X024332Y012100D01*
X024173Y012100D01*
X024026Y012161D01*
X023937Y012250D01*
X023756Y012250D01*
X018088Y006582D01*
X023476Y011878D01*
X023511Y011912D01*
X023418Y011912D01*
X023511Y011912D02*
X023512Y011912D01*
X023513Y011913D01*
X023558Y011931D01*
X023603Y011950D01*
X023604Y011950D01*
X023605Y011950D01*
X023653Y011950D01*
X023937Y011950D01*
X024026Y012039D01*
X024173Y012100D01*
X024332Y012100D01*
X024479Y012039D01*
X024591Y011927D01*
X024652Y011780D01*
X024652Y011620D01*
X024591Y011473D01*
X024479Y011361D01*
X024332Y011300D01*
X024173Y011300D01*
X024026Y011361D01*
X023937Y011450D01*
X023755Y011450D01*
X023086Y010793D01*
X023376Y011078D01*
X023411Y011112D01*
X023412Y011112D01*
X023413Y011113D01*
X023458Y011131D01*
X023503Y011150D01*
X023504Y011150D01*
X023505Y011150D01*
X023554Y011150D01*
X023937Y011150D01*
X024026Y011239D01*
X024173Y011300D01*
X024332Y011300D01*
X024479Y011239D01*
X024591Y011127D01*
X024652Y010980D01*
X024652Y010820D01*
X024591Y010673D01*
X024479Y010561D01*
X024453Y010550D01*
X024479Y010539D01*
X024591Y010427D01*
X024652Y010280D01*
X024652Y010120D01*
X024591Y009973D01*
X024479Y009861D01*
X024332Y009800D01*
X024173Y009800D01*
X024026Y009861D01*
X023937Y009950D01*
X023756Y009950D01*
X019556Y005750D01*
X019632Y005750D01*
X019779Y005689D01*
X019891Y005577D01*
X019952Y005430D01*
X019952Y005270D01*
X019891Y005123D01*
X019832Y005064D01*
X019832Y004824D01*
X020052Y004624D01*
X020052Y004680D01*
X020113Y004827D01*
X020226Y004939D01*
X020373Y005000D01*
X020456Y005000D01*
X020952Y005496D01*
X020952Y005580D01*
X021013Y005727D01*
X021126Y005839D01*
X021273Y005900D01*
X021432Y005900D01*
X021572Y005842D01*
X021572Y006914D01*
X021513Y006973D01*
X021452Y007120D01*
X021452Y007280D01*
X021513Y007427D01*
X021626Y007539D01*
X021773Y007600D01*
X021932Y007600D01*
X022079Y007539D01*
X022191Y007427D01*
X022252Y007280D01*
X022252Y007120D01*
X022191Y006973D01*
X022132Y006914D01*
X022132Y004686D01*
X022191Y004627D01*
X022252Y004480D01*
X022252Y004320D01*
X022191Y004173D01*
X022168Y004150D01*
X024561Y004150D01*
X024552Y004170D01*
X024552Y004330D01*
X024613Y004477D01*
X024726Y004589D01*
X024873Y004650D01*
X025032Y004650D01*
X025179Y004589D01*
X025238Y004530D01*
X027558Y004530D01*
X027661Y004487D01*
X028198Y003950D01*
X028282Y003950D01*
X028429Y003889D01*
X028541Y003777D01*
X028602Y003630D01*
X028602Y003470D01*
X028541Y003323D01*
X028429Y003211D01*
X028322Y003167D01*
X028322Y002297D01*
X028205Y002180D01*
X027300Y002180D01*
X027182Y002297D01*
X027182Y002374D01*
X027075Y002267D01*
X026866Y002180D01*
X026639Y002180D01*
X026429Y002267D01*
X026269Y002427D01*
X026252Y002468D01*
X026236Y002427D01*
X026075Y002267D01*
X025866Y002180D01*
X025639Y002180D01*
X025429Y002267D01*
X025269Y002427D01*
X025252Y002468D01*
X025236Y002427D01*
X025075Y002267D01*
X024866Y002180D01*
X024639Y002180D01*
X024429Y002267D01*
X024269Y002427D01*
X024252Y002468D01*
X024236Y002427D01*
X024075Y002267D01*
X023866Y002180D01*
X023639Y002180D01*
X023429Y002267D01*
X023269Y002427D01*
X023252Y002468D01*
X023236Y002427D01*
X023075Y002267D01*
X022866Y002180D01*
X022639Y002180D01*
X022429Y002267D01*
X022269Y002427D01*
X022182Y002637D01*
X022182Y002863D01*
X022269Y003073D01*
X022429Y003233D01*
X022639Y003320D01*
X022866Y003320D01*
X023075Y003233D01*
X023236Y003073D01*
X023252Y003032D01*
X023269Y003073D01*
X023429Y003233D01*
X023639Y003320D01*
X023866Y003320D01*
X024075Y003233D01*
X024236Y003073D01*
X024252Y003032D01*
X024269Y003073D01*
X024429Y003233D01*
X024639Y003320D01*
X024866Y003320D01*
X025075Y003233D01*
X025236Y003073D01*
X025252Y003032D01*
X025269Y003073D01*
X025429Y003233D01*
X025639Y003320D01*
X025866Y003320D01*
X026075Y003233D01*
X026236Y003073D01*
X026252Y003032D01*
X026269Y003073D01*
X026429Y003233D01*
X026639Y003320D01*
X026866Y003320D01*
X027075Y003233D01*
X027182Y003126D01*
X027182Y003203D01*
X027189Y003210D01*
X026749Y003650D01*
X017798Y003650D01*
X017990Y003459D01*
X018032Y003356D01*
X018032Y003251D01*
X018075Y003233D01*
X018236Y003073D01*
X018264Y003004D01*
X018282Y003038D01*
X018333Y003108D01*
X018394Y003170D01*
X018464Y003220D01*
X018541Y003260D01*
X018624Y003286D01*
X018709Y003300D01*
X018732Y003300D01*
X018732Y002770D01*
X018772Y002770D01*
X018772Y003300D01*
X018796Y003300D01*
X018881Y003286D01*
X018963Y003260D01*
X019041Y003220D01*
X019111Y003170D01*
X019172Y003108D01*
X019223Y003038D01*
X019252Y002980D01*
X019282Y003038D01*
X019333Y003108D01*
X019394Y003170D01*
X019464Y003220D01*
X019541Y003260D01*
X019624Y003286D01*
X019709Y003300D01*
X019732Y003300D01*
X019732Y002770D01*
X019732Y002730D01*
X018772Y002730D01*
X018772Y002770D01*
X019302Y002770D01*
X019732Y002770D01*
X019772Y002770D01*
X019772Y003300D01*
X019796Y003300D01*
X019881Y003286D01*
X019963Y003260D01*
X020041Y003220D01*
X020111Y003170D01*
X020172Y003108D01*
X020182Y003094D01*
X020182Y003203D01*
X020300Y003320D01*
X021205Y003320D01*
X021322Y003203D01*
X021322Y002297D01*
X021205Y002180D01*
X020300Y002180D01*
X020182Y002297D01*
X020182Y002406D01*
X020172Y002392D01*
X020111Y002330D01*
X020041Y002280D01*
X020108Y002280D01*
X020211Y002237D01*
X020476Y001973D01*
X020533Y002030D01*
X020972Y002030D01*
X021282Y001720D01*
X021282Y001280D01*
X020972Y000970D01*
X020533Y000970D01*
X020238Y001265D01*
X019964Y000990D01*
X019771Y000990D01*
X019771Y001482D01*
X019734Y001482D01*
X018771Y001482D01*
X018771Y001518D01*
X019262Y001518D01*
X019734Y001518D01*
X019734Y001482D01*
X019734Y000990D01*
X019541Y000990D01*
X019252Y001279D01*
X018964Y000990D01*
X018771Y000990D01*
X018771Y001482D01*
X018734Y001482D01*
X018734Y000990D01*
X018541Y000990D01*
X018267Y001265D01*
X017972Y000970D01*
X017533Y000970D01*
X017252Y001250D01*
X016972Y000970D01*
X016533Y000970D01*
X016252Y001250D01*
X015972Y000970D01*
X015618Y000970D01*
X015490Y000841D01*
X015411Y000763D01*
X015320Y000725D01*
X028527Y000725D01*
X028527Y001593D01*
X029527Y002593D01*
X029527Y015307D01*
X028659Y016175D01*
X028527Y016307D01*
X028527Y020807D01*
X028059Y021275D01*
X002977Y021275D01*
X002977Y021264D02*
X028071Y021264D01*
X028229Y021105D02*
X006723Y021105D01*
X006775Y021083D02*
X006566Y021170D01*
X006339Y021170D01*
X006129Y021083D01*
X005969Y020923D01*
X005952Y020882D01*
X005936Y020923D01*
X005775Y021083D01*
X005566Y021170D01*
X005339Y021170D01*
X005129Y021083D01*
X004969Y020923D01*
X004940Y020854D01*
X004923Y020888D01*
X004872Y020958D01*
X004811Y021020D01*
X004741Y021070D01*
X004663Y021110D01*
X004581Y021136D01*
X004496Y021150D01*
X004472Y021150D01*
X004472Y020620D01*
X004432Y020620D01*
X004432Y020580D01*
X003902Y020580D01*
X003902Y020557D01*
X003916Y020471D01*
X002977Y020471D01*
X002977Y020313D02*
X003982Y020313D01*
X003982Y020312D02*
X004033Y020242D01*
X004094Y020180D01*
X004136Y020150D01*
X004059Y020150D01*
X004013Y020138D01*
X003972Y020114D01*
X003938Y020081D01*
X003915Y020039D01*
X003902Y019994D01*
X003902Y019620D01*
X004432Y019620D01*
X004432Y019580D01*
X003902Y019580D01*
X003902Y019206D01*
X003915Y019161D01*
X003938Y019119D01*
X003972Y019086D01*
X004013Y019062D01*
X004059Y019050D01*
X004432Y019050D01*
X004432Y019580D01*
X004472Y019580D01*
X004472Y019050D01*
X004846Y019050D01*
X004892Y019062D01*
X004933Y019086D01*
X004966Y019119D01*
X004990Y019161D01*
X005002Y019206D01*
X005002Y019244D01*
X005129Y019117D01*
X005339Y019030D01*
X005566Y019030D01*
X005775Y019117D01*
X005936Y019277D01*
X005952Y019318D01*
X005969Y019277D01*
X006129Y019117D01*
X006339Y019030D01*
X006566Y019030D01*
X006775Y019117D01*
X006936Y019277D01*
X007022Y019487D01*
X007022Y019713D01*
X006936Y019923D01*
X006775Y020083D01*
X006735Y020100D01*
X006775Y020117D01*
X006936Y020277D01*
X007022Y020487D01*
X007022Y020713D01*
X006936Y020923D01*
X006775Y021083D01*
X006912Y020947D02*
X009949Y020947D01*
X009791Y020788D02*
X006991Y020788D01*
X007022Y020630D02*
X009722Y020630D01*
X009722Y020471D02*
X007016Y020471D01*
X006950Y020313D02*
X009722Y020313D01*
X009849Y020154D02*
X006812Y020154D01*
X006863Y019996D02*
X010002Y019996D01*
X010002Y019837D02*
X006971Y019837D01*
X007022Y019679D02*
X009682Y019679D01*
X009682Y019520D02*
X007022Y019520D01*
X006971Y019362D02*
X008160Y019362D01*
X008002Y019203D02*
X006861Y019203D01*
X006601Y019045D02*
X007902Y019045D01*
X007902Y018886D02*
X002977Y018886D01*
X002977Y018728D02*
X007902Y018728D01*
X007902Y018569D02*
X002977Y018569D01*
X002977Y018411D02*
X007902Y018411D01*
X007902Y018252D02*
X004772Y018252D01*
X004852Y018094D02*
X007902Y018094D01*
X007902Y017935D02*
X004852Y017935D01*
X004852Y017777D02*
X007902Y017777D01*
X007902Y017618D02*
X004852Y017618D01*
X004852Y017460D02*
X007902Y017460D01*
X007902Y017301D02*
X004852Y017301D01*
X004789Y017143D02*
X007902Y017143D01*
X007902Y016984D02*
X003632Y016984D01*
X003632Y016826D02*
X003985Y016826D01*
X003948Y016807D02*
X003875Y016753D01*
X003810Y016689D01*
X003756Y016615D01*
X003715Y016534D01*
X003687Y016447D01*
X003672Y016357D01*
X003672Y016331D01*
X004232Y016331D01*
X004232Y016291D01*
X003672Y016291D01*
X003672Y016265D01*
X003687Y016175D01*
X003715Y016088D01*
X003756Y016007D01*
X003810Y015933D01*
X003875Y015869D01*
X003948Y015815D01*
X004030Y015774D01*
X004117Y015745D01*
X004207Y015731D01*
X004232Y015731D01*
X004232Y016291D01*
X004272Y016291D01*
X004272Y015731D01*
X004298Y015731D01*
X004388Y015745D01*
X004475Y015774D01*
X004556Y015815D01*
X004630Y015869D01*
X004695Y015933D01*
X004748Y016007D01*
X004790Y016088D01*
X004818Y016175D01*
X004832Y016265D01*
X004832Y016291D01*
X004272Y016291D01*
X004272Y016331D01*
X004232Y016331D01*
X004232Y016891D01*
X004207Y016891D01*
X004117Y016877D01*
X004030Y016849D01*
X003948Y016807D01*
X003794Y016667D02*
X003632Y016667D01*
X003632Y016509D02*
X003707Y016509D01*
X003672Y016350D02*
X003632Y016350D01*
X003632Y016192D02*
X003684Y016192D01*
X003632Y016033D02*
X003743Y016033D01*
X003632Y015875D02*
X003869Y015875D01*
X003632Y015716D02*
X007902Y015716D01*
X007902Y015558D02*
X003632Y015558D01*
X003632Y015399D02*
X007902Y015399D01*
X007902Y015241D02*
X003632Y015241D01*
X003632Y015082D02*
X007902Y015082D01*
X007902Y014924D02*
X003632Y014924D01*
X003632Y014765D02*
X006595Y014765D01*
X006532Y014607D02*
X003632Y014607D01*
X003632Y014448D02*
X006532Y014448D01*
X006532Y014290D02*
X003632Y014290D01*
X003708Y014131D02*
X006532Y014131D01*
X006532Y013973D02*
X003858Y013973D01*
X004008Y013814D02*
X006532Y013814D01*
X006702Y013656D02*
X004157Y013656D01*
X004307Y013497D02*
X006588Y013497D01*
X006532Y013339D02*
X004457Y013339D01*
X004606Y013180D02*
X006532Y013180D01*
X006580Y013022D02*
X004756Y013022D01*
X004906Y012863D02*
X006683Y012863D01*
X006751Y012705D02*
X005055Y012705D01*
X005205Y012546D02*
X006608Y012546D01*
X006542Y012388D02*
X005355Y012388D01*
X005505Y012229D02*
X006532Y012229D01*
X006560Y012071D02*
X005654Y012071D01*
X005804Y011912D02*
X006634Y011912D01*
X006811Y011754D02*
X005954Y011754D01*
X006103Y011595D02*
X006641Y011595D01*
X006563Y011437D02*
X006253Y011437D01*
X006403Y011278D02*
X006532Y011278D01*
X007052Y011200D02*
X007102Y011250D01*
X007052Y011200D02*
X007052Y010700D01*
X008352Y009400D01*
X010252Y009400D01*
X010452Y009250D01*
X010452Y008250D01*
X012652Y006100D01*
X012902Y006100D01*
X013204Y006365D02*
X015302Y006365D01*
X015302Y006523D02*
X012620Y006523D01*
X012697Y006448D02*
X010732Y008368D01*
X010732Y009215D01*
X010737Y009234D01*
X010732Y009270D01*
X010732Y009306D01*
X010725Y009325D01*
X010722Y009345D01*
X010703Y009376D01*
X015123Y009376D01*
X015281Y009218D02*
X010733Y009218D01*
X010732Y009059D02*
X015302Y009059D01*
X015182Y009060D02*
X015092Y009150D01*
X014502Y009150D01*
X014964Y009535D02*
X010540Y009535D01*
X010592Y009495D02*
X010436Y009612D01*
X010411Y009637D01*
X010392Y009645D01*
X010386Y009650D01*
X014849Y009650D01*
X015302Y009196D01*
X015302Y006116D01*
X015213Y006027D01*
X015152Y005880D01*
X015152Y005720D01*
X015213Y005573D01*
X015326Y005461D01*
X015473Y005400D01*
X015632Y005400D01*
X015747Y005448D01*
X016494Y004680D01*
X014868Y004680D01*
X014590Y004959D01*
X014511Y005037D01*
X014408Y005080D01*
X013032Y005080D01*
X013032Y005540D01*
X013032Y005595D01*
X013032Y005595D01*
X013032Y005596D01*
X013011Y005647D01*
X012990Y005698D01*
X012990Y005698D01*
X012990Y005699D01*
X012986Y005702D01*
X013129Y005761D01*
X013241Y005873D01*
X013302Y006020D01*
X013302Y006180D01*
X013241Y006327D01*
X013129Y006439D01*
X012982Y006500D01*
X012823Y006500D01*
X012697Y006448D01*
X012458Y006682D02*
X015302Y006682D01*
X015182Y006760D02*
X015182Y009060D01*
X015302Y008901D02*
X010732Y008901D01*
X010732Y008742D02*
X015302Y008742D01*
X015302Y008584D02*
X010732Y008584D01*
X010732Y008425D02*
X015302Y008425D01*
X015302Y008267D02*
X010836Y008267D01*
X010998Y008108D02*
X015302Y008108D01*
X015302Y007950D02*
X011160Y007950D01*
X011323Y007791D02*
X015302Y007791D01*
X015302Y007633D02*
X011485Y007633D01*
X011647Y007474D02*
X015302Y007474D01*
X015302Y007316D02*
X011809Y007316D01*
X011971Y007157D02*
X015302Y007157D01*
X015302Y006999D02*
X012134Y006999D01*
X012296Y006840D02*
X015302Y006840D01*
X016002Y006999D02*
X016950Y006999D01*
X017110Y007157D02*
X016002Y007157D01*
X016002Y007316D02*
X017269Y007316D01*
X017429Y007474D02*
X016002Y007474D01*
X016002Y007633D02*
X017589Y007633D01*
X017748Y007791D02*
X016002Y007791D01*
X016002Y007950D02*
X017908Y007950D01*
X018068Y008108D02*
X016002Y008108D01*
X016002Y008267D02*
X018227Y008267D01*
X018387Y008425D02*
X016002Y008425D01*
X016002Y008584D02*
X018547Y008584D01*
X018706Y008742D02*
X016002Y008742D01*
X016002Y008901D02*
X018866Y008901D01*
X019026Y009059D02*
X016002Y009059D01*
X016002Y009218D02*
X019185Y009218D01*
X019345Y009376D02*
X016002Y009376D01*
X015967Y009535D02*
X019505Y009535D01*
X019664Y009693D02*
X015813Y009693D01*
X015654Y009852D02*
X019824Y009852D01*
X019984Y010010D02*
X015496Y010010D01*
X015337Y010169D02*
X020143Y010169D01*
X020303Y010327D02*
X015158Y010327D01*
X015023Y011278D02*
X014482Y011278D01*
X014695Y011437D02*
X014810Y011437D01*
X015482Y011278D02*
X016023Y011278D01*
X015810Y011437D02*
X015695Y011437D01*
X016482Y011278D02*
X017023Y011278D01*
X016810Y011437D02*
X016695Y011437D01*
X017482Y011278D02*
X018023Y011278D01*
X017810Y011437D02*
X017695Y011437D01*
X018482Y011278D02*
X019023Y011278D01*
X018810Y011437D02*
X018695Y011437D01*
X019482Y011278D02*
X020023Y011278D01*
X019810Y011437D02*
X019695Y011437D01*
X020482Y011278D02*
X021023Y011278D01*
X021101Y011120D02*
X008602Y011120D01*
X008602Y011278D02*
X010023Y011278D01*
X009810Y011437D02*
X008602Y011437D01*
X008602Y011595D02*
X009720Y011595D01*
X009682Y011754D02*
X008602Y011754D01*
X008602Y011912D02*
X009682Y011912D01*
X009747Y012071D02*
X008602Y012071D01*
X008602Y012229D02*
X009875Y012229D01*
X009859Y012388D02*
X008602Y012388D01*
X008602Y012546D02*
X009741Y012546D01*
X009682Y012705D02*
X008602Y012705D01*
X008602Y012863D02*
X009682Y012863D01*
X009727Y013022D02*
X008602Y013022D01*
X008602Y013180D02*
X009826Y013180D01*
X009908Y013339D02*
X008602Y013339D01*
X008602Y013497D02*
X009761Y013497D01*
X009695Y013656D02*
X008602Y013656D01*
X008602Y013814D02*
X009682Y013814D01*
X009707Y013973D02*
X008602Y013973D01*
X008602Y014131D02*
X009777Y014131D01*
X009945Y014290D02*
X008602Y014290D01*
X008602Y014448D02*
X009798Y014448D01*
X009716Y014607D02*
X008602Y014607D01*
X008602Y014765D02*
X009682Y014765D01*
X009687Y014924D02*
X008602Y014924D01*
X008602Y015082D02*
X009752Y015082D01*
X009887Y015241D02*
X008602Y015241D01*
X008602Y015399D02*
X009847Y015399D01*
X009736Y015558D02*
X008602Y015558D01*
X008602Y015716D02*
X009682Y015716D01*
X009682Y015875D02*
X008602Y015875D01*
X008602Y016033D02*
X009732Y016033D01*
X009838Y016192D02*
X008602Y016192D01*
X008602Y016350D02*
X009896Y016350D01*
X009756Y016509D02*
X008602Y016509D01*
X008602Y016667D02*
X009690Y016667D01*
X009682Y016826D02*
X008602Y016826D01*
X008602Y016984D02*
X009712Y016984D01*
X009789Y017143D02*
X008602Y017143D01*
X008602Y017301D02*
X009972Y017301D01*
X010532Y017301D02*
X010972Y017301D01*
X010789Y017143D02*
X010716Y017143D01*
X011532Y017301D02*
X011972Y017301D01*
X011789Y017143D02*
X011716Y017143D01*
X012532Y017301D02*
X012972Y017301D01*
X012789Y017143D02*
X012716Y017143D01*
X013532Y017301D02*
X013972Y017301D01*
X013789Y017143D02*
X013716Y017143D01*
X014532Y017301D02*
X014972Y017301D01*
X014789Y017143D02*
X014716Y017143D01*
X015532Y017301D02*
X015972Y017301D01*
X015789Y017143D02*
X015716Y017143D01*
X016532Y017301D02*
X016972Y017301D01*
X016789Y017143D02*
X016716Y017143D01*
X017532Y017301D02*
X017972Y017301D01*
X017789Y017143D02*
X017716Y017143D01*
X018532Y017301D02*
X018972Y017301D01*
X018789Y017143D02*
X018716Y017143D01*
X019532Y017301D02*
X019972Y017301D01*
X019789Y017143D02*
X019716Y017143D01*
X020532Y017301D02*
X020972Y017301D01*
X020789Y017143D02*
X020716Y017143D01*
X021532Y017301D02*
X027255Y017301D01*
X027115Y017441D02*
X027872Y016684D01*
X027872Y016186D01*
X027813Y016127D01*
X027752Y015980D01*
X027752Y015820D01*
X027813Y015673D01*
X027872Y015614D01*
X027872Y015286D01*
X027813Y015227D01*
X027752Y015080D01*
X027752Y014920D01*
X027813Y014773D01*
X027872Y014714D01*
X027872Y014286D01*
X027813Y014227D01*
X027752Y014080D01*
X027752Y013920D01*
X027813Y013773D01*
X027926Y013661D01*
X028073Y013600D01*
X028136Y013600D01*
X028652Y013026D01*
X028652Y012920D01*
X028713Y012773D01*
X028826Y012661D01*
X028973Y012600D01*
X029132Y012600D01*
X029279Y012661D01*
X029391Y012773D01*
X029452Y012920D01*
X029452Y013080D01*
X029391Y013227D01*
X029279Y013339D01*
X029132Y013400D01*
X029069Y013400D01*
X028552Y013974D01*
X028552Y014080D01*
X028491Y014227D01*
X028432Y014286D01*
X028432Y014714D01*
X028491Y014773D01*
X028552Y014920D01*
X028552Y015080D01*
X028491Y015227D01*
X028432Y015286D01*
X028432Y015614D01*
X028491Y015673D01*
X028552Y015820D01*
X028552Y015980D01*
X028491Y016127D01*
X028432Y016186D01*
X028432Y016856D01*
X028390Y016959D01*
X028311Y017037D01*
X027632Y017716D01*
X027632Y018014D01*
X027691Y018073D01*
X027752Y018220D01*
X027752Y018380D01*
X027691Y018527D01*
X027579Y018639D01*
X027432Y018700D01*
X027273Y018700D01*
X027126Y018639D01*
X027013Y018527D01*
X026952Y018380D01*
X026952Y018220D01*
X027013Y018073D01*
X027072Y018014D01*
X027072Y017544D01*
X027115Y017441D01*
X027107Y017460D02*
X008602Y017460D01*
X008602Y017618D02*
X027072Y017618D01*
X027072Y017777D02*
X008602Y017777D01*
X008602Y017935D02*
X027072Y017935D01*
X027005Y018094D02*
X008602Y018094D01*
X008602Y018252D02*
X026952Y018252D01*
X026965Y018411D02*
X011216Y018411D01*
X011375Y018569D02*
X027056Y018569D01*
X026980Y018728D02*
X027524Y018728D01*
X027429Y018767D02*
X027639Y018680D01*
X027866Y018680D01*
X028075Y018767D01*
X028236Y018927D01*
X028322Y019137D01*
X028322Y019363D01*
X028236Y019573D01*
X028075Y019733D01*
X028002Y019763D01*
X028002Y020000D01*
X028282Y020280D01*
X028282Y020720D01*
X027972Y021030D01*
X027533Y021030D01*
X027252Y020750D01*
X026972Y021030D01*
X026533Y021030D01*
X026252Y020750D01*
X025972Y021030D01*
X025533Y021030D01*
X025252Y020750D01*
X024972Y021030D01*
X024533Y021030D01*
X024252Y020750D01*
X023972Y021030D01*
X023533Y021030D01*
X023252Y020750D01*
X022972Y021030D01*
X022533Y021030D01*
X022252Y020750D01*
X021972Y021030D01*
X021533Y021030D01*
X021252Y020750D01*
X020972Y021030D01*
X020533Y021030D01*
X020222Y020720D01*
X020222Y020280D01*
X020502Y020000D01*
X020502Y019820D01*
X020300Y019820D01*
X020182Y019703D01*
X020182Y018797D01*
X020300Y018680D01*
X021205Y018680D01*
X021322Y018797D01*
X021322Y018874D01*
X021429Y018767D01*
X021639Y018680D01*
X021866Y018680D01*
X022075Y018767D01*
X022236Y018927D01*
X022252Y018968D01*
X022269Y018927D01*
X022429Y018767D01*
X022639Y018680D01*
X022866Y018680D01*
X023075Y018767D01*
X023236Y018927D01*
X023252Y018968D01*
X023269Y018927D01*
X023429Y018767D01*
X023639Y018680D01*
X023866Y018680D01*
X024075Y018767D01*
X024236Y018927D01*
X024252Y018968D01*
X024269Y018927D01*
X024429Y018767D01*
X024639Y018680D01*
X024866Y018680D01*
X025075Y018767D01*
X025236Y018927D01*
X025252Y018968D01*
X025269Y018927D01*
X025429Y018767D01*
X025639Y018680D01*
X025866Y018680D01*
X026075Y018767D01*
X026236Y018927D01*
X026252Y018968D01*
X026269Y018927D01*
X026429Y018767D01*
X026639Y018680D01*
X026866Y018680D01*
X027075Y018767D01*
X027236Y018927D01*
X027252Y018968D01*
X027269Y018927D01*
X027429Y018767D01*
X027310Y018886D02*
X027194Y018886D01*
X027649Y018569D02*
X028527Y018569D01*
X028527Y018411D02*
X027740Y018411D01*
X027752Y018252D02*
X028527Y018252D01*
X028527Y018094D02*
X027700Y018094D01*
X027632Y017935D02*
X028527Y017935D01*
X028527Y017777D02*
X027632Y017777D01*
X027730Y017618D02*
X028527Y017618D01*
X028527Y017460D02*
X027889Y017460D01*
X028047Y017301D02*
X028527Y017301D01*
X028527Y017143D02*
X028206Y017143D01*
X028364Y016984D02*
X028527Y016984D01*
X028527Y016826D02*
X028432Y016826D01*
X028432Y016667D02*
X028527Y016667D01*
X028527Y016509D02*
X028432Y016509D01*
X028432Y016350D02*
X028527Y016350D01*
X028432Y016192D02*
X028643Y016192D01*
X028530Y016033D02*
X028801Y016033D01*
X028960Y015875D02*
X028552Y015875D01*
X028509Y015716D02*
X029118Y015716D01*
X029277Y015558D02*
X028432Y015558D01*
X028432Y015399D02*
X029435Y015399D01*
X029527Y015241D02*
X028478Y015241D01*
X028551Y015082D02*
X029527Y015082D01*
X029527Y014924D02*
X028552Y014924D01*
X028483Y014765D02*
X029527Y014765D01*
X029527Y014607D02*
X028432Y014607D01*
X028432Y014448D02*
X029527Y014448D01*
X029527Y014290D02*
X028432Y014290D01*
X028531Y014131D02*
X029527Y014131D01*
X029527Y013973D02*
X028554Y013973D01*
X028696Y013814D02*
X029527Y013814D01*
X029527Y013656D02*
X028839Y013656D01*
X028982Y013497D02*
X029527Y013497D01*
X029527Y013339D02*
X029280Y013339D01*
X029411Y013180D02*
X029527Y013180D01*
X029527Y013022D02*
X029452Y013022D01*
X029429Y012863D02*
X029527Y012863D01*
X029527Y012705D02*
X029323Y012705D01*
X029527Y012546D02*
X024652Y012546D01*
X024639Y012388D02*
X029527Y012388D01*
X029527Y012229D02*
X024547Y012229D01*
X024403Y012071D02*
X029527Y012071D01*
X029527Y011912D02*
X024597Y011912D01*
X024652Y011754D02*
X028127Y011754D01*
X028133Y011756D02*
X027912Y011665D01*
X027744Y011496D01*
X027652Y011275D01*
X027652Y011037D01*
X027744Y010816D01*
X027912Y010647D01*
X028133Y010556D01*
X028372Y010556D01*
X028592Y010647D01*
X028761Y010816D01*
X028852Y011037D01*
X028852Y011275D01*
X028761Y011496D01*
X028592Y011665D01*
X028372Y011756D01*
X028133Y011756D01*
X028377Y011754D02*
X029527Y011754D01*
X029527Y011595D02*
X028662Y011595D01*
X028786Y011437D02*
X029527Y011437D01*
X029527Y011278D02*
X028851Y011278D01*
X028852Y011120D02*
X029527Y011120D01*
X029527Y010961D02*
X028821Y010961D01*
X028748Y010803D02*
X029527Y010803D01*
X029527Y010644D02*
X028584Y010644D01*
X028495Y010327D02*
X029527Y010327D01*
X029527Y010169D02*
X028710Y010169D01*
X028761Y010118D02*
X028592Y010287D01*
X028372Y010378D01*
X028133Y010378D01*
X027912Y010287D01*
X027744Y010118D01*
X027652Y009897D01*
X027652Y009659D01*
X027744Y009438D01*
X027912Y009269D01*
X028133Y009178D01*
X028372Y009178D01*
X028592Y009269D01*
X028761Y009438D01*
X028852Y009659D01*
X028852Y009897D01*
X028761Y010118D01*
X028806Y010010D02*
X029527Y010010D01*
X029527Y009852D02*
X028852Y009852D01*
X028852Y009693D02*
X029527Y009693D01*
X029527Y009535D02*
X028801Y009535D01*
X028699Y009376D02*
X029527Y009376D01*
X029527Y009218D02*
X028467Y009218D01*
X028388Y008966D02*
X028298Y008980D01*
X028272Y008980D01*
X028272Y008420D01*
X028232Y008420D01*
X028232Y008380D01*
X027672Y008380D01*
X027672Y008354D01*
X027687Y008264D01*
X027715Y008177D01*
X027756Y008096D01*
X027810Y008022D01*
X027875Y007958D01*
X027948Y007904D01*
X028030Y007862D01*
X028117Y007834D01*
X028207Y007820D01*
X028232Y007820D01*
X028232Y008380D01*
X028272Y008380D01*
X028272Y007820D01*
X028298Y007820D01*
X028388Y007834D01*
X028475Y007862D01*
X028556Y007904D01*
X028630Y007958D01*
X028695Y008022D01*
X028748Y008096D01*
X028790Y008177D01*
X028818Y008264D01*
X028832Y008354D01*
X028832Y008380D01*
X028272Y008380D01*
X028272Y008420D01*
X028832Y008420D01*
X028832Y008446D01*
X028818Y008536D01*
X028790Y008623D01*
X028748Y008704D01*
X028695Y008778D01*
X028630Y008842D01*
X028556Y008896D01*
X028475Y008938D01*
X028388Y008966D01*
X028272Y008901D02*
X028232Y008901D01*
X028232Y008980D02*
X028207Y008980D01*
X028117Y008966D01*
X028030Y008938D01*
X027948Y008896D01*
X027875Y008842D01*
X027810Y008778D01*
X027756Y008704D01*
X027715Y008623D01*
X027687Y008536D01*
X027672Y008446D01*
X027672Y008420D01*
X028232Y008420D01*
X028232Y008980D01*
X028232Y008742D02*
X028272Y008742D01*
X028272Y008584D02*
X028232Y008584D01*
X028232Y008425D02*
X028272Y008425D01*
X028252Y008400D02*
X025282Y008400D01*
X025272Y008390D01*
X023499Y009693D02*
X027652Y009693D01*
X027652Y009852D02*
X024456Y009852D01*
X024607Y010010D02*
X027699Y010010D01*
X027794Y010169D02*
X024652Y010169D01*
X024633Y010327D02*
X028010Y010327D01*
X027920Y010644D02*
X024562Y010644D01*
X024533Y010486D02*
X029527Y010486D01*
X027843Y011595D02*
X024642Y011595D01*
X024555Y011437D02*
X027719Y011437D01*
X027654Y011278D02*
X024385Y011278D01*
X024594Y011120D02*
X027652Y011120D01*
X027684Y010961D02*
X024652Y010961D01*
X024645Y010803D02*
X027757Y010803D01*
X027704Y009535D02*
X023340Y009535D01*
X023182Y009376D02*
X027806Y009376D01*
X028038Y009218D02*
X023023Y009218D01*
X022865Y009059D02*
X029527Y009059D01*
X029527Y008901D02*
X028548Y008901D01*
X028721Y008742D02*
X029527Y008742D01*
X029527Y008584D02*
X028803Y008584D01*
X028832Y008425D02*
X029527Y008425D01*
X029527Y008267D02*
X028818Y008267D01*
X028755Y008108D02*
X029527Y008108D01*
X029527Y007950D02*
X028619Y007950D01*
X028272Y007950D02*
X028232Y007950D01*
X028232Y008108D02*
X028272Y008108D01*
X028272Y008267D02*
X028232Y008267D01*
X027886Y007950D02*
X021755Y007950D01*
X021914Y008108D02*
X027750Y008108D01*
X027686Y008267D02*
X022072Y008267D01*
X022231Y008425D02*
X027672Y008425D01*
X027702Y008584D02*
X022389Y008584D01*
X022548Y008742D02*
X027784Y008742D01*
X027957Y008901D02*
X022706Y008901D01*
X023657Y009852D02*
X024048Y009852D01*
X023096Y010803D02*
X023096Y010803D01*
X023257Y010961D02*
X023257Y010961D01*
X023418Y011120D02*
X023428Y011120D01*
X023580Y011278D02*
X024120Y011278D01*
X023950Y011437D02*
X023741Y011437D01*
X023350Y011754D02*
X023259Y011754D01*
X023189Y011595D02*
X023101Y011595D01*
X023028Y011437D02*
X022942Y011437D01*
X022866Y011278D02*
X022784Y011278D01*
X022705Y011120D02*
X022625Y011120D01*
X022544Y010961D02*
X022467Y010961D01*
X022382Y010803D02*
X022308Y010803D01*
X022221Y010644D02*
X022150Y010644D01*
X022060Y010486D02*
X021991Y010486D01*
X021899Y010327D02*
X021833Y010327D01*
X021737Y010169D02*
X021674Y010169D01*
X021576Y010010D02*
X021516Y010010D01*
X021415Y009852D02*
X021357Y009852D01*
X021254Y009693D02*
X021199Y009693D01*
X021092Y009535D02*
X021040Y009535D01*
X020931Y009376D02*
X020882Y009376D01*
X020770Y009218D02*
X020723Y009218D01*
X020608Y009059D02*
X020565Y009059D01*
X020447Y008901D02*
X020406Y008901D01*
X020286Y008742D02*
X020248Y008742D01*
X020125Y008584D02*
X020089Y008584D01*
X019963Y008425D02*
X019931Y008425D01*
X019802Y008267D02*
X019772Y008267D01*
X019641Y008108D02*
X019614Y008108D01*
X019479Y007950D02*
X019455Y007950D01*
X019318Y007791D02*
X019297Y007791D01*
X019157Y007633D02*
X019138Y007633D01*
X018996Y007474D02*
X018980Y007474D01*
X018834Y007316D02*
X018821Y007316D01*
X018673Y007157D02*
X018663Y007157D01*
X018512Y006999D02*
X018504Y006999D01*
X018350Y006840D02*
X018346Y006840D01*
X018189Y006682D02*
X018187Y006682D01*
X017797Y006999D02*
X017660Y006999D01*
X017639Y006840D02*
X017500Y006840D01*
X017819Y007157D02*
X017956Y007157D01*
X017979Y007316D02*
X018114Y007316D01*
X018139Y007474D02*
X018273Y007474D01*
X018298Y007633D02*
X018431Y007633D01*
X018458Y007791D02*
X018590Y007791D01*
X018618Y007950D02*
X018748Y007950D01*
X018777Y008108D02*
X018907Y008108D01*
X018937Y008267D02*
X019065Y008267D01*
X019097Y008425D02*
X019224Y008425D01*
X019256Y008584D02*
X019382Y008584D01*
X019416Y008742D02*
X019541Y008742D01*
X019576Y008901D02*
X019699Y008901D01*
X019735Y009059D02*
X019858Y009059D01*
X019895Y009218D02*
X020016Y009218D01*
X020055Y009376D02*
X020175Y009376D01*
X020214Y009535D02*
X020333Y009535D01*
X020374Y009693D02*
X020492Y009693D01*
X020534Y009852D02*
X020650Y009852D01*
X020693Y010010D02*
X020809Y010010D01*
X020853Y010169D02*
X020967Y010169D01*
X021013Y010327D02*
X021126Y010327D01*
X021172Y010486D02*
X021284Y010486D01*
X021332Y010644D02*
X021443Y010644D01*
X021491Y010803D02*
X021601Y010803D01*
X021651Y010961D02*
X021760Y010961D01*
X021811Y011120D02*
X021918Y011120D01*
X021970Y011278D02*
X022077Y011278D01*
X022130Y011437D02*
X022235Y011437D01*
X022290Y011595D02*
X022394Y011595D01*
X022449Y011754D02*
X022552Y011754D01*
X022609Y011912D02*
X022711Y011912D01*
X022769Y012071D02*
X022869Y012071D01*
X022928Y012229D02*
X023028Y012229D01*
X023088Y012388D02*
X023186Y012388D01*
X023248Y012546D02*
X023345Y012546D01*
X023407Y012705D02*
X023503Y012705D01*
X023567Y012863D02*
X024084Y012863D01*
X023965Y013022D02*
X023727Y013022D01*
X023336Y013339D02*
X021597Y013339D01*
X021678Y013180D02*
X023177Y013180D01*
X023017Y013022D02*
X021778Y013022D01*
X021822Y012863D02*
X022857Y012863D01*
X022698Y012705D02*
X021822Y012705D01*
X021764Y012546D02*
X022538Y012546D01*
X022378Y012388D02*
X021646Y012388D01*
X021629Y012229D02*
X022219Y012229D01*
X022059Y012071D02*
X021757Y012071D01*
X021822Y011912D02*
X021899Y011912D01*
X020810Y011437D02*
X020695Y011437D01*
X020941Y010961D02*
X008645Y010961D01*
X008803Y010803D02*
X020782Y010803D01*
X020622Y010644D02*
X008962Y010644D01*
X009120Y010486D02*
X020462Y010486D01*
X023576Y012071D02*
X024102Y012071D01*
X023958Y012229D02*
X023735Y012229D01*
X024421Y012863D02*
X028676Y012863D01*
X028652Y013022D02*
X024540Y013022D01*
X024636Y013180D02*
X028514Y013180D01*
X028371Y013339D02*
X024652Y013339D01*
X024604Y013497D02*
X028228Y013497D01*
X027939Y013656D02*
X024439Y013656D01*
X024065Y013656D02*
X021809Y013656D01*
X021822Y013814D02*
X027796Y013814D01*
X027752Y013973D02*
X021798Y013973D01*
X021727Y014131D02*
X027774Y014131D01*
X027872Y014290D02*
X021560Y014290D01*
X021706Y014448D02*
X027872Y014448D01*
X027872Y014607D02*
X021789Y014607D01*
X021822Y014765D02*
X027822Y014765D01*
X027752Y014924D02*
X021818Y014924D01*
X021753Y015082D02*
X027753Y015082D01*
X027827Y015241D02*
X021618Y015241D01*
X021657Y015399D02*
X027872Y015399D01*
X027872Y015558D02*
X021769Y015558D01*
X021822Y015716D02*
X027796Y015716D01*
X027752Y015875D02*
X021822Y015875D01*
X021773Y016033D02*
X027775Y016033D01*
X027872Y016192D02*
X021667Y016192D01*
X021608Y016350D02*
X027872Y016350D01*
X027872Y016509D02*
X021749Y016509D01*
X021814Y016667D02*
X027872Y016667D01*
X027731Y016826D02*
X021822Y016826D01*
X021793Y016984D02*
X027572Y016984D01*
X027414Y017143D02*
X021716Y017143D01*
X021524Y018728D02*
X021253Y018728D01*
X021980Y018728D02*
X022524Y018728D01*
X022310Y018886D02*
X022194Y018886D01*
X022980Y018728D02*
X023524Y018728D01*
X023310Y018886D02*
X023194Y018886D01*
X023980Y018728D02*
X024524Y018728D01*
X024310Y018886D02*
X024194Y018886D01*
X024980Y018728D02*
X025524Y018728D01*
X025310Y018886D02*
X025194Y018886D01*
X025980Y018728D02*
X026524Y018728D01*
X026310Y018886D02*
X026194Y018886D01*
X027352Y018300D02*
X027352Y017600D01*
X028152Y016800D01*
X028152Y015900D01*
X028152Y015000D01*
X028152Y014000D01*
X029052Y013000D01*
X028782Y012705D02*
X024601Y012705D01*
X023496Y013497D02*
X021744Y013497D01*
X020252Y018728D02*
X019480Y018728D01*
X019694Y018886D02*
X020182Y018886D01*
X020182Y019045D02*
X019784Y019045D01*
X019822Y019203D02*
X020182Y019203D01*
X020182Y019362D02*
X019822Y019362D01*
X019757Y019520D02*
X020182Y019520D01*
X020182Y019679D02*
X019630Y019679D01*
X019502Y019837D02*
X020502Y019837D01*
X020502Y019996D02*
X019502Y019996D01*
X019656Y020154D02*
X020349Y020154D01*
X020222Y020313D02*
X019782Y020313D01*
X019782Y020471D02*
X020222Y020471D01*
X020222Y020630D02*
X019782Y020630D01*
X019714Y020788D02*
X020291Y020788D01*
X020449Y020947D02*
X019555Y020947D01*
X018949Y020947D02*
X018555Y020947D01*
X018714Y020788D02*
X018791Y020788D01*
X017949Y020947D02*
X017555Y020947D01*
X017714Y020788D02*
X017791Y020788D01*
X016949Y020947D02*
X016555Y020947D01*
X016714Y020788D02*
X016791Y020788D01*
X015949Y020947D02*
X015555Y020947D01*
X015714Y020788D02*
X015791Y020788D01*
X014949Y020947D02*
X014555Y020947D01*
X014714Y020788D02*
X014791Y020788D01*
X013949Y020947D02*
X013527Y020947D01*
X013686Y020788D02*
X013791Y020788D01*
X013271Y020788D02*
X013234Y020788D01*
X013234Y020630D02*
X013271Y020630D01*
X013271Y020482D02*
X013271Y019990D01*
X013464Y019990D01*
X013738Y020265D01*
X014002Y020000D01*
X014002Y019763D01*
X013929Y019733D01*
X013769Y019573D01*
X013740Y019504D01*
X013723Y019538D01*
X013672Y019608D01*
X013611Y019670D01*
X013541Y019720D01*
X013463Y019760D01*
X013381Y019786D01*
X013296Y019800D01*
X013272Y019800D01*
X013272Y019270D01*
X013232Y019270D01*
X013232Y019800D01*
X013209Y019800D01*
X013124Y019786D01*
X013041Y019760D01*
X012964Y019720D01*
X012894Y019670D01*
X012833Y019608D01*
X012782Y019538D01*
X012764Y019504D01*
X012736Y019573D01*
X012575Y019733D01*
X012502Y019763D01*
X012502Y020000D01*
X012767Y020265D01*
X013041Y019990D01*
X013234Y019990D01*
X013234Y020482D01*
X013271Y020482D01*
X013271Y020471D02*
X013234Y020471D01*
X013234Y020313D02*
X013271Y020313D01*
X013271Y020154D02*
X013234Y020154D01*
X013234Y019996D02*
X013271Y019996D01*
X013469Y019996D02*
X014002Y019996D01*
X014002Y019837D02*
X012502Y019837D01*
X012502Y019996D02*
X013036Y019996D01*
X012877Y020154D02*
X012656Y020154D01*
X012630Y019679D02*
X012906Y019679D01*
X012773Y019520D02*
X012757Y019520D01*
X013232Y019520D02*
X013272Y019520D01*
X013272Y019362D02*
X013232Y019362D01*
X013232Y019203D02*
X013272Y019203D01*
X013272Y019045D02*
X013232Y019045D01*
X013232Y018886D02*
X013272Y018886D01*
X013272Y018728D02*
X013232Y018728D01*
X013081Y018728D02*
X012480Y018728D01*
X012694Y018886D02*
X012839Y018886D01*
X013424Y018728D02*
X014024Y018728D01*
X013810Y018886D02*
X013666Y018886D01*
X013732Y019520D02*
X013747Y019520D01*
X013875Y019679D02*
X013598Y019679D01*
X013272Y019679D02*
X013232Y019679D01*
X013628Y020154D02*
X013849Y020154D01*
X013271Y020947D02*
X013234Y020947D01*
X012978Y020947D02*
X012555Y020947D01*
X012714Y020788D02*
X012819Y020788D01*
X011949Y020947D02*
X011555Y020947D01*
X011714Y020788D02*
X011791Y020788D01*
X010949Y020947D02*
X010555Y020947D01*
X010714Y020788D02*
X010791Y020788D01*
X011694Y018886D02*
X011810Y018886D01*
X012024Y018728D02*
X011493Y018728D01*
X014480Y018728D02*
X015024Y018728D01*
X014810Y018886D02*
X014694Y018886D01*
X015480Y018728D02*
X016024Y018728D01*
X015810Y018886D02*
X015694Y018886D01*
X016480Y018728D02*
X017024Y018728D01*
X016810Y018886D02*
X016694Y018886D01*
X017480Y018728D02*
X018024Y018728D01*
X017810Y018886D02*
X017694Y018886D01*
X018480Y018728D02*
X019024Y018728D01*
X018810Y018886D02*
X018694Y018886D01*
X021214Y020788D02*
X021291Y020788D01*
X021449Y020947D02*
X021055Y020947D01*
X022055Y020947D02*
X022449Y020947D01*
X022291Y020788D02*
X022214Y020788D01*
X023055Y020947D02*
X023449Y020947D01*
X023291Y020788D02*
X023214Y020788D01*
X024055Y020947D02*
X024449Y020947D01*
X024291Y020788D02*
X024214Y020788D01*
X025055Y020947D02*
X025449Y020947D01*
X025291Y020788D02*
X025214Y020788D01*
X026055Y020947D02*
X026449Y020947D01*
X026291Y020788D02*
X026214Y020788D01*
X027055Y020947D02*
X027449Y020947D01*
X027291Y020788D02*
X027214Y020788D01*
X028055Y020947D02*
X028388Y020947D01*
X028527Y020788D02*
X028214Y020788D01*
X028282Y020630D02*
X028527Y020630D01*
X028527Y020471D02*
X028282Y020471D01*
X028282Y020313D02*
X028527Y020313D01*
X028527Y020154D02*
X028156Y020154D01*
X028002Y019996D02*
X028527Y019996D01*
X028527Y019837D02*
X028002Y019837D01*
X028130Y019679D02*
X028527Y019679D01*
X028527Y019520D02*
X028257Y019520D01*
X028322Y019362D02*
X028527Y019362D01*
X028527Y019203D02*
X028322Y019203D01*
X028284Y019045D02*
X028527Y019045D01*
X028527Y018886D02*
X028194Y018886D01*
X027980Y018728D02*
X028527Y018728D01*
X014023Y011278D02*
X013482Y011278D01*
X013695Y011437D02*
X013810Y011437D01*
X013023Y011278D02*
X012482Y011278D01*
X012695Y011437D02*
X012810Y011437D01*
X012023Y011278D02*
X011482Y011278D01*
X011695Y011437D02*
X011810Y011437D01*
X011023Y011278D02*
X010482Y011278D01*
X010695Y011437D02*
X010810Y011437D01*
X008806Y009693D02*
X008455Y009693D01*
X008297Y009852D02*
X008647Y009852D01*
X008489Y010010D02*
X008138Y010010D01*
X007980Y010169D02*
X008330Y010169D01*
X008172Y010327D02*
X007821Y010327D01*
X007663Y010486D02*
X008013Y010486D01*
X007905Y010644D02*
X007504Y010644D01*
X007461Y010803D02*
X007902Y010803D01*
X007902Y010961D02*
X007600Y010961D01*
X007665Y011120D02*
X007902Y011120D01*
X007902Y011278D02*
X007672Y011278D01*
X007642Y011437D02*
X007902Y011437D01*
X007902Y011595D02*
X007563Y011595D01*
X007393Y011754D02*
X007902Y011754D01*
X007902Y011912D02*
X007570Y011912D01*
X007645Y012071D02*
X007902Y012071D01*
X007902Y012229D02*
X007672Y012229D01*
X007662Y012388D02*
X007902Y012388D01*
X007902Y012546D02*
X007597Y012546D01*
X007454Y012705D02*
X007902Y012705D01*
X007902Y012863D02*
X007521Y012863D01*
X007625Y013022D02*
X007902Y013022D01*
X007902Y013180D02*
X007672Y013180D01*
X007672Y013339D02*
X007902Y013339D01*
X007902Y013497D02*
X007617Y013497D01*
X007503Y013656D02*
X007902Y013656D01*
X007902Y013814D02*
X007672Y013814D01*
X007672Y013973D02*
X007902Y013973D01*
X007902Y014131D02*
X007672Y014131D01*
X007672Y014290D02*
X007902Y014290D01*
X007902Y014448D02*
X007672Y014448D01*
X007672Y014607D02*
X007902Y014607D01*
X007902Y014765D02*
X007610Y014765D01*
X007902Y015875D02*
X004636Y015875D01*
X004762Y016033D02*
X007902Y016033D01*
X007902Y016192D02*
X004821Y016192D01*
X004832Y016331D02*
X004832Y016357D01*
X004818Y016447D01*
X004790Y016534D01*
X004748Y016615D01*
X004695Y016689D01*
X004630Y016753D01*
X004556Y016807D01*
X004475Y016849D01*
X004388Y016877D01*
X004298Y016891D01*
X004272Y016891D01*
X004272Y016331D01*
X004832Y016331D01*
X004832Y016350D02*
X007902Y016350D01*
X007902Y016509D02*
X004798Y016509D01*
X004711Y016667D02*
X007902Y016667D01*
X007902Y016826D02*
X004520Y016826D01*
X004272Y016826D02*
X004232Y016826D01*
X004232Y016667D02*
X004272Y016667D01*
X004272Y016509D02*
X004232Y016509D01*
X004232Y016350D02*
X004272Y016350D01*
X004272Y016192D02*
X004232Y016192D01*
X004232Y016033D02*
X004272Y016033D01*
X004272Y015875D02*
X004232Y015875D01*
X003072Y015875D02*
X002977Y015875D01*
X002977Y016033D02*
X003072Y016033D01*
X003072Y016192D02*
X002977Y016192D01*
X002977Y016350D02*
X003072Y016350D01*
X003072Y016509D02*
X002977Y016509D01*
X002977Y016667D02*
X003072Y016667D01*
X003072Y016826D02*
X002977Y016826D01*
X002977Y016984D02*
X003072Y016984D01*
X003072Y017143D02*
X002977Y017143D01*
X002977Y017301D02*
X003072Y017301D01*
X003072Y017460D02*
X002977Y017460D01*
X002977Y017618D02*
X003098Y017618D01*
X002977Y017777D02*
X003233Y017777D01*
X003391Y017935D02*
X002977Y017935D01*
X002977Y018094D02*
X003652Y018094D01*
X003733Y018252D02*
X002977Y018252D01*
X002977Y019045D02*
X005304Y019045D01*
X005601Y019045D02*
X006304Y019045D01*
X006043Y019203D02*
X005861Y019203D01*
X005043Y019203D02*
X005001Y019203D01*
X004472Y019203D02*
X004432Y019203D01*
X004432Y019362D02*
X004472Y019362D01*
X004472Y019520D02*
X004432Y019520D01*
X004432Y019620D02*
X004432Y020580D01*
X004472Y020580D01*
X004472Y020150D01*
X004472Y019620D01*
X004432Y019620D01*
X004432Y019679D02*
X004472Y019679D01*
X004472Y019837D02*
X004432Y019837D01*
X004432Y019996D02*
X004472Y019996D01*
X004472Y020154D02*
X004432Y020154D01*
X004432Y020313D02*
X004472Y020313D01*
X004472Y020471D02*
X004432Y020471D01*
X004432Y020620D02*
X003902Y020620D01*
X003902Y020643D01*
X003916Y020729D01*
X003943Y020811D01*
X003982Y020888D01*
X004033Y020958D01*
X004094Y021020D01*
X004164Y021070D01*
X004241Y021110D01*
X004324Y021136D01*
X004409Y021150D01*
X004432Y021150D01*
X004432Y020620D01*
X004432Y020630D02*
X004472Y020630D01*
X004472Y020788D02*
X004432Y020788D01*
X004432Y020947D02*
X004472Y020947D01*
X004472Y021105D02*
X004432Y021105D01*
X004232Y021105D02*
X002977Y021105D01*
X002977Y020947D02*
X004024Y020947D01*
X003935Y020788D02*
X002977Y020788D01*
X002977Y020630D02*
X003902Y020630D01*
X003916Y020471D02*
X003943Y020389D01*
X003982Y020312D01*
X004130Y020154D02*
X002977Y020154D01*
X002977Y019996D02*
X003903Y019996D01*
X003902Y019837D02*
X002977Y019837D01*
X002977Y019679D02*
X003902Y019679D01*
X003902Y019520D02*
X002977Y019520D01*
X002977Y019362D02*
X003902Y019362D01*
X003903Y019203D02*
X002977Y019203D01*
X003552Y017700D02*
X004241Y017700D01*
X004252Y017689D01*
X003652Y017301D02*
X003632Y017301D01*
X003632Y017143D02*
X003716Y017143D01*
X003352Y017500D02*
X003552Y017700D01*
X003352Y017500D02*
X003352Y014100D01*
X006752Y010500D01*
X008252Y009000D01*
X009952Y009000D01*
X010152Y008800D01*
X010152Y008150D01*
X012752Y005540D01*
X012752Y004800D01*
X012052Y004100D01*
X011472Y003480D02*
X011472Y006350D01*
X010502Y007230D01*
X010181Y007474D02*
X009132Y007474D01*
X009132Y007316D02*
X010105Y007316D01*
X010102Y007157D02*
X009132Y007157D01*
X009132Y006999D02*
X010168Y006999D01*
X010399Y006840D02*
X009132Y006840D01*
X009132Y006682D02*
X010690Y006682D01*
X010865Y006523D02*
X009132Y006523D01*
X009217Y006365D02*
X011040Y006365D01*
X011192Y006206D02*
X009252Y006206D01*
X009222Y006048D02*
X011192Y006048D01*
X011192Y005889D02*
X009107Y005889D01*
X008852Y006200D02*
X008852Y008570D01*
X008479Y008425D02*
X006432Y008425D01*
X006432Y008267D02*
X008572Y008267D01*
X008572Y008108D02*
X006432Y008108D01*
X006432Y007950D02*
X008572Y007950D01*
X008572Y007791D02*
X006432Y007791D01*
X006432Y007633D02*
X008572Y007633D01*
X008572Y007474D02*
X006432Y007474D01*
X006432Y007316D02*
X008572Y007316D01*
X008572Y007157D02*
X006432Y007157D01*
X006432Y006999D02*
X008572Y006999D01*
X008572Y006840D02*
X006432Y006840D01*
X006432Y006682D02*
X008572Y006682D01*
X008572Y006523D02*
X006432Y006523D01*
X006432Y006365D02*
X008488Y006365D01*
X008452Y006206D02*
X006432Y006206D01*
X006432Y006048D02*
X008483Y006048D01*
X008598Y005889D02*
X006432Y005889D01*
X006432Y005731D02*
X011192Y005731D01*
X011192Y005572D02*
X006432Y005572D01*
X006432Y005414D02*
X011192Y005414D01*
X011192Y005255D02*
X006432Y005255D01*
X006432Y005097D02*
X011192Y005097D01*
X011192Y004938D02*
X006432Y004938D01*
X006432Y004780D02*
X011192Y004780D01*
X011192Y004621D02*
X006432Y004621D01*
X006432Y004463D02*
X011192Y004463D01*
X011192Y004304D02*
X006432Y004304D01*
X006432Y004146D02*
X011192Y004146D01*
X011192Y003987D02*
X006432Y003987D01*
X006432Y003829D02*
X011192Y003829D01*
X011192Y003670D02*
X006432Y003670D01*
X006432Y003512D02*
X011192Y003512D01*
X011222Y003353D02*
X006432Y003353D01*
X006432Y003195D02*
X011362Y003195D01*
X011542Y003410D02*
X011472Y003480D01*
X011542Y003410D02*
X012962Y003410D01*
X013052Y003500D01*
X013052Y004100D01*
X014052Y004100D02*
X016352Y004100D01*
X016752Y003700D01*
X016752Y002750D01*
X017752Y002750D02*
X017752Y003300D01*
X016652Y004400D01*
X014752Y004400D01*
X014352Y004800D01*
X012752Y004800D01*
X013032Y005097D02*
X016088Y005097D01*
X015934Y005255D02*
X013032Y005255D01*
X013032Y005414D02*
X015440Y005414D01*
X015665Y005414D02*
X015780Y005414D01*
X015215Y005572D02*
X013032Y005572D01*
X013056Y005731D02*
X015152Y005731D01*
X015156Y005889D02*
X013248Y005889D01*
X013302Y006048D02*
X015234Y006048D01*
X015302Y006206D02*
X013291Y006206D01*
X014610Y004938D02*
X016243Y004938D01*
X016397Y004780D02*
X014769Y004780D01*
X016206Y006840D02*
X016790Y006840D01*
X019695Y005889D02*
X021246Y005889D01*
X021458Y005889D02*
X021572Y005889D01*
X021572Y006048D02*
X019853Y006048D01*
X020012Y006206D02*
X021572Y006206D01*
X021572Y006365D02*
X020170Y006365D01*
X020329Y006523D02*
X021572Y006523D01*
X021572Y006682D02*
X020487Y006682D01*
X020646Y006840D02*
X021572Y006840D01*
X021503Y006999D02*
X020804Y006999D01*
X020963Y007157D02*
X021452Y007157D01*
X021467Y007316D02*
X021121Y007316D01*
X021280Y007474D02*
X021561Y007474D01*
X021438Y007633D02*
X029527Y007633D01*
X029527Y007791D02*
X021597Y007791D01*
X022144Y007474D02*
X027856Y007474D01*
X027912Y007531D02*
X027744Y007362D01*
X027652Y007141D01*
X027652Y006903D01*
X027744Y006682D01*
X027912Y006513D01*
X028133Y006422D01*
X028372Y006422D01*
X028592Y006513D01*
X028761Y006682D01*
X028852Y006903D01*
X028852Y007141D01*
X028761Y007362D01*
X028592Y007531D01*
X028372Y007622D01*
X028133Y007622D01*
X027912Y007531D01*
X027724Y007316D02*
X022237Y007316D01*
X022252Y007157D02*
X027659Y007157D01*
X027652Y006999D02*
X022202Y006999D01*
X022132Y006840D02*
X027678Y006840D01*
X027744Y006682D02*
X022132Y006682D01*
X022132Y006523D02*
X027903Y006523D01*
X027770Y006244D02*
X027652Y006127D01*
X027652Y005161D01*
X027770Y005044D01*
X028735Y005044D01*
X028852Y005161D01*
X028852Y006127D01*
X028735Y006244D01*
X027770Y006244D01*
X027731Y006206D02*
X022132Y006206D01*
X022132Y006048D02*
X027652Y006048D01*
X027652Y005889D02*
X022132Y005889D01*
X022132Y005731D02*
X027652Y005731D01*
X027652Y005572D02*
X022132Y005572D01*
X022132Y005414D02*
X027652Y005414D01*
X027652Y005255D02*
X022132Y005255D01*
X022132Y005097D02*
X027717Y005097D01*
X027686Y004463D02*
X029527Y004463D01*
X029527Y004621D02*
X025102Y004621D01*
X024803Y004621D02*
X022194Y004621D01*
X022252Y004463D02*
X024607Y004463D01*
X024552Y004304D02*
X022246Y004304D01*
X021852Y004400D02*
X021652Y004200D01*
X020102Y004200D01*
X019552Y004700D01*
X019552Y005350D01*
X019865Y005097D02*
X020553Y005097D01*
X020711Y005255D02*
X019946Y005255D01*
X019952Y005414D02*
X020870Y005414D01*
X020952Y005572D02*
X019893Y005572D01*
X019679Y005731D02*
X021017Y005731D01*
X021352Y005500D02*
X020452Y004600D01*
X020094Y004780D02*
X019881Y004780D01*
X019832Y004938D02*
X020225Y004938D01*
X021852Y004400D02*
X021852Y007200D01*
X022132Y006365D02*
X029527Y006365D01*
X029527Y006523D02*
X028602Y006523D01*
X028760Y006682D02*
X029527Y006682D01*
X029527Y006840D02*
X028826Y006840D01*
X028852Y006999D02*
X029527Y006999D01*
X029527Y007157D02*
X028846Y007157D01*
X028780Y007316D02*
X029527Y007316D01*
X029527Y007474D02*
X028649Y007474D01*
X028773Y006206D02*
X029527Y006206D01*
X029527Y006048D02*
X028852Y006048D01*
X028852Y005889D02*
X029527Y005889D01*
X029527Y005731D02*
X028852Y005731D01*
X028852Y005572D02*
X029527Y005572D01*
X029527Y005414D02*
X028852Y005414D01*
X028852Y005255D02*
X029527Y005255D01*
X029527Y005097D02*
X028788Y005097D01*
X029527Y004938D02*
X022132Y004938D01*
X022132Y004780D02*
X029527Y004780D01*
X029527Y004304D02*
X027844Y004304D01*
X028003Y004146D02*
X029527Y004146D01*
X029527Y003987D02*
X028161Y003987D01*
X028490Y003829D02*
X029527Y003829D01*
X029527Y003670D02*
X028586Y003670D01*
X028602Y003512D02*
X029527Y003512D01*
X029527Y003353D02*
X028554Y003353D01*
X028389Y003195D02*
X029527Y003195D01*
X029527Y003036D02*
X028322Y003036D01*
X028322Y002878D02*
X029527Y002878D01*
X029527Y002719D02*
X028322Y002719D01*
X028322Y002561D02*
X029495Y002561D01*
X029336Y002402D02*
X028322Y002402D01*
X028269Y002244D02*
X029178Y002244D01*
X029019Y002085D02*
X020363Y002085D01*
X020236Y002244D02*
X020196Y002244D01*
X020179Y002402D02*
X020182Y002402D01*
X020052Y002000D02*
X020552Y001500D01*
X020752Y001500D01*
X020369Y001134D02*
X020108Y001134D01*
X019771Y001134D02*
X019734Y001134D01*
X019734Y001293D02*
X019771Y001293D01*
X019771Y001451D02*
X019734Y001451D01*
X019397Y001134D02*
X019108Y001134D01*
X018771Y001134D02*
X018734Y001134D01*
X018734Y001293D02*
X018771Y001293D01*
X018771Y001451D02*
X018734Y001451D01*
X018397Y001134D02*
X018136Y001134D01*
X017977Y000976D02*
X020527Y000976D01*
X020977Y000976D02*
X022527Y000976D01*
X022533Y000970D02*
X022972Y000970D01*
X023252Y001250D01*
X023533Y000970D01*
X023972Y000970D01*
X024252Y001250D01*
X024533Y000970D01*
X024972Y000970D01*
X025252Y001250D01*
X025533Y000970D01*
X025972Y000970D01*
X026252Y001250D01*
X026533Y000970D01*
X026972Y000970D01*
X027252Y001250D01*
X027533Y000970D01*
X027972Y000970D01*
X028282Y001280D01*
X028282Y001720D01*
X027972Y002030D01*
X027533Y002030D01*
X027252Y001750D01*
X026972Y002030D01*
X026533Y002030D01*
X026252Y001750D01*
X025972Y002030D01*
X025533Y002030D01*
X025252Y001750D01*
X024972Y002030D01*
X024533Y002030D01*
X024252Y001750D01*
X023972Y002030D01*
X023533Y002030D01*
X023252Y001750D01*
X022972Y002030D01*
X022533Y002030D01*
X022222Y001720D01*
X022222Y001280D01*
X022533Y000970D01*
X022369Y001134D02*
X021136Y001134D01*
X021282Y001293D02*
X022222Y001293D01*
X022222Y001451D02*
X021282Y001451D01*
X021282Y001610D02*
X022222Y001610D01*
X022271Y001768D02*
X021234Y001768D01*
X021075Y001927D02*
X022429Y001927D01*
X022486Y002244D02*
X021269Y002244D01*
X021322Y002402D02*
X022294Y002402D01*
X022214Y002561D02*
X021322Y002561D01*
X021322Y002719D02*
X022182Y002719D01*
X022188Y002878D02*
X021322Y002878D01*
X021322Y003036D02*
X022254Y003036D01*
X022391Y003195D02*
X021322Y003195D01*
X020182Y003195D02*
X020076Y003195D01*
X019772Y003195D02*
X019732Y003195D01*
X019732Y003036D02*
X019772Y003036D01*
X019772Y002878D02*
X019732Y002878D01*
X019428Y003195D02*
X019076Y003195D01*
X019224Y003036D02*
X019281Y003036D01*
X018772Y003036D02*
X018732Y003036D01*
X018732Y002878D02*
X018772Y002878D01*
X018772Y003195D02*
X018732Y003195D01*
X018428Y003195D02*
X018114Y003195D01*
X018032Y003353D02*
X027046Y003353D01*
X027114Y003195D02*
X027182Y003195D01*
X026887Y003512D02*
X017937Y003512D01*
X018251Y003036D02*
X018281Y003036D01*
X020052Y002000D02*
X013552Y002000D01*
X012802Y002750D01*
X012552Y002750D01*
X011982Y002719D02*
X006432Y002719D01*
X006432Y002561D02*
X012014Y002561D01*
X012094Y002402D02*
X010334Y002402D01*
X010345Y002396D02*
X010264Y002438D01*
X010177Y002466D01*
X010087Y002480D01*
X010061Y002480D01*
X010061Y001920D01*
X010021Y001920D01*
X010021Y001880D01*
X009461Y001880D01*
X009461Y001854D01*
X009476Y001764D01*
X009504Y001677D01*
X009545Y001596D01*
X009599Y001522D01*
X009663Y001458D01*
X009737Y001404D01*
X009819Y001362D01*
X009906Y001334D01*
X009996Y001320D01*
X010021Y001320D01*
X010021Y001880D01*
X010061Y001880D01*
X010061Y001320D01*
X010087Y001320D01*
X010177Y001334D01*
X010264Y001362D01*
X010345Y001404D01*
X010419Y001458D01*
X010484Y001522D01*
X010537Y001596D01*
X010579Y001677D01*
X010607Y001764D01*
X010621Y001854D01*
X010621Y001880D01*
X010061Y001880D01*
X010061Y001920D01*
X010621Y001920D01*
X010621Y001946D01*
X010607Y002036D01*
X010579Y002123D01*
X010537Y002204D01*
X010484Y002278D01*
X010419Y002342D01*
X010345Y002396D01*
X010509Y002244D02*
X012023Y002244D01*
X011982Y002085D02*
X010591Y002085D01*
X010621Y001927D02*
X011982Y001927D01*
X011982Y001768D02*
X010608Y001768D01*
X010544Y001610D02*
X011982Y001610D01*
X011982Y001451D02*
X010410Y001451D01*
X010061Y001451D02*
X010021Y001451D01*
X010021Y001610D02*
X010061Y001610D01*
X010061Y001768D02*
X010021Y001768D01*
X010021Y001920D02*
X009461Y001920D01*
X009461Y001946D01*
X009476Y002036D01*
X009504Y002123D01*
X009545Y002204D01*
X009599Y002278D01*
X009663Y002342D01*
X009737Y002396D01*
X009819Y002438D01*
X009906Y002466D01*
X009996Y002480D01*
X010021Y002480D01*
X010021Y001920D01*
X010021Y001927D02*
X010061Y001927D01*
X010061Y002085D02*
X010021Y002085D01*
X010021Y002244D02*
X010061Y002244D01*
X010061Y002402D02*
X010021Y002402D01*
X009749Y002402D02*
X009244Y002402D01*
X009263Y002383D02*
X009146Y002500D01*
X008181Y002500D01*
X008063Y002383D01*
X008063Y001417D01*
X008181Y001300D01*
X009146Y001300D01*
X009263Y001417D01*
X009263Y002383D01*
X009263Y002244D02*
X009574Y002244D01*
X009492Y002085D02*
X009263Y002085D01*
X009263Y001927D02*
X009461Y001927D01*
X009475Y001768D02*
X009263Y001768D01*
X009263Y001610D02*
X009538Y001610D01*
X009673Y001451D02*
X009263Y001451D01*
X008063Y001451D02*
X006432Y001451D01*
X006432Y001610D02*
X008063Y001610D01*
X008063Y001768D02*
X006432Y001768D01*
X006432Y001927D02*
X008063Y001927D01*
X008063Y002085D02*
X006432Y002085D01*
X006432Y002244D02*
X008063Y002244D01*
X008083Y002402D02*
X006432Y002402D01*
X006432Y002878D02*
X011988Y002878D01*
X012054Y003036D02*
X006432Y003036D01*
X005872Y003036D02*
X002977Y003036D01*
X002977Y002878D02*
X005872Y002878D01*
X005872Y002719D02*
X002977Y002719D01*
X002977Y002561D02*
X005872Y002561D01*
X005872Y002402D02*
X002977Y002402D01*
X002977Y002244D02*
X005872Y002244D01*
X005872Y002085D02*
X002977Y002085D01*
X002977Y001927D02*
X005872Y001927D01*
X005872Y001768D02*
X002977Y001768D01*
X002977Y001610D02*
X005872Y001610D01*
X005872Y001451D02*
X002977Y001451D01*
X002977Y001293D02*
X005872Y001293D01*
X005922Y001134D02*
X002977Y001134D01*
X002977Y000976D02*
X006081Y000976D01*
X006239Y000817D02*
X002977Y000817D01*
X002977Y003195D02*
X005872Y003195D01*
X005872Y003353D02*
X002977Y003353D01*
X002977Y003512D02*
X005872Y003512D01*
X005872Y003670D02*
X002977Y003670D01*
X002977Y003829D02*
X005872Y003829D01*
X005872Y003987D02*
X004644Y003987D01*
X004592Y003935D02*
X004761Y004104D01*
X004852Y004325D01*
X004852Y004563D01*
X004761Y004784D01*
X004592Y004953D01*
X004372Y005044D01*
X004133Y005044D01*
X003912Y004953D01*
X003744Y004784D01*
X003652Y004563D01*
X003652Y004325D01*
X003744Y004104D01*
X003912Y003935D01*
X004133Y003844D01*
X004372Y003844D01*
X004592Y003935D01*
X004778Y004146D02*
X005872Y004146D01*
X005872Y004304D02*
X004844Y004304D01*
X004852Y004463D02*
X005872Y004463D01*
X005872Y004621D02*
X004829Y004621D01*
X004763Y004780D02*
X005872Y004780D01*
X005872Y004938D02*
X004607Y004938D01*
X004451Y005255D02*
X005872Y005255D01*
X005872Y005097D02*
X002977Y005097D01*
X002977Y005255D02*
X004053Y005255D01*
X004133Y005222D02*
X004372Y005222D01*
X004592Y005313D01*
X004761Y005482D01*
X004852Y005703D01*
X004852Y005941D01*
X004761Y006162D01*
X004592Y006331D01*
X004372Y006422D01*
X004133Y006422D01*
X003912Y006331D01*
X003744Y006162D01*
X003652Y005941D01*
X003652Y005703D01*
X003744Y005482D01*
X003912Y005313D01*
X004133Y005222D01*
X003812Y005414D02*
X002977Y005414D01*
X002977Y005572D02*
X003706Y005572D01*
X003652Y005731D02*
X002977Y005731D01*
X002977Y005889D02*
X003652Y005889D01*
X003696Y006048D02*
X002977Y006048D01*
X002977Y006206D02*
X003788Y006206D01*
X003994Y006365D02*
X002977Y006365D01*
X002977Y006523D02*
X005872Y006523D01*
X005872Y006365D02*
X004511Y006365D01*
X004717Y006206D02*
X005872Y006206D01*
X005872Y006048D02*
X004808Y006048D01*
X004852Y005889D02*
X005872Y005889D01*
X005872Y005731D02*
X004852Y005731D01*
X004798Y005572D02*
X005872Y005572D01*
X005872Y005414D02*
X004692Y005414D01*
X003898Y004938D02*
X002977Y004938D01*
X002977Y004780D02*
X003742Y004780D01*
X003676Y004621D02*
X002977Y004621D01*
X002977Y004463D02*
X003652Y004463D01*
X003661Y004304D02*
X002977Y004304D01*
X002977Y004146D02*
X003727Y004146D01*
X003861Y003987D02*
X002977Y003987D01*
X002977Y006682D02*
X003992Y006682D01*
X004030Y006662D02*
X004117Y006634D01*
X004207Y006620D01*
X004232Y006620D01*
X004232Y007180D01*
X003672Y007180D01*
X003672Y007154D01*
X003687Y007064D01*
X003715Y006977D01*
X003756Y006896D01*
X003810Y006822D01*
X003875Y006758D01*
X003948Y006704D01*
X004030Y006662D01*
X004232Y006682D02*
X004272Y006682D01*
X004272Y006620D02*
X004298Y006620D01*
X004388Y006634D01*
X004475Y006662D01*
X004556Y006704D01*
X004630Y006758D01*
X004695Y006822D01*
X004748Y006896D01*
X004790Y006977D01*
X004818Y007064D01*
X004832Y007154D01*
X004832Y007180D01*
X004272Y007180D01*
X004272Y006620D01*
X004272Y006840D02*
X004232Y006840D01*
X004232Y006999D02*
X004272Y006999D01*
X004272Y007157D02*
X004232Y007157D01*
X004232Y007180D02*
X004272Y007180D01*
X004272Y007220D01*
X004232Y007220D01*
X004232Y007180D01*
X004232Y007220D02*
X003672Y007220D01*
X003672Y007246D01*
X003687Y007336D01*
X003715Y007423D01*
X003756Y007504D01*
X003810Y007578D01*
X003875Y007642D01*
X003948Y007696D01*
X004030Y007738D01*
X004117Y007766D01*
X004207Y007780D01*
X004232Y007780D01*
X004232Y007220D01*
X004272Y007220D02*
X004272Y007780D01*
X004298Y007780D01*
X004388Y007766D01*
X004475Y007738D01*
X004556Y007696D01*
X004630Y007642D01*
X004695Y007578D01*
X004748Y007504D01*
X004790Y007423D01*
X004818Y007336D01*
X004832Y007246D01*
X004832Y007220D01*
X004272Y007220D01*
X004272Y007316D02*
X004232Y007316D01*
X004232Y007474D02*
X004272Y007474D01*
X004272Y007633D02*
X004232Y007633D01*
X004133Y007978D02*
X004372Y007978D01*
X004592Y008069D01*
X004761Y008238D01*
X004852Y008459D01*
X004852Y008697D01*
X004761Y008918D01*
X004592Y009087D01*
X004372Y009178D01*
X004133Y009178D01*
X003912Y009087D01*
X003744Y008918D01*
X003652Y008697D01*
X003652Y008459D01*
X003744Y008238D01*
X003912Y008069D01*
X004133Y007978D01*
X003874Y008108D02*
X002977Y008108D01*
X002977Y007950D02*
X005872Y007950D01*
X005872Y008108D02*
X004631Y008108D01*
X004773Y008267D02*
X005872Y008267D01*
X005872Y008425D02*
X004838Y008425D01*
X004852Y008584D02*
X005872Y008584D01*
X005872Y008742D02*
X004834Y008742D01*
X004768Y008901D02*
X005872Y008901D01*
X005872Y009059D02*
X004620Y009059D01*
X004735Y009356D02*
X004852Y009473D01*
X004852Y010439D01*
X004735Y010556D01*
X003770Y010556D01*
X003652Y010439D01*
X003652Y009473D01*
X003770Y009356D01*
X004735Y009356D01*
X004755Y009376D02*
X005872Y009376D01*
X005872Y009218D02*
X002977Y009218D01*
X002977Y009376D02*
X003749Y009376D01*
X003652Y009535D02*
X002977Y009535D01*
X002977Y009693D02*
X003652Y009693D01*
X003652Y009852D02*
X002977Y009852D01*
X002977Y010010D02*
X003652Y010010D01*
X003652Y010169D02*
X002977Y010169D01*
X002977Y010327D02*
X003652Y010327D01*
X003699Y010486D02*
X002977Y010486D01*
X002977Y010644D02*
X005231Y010644D01*
X005155Y010486D02*
X004806Y010486D01*
X004852Y010327D02*
X005152Y010327D01*
X005218Y010169D02*
X004852Y010169D01*
X004852Y010010D02*
X005449Y010010D01*
X005773Y009852D02*
X004852Y009852D01*
X004852Y009693D02*
X005872Y009693D01*
X005872Y009535D02*
X004852Y009535D01*
X003885Y009059D02*
X002977Y009059D01*
X002977Y008901D02*
X003737Y008901D01*
X003671Y008742D02*
X002977Y008742D01*
X002977Y008584D02*
X003652Y008584D01*
X003666Y008425D02*
X002977Y008425D01*
X002977Y008267D02*
X003732Y008267D01*
X003865Y007633D02*
X002977Y007633D01*
X002977Y007791D02*
X005872Y007791D01*
X005872Y007633D02*
X004640Y007633D01*
X004764Y007474D02*
X005872Y007474D01*
X005872Y007316D02*
X004821Y007316D01*
X004832Y007157D02*
X005872Y007157D01*
X005872Y006999D02*
X004797Y006999D01*
X004708Y006840D02*
X005872Y006840D01*
X005872Y006682D02*
X004512Y006682D01*
X003797Y006840D02*
X002977Y006840D01*
X002977Y006999D02*
X003708Y006999D01*
X003672Y007157D02*
X002977Y007157D01*
X002977Y007316D02*
X003683Y007316D01*
X003741Y007474D02*
X002977Y007474D01*
X005552Y010400D02*
X006152Y009900D01*
X006152Y001300D01*
X006452Y001000D01*
X015252Y001000D01*
X015752Y001500D01*
X016136Y001134D02*
X016369Y001134D01*
X016527Y000976D02*
X015977Y000976D01*
X015465Y000817D02*
X028527Y000817D01*
X028527Y000976D02*
X027977Y000976D01*
X028136Y001134D02*
X028527Y001134D01*
X028527Y001293D02*
X028282Y001293D01*
X028282Y001451D02*
X028527Y001451D01*
X028544Y001610D02*
X028282Y001610D01*
X028234Y001768D02*
X028702Y001768D01*
X028861Y001927D02*
X028075Y001927D01*
X027429Y001927D02*
X027075Y001927D01*
X027234Y001768D02*
X027271Y001768D01*
X027236Y002244D02*
X027019Y002244D01*
X026486Y002244D02*
X026019Y002244D01*
X026210Y002402D02*
X026294Y002402D01*
X025486Y002244D02*
X025019Y002244D01*
X025210Y002402D02*
X025294Y002402D01*
X025429Y001927D02*
X025075Y001927D01*
X025234Y001768D02*
X025271Y001768D01*
X025369Y001134D02*
X025136Y001134D01*
X024977Y000976D02*
X025527Y000976D01*
X025977Y000976D02*
X026527Y000976D01*
X026369Y001134D02*
X026136Y001134D01*
X026234Y001768D02*
X026271Y001768D01*
X026429Y001927D02*
X026075Y001927D01*
X027136Y001134D02*
X027369Y001134D01*
X027527Y000976D02*
X026977Y000976D01*
X024527Y000976D02*
X023977Y000976D01*
X024136Y001134D02*
X024369Y001134D01*
X024271Y001768D02*
X024234Y001768D01*
X024075Y001927D02*
X024429Y001927D01*
X024486Y002244D02*
X024019Y002244D01*
X024210Y002402D02*
X024294Y002402D01*
X024251Y003036D02*
X024254Y003036D01*
X024391Y003195D02*
X024114Y003195D01*
X023391Y003195D02*
X023114Y003195D01*
X023251Y003036D02*
X023254Y003036D01*
X023210Y002402D02*
X023294Y002402D01*
X023486Y002244D02*
X023019Y002244D01*
X023075Y001927D02*
X023429Y001927D01*
X023271Y001768D02*
X023234Y001768D01*
X023136Y001134D02*
X023369Y001134D01*
X023527Y000976D02*
X022977Y000976D01*
X025251Y003036D02*
X025254Y003036D01*
X025391Y003195D02*
X025114Y003195D01*
X026114Y003195D02*
X026391Y003195D01*
X026254Y003036D02*
X026251Y003036D01*
X027502Y004250D02*
X024952Y004250D01*
X027502Y004250D02*
X028202Y003550D01*
X017527Y000976D02*
X016977Y000976D01*
X017136Y001134D02*
X017369Y001134D01*
X011987Y001293D02*
X006556Y001293D01*
X009132Y007633D02*
X010273Y007633D01*
X010115Y007791D02*
X009132Y007791D01*
X009132Y007950D02*
X009957Y007950D01*
X009872Y008108D02*
X009132Y008108D01*
X009132Y008267D02*
X009872Y008267D01*
X009872Y008425D02*
X009225Y008425D01*
X009252Y008584D02*
X009872Y008584D01*
X010703Y009376D02*
X010690Y009409D01*
X010675Y009423D01*
X010665Y009441D01*
X010636Y009462D01*
X010611Y009487D01*
X010592Y009495D01*
X008452Y008584D02*
X006432Y008584D01*
X006432Y008742D02*
X008144Y008742D01*
X007956Y008901D02*
X006432Y008901D01*
X006432Y009059D02*
X007797Y009059D01*
X007639Y009218D02*
X006432Y009218D01*
X006432Y009376D02*
X007480Y009376D01*
X007322Y009535D02*
X006432Y009535D01*
X006432Y009693D02*
X007163Y009693D01*
X007005Y009852D02*
X006432Y009852D01*
X006411Y010010D02*
X006846Y010010D01*
X006688Y010169D02*
X006268Y010169D01*
X006077Y010327D02*
X006529Y010327D01*
X006381Y010486D02*
X005950Y010486D01*
X005874Y010644D02*
X006231Y010644D01*
X006082Y010803D02*
X002977Y010803D01*
X002977Y010961D02*
X005932Y010961D01*
X005782Y011120D02*
X002977Y011120D01*
X002977Y011278D02*
X005632Y011278D01*
X005483Y011437D02*
X002977Y011437D01*
X002977Y011595D02*
X005333Y011595D01*
X005183Y011754D02*
X002977Y011754D01*
X002977Y011912D02*
X005034Y011912D01*
X004884Y012071D02*
X002977Y012071D01*
X002977Y012229D02*
X004734Y012229D01*
X004585Y012388D02*
X002977Y012388D01*
X002977Y012546D02*
X004435Y012546D01*
X004285Y012705D02*
X002977Y012705D01*
X002977Y012863D02*
X004135Y012863D01*
X003986Y013022D02*
X002977Y013022D01*
X002977Y013180D02*
X003836Y013180D01*
X003686Y013339D02*
X002977Y013339D01*
X002977Y013497D02*
X003537Y013497D01*
X003387Y013656D02*
X002977Y013656D01*
X002977Y013814D02*
X003237Y013814D01*
X003101Y013973D02*
X002977Y013973D01*
X002977Y014131D02*
X003072Y014131D01*
X003072Y014290D02*
X002977Y014290D01*
X002977Y014448D02*
X003072Y014448D01*
X003072Y014607D02*
X002977Y014607D01*
X002977Y014765D02*
X003072Y014765D01*
X003072Y014924D02*
X002977Y014924D01*
X002977Y015082D02*
X003072Y015082D01*
X003072Y015241D02*
X002977Y015241D01*
X002977Y015399D02*
X003072Y015399D01*
X003072Y015558D02*
X002977Y015558D01*
X002977Y015716D02*
X003072Y015716D01*
X004880Y020947D02*
X004993Y020947D01*
X005182Y021105D02*
X004673Y021105D01*
X005723Y021105D02*
X006182Y021105D01*
X005993Y020947D02*
X005912Y020947D01*
D16*
X005552Y010400D03*
X007112Y009290D03*
X008852Y008570D03*
X010502Y007230D03*
X008852Y006200D03*
X007972Y003730D03*
X012902Y006100D03*
X015182Y006760D03*
X016102Y006450D03*
X016352Y006000D03*
X015552Y005800D03*
X014992Y004860D03*
X017452Y006300D03*
X017852Y006000D03*
X018252Y005700D03*
X018852Y005400D03*
X019552Y005350D03*
X020452Y004600D03*
X021352Y005500D03*
X021852Y004400D03*
X022502Y004370D03*
X024952Y004250D03*
X025782Y004820D03*
X028202Y003550D03*
X021852Y007200D03*
X025272Y008390D03*
X024252Y010200D03*
X024252Y010900D03*
X024252Y011700D03*
X024252Y012500D03*
X024252Y013300D03*
X025352Y014400D03*
X025352Y015480D03*
X025352Y016500D03*
X027352Y018300D03*
X028152Y015900D03*
X028152Y015000D03*
X028152Y014000D03*
X029052Y013000D03*
X025942Y012530D03*
X014502Y009150D03*
D17*
X014952Y009900D02*
X008952Y009900D01*
X008152Y010700D01*
X008152Y019000D01*
X008352Y019200D01*
X010202Y019200D01*
X010252Y019250D01*
X010252Y020500D01*
X011252Y020500D02*
X011252Y019250D01*
X011252Y018800D01*
X011052Y018600D01*
X008452Y018600D01*
X008352Y018500D01*
X008352Y010900D01*
X009152Y010100D01*
X015052Y010100D01*
X015752Y009400D01*
X015752Y006200D01*
X015952Y006000D01*
X016352Y006000D01*
X016102Y006450D02*
X016752Y006450D01*
X023652Y013300D01*
X024252Y013300D01*
X024252Y012500D02*
X023652Y012500D01*
X017452Y006300D01*
X017852Y006000D02*
X023652Y011700D01*
X024252Y011700D01*
X024252Y010900D02*
X023552Y010900D01*
X018452Y005900D01*
X018252Y005700D01*
X018852Y005400D02*
X023652Y010200D01*
X024252Y010200D01*
X017602Y003900D02*
X015752Y005800D01*
X015552Y005800D01*
X015552Y009300D01*
X014952Y009900D01*
X017602Y003900D02*
X026852Y003900D01*
X027752Y003000D01*
X027752Y002750D01*
X027752Y019250D02*
X027752Y020500D01*
X026752Y020500D02*
X026752Y019250D01*
X025752Y019250D02*
X025752Y020500D01*
X024752Y020500D02*
X024752Y019250D01*
X023752Y019250D02*
X023752Y020500D01*
X022752Y020500D02*
X022752Y019250D01*
X021752Y019250D02*
X021752Y020500D01*
X020752Y020500D02*
X020752Y019250D01*
X019252Y019250D02*
X019252Y020500D01*
X018252Y020500D02*
X018252Y019250D01*
X017252Y019250D02*
X017252Y020500D01*
X016252Y020500D02*
X016252Y019250D01*
X015252Y019250D02*
X015252Y020500D01*
X014252Y020500D02*
X014252Y019250D01*
X012252Y019250D02*
X012252Y020500D01*
M02*
