G75*
G70*
%OFA0B0*%
%FSLAX24Y24*%
%IPPOS*%
%LPD*%
%AMOC8*
5,1,8,0,0,1.08239X$1,22.5*
%
%ADD10OC8,0.0740*%
%ADD11C,0.0820*%
%ADD12C,0.0880*%
%ADD13C,0.0440*%
D10*
X013752Y001500D03*
X014752Y001500D03*
X015752Y001500D03*
X016752Y001500D03*
X017752Y001500D03*
X018752Y001500D03*
X019752Y001500D03*
X020752Y001500D03*
X022752Y001500D03*
X023752Y001500D03*
X024752Y001500D03*
X025752Y001500D03*
X026752Y001500D03*
X027752Y001500D03*
X027752Y020500D03*
X026752Y020500D03*
X025752Y020500D03*
X024752Y020500D03*
X023752Y020500D03*
X022752Y020500D03*
X021752Y020500D03*
X020752Y020500D03*
X019252Y020500D03*
X018252Y020500D03*
X017252Y020500D03*
X016252Y020500D03*
X015252Y020500D03*
X014252Y020500D03*
X013252Y020500D03*
X012252Y020500D03*
X011252Y020500D03*
X010252Y020500D03*
D11*
X010252Y019250D03*
X011252Y019250D03*
X012252Y019250D03*
X013252Y019250D03*
X014252Y019250D03*
X015252Y019250D03*
X016252Y019250D03*
X017252Y019250D03*
X018252Y019250D03*
X019252Y019250D03*
X020752Y019250D03*
X021752Y019250D03*
X022752Y019250D03*
X023752Y019250D03*
X024752Y019250D03*
X025752Y019250D03*
X026752Y019250D03*
X027752Y019250D03*
X007102Y014250D03*
X007102Y013250D03*
X007102Y012250D03*
X007102Y011250D03*
X012052Y004100D03*
X013052Y004100D03*
X014052Y004100D03*
X013752Y002750D03*
X014752Y002750D03*
X015752Y002750D03*
X016752Y002750D03*
X017752Y002750D03*
X018752Y002750D03*
X019752Y002750D03*
X020752Y002750D03*
X022752Y002750D03*
X023752Y002750D03*
X024752Y002750D03*
X025752Y002750D03*
X026752Y002750D03*
X027752Y002750D03*
X012552Y002750D03*
X012552Y001750D03*
X006452Y019600D03*
X005452Y019600D03*
X004452Y019600D03*
X004452Y020600D03*
X005452Y020600D03*
X006452Y020600D03*
D12*
X004252Y004444D03*
X004252Y005822D03*
X004252Y007200D03*
X004252Y008578D03*
X004252Y009956D03*
X004252Y016311D03*
X004252Y017689D03*
X008663Y001900D03*
X010041Y001900D03*
X028252Y005644D03*
X028252Y007022D03*
X028252Y008400D03*
X028252Y009778D03*
X028252Y011156D03*
D13*
X025952Y012500D03*
X024252Y012500D03*
X024252Y011700D03*
X024252Y010900D03*
X024252Y010200D03*
X024252Y013300D03*
X025352Y014400D03*
X025352Y015400D03*
X025352Y016400D03*
X025352Y017400D03*
X027352Y018300D03*
X028152Y015900D03*
X028152Y015000D03*
X028152Y014000D03*
X029052Y013000D03*
X021852Y007200D03*
X021352Y005500D03*
X020452Y004600D03*
X019552Y005350D03*
X018852Y005400D03*
X018252Y005700D03*
X017852Y006000D03*
X017452Y006300D03*
X016352Y006000D03*
X016152Y006400D03*
X015552Y005800D03*
X015152Y004800D03*
X012802Y006100D03*
X015152Y006800D03*
X013952Y009100D03*
X010452Y007250D03*
X009252Y006900D03*
X009852Y005300D03*
X005552Y010400D03*
X021852Y004400D03*
X024952Y004250D03*
X026252Y004800D03*
X028202Y003550D03*
M02*
