G75*
G70*
%OFA0B0*%
%FSLAX24Y24*%
%IPPOS*%
%LPD*%
%AMOC8*
5,1,8,0,0,1.08239X$1,22.5*
%
%ADD10C,0.0050*%
%ADD11C,0.0030*%
D10*
X003226Y002575D02*
X003126Y002675D01*
X003126Y003075D01*
X003226Y003176D01*
X003526Y003176D01*
X003526Y002575D01*
X003226Y002575D01*
X003724Y002575D02*
X004124Y002575D01*
X004124Y003176D01*
X004323Y003176D02*
X004723Y003176D01*
X004723Y002575D01*
X004323Y002575D01*
X004523Y002875D02*
X004723Y002875D01*
X004922Y003176D02*
X005122Y003176D01*
X005022Y003176D02*
X005022Y002575D01*
X005122Y002575D02*
X004922Y002575D01*
X005320Y002575D02*
X005320Y003176D01*
X005320Y002875D02*
X005720Y002875D01*
X005919Y002775D02*
X005919Y002675D01*
X006019Y002575D01*
X006219Y002575D01*
X006319Y002675D01*
X006219Y002875D02*
X006019Y002875D01*
X005919Y002775D01*
X005720Y002575D02*
X005720Y003176D01*
X005919Y003075D02*
X006019Y003176D01*
X006219Y003176D01*
X006319Y003075D01*
X006319Y002975D01*
X006219Y002875D01*
X007116Y002875D02*
X007216Y002775D01*
X007516Y002775D01*
X007516Y002575D02*
X007516Y003176D01*
X007216Y003176D01*
X007116Y003075D01*
X007116Y002875D01*
X007316Y002775D02*
X007116Y002575D01*
X007714Y002675D02*
X007714Y003075D01*
X007814Y003176D01*
X008014Y003176D01*
X008114Y003075D01*
X008114Y002675D01*
X008014Y002575D01*
X007814Y002575D01*
X007714Y002675D01*
X008313Y003176D02*
X008713Y003176D01*
X008513Y003176D02*
X008513Y002575D01*
X008911Y002675D02*
X008911Y003075D01*
X009011Y003176D01*
X009211Y003176D01*
X009311Y003075D01*
X009311Y002675D01*
X009211Y002575D01*
X009011Y002575D01*
X008911Y002675D01*
X009510Y002575D02*
X009510Y003176D01*
X009710Y002975D01*
X009910Y003176D01*
X009910Y002575D01*
X010707Y002575D02*
X010908Y002575D01*
X010807Y002575D02*
X010807Y002975D01*
X010908Y002975D01*
X011106Y002975D02*
X011306Y003176D01*
X011506Y002975D01*
X011506Y002575D01*
X011106Y002575D02*
X011106Y002975D01*
X011106Y002875D02*
X011506Y002875D01*
X010807Y003176D02*
X010807Y003276D01*
D11*
X003110Y001029D02*
X003057Y001029D01*
X003110Y001029D02*
X003217Y000922D01*
X003217Y000815D02*
X003217Y001029D01*
X003326Y000975D02*
X003379Y001029D01*
X003486Y001029D01*
X003539Y000975D01*
X003539Y000868D01*
X003486Y000815D01*
X003379Y000815D01*
X003326Y000868D01*
X003326Y000975D01*
X003648Y001029D02*
X003754Y001029D01*
X003701Y001082D02*
X003701Y000868D01*
X003648Y000815D01*
X003863Y000868D02*
X003863Y000975D01*
X003916Y001029D01*
X004023Y001029D01*
X004077Y000975D01*
X004077Y000868D01*
X004023Y000815D01*
X003916Y000815D01*
X003863Y000868D01*
X004185Y000815D02*
X004185Y000975D01*
X004239Y001029D01*
X004292Y000975D01*
X004292Y000815D01*
X004399Y000815D02*
X004399Y001029D01*
X004345Y001029D01*
X004292Y000975D01*
X004508Y000975D02*
X004721Y000975D01*
X004830Y001029D02*
X004990Y001029D01*
X005043Y000975D01*
X005043Y000868D01*
X004990Y000815D01*
X004830Y000815D01*
X004830Y001135D01*
X005205Y001135D02*
X005205Y000815D01*
X005258Y000815D02*
X005151Y000815D01*
X005367Y000922D02*
X005580Y000922D01*
X005580Y000975D02*
X005527Y001029D01*
X005420Y001029D01*
X005367Y000975D01*
X005367Y000922D01*
X005420Y000815D02*
X005527Y000815D01*
X005580Y000868D01*
X005580Y000975D01*
X005742Y001029D02*
X005742Y000815D01*
X005795Y000815D02*
X005689Y000815D01*
X005904Y000815D02*
X005904Y000975D01*
X005957Y001029D01*
X006064Y001029D01*
X006118Y000975D01*
X006226Y001029D02*
X006387Y001029D01*
X006440Y000975D01*
X006387Y000922D01*
X006280Y000922D01*
X006226Y000868D01*
X006280Y000815D01*
X006440Y000815D01*
X006549Y000815D02*
X006549Y001029D01*
X006762Y001029D02*
X006762Y000868D01*
X006709Y000815D01*
X006549Y000815D01*
X006871Y000815D02*
X007031Y000815D01*
X007084Y000868D01*
X007084Y000975D01*
X007031Y001029D01*
X006871Y001029D01*
X006871Y001135D02*
X006871Y000815D01*
X007193Y001029D02*
X007246Y001029D01*
X007353Y000922D01*
X007353Y000815D02*
X007353Y001029D01*
X007462Y000975D02*
X007462Y000815D01*
X007622Y000815D01*
X007675Y000868D01*
X007622Y000922D01*
X007462Y000922D01*
X007462Y000975D02*
X007515Y001029D01*
X007622Y001029D01*
X007784Y001135D02*
X007998Y000815D01*
X008106Y000815D02*
X008106Y000975D01*
X008160Y001029D01*
X008213Y000975D01*
X008213Y000815D01*
X008320Y000815D02*
X008320Y001029D01*
X008266Y001029D01*
X008213Y000975D01*
X008429Y000975D02*
X008482Y001029D01*
X008589Y001029D01*
X008642Y000975D01*
X008642Y000868D01*
X008589Y000815D01*
X008482Y000815D01*
X008429Y000868D01*
X008429Y000975D01*
X008751Y001029D02*
X008911Y001029D01*
X008964Y000975D01*
X008964Y000868D01*
X008911Y000815D01*
X008751Y000815D01*
X009072Y000815D02*
X009072Y000868D01*
X009126Y000868D01*
X009126Y000815D01*
X009072Y000815D01*
X009234Y000815D02*
X009394Y000815D01*
X009448Y000868D01*
X009448Y000975D01*
X009394Y001029D01*
X009234Y001029D01*
X009556Y000815D02*
X009663Y000815D01*
X009609Y000815D02*
X009609Y001029D01*
X009663Y001029D01*
X009771Y001029D02*
X009877Y001029D01*
X009824Y001082D02*
X009824Y000868D01*
X009771Y000815D01*
X009986Y000868D02*
X009986Y000975D01*
X010040Y001029D01*
X010146Y001029D01*
X010200Y000975D01*
X010200Y000868D01*
X010146Y000815D01*
X010040Y000815D01*
X009986Y000868D01*
X010309Y000868D02*
X010362Y000815D01*
X010522Y000815D01*
X010522Y001135D01*
X010522Y001029D02*
X010362Y001029D01*
X010309Y000975D01*
X010309Y000868D01*
X010631Y000868D02*
X010684Y000815D01*
X010791Y000815D01*
X010844Y000868D01*
X010844Y000975D01*
X010791Y001029D01*
X010684Y001029D01*
X010631Y000975D01*
X010631Y000868D01*
X010953Y001029D02*
X011006Y001029D01*
X011113Y000922D01*
X011113Y000815D02*
X011113Y001029D01*
X011222Y001029D02*
X011382Y001029D01*
X011435Y000975D01*
X011435Y000868D01*
X011382Y000815D01*
X011222Y000815D01*
X011544Y000815D02*
X011544Y000975D01*
X011597Y001029D01*
X011704Y001029D01*
X011704Y000922D02*
X011544Y000922D01*
X011544Y000815D02*
X011704Y000815D01*
X011757Y000868D01*
X011704Y000922D01*
X011866Y001135D02*
X012080Y000815D01*
X012402Y000815D02*
X012188Y001135D01*
X012510Y001029D02*
X012510Y000975D01*
X012563Y000975D01*
X012563Y001029D01*
X012510Y001029D01*
X012510Y000868D02*
X012510Y000815D01*
X012563Y000815D01*
X012563Y000868D01*
X012510Y000868D01*
X012672Y000868D02*
X012725Y000815D01*
X012885Y000815D01*
X012885Y000708D02*
X012885Y001029D01*
X012725Y001029D01*
X012672Y000975D01*
X012672Y000868D01*
X012993Y000815D02*
X013047Y000868D01*
X013047Y001082D01*
X013100Y001029D02*
X012993Y001029D01*
X013208Y001029D02*
X013315Y001029D01*
X013262Y001082D02*
X013262Y000868D01*
X013208Y000815D01*
X013424Y000815D02*
X013424Y000975D01*
X013477Y001029D01*
X013584Y001029D01*
X013637Y000975D01*
X013637Y001135D02*
X013637Y000815D01*
X009609Y001135D02*
X009609Y001189D01*
X006118Y001135D02*
X006118Y000815D01*
X005795Y001029D02*
X005742Y001029D01*
X005742Y001135D02*
X005742Y001189D01*
X005258Y001135D02*
X005205Y001135D01*
X003981Y001965D02*
X003874Y002179D01*
X003765Y002179D02*
X003658Y002285D01*
X003658Y001965D01*
X003552Y001965D02*
X003765Y001965D01*
X003981Y001965D02*
X004087Y002179D01*
X003443Y002018D02*
X003389Y002018D01*
X003389Y001965D01*
X003443Y001965D01*
X003443Y002018D01*
X003282Y002018D02*
X003068Y002232D01*
X003068Y002018D01*
X003122Y001965D01*
X003228Y001965D01*
X003282Y002018D01*
X003282Y002232D01*
X003228Y002285D01*
X003122Y002285D01*
X003068Y002232D01*
M02*
